G04*
G04 #@! TF.GenerationSoftware,Altium Limited,Altium Designer,22.11.1 (43)*
G04*
G04 Layer_Color=32896*
%FSLAX44Y44*%
%MOMM*%
G71*
G04*
G04 #@! TF.SameCoordinates,7B4F1FB2-3D38-43E9-9EC1-43097A92C870*
G04*
G04*
G04 #@! TF.FilePolarity,Positive*
G04*
G01*
G75*
%ADD77C,0.5080*%
%ADD96C,0.2032*%
%ADD97C,0.1800*%
%ADD98C,0.2286*%
G36*
X1029735Y437755D02*
X1028638D01*
Y436659D01*
X1014386D01*
Y435563D01*
X1002326D01*
Y434466D01*
X995748D01*
Y433370D01*
X989169D01*
Y432274D01*
X984784D01*
Y431177D01*
X980398D01*
Y430081D01*
X976013D01*
Y428984D01*
X971628D01*
Y427888D01*
X968338D01*
Y426792D01*
X965049D01*
Y425695D01*
X962857D01*
Y424599D01*
X959567D01*
Y423503D01*
X956279D01*
Y422406D01*
X954086D01*
Y421310D01*
X951893D01*
Y420214D01*
X948604D01*
Y419117D01*
X946411D01*
Y418021D01*
X944219D01*
Y416925D01*
X942026D01*
Y415828D01*
X939833D01*
Y414732D01*
X937640D01*
Y413635D01*
X935448D01*
Y412539D01*
X934351D01*
Y411443D01*
X932159D01*
Y410346D01*
X929966D01*
Y409250D01*
X928869D01*
Y408154D01*
X926677D01*
Y407057D01*
X924484D01*
Y405961D01*
X923388D01*
Y404865D01*
X921195D01*
Y403768D01*
X920098D01*
Y402672D01*
X917906D01*
Y401575D01*
X916809D01*
Y400479D01*
X915713D01*
Y399383D01*
X913520D01*
Y398286D01*
X912424D01*
Y397190D01*
X911328D01*
Y396094D01*
X909135D01*
Y394997D01*
X908038D01*
Y393901D01*
X906942D01*
Y392804D01*
X905846D01*
Y391708D01*
X903653D01*
Y390612D01*
X902557D01*
Y389515D01*
X901460D01*
Y388419D01*
X900364D01*
Y387323D01*
X899268D01*
Y386226D01*
X898171D01*
Y385130D01*
X897075D01*
Y384034D01*
X895978D01*
Y382937D01*
X894882D01*
Y381841D01*
X893786D01*
Y380745D01*
X892690D01*
Y379648D01*
X891593D01*
Y378552D01*
X890497D01*
Y377455D01*
X889400D01*
Y376359D01*
X888304D01*
Y375263D01*
X887208D01*
Y374166D01*
X886111D01*
Y373070D01*
X885015D01*
Y371974D01*
X883919D01*
Y370877D01*
X882822D01*
Y368685D01*
X881726D01*
Y367588D01*
X880630D01*
Y366492D01*
X879533D01*
Y365396D01*
X878437D01*
Y364299D01*
X877340D01*
Y362106D01*
X876244D01*
Y361010D01*
X875148D01*
Y359914D01*
X874051D01*
Y357721D01*
X872955D01*
Y356625D01*
X871859D01*
Y354432D01*
X870762D01*
Y353335D01*
X869666D01*
Y352239D01*
X868569D01*
Y350046D01*
X867473D01*
Y347854D01*
X866377D01*
Y346757D01*
X865280D01*
Y344565D01*
X864184D01*
Y343468D01*
X863088D01*
Y341275D01*
X861991D01*
Y339083D01*
X860895D01*
Y336890D01*
X859799D01*
Y334697D01*
X858702D01*
Y332505D01*
X857606D01*
Y330312D01*
X856509D01*
Y328119D01*
X855413D01*
Y325927D01*
X854317D01*
Y323734D01*
X853220D01*
Y320445D01*
X852124D01*
Y318252D01*
X851028D01*
Y316059D01*
X849931D01*
Y312770D01*
X848835D01*
Y309481D01*
X847739D01*
Y306192D01*
X846642D01*
Y302903D01*
X845546D01*
Y299614D01*
X844450D01*
Y295228D01*
X843353D01*
Y290843D01*
X842257D01*
Y286458D01*
X841161D01*
Y280976D01*
X840064D01*
Y274398D01*
X838968D01*
Y263434D01*
X837871D01*
Y256856D01*
X840064D01*
Y257952D01*
X841161D01*
Y259048D01*
X842257D01*
Y260145D01*
X843353D01*
Y261241D01*
X844450D01*
Y262337D01*
X845546D01*
Y263434D01*
X846642D01*
Y264530D01*
X847739D01*
Y265627D01*
X848835D01*
Y266723D01*
X849931D01*
Y267819D01*
X851028D01*
Y268916D01*
X852124D01*
Y270012D01*
X853220D01*
Y271108D01*
X854317D01*
Y270012D01*
X855413D01*
Y268916D01*
X856509D01*
Y266723D01*
X855413D01*
Y265627D01*
X854317D01*
Y264530D01*
X853220D01*
Y263434D01*
X852124D01*
Y262337D01*
X851028D01*
Y261241D01*
X848835D01*
Y260145D01*
X847739D01*
Y259048D01*
X846642D01*
Y257952D01*
X845546D01*
Y256856D01*
X844450D01*
Y255759D01*
X843353D01*
Y254663D01*
X842257D01*
Y253567D01*
X841161D01*
Y252470D01*
X840064D01*
Y251374D01*
X838968D01*
Y250278D01*
X837871D01*
Y249181D01*
X836775D01*
Y248085D01*
X834582D01*
Y249181D01*
X833486D01*
Y250278D01*
X832390D01*
Y251374D01*
X831293D01*
Y252470D01*
X830197D01*
Y253567D01*
X829100D01*
Y255759D01*
X828004D01*
Y256856D01*
X826908D01*
Y257952D01*
X825811D01*
Y259048D01*
X824715D01*
Y260145D01*
X823619D01*
Y262337D01*
X822522D01*
Y263434D01*
X821426D01*
Y264530D01*
X820330D01*
Y265627D01*
X819233D01*
Y266723D01*
X818137D01*
Y267819D01*
X817040D01*
Y271108D01*
X818137D01*
Y272205D01*
X820330D01*
Y271108D01*
X821426D01*
Y270012D01*
X822522D01*
Y268916D01*
X823619D01*
Y267819D01*
X824715D01*
Y266723D01*
X825811D01*
Y264530D01*
X826908D01*
Y263434D01*
X828004D01*
Y262337D01*
X829100D01*
Y261241D01*
X830197D01*
Y259048D01*
X831293D01*
Y257952D01*
X833486D01*
Y264530D01*
X834582D01*
Y274398D01*
X835679D01*
Y280976D01*
X836775D01*
Y286458D01*
X837871D01*
Y291939D01*
X838968D01*
Y296325D01*
X840064D01*
Y300710D01*
X841161D01*
Y303999D01*
X842257D01*
Y307288D01*
X843353D01*
Y310577D01*
X844450D01*
Y313867D01*
X845546D01*
Y316059D01*
X846642D01*
Y319348D01*
X847739D01*
Y321541D01*
X848835D01*
Y324830D01*
X849931D01*
Y327023D01*
X851028D01*
Y329216D01*
X852124D01*
Y331408D01*
X853220D01*
Y333601D01*
X854317D01*
Y335794D01*
X855413D01*
Y337986D01*
X856509D01*
Y340179D01*
X857606D01*
Y342372D01*
X858702D01*
Y344565D01*
X859799D01*
Y345661D01*
X860895D01*
Y347854D01*
X861991D01*
Y348950D01*
X863088D01*
Y351143D01*
X864184D01*
Y353335D01*
X865280D01*
Y354432D01*
X866377D01*
Y356625D01*
X867473D01*
Y357721D01*
X868569D01*
Y358817D01*
X869666D01*
Y361010D01*
X870762D01*
Y362106D01*
X871859D01*
Y363203D01*
X872955D01*
Y365396D01*
X874051D01*
Y366492D01*
X875148D01*
Y367588D01*
X876244D01*
Y368685D01*
X877340D01*
Y370877D01*
X878437D01*
Y371974D01*
X879533D01*
Y373070D01*
X880630D01*
Y374166D01*
X881726D01*
Y375263D01*
X882822D01*
Y377455D01*
X883919D01*
Y378552D01*
X885015D01*
Y379648D01*
X886111D01*
Y380745D01*
X887208D01*
Y381841D01*
X888304D01*
Y382937D01*
X889400D01*
Y384034D01*
X890497D01*
Y385130D01*
X891593D01*
Y386226D01*
X892690D01*
Y387323D01*
X893786D01*
Y388419D01*
X894882D01*
Y389515D01*
X895978D01*
Y390612D01*
X897075D01*
Y391708D01*
X899268D01*
Y392804D01*
X900364D01*
Y393901D01*
X901460D01*
Y394997D01*
X902557D01*
Y396094D01*
X903653D01*
Y397190D01*
X904749D01*
Y398286D01*
X906942D01*
Y399383D01*
X908038D01*
Y400479D01*
X909135D01*
Y401575D01*
X911328D01*
Y402672D01*
X912424D01*
Y403768D01*
X913520D01*
Y404865D01*
X915713D01*
Y405961D01*
X916809D01*
Y407057D01*
X919002D01*
Y408154D01*
X920098D01*
Y409250D01*
X921195D01*
Y410346D01*
X923388D01*
Y411443D01*
X925580D01*
Y412539D01*
X926677D01*
Y413635D01*
X928869D01*
Y414732D01*
X931062D01*
Y415828D01*
X932159D01*
Y416925D01*
X934351D01*
Y418021D01*
X936544D01*
Y419117D01*
X938737D01*
Y420214D01*
X940929D01*
Y421310D01*
X943122D01*
Y422406D01*
X945315D01*
Y423503D01*
X947508D01*
Y424599D01*
X949700D01*
Y425695D01*
X952989D01*
Y426792D01*
X955182D01*
Y427888D01*
X958471D01*
Y428984D01*
X960664D01*
Y430081D01*
X963953D01*
Y431177D01*
X967242D01*
Y432274D01*
X971628D01*
Y433370D01*
X974917D01*
Y434466D01*
X979302D01*
Y435563D01*
X982591D01*
Y436659D01*
X988073D01*
Y437755D01*
X994651D01*
Y438852D01*
X1002326D01*
Y439948D01*
X1011096D01*
Y441045D01*
X1029735D01*
Y437755D01*
D02*
G37*
G36*
X1056047Y457490D02*
X1057144D01*
Y456394D01*
X1058240D01*
Y454201D01*
X1057144D01*
Y453104D01*
X1056047D01*
Y452008D01*
X1053855D01*
Y450912D01*
X1052758D01*
Y449815D01*
X1051662D01*
Y448719D01*
X1050565D01*
Y447623D01*
X1049469D01*
Y446526D01*
X1048373D01*
Y445430D01*
X1046180D01*
Y444333D01*
X1045084D01*
Y443237D01*
X1043987D01*
Y441045D01*
X1054951D01*
Y439948D01*
X1063722D01*
Y438852D01*
X1069204D01*
Y437755D01*
X1075782D01*
Y436659D01*
X1080167D01*
Y435563D01*
X1084553D01*
Y434466D01*
X1087842D01*
Y433370D01*
X1091131D01*
Y432274D01*
X1094420D01*
Y431177D01*
X1097709D01*
Y430081D01*
X1100998D01*
Y428984D01*
X1104287D01*
Y427888D01*
X1106480D01*
Y426792D01*
X1109769D01*
Y425695D01*
X1111962D01*
Y424599D01*
X1114155D01*
Y423503D01*
X1116347D01*
Y422406D01*
X1118540D01*
Y421310D01*
X1120733D01*
Y420214D01*
X1122925D01*
Y419117D01*
X1125118D01*
Y418021D01*
X1127311D01*
Y416925D01*
X1129504D01*
Y415828D01*
X1130600D01*
Y414732D01*
X1132793D01*
Y413635D01*
X1134985D01*
Y412539D01*
X1136082D01*
Y411443D01*
X1138275D01*
Y410346D01*
X1139371D01*
Y409250D01*
X1141564D01*
Y408154D01*
X1142660D01*
Y407057D01*
X1144853D01*
Y405961D01*
X1145949D01*
Y404865D01*
X1147045D01*
Y403768D01*
X1149238D01*
Y402672D01*
X1150334D01*
Y401575D01*
X1151431D01*
Y400479D01*
X1153624D01*
Y399383D01*
X1154720D01*
Y398286D01*
X1155816D01*
Y397190D01*
X1156913D01*
Y396094D01*
X1159105D01*
Y394997D01*
X1160202D01*
Y393901D01*
X1161298D01*
Y392804D01*
X1162394D01*
Y391708D01*
X1163491D01*
Y390612D01*
X1164587D01*
Y389515D01*
X1165684D01*
Y388419D01*
X1166780D01*
Y387323D01*
X1167876D01*
Y386226D01*
X1168973D01*
Y385130D01*
X1170069D01*
Y384034D01*
X1171165D01*
Y382937D01*
X1172262D01*
Y381841D01*
X1173358D01*
Y380745D01*
X1174454D01*
Y379648D01*
X1175551D01*
Y378552D01*
X1176647D01*
Y377455D01*
X1177744D01*
Y376359D01*
X1178840D01*
Y375263D01*
X1179936D01*
Y374166D01*
X1181033D01*
Y371974D01*
X1182129D01*
Y370877D01*
X1183225D01*
Y369781D01*
X1184322D01*
Y368685D01*
X1185418D01*
Y367588D01*
X1186514D01*
Y365396D01*
X1187611D01*
Y364299D01*
X1188707D01*
Y363203D01*
X1189803D01*
Y362106D01*
Y361010D01*
X1190900D01*
Y359914D01*
X1191996D01*
Y357721D01*
X1193092D01*
Y356625D01*
X1194189D01*
Y354432D01*
X1195285D01*
Y353335D01*
X1196382D01*
Y351143D01*
X1197478D01*
Y350046D01*
X1198574D01*
Y347854D01*
X1199671D01*
Y346757D01*
X1200767D01*
Y344565D01*
X1201863D01*
Y342372D01*
X1202960D01*
Y340179D01*
X1204056D01*
Y339083D01*
X1205153D01*
Y336890D01*
X1206249D01*
Y334697D01*
X1207345D01*
Y332505D01*
X1208442D01*
Y330312D01*
X1209538D01*
Y327023D01*
X1210634D01*
Y324830D01*
X1211731D01*
Y322637D01*
X1212827D01*
Y319348D01*
X1213923D01*
Y317156D01*
X1215020D01*
Y313867D01*
X1216116D01*
Y310577D01*
X1217213D01*
Y307288D01*
X1218309D01*
Y303999D01*
X1219405D01*
Y300710D01*
X1220502D01*
Y296325D01*
X1221598D01*
Y291939D01*
X1222694D01*
Y287554D01*
X1223791D01*
Y280976D01*
X1224887D01*
Y274398D01*
X1225983D01*
Y265627D01*
X1227080D01*
Y245892D01*
X1225983D01*
Y244796D01*
X1223791D01*
Y245892D01*
X1222694D01*
Y262337D01*
X1221598D01*
Y273301D01*
X1220502D01*
Y279879D01*
X1219405D01*
Y286458D01*
X1218309D01*
Y290843D01*
X1217213D01*
Y295228D01*
X1216116D01*
Y299614D01*
X1215020D01*
Y302903D01*
X1213923D01*
Y306192D01*
X1212827D01*
Y309481D01*
X1211731D01*
Y312770D01*
X1210634D01*
Y316059D01*
X1209538D01*
Y318252D01*
X1208442D01*
Y321541D01*
X1207345D01*
Y323734D01*
X1206249D01*
Y325927D01*
X1205153D01*
Y328119D01*
X1204056D01*
Y330312D01*
X1202960D01*
Y332505D01*
X1201863D01*
Y335794D01*
X1200767D01*
Y336890D01*
X1199671D01*
Y339083D01*
X1198574D01*
Y341275D01*
X1197478D01*
Y343468D01*
X1196382D01*
Y344565D01*
X1195285D01*
Y346757D01*
X1194189D01*
Y348950D01*
X1193092D01*
Y350046D01*
X1191996D01*
Y352239D01*
X1190900D01*
Y353335D01*
X1189803D01*
Y355528D01*
X1188707D01*
Y356625D01*
X1187611D01*
Y357721D01*
X1186514D01*
Y359914D01*
X1185418D01*
Y361010D01*
X1184322D01*
Y362106D01*
X1183225D01*
Y364299D01*
X1182129D01*
Y365396D01*
X1181033D01*
Y366492D01*
X1179936D01*
Y367588D01*
X1178840D01*
Y369781D01*
X1177744D01*
Y370877D01*
X1176647D01*
Y371974D01*
X1175551D01*
Y373070D01*
X1174454D01*
Y374166D01*
X1173358D01*
Y375263D01*
X1172262D01*
Y377455D01*
X1171165D01*
Y378552D01*
X1170069D01*
Y379648D01*
X1168973D01*
Y380745D01*
X1167876D01*
Y381841D01*
X1166780D01*
Y382937D01*
X1165684D01*
Y384034D01*
X1164587D01*
Y385130D01*
X1163491D01*
Y386226D01*
X1162394D01*
Y387323D01*
X1160202D01*
Y388419D01*
X1159105D01*
Y389515D01*
X1158009D01*
Y390612D01*
X1156913D01*
Y391708D01*
X1155816D01*
Y392804D01*
X1154720D01*
Y393901D01*
X1152527D01*
Y394997D01*
X1151431D01*
Y396094D01*
X1150334D01*
Y397190D01*
X1149238D01*
Y398286D01*
X1147045D01*
Y399383D01*
X1145949D01*
Y400479D01*
X1144853D01*
Y401575D01*
X1142660D01*
Y402672D01*
X1141564D01*
Y403768D01*
X1140467D01*
Y404865D01*
X1138275D01*
Y405961D01*
X1137178D01*
Y407057D01*
X1134985D01*
Y408154D01*
X1132793D01*
Y409250D01*
X1131696D01*
Y410346D01*
X1129504D01*
Y411443D01*
X1127311D01*
Y412539D01*
X1126215D01*
Y413635D01*
X1124022D01*
Y414732D01*
X1121829D01*
Y415828D01*
X1119636D01*
Y416925D01*
X1117444D01*
Y418021D01*
X1115251D01*
Y419117D01*
X1113058D01*
Y420214D01*
X1110865D01*
Y421310D01*
X1107576D01*
Y422406D01*
X1105384D01*
Y423503D01*
X1103191D01*
Y424599D01*
X1099902D01*
Y425695D01*
X1096613D01*
Y426792D01*
X1093324D01*
Y427888D01*
X1091131D01*
Y428984D01*
X1086746D01*
Y430081D01*
X1082360D01*
Y431177D01*
X1079071D01*
Y432274D01*
X1073589D01*
Y433370D01*
X1068107D01*
Y434466D01*
X1062626D01*
Y435563D01*
X1053855D01*
Y436659D01*
X1042891D01*
Y435563D01*
X1043987D01*
Y434466D01*
X1045084D01*
Y433370D01*
X1046180D01*
Y432274D01*
X1047276D01*
Y431177D01*
X1048373D01*
Y430081D01*
X1049469D01*
Y428984D01*
X1050565D01*
Y427888D01*
X1051662D01*
Y426792D01*
X1052758D01*
Y425695D01*
X1053855D01*
Y424599D01*
X1054951D01*
Y423503D01*
X1056047D01*
Y420214D01*
X1054951D01*
Y419117D01*
X1052758D01*
Y420214D01*
X1051662D01*
Y421310D01*
X1050565D01*
Y422406D01*
X1049469D01*
Y423503D01*
X1048373D01*
Y424599D01*
X1047276D01*
Y425695D01*
X1046180D01*
Y426792D01*
X1045084D01*
Y427888D01*
X1043987D01*
Y428984D01*
X1042891D01*
Y430081D01*
X1041795D01*
Y431177D01*
X1040698D01*
Y432274D01*
X1039602D01*
Y433370D01*
X1038506D01*
Y434466D01*
X1037409D01*
Y435563D01*
X1036313D01*
Y436659D01*
X1035217D01*
Y437755D01*
X1034120D01*
Y441045D01*
X1035217D01*
Y442141D01*
X1036313D01*
Y443237D01*
X1038506D01*
Y444333D01*
X1039602D01*
Y445430D01*
X1040698D01*
Y446526D01*
X1041795D01*
Y447623D01*
X1042891D01*
Y448719D01*
X1043987D01*
Y449815D01*
X1046180D01*
Y450912D01*
X1047276D01*
Y452008D01*
X1048373D01*
Y453104D01*
X1049469D01*
Y454201D01*
X1051662D01*
Y455297D01*
X1052758D01*
Y456394D01*
X1053855D01*
Y457490D01*
X1054951D01*
Y458586D01*
X1056047D01*
Y457490D01*
D02*
G37*
G36*
X1070300Y256856D02*
X1073589D01*
Y255759D01*
X1075782D01*
Y254663D01*
X1076878D01*
Y253567D01*
X1077975D01*
Y252470D01*
X1079071D01*
Y250278D01*
X1080167D01*
Y245892D01*
X1081264D01*
Y242603D01*
X1080167D01*
Y239314D01*
X1079071D01*
Y237121D01*
X1077975D01*
Y234928D01*
X1076878D01*
Y233832D01*
X1074686D01*
Y232736D01*
X1073589D01*
Y231639D01*
X1070300D01*
Y230543D01*
X1059336D01*
Y231639D01*
X1056047D01*
Y232736D01*
X1052758D01*
Y230543D01*
X1048373D01*
Y231639D01*
X1047276D01*
Y243699D01*
X1048373D01*
Y244796D01*
X1063722D01*
Y239314D01*
X1054951D01*
Y238218D01*
X1056047D01*
Y237121D01*
X1058240D01*
Y236025D01*
X1069204D01*
Y237121D01*
X1071396D01*
Y238218D01*
X1073589D01*
Y240410D01*
X1074686D01*
Y242603D01*
X1075782D01*
Y245892D01*
X1074686D01*
Y249181D01*
X1073589D01*
Y250278D01*
X1072493D01*
Y251374D01*
X1070300D01*
Y252470D01*
X1058240D01*
Y251374D01*
X1056047D01*
Y250278D01*
X1054951D01*
Y249181D01*
X1053855D01*
Y246989D01*
X1048373D01*
Y250278D01*
X1049469D01*
Y252470D01*
X1050565D01*
Y253567D01*
X1051662D01*
Y254663D01*
X1052758D01*
Y255759D01*
X1054951D01*
Y256856D01*
X1057144D01*
Y257952D01*
X1070300D01*
Y256856D01*
D02*
G37*
G36*
X954086Y243699D02*
X955182D01*
Y242603D01*
X954086D01*
Y237121D01*
X952989D01*
Y234928D01*
X951893D01*
Y233832D01*
X950797D01*
Y232736D01*
X948604D01*
Y231639D01*
X945315D01*
Y230543D01*
X925580D01*
Y231639D01*
X922291D01*
Y232736D01*
X921195D01*
Y233832D01*
X920098D01*
Y234928D01*
X919002D01*
Y236025D01*
X917906D01*
Y238218D01*
X916809D01*
Y257952D01*
X922291D01*
Y239314D01*
X923388D01*
Y238218D01*
X924484D01*
Y237121D01*
X925580D01*
Y236025D01*
X945315D01*
Y237121D01*
X947508D01*
Y238218D01*
X948604D01*
Y241507D01*
X949700D01*
Y257952D01*
X954086D01*
Y243699D01*
D02*
G37*
G36*
X1026446Y256856D02*
X1029735D01*
Y255759D01*
X1031927D01*
Y254663D01*
X1033024D01*
Y253567D01*
X1034120D01*
Y252470D01*
X1035217D01*
Y250278D01*
X1036313D01*
Y248085D01*
X1037409D01*
Y240410D01*
X1036313D01*
Y238218D01*
X1035217D01*
Y236025D01*
X1034120D01*
Y234928D01*
X1033024D01*
Y233832D01*
X1031927D01*
Y232736D01*
X1029735D01*
Y231639D01*
X1027542D01*
Y232736D01*
X1028638D01*
Y233832D01*
X1030831D01*
Y234928D01*
X1031927D01*
Y236025D01*
X1033024D01*
Y237121D01*
X1034120D01*
Y239314D01*
X1035217D01*
Y242603D01*
X1036313D01*
Y245892D01*
X1035217D01*
Y249181D01*
X1034120D01*
Y251374D01*
X1033024D01*
Y252470D01*
X1031927D01*
Y253567D01*
X1030831D01*
Y254663D01*
X1028638D01*
Y255759D01*
X1018771D01*
Y254663D01*
X1017675D01*
Y253567D01*
X1015482D01*
Y252470D01*
X1014386D01*
Y254663D01*
X1016578D01*
Y255759D01*
X1017675D01*
Y256856D01*
X1022060D01*
Y257952D01*
X1026446D01*
Y256856D01*
D02*
G37*
G36*
X1193092Y231639D02*
X1191996D01*
Y230543D01*
X1187611D01*
Y241507D01*
X1172262D01*
Y246989D01*
X1186514D01*
Y248085D01*
X1187611D01*
Y252470D01*
X1160202D01*
Y257952D01*
X1193092D01*
Y231639D01*
D02*
G37*
G36*
X1149238Y256856D02*
X1150334D01*
Y231639D01*
X1149238D01*
Y230543D01*
X1144853D01*
Y237121D01*
X1143756D01*
Y238218D01*
X1126215D01*
Y237121D01*
X1125118D01*
Y236025D01*
X1124022D01*
Y233832D01*
X1122925D01*
Y232736D01*
X1121829D01*
Y230543D01*
X1116347D01*
Y231639D01*
Y233832D01*
X1117444D01*
Y236025D01*
X1118540D01*
Y237121D01*
X1119636D01*
Y240410D01*
X1118540D01*
Y241507D01*
X1117444D01*
Y243699D01*
X1116347D01*
Y252470D01*
X1117444D01*
Y253567D01*
X1118540D01*
Y254663D01*
X1119636D01*
Y255759D01*
X1120733D01*
Y256856D01*
X1122925D01*
Y257952D01*
X1149238D01*
Y256856D01*
D02*
G37*
G36*
X1105384Y252470D02*
X1100998D01*
Y251374D01*
X1099902D01*
Y237121D01*
X1100998D01*
Y236025D01*
X1105384D01*
Y230543D01*
X1090034D01*
Y231639D01*
Y236025D01*
X1094420D01*
Y237121D01*
X1095516D01*
Y251374D01*
X1094420D01*
Y252470D01*
X1090034D01*
Y257952D01*
X1105384D01*
Y252470D01*
D02*
G37*
G36*
X1014386Y250278D02*
X1013289D01*
Y249181D01*
Y248085D01*
X1012193D01*
Y239314D01*
X1013289D01*
Y238218D01*
X1014386D01*
Y236025D01*
X1015482D01*
Y234928D01*
X1016578D01*
Y233832D01*
X1018771D01*
Y232736D01*
X1023157D01*
Y240410D01*
X1022060D01*
Y241507D01*
X1020964D01*
Y243699D01*
X1019867D01*
Y245892D01*
X1020964D01*
Y249181D01*
X1023157D01*
Y248085D01*
X1022060D01*
Y245892D01*
X1025349D01*
Y249181D01*
X1026446D01*
Y245892D01*
X1027542D01*
Y242603D01*
X1026446D01*
Y240410D01*
X1024253D01*
Y238218D01*
Y237121D01*
Y231639D01*
X1022060D01*
Y230543D01*
X1020964D01*
Y231639D01*
X1017675D01*
Y232736D01*
X1016578D01*
Y233832D01*
X1015482D01*
Y234928D01*
X1014386D01*
Y236025D01*
X1013289D01*
Y237121D01*
X1012193D01*
Y238218D01*
Y239314D01*
X1011096D01*
Y249181D01*
X1012193D01*
Y251374D01*
X1013289D01*
Y252470D01*
X1014386D01*
Y250278D01*
D02*
G37*
G36*
X999036Y230543D02*
X994651D01*
Y231639D01*
X993555D01*
Y238218D01*
X976013D01*
Y237121D01*
X973820D01*
Y234928D01*
X972724D01*
Y232736D01*
X971628D01*
Y230543D01*
X965049D01*
Y231639D01*
X966146D01*
Y233832D01*
X967242D01*
Y236025D01*
X968338D01*
Y238218D01*
X969435D01*
Y240410D01*
X968338D01*
Y241507D01*
X967242D01*
Y242603D01*
X966146D01*
Y246989D01*
X965049D01*
Y249181D01*
X966146D01*
Y252470D01*
X967242D01*
Y254663D01*
X968338D01*
Y255759D01*
X970531D01*
Y256856D01*
X972724D01*
Y257952D01*
X999036D01*
Y230543D01*
D02*
G37*
G36*
X900364Y256856D02*
X902557D01*
Y255759D01*
X903653D01*
Y254663D01*
X904749D01*
Y252470D01*
X905846D01*
Y246989D01*
X904749D01*
Y244796D01*
X903653D01*
Y243699D01*
X902557D01*
Y242603D01*
X899268D01*
Y241507D01*
X874051D01*
Y240410D01*
X872955D01*
Y238218D01*
X874051D01*
Y237121D01*
X875148D01*
Y236025D01*
X899268D01*
Y237121D01*
X905846D01*
Y234928D01*
X904749D01*
Y233832D01*
X903653D01*
Y232736D01*
X902557D01*
Y231639D01*
X900364D01*
Y230543D01*
X874051D01*
Y231639D01*
X871859D01*
Y232736D01*
X869666D01*
Y234928D01*
X868569D01*
Y238218D01*
X867473D01*
Y240410D01*
X868569D01*
Y243699D01*
X869666D01*
Y244796D01*
X870762D01*
Y245892D01*
X872955D01*
Y246989D01*
X899268D01*
Y248085D01*
X900364D01*
Y251374D01*
X899268D01*
Y252470D01*
X874051D01*
Y251374D01*
X872955D01*
Y250278D01*
X867473D01*
Y252470D01*
X868569D01*
Y254663D01*
X869666D01*
Y255759D01*
X870762D01*
Y256856D01*
X872955D01*
Y257952D01*
X900364D01*
Y256856D01*
D02*
G37*
G36*
X1225983Y240410D02*
X1227080D01*
Y239314D01*
X1228176D01*
Y237121D01*
X1229273D01*
Y236025D01*
X1230369D01*
Y234928D01*
X1231465D01*
Y233832D01*
X1232562D01*
Y232736D01*
X1233658D01*
Y230543D01*
X1234754D01*
Y229447D01*
X1235851D01*
Y228350D01*
X1236947D01*
Y227254D01*
X1238043D01*
Y226158D01*
X1239140D01*
Y223965D01*
X1240236D01*
Y222868D01*
X1241332D01*
Y221772D01*
X1242429D01*
Y220676D01*
X1243525D01*
Y217387D01*
X1242429D01*
Y216290D01*
X1240236D01*
Y217387D01*
X1239140D01*
Y218483D01*
X1238043D01*
Y219579D01*
X1236947D01*
Y221772D01*
X1235851D01*
Y222868D01*
X1234754D01*
Y223965D01*
X1233658D01*
Y225061D01*
X1232562D01*
Y226158D01*
X1231465D01*
Y227254D01*
X1230369D01*
Y229447D01*
X1229273D01*
Y230543D01*
X1227080D01*
Y223965D01*
X1225983D01*
Y214098D01*
X1224887D01*
Y207519D01*
X1223791D01*
Y200941D01*
X1222694D01*
Y196556D01*
X1221598D01*
Y192170D01*
X1220502D01*
Y187785D01*
X1219405D01*
Y184496D01*
X1218309D01*
Y181207D01*
X1217213D01*
Y177918D01*
X1216116D01*
Y174629D01*
X1215020D01*
Y171339D01*
X1213923D01*
Y169147D01*
X1212827D01*
Y165858D01*
X1211731D01*
Y163665D01*
X1210634D01*
Y161472D01*
X1209538D01*
Y159279D01*
X1208442D01*
Y157087D01*
X1207345D01*
Y153798D01*
X1206249D01*
Y152701D01*
X1205153D01*
Y150509D01*
X1204056D01*
Y148316D01*
X1202960D01*
Y146123D01*
X1201863D01*
Y143931D01*
X1200767D01*
Y142834D01*
X1199671D01*
Y140641D01*
X1198574D01*
Y138449D01*
X1197478D01*
Y137352D01*
X1196382D01*
Y135160D01*
X1195285D01*
Y134063D01*
X1194189D01*
Y131870D01*
X1193092D01*
Y130774D01*
X1191996D01*
Y129678D01*
X1190900D01*
Y127485D01*
X1189803D01*
Y126389D01*
X1188707D01*
Y124196D01*
X1187611D01*
Y123100D01*
X1186514D01*
Y122003D01*
X1185418D01*
Y120907D01*
X1184322D01*
Y118714D01*
X1183225D01*
Y117618D01*
X1182129D01*
Y116521D01*
X1181033D01*
Y115425D01*
X1179936D01*
Y114329D01*
X1178840D01*
Y113232D01*
X1177744D01*
Y112136D01*
X1176647D01*
Y109943D01*
X1175551D01*
Y108847D01*
X1174454D01*
Y107751D01*
X1173358D01*
Y106654D01*
X1172262D01*
Y105558D01*
X1171165D01*
Y104461D01*
X1170069D01*
Y103365D01*
X1168973D01*
Y102269D01*
X1167876D01*
Y101172D01*
X1166780D01*
Y100076D01*
X1165684D01*
Y98980D01*
X1164587D01*
Y97883D01*
X1162394D01*
Y96787D01*
X1161298D01*
Y95691D01*
X1160202D01*
Y94594D01*
X1159105D01*
Y93498D01*
X1158009D01*
Y92402D01*
X1156913D01*
Y91305D01*
X1154720D01*
Y90209D01*
X1153624D01*
Y89112D01*
X1152527D01*
Y88016D01*
X1151431D01*
Y86920D01*
X1149238D01*
Y85823D01*
X1148142D01*
Y84727D01*
X1147045D01*
Y83631D01*
X1144853D01*
Y82534D01*
X1143756D01*
Y81438D01*
X1141564D01*
Y80342D01*
X1140467D01*
Y79245D01*
X1138275D01*
Y78149D01*
X1137178D01*
Y77052D01*
X1134985D01*
Y75956D01*
X1133889D01*
Y74860D01*
X1131696D01*
Y73763D01*
X1129504D01*
Y72667D01*
X1128407D01*
Y71571D01*
X1126215D01*
Y70474D01*
X1124022D01*
Y69378D01*
X1121829D01*
Y68281D01*
X1119636D01*
Y67185D01*
X1117444D01*
Y66089D01*
X1115251D01*
Y64992D01*
X1113058D01*
Y63896D01*
X1109769D01*
Y62800D01*
X1107576D01*
Y61703D01*
X1105384D01*
Y60607D01*
X1102094D01*
Y59511D01*
X1098805D01*
Y58414D01*
X1096613D01*
Y57318D01*
X1093324D01*
Y56221D01*
X1088938D01*
Y55125D01*
X1085649D01*
Y54029D01*
X1081264D01*
Y52933D01*
X1076878D01*
Y51836D01*
X1072493D01*
Y50740D01*
X1065915D01*
Y49643D01*
X1059336D01*
Y48547D01*
X1049469D01*
Y47451D01*
X1030831D01*
Y50740D01*
X1031927D01*
Y51836D01*
X1046180D01*
Y52933D01*
X1058240D01*
Y54029D01*
X1064818D01*
Y55125D01*
X1070300D01*
Y56221D01*
X1075782D01*
Y57318D01*
X1080167D01*
Y58414D01*
X1084553D01*
Y59511D01*
X1087842D01*
Y60607D01*
X1091131D01*
Y61703D01*
X1094420D01*
Y62800D01*
X1097709D01*
Y63896D01*
X1100998D01*
Y64992D01*
X1103191D01*
Y66089D01*
X1106480D01*
Y67185D01*
X1108673D01*
Y68281D01*
X1110865D01*
Y69378D01*
X1114155D01*
Y70474D01*
X1116347D01*
Y71571D01*
X1118540D01*
Y72667D01*
X1120733D01*
Y73763D01*
X1122925D01*
Y74860D01*
X1124022D01*
Y75956D01*
X1126215D01*
Y77052D01*
X1128407D01*
Y78149D01*
X1130600D01*
Y79245D01*
X1131696D01*
Y80342D01*
X1133889D01*
Y81438D01*
X1134985D01*
Y82534D01*
X1137178D01*
Y83631D01*
X1138275D01*
Y84727D01*
X1140467D01*
Y85823D01*
X1141564D01*
Y86920D01*
X1143756D01*
Y88016D01*
X1144853D01*
Y89112D01*
X1145949D01*
Y90209D01*
X1148142D01*
Y91305D01*
X1149238D01*
Y92402D01*
X1150334D01*
Y93498D01*
X1152527D01*
Y94594D01*
X1153624D01*
Y95691D01*
X1154720D01*
Y96787D01*
X1155816D01*
Y97883D01*
X1156913D01*
Y98980D01*
X1158009D01*
Y100076D01*
X1160202D01*
Y101172D01*
X1161298D01*
Y102269D01*
X1162394D01*
Y103365D01*
X1163491D01*
Y104461D01*
X1164587D01*
Y105558D01*
X1165684D01*
Y106654D01*
X1166780D01*
Y107751D01*
X1167876D01*
Y108847D01*
X1168973D01*
Y109943D01*
X1170069D01*
Y111040D01*
X1171165D01*
Y112136D01*
X1172262D01*
Y113232D01*
X1173358D01*
Y114329D01*
X1174454D01*
Y115425D01*
X1175551D01*
Y117618D01*
X1176647D01*
Y118714D01*
X1177744D01*
Y119810D01*
X1178840D01*
Y120907D01*
X1179936D01*
Y122003D01*
X1181033D01*
Y124196D01*
X1182129D01*
Y125292D01*
X1183225D01*
Y126389D01*
X1184322D01*
Y127485D01*
X1185418D01*
Y129678D01*
X1186514D01*
Y130774D01*
X1187611D01*
Y131870D01*
X1188707D01*
Y134063D01*
X1189803D01*
Y135160D01*
X1190900D01*
Y137352D01*
X1191996D01*
Y138449D01*
X1193092D01*
Y140641D01*
X1194189D01*
Y142834D01*
X1195285D01*
Y143931D01*
X1196382D01*
Y146123D01*
X1197478D01*
Y147219D01*
X1198574D01*
Y149412D01*
X1199671D01*
Y151605D01*
X1200767D01*
Y153798D01*
X1201863D01*
Y155990D01*
X1202960D01*
Y158183D01*
X1204056D01*
Y160376D01*
X1205153D01*
Y162569D01*
X1206249D01*
Y164761D01*
X1207345D01*
Y168050D01*
X1208442D01*
Y170243D01*
X1209538D01*
Y173532D01*
X1210634D01*
Y175725D01*
X1211731D01*
Y179014D01*
X1212827D01*
Y182303D01*
X1213923D01*
Y185592D01*
X1215020D01*
Y188881D01*
X1216116D01*
Y193267D01*
X1217213D01*
Y197652D01*
X1218309D01*
Y202038D01*
X1219405D01*
Y208616D01*
X1220502D01*
Y215194D01*
X1221598D01*
Y225061D01*
X1222694D01*
Y231639D01*
X1220502D01*
Y230543D01*
X1219405D01*
Y229447D01*
X1218309D01*
Y228350D01*
X1217213D01*
Y227254D01*
X1216116D01*
Y226158D01*
X1215020D01*
Y225061D01*
X1213923D01*
Y223965D01*
X1212827D01*
Y222868D01*
X1211731D01*
Y221772D01*
X1210634D01*
Y220676D01*
X1209538D01*
Y219579D01*
X1208442D01*
Y218483D01*
X1206249D01*
Y219579D01*
X1205153D01*
Y220676D01*
X1204056D01*
Y221772D01*
X1205153D01*
Y222868D01*
X1206249D01*
Y223965D01*
X1207345D01*
Y225061D01*
X1208442D01*
Y226158D01*
X1209538D01*
Y227254D01*
X1211731D01*
Y228350D01*
X1212827D01*
Y230543D01*
X1213923D01*
Y231639D01*
X1215020D01*
Y232736D01*
X1217213D01*
Y233832D01*
X1218309D01*
Y234928D01*
X1219405D01*
Y236025D01*
X1220502D01*
Y237121D01*
X1221598D01*
Y238218D01*
X1222694D01*
Y239314D01*
X1223791D01*
Y240410D01*
X1224887D01*
Y241507D01*
X1225983D01*
Y240410D01*
D02*
G37*
G36*
X836775Y242603D02*
X837871D01*
Y225061D01*
X838968D01*
Y215194D01*
X840064D01*
Y208616D01*
X841161D01*
Y202038D01*
X842257D01*
Y197652D01*
X843353D01*
Y193267D01*
X844450D01*
Y188881D01*
X845546D01*
Y185592D01*
X846642D01*
Y182303D01*
X847739D01*
Y179014D01*
X848835D01*
Y175725D01*
X849931D01*
Y172436D01*
X851028D01*
Y170243D01*
X852124D01*
Y166954D01*
X853220D01*
Y164761D01*
X854317D01*
Y162569D01*
X855413D01*
Y160376D01*
X856509D01*
Y158183D01*
X857606D01*
Y155990D01*
X858702D01*
Y153798D01*
X859799D01*
Y151605D01*
X860895D01*
Y149412D01*
X861991D01*
Y147219D01*
X863088D01*
Y145027D01*
X864184D01*
Y143931D01*
X865280D01*
Y141738D01*
X866377D01*
Y140641D01*
X867473D01*
Y138449D01*
X868569D01*
Y137352D01*
X869666D01*
Y135160D01*
X870762D01*
Y132967D01*
X871859D01*
Y131870D01*
X872955D01*
Y130774D01*
X874051D01*
Y128581D01*
X875148D01*
Y127485D01*
X876244D01*
Y126389D01*
X877340D01*
Y124196D01*
X878437D01*
Y123100D01*
X879533D01*
Y122003D01*
X880630D01*
Y120907D01*
X881726D01*
Y118714D01*
X882822D01*
Y117618D01*
X883919D01*
Y116521D01*
X885015D01*
Y115425D01*
X886111D01*
Y114329D01*
X887208D01*
Y113232D01*
X888304D01*
Y112136D01*
X889400D01*
Y111040D01*
X890497D01*
Y109943D01*
X891593D01*
Y107751D01*
X893786D01*
Y105558D01*
X895978D01*
Y104461D01*
X897075D01*
Y103365D01*
X898171D01*
Y102269D01*
X899268D01*
Y101172D01*
X900364D01*
Y100076D01*
X901460D01*
Y98980D01*
X902557D01*
Y97883D01*
X903653D01*
Y96787D01*
X904749D01*
Y95691D01*
X906942D01*
Y94594D01*
X908038D01*
Y93498D01*
X909135D01*
Y92402D01*
X910231D01*
Y91305D01*
X911328D01*
Y90209D01*
X913520D01*
Y89112D01*
X914617D01*
Y88016D01*
X915713D01*
Y86920D01*
X917906D01*
Y85823D01*
X919002D01*
Y84727D01*
X921195D01*
Y83631D01*
X922291D01*
Y82534D01*
X924484D01*
Y81438D01*
X925580D01*
Y80342D01*
X927773D01*
Y79245D01*
X928869D01*
Y78149D01*
X931062D01*
Y77052D01*
X933255D01*
Y75956D01*
X935448D01*
Y74860D01*
X936544D01*
Y73763D01*
X938737D01*
Y72667D01*
X940929D01*
Y71571D01*
X943122D01*
Y70474D01*
X945315D01*
Y69378D01*
X947508D01*
Y68281D01*
X949700D01*
Y67185D01*
X952989D01*
Y66089D01*
X955182D01*
Y64992D01*
X958471D01*
Y63896D01*
X960664D01*
Y62800D01*
X963953D01*
Y61703D01*
X967242D01*
Y60607D01*
X970531D01*
Y59511D01*
X973820D01*
Y58414D01*
X977109D01*
Y57318D01*
X982591D01*
Y56221D01*
X986977D01*
Y55125D01*
X991362D01*
Y54029D01*
X997940D01*
Y52933D01*
X1006711D01*
Y51836D01*
X1017675D01*
Y52933D01*
X1016578D01*
Y54029D01*
X1015482D01*
Y55125D01*
X1014386D01*
Y56221D01*
X1013289D01*
Y57318D01*
X1012193D01*
Y58414D01*
X1011096D01*
Y59511D01*
X1010000D01*
Y60607D01*
X1008904D01*
Y62800D01*
X1007807D01*
Y63896D01*
X1005615D01*
Y64992D01*
X1004518D01*
Y68281D01*
X1005615D01*
Y69378D01*
X1006711D01*
Y70474D01*
X1007807D01*
Y69378D01*
X1008904D01*
Y67185D01*
X1010000D01*
Y66089D01*
X1011096D01*
Y64992D01*
X1012193D01*
Y63896D01*
X1013289D01*
Y62800D01*
X1014386D01*
Y61703D01*
X1015482D01*
Y60607D01*
X1016578D01*
Y59511D01*
X1017675D01*
Y58414D01*
X1018771D01*
Y57318D01*
X1019867D01*
Y56221D01*
X1020964D01*
Y55125D01*
X1022060D01*
Y54029D01*
X1023157D01*
Y52933D01*
X1024253D01*
Y51836D01*
X1025349D01*
Y50740D01*
X1026446D01*
Y49643D01*
X1027542D01*
Y48547D01*
X1026446D01*
Y47451D01*
X1025349D01*
Y46354D01*
X1023157D01*
Y45258D01*
X1022060D01*
Y44162D01*
X1020964D01*
Y43065D01*
X1019867D01*
Y41969D01*
X1018771D01*
Y40873D01*
X1016578D01*
Y39776D01*
X1015482D01*
Y38680D01*
X1014386D01*
Y37583D01*
X1013289D01*
Y36487D01*
X1012193D01*
Y35391D01*
X1010000D01*
Y34294D01*
X1008904D01*
Y33198D01*
X1007807D01*
Y32102D01*
X1006711D01*
Y31005D01*
X1005615D01*
Y29909D01*
X1004518D01*
Y31005D01*
X1003422D01*
Y32102D01*
X1002326D01*
Y34294D01*
X1003422D01*
Y35391D01*
X1004518D01*
Y36487D01*
X1005615D01*
Y37583D01*
X1007807D01*
Y38680D01*
X1008904D01*
Y39776D01*
X1010000D01*
Y40873D01*
X1011096D01*
Y41969D01*
X1012193D01*
Y43065D01*
X1014386D01*
Y44162D01*
X1015482D01*
Y45258D01*
X1016578D01*
Y47451D01*
X1006711D01*
Y48547D01*
X997940D01*
Y49643D01*
X991362D01*
Y50740D01*
X985880D01*
Y51836D01*
X981495D01*
Y52933D01*
X977109D01*
Y54029D01*
X973820D01*
Y55125D01*
X969435D01*
Y56221D01*
X966146D01*
Y57318D01*
X962857D01*
Y58414D01*
X959567D01*
Y59511D01*
X957375D01*
Y60607D01*
X954086D01*
Y61703D01*
X951893D01*
Y62800D01*
X949700D01*
Y63896D01*
X946411D01*
Y64992D01*
X944219D01*
Y66089D01*
X942026D01*
Y67185D01*
X939833D01*
Y68281D01*
X937640D01*
Y69378D01*
X935448D01*
Y70474D01*
X933255D01*
Y71571D01*
X932159D01*
Y72667D01*
X929966D01*
Y73763D01*
X927773D01*
Y74860D01*
X926677D01*
Y75956D01*
X924484D01*
Y77052D01*
X922291D01*
Y78149D01*
X921195D01*
Y79245D01*
X919002D01*
Y80342D01*
X917906D01*
Y81438D01*
X915713D01*
Y82534D01*
X914617D01*
Y83631D01*
X913520D01*
Y84727D01*
X911328D01*
Y85823D01*
X910231D01*
Y86920D01*
X909135D01*
Y88016D01*
X906942D01*
Y89112D01*
X905846D01*
Y90209D01*
X904749D01*
Y91305D01*
X903653D01*
Y92402D01*
X902557D01*
Y93498D01*
X900364D01*
Y94594D01*
X899268D01*
Y95691D01*
X898171D01*
Y96787D01*
X897075D01*
Y97883D01*
X895978D01*
Y98980D01*
X894882D01*
Y100076D01*
X893786D01*
Y101172D01*
X892690D01*
Y102269D01*
X891593D01*
Y103365D01*
X890497D01*
Y104461D01*
X889400D01*
Y105558D01*
X888304D01*
Y106654D01*
X887208D01*
Y107751D01*
X886111D01*
Y108847D01*
X885015D01*
Y109943D01*
X883919D01*
Y111040D01*
X882822D01*
Y112136D01*
X881726D01*
Y113232D01*
X880630D01*
Y115425D01*
X879533D01*
Y116521D01*
X878437D01*
Y117618D01*
X877340D01*
Y118714D01*
X876244D01*
Y119810D01*
X875148D01*
Y122003D01*
X874051D01*
Y123100D01*
X872955D01*
Y124196D01*
X871859D01*
Y125292D01*
X870762D01*
Y127485D01*
X869666D01*
Y128581D01*
X868569D01*
Y130774D01*
X867473D01*
Y131870D01*
X866377D01*
Y134063D01*
X865280D01*
Y135160D01*
X864184D01*
Y137352D01*
X863088D01*
Y138449D01*
X861991D01*
Y140641D01*
X860895D01*
Y141738D01*
X859799D01*
Y143931D01*
X858702D01*
Y146123D01*
X857606D01*
Y148316D01*
X856509D01*
Y150509D01*
X855413D01*
Y151605D01*
X854317D01*
Y153798D01*
X853220D01*
Y155990D01*
X852124D01*
Y158183D01*
X851028D01*
Y160376D01*
X849931D01*
Y163665D01*
X848835D01*
Y165858D01*
X847739D01*
Y169147D01*
X846642D01*
Y171339D01*
X845546D01*
Y174629D01*
X844450D01*
Y176821D01*
X843353D01*
Y181207D01*
X842257D01*
Y184496D01*
X841161D01*
Y187785D01*
X840064D01*
Y192170D01*
X838968D01*
Y196556D01*
X837871D01*
Y200941D01*
X836775D01*
Y207519D01*
X835679D01*
Y214098D01*
X834582D01*
Y222868D01*
X833486D01*
Y242603D01*
X834582D01*
Y243699D01*
X836775D01*
Y242603D01*
D02*
G37*
G36*
X1549908Y396494D02*
X1534706D01*
Y468630D01*
X1549908D01*
Y396494D01*
D02*
G37*
G36*
X1371854Y-150622D02*
X1313020D01*
Y-134383D01*
X1371854D01*
Y-150622D01*
D02*
G37*
G36*
X1552448Y76294D02*
X1537246D01*
Y141732D01*
X1552448D01*
Y76294D01*
D02*
G37*
G36*
X1030224Y-155194D02*
X983888D01*
Y-140119D01*
X1030224D01*
Y-155194D01*
D02*
G37*
%LPC*%
G36*
X1144853Y252470D02*
X1124022D01*
Y251374D01*
X1122925D01*
Y250278D01*
X1121829D01*
Y248085D01*
X1120733D01*
Y246989D01*
X1121829D01*
Y244796D01*
X1122925D01*
Y243699D01*
X1125118D01*
Y242603D01*
X1143756D01*
Y243699D01*
X1144853D01*
Y252470D01*
D02*
G37*
G36*
X993555D02*
X973820D01*
Y251374D01*
X971628D01*
Y249181D01*
X970531D01*
Y245892D01*
X971628D01*
Y244796D01*
X972724D01*
Y243699D01*
X973820D01*
Y242603D01*
X993555D01*
Y252470D01*
D02*
G37*
G36*
X1547368Y466090D02*
X1537246D01*
Y456969D01*
Y461086D01*
X1537260Y460959D01*
X1537274Y460804D01*
X1537289Y460620D01*
X1537303Y460423D01*
X1537345Y460212D01*
X1537430Y459760D01*
X1537571Y459295D01*
X1537655Y459056D01*
X1537754Y458830D01*
X1537867Y458619D01*
X1538008Y458421D01*
X1538022Y458407D01*
X1538036Y458379D01*
X1538092Y458323D01*
X1538149Y458252D01*
X1538219Y458167D01*
X1538318Y458083D01*
X1538430Y457984D01*
X1538557Y457871D01*
X1538698Y457759D01*
X1538853Y457646D01*
X1539023Y457533D01*
X1539220Y457434D01*
X1539417Y457322D01*
X1539629Y457237D01*
X1539868Y457152D01*
X1540108Y457096D01*
X1540475Y459056D01*
X1540461D01*
X1540446Y459070D01*
X1540362Y459098D01*
X1540235Y459154D01*
X1540066Y459239D01*
X1539883Y459338D01*
X1539699Y459478D01*
X1539516Y459648D01*
X1539347Y459845D01*
X1539333Y459873D01*
X1539276Y459944D01*
X1539206Y460071D01*
X1539135Y460226D01*
X1539051Y460437D01*
X1538994Y460677D01*
X1538938Y460945D01*
X1538924Y461255D01*
Y461382D01*
X1538938Y461466D01*
X1538952Y461579D01*
X1538966Y461706D01*
X1538994Y461847D01*
X1539023Y462002D01*
X1539121Y462326D01*
X1539192Y462495D01*
X1539276Y462664D01*
X1539375Y462834D01*
X1539474Y463003D01*
X1539615Y463158D01*
X1539756Y463313D01*
X1539770Y463327D01*
X1539798Y463341D01*
X1539840Y463383D01*
X1539911Y463426D01*
X1539995Y463482D01*
X1540094Y463553D01*
X1540221Y463623D01*
X1540362Y463679D01*
X1540531Y463750D01*
X1540714Y463820D01*
X1540912Y463891D01*
X1541123Y463947D01*
X1541363Y463989D01*
X1541631Y464032D01*
X1541898Y464046D01*
X1542194Y464060D01*
X1542209D01*
X1542265D01*
X1542364D01*
X1542476Y464046D01*
X1542631Y464032D01*
X1542787Y464018D01*
X1542984Y463989D01*
X1543181Y463961D01*
X1543604Y463877D01*
X1544041Y463736D01*
X1544253Y463651D01*
X1544450Y463553D01*
X1544647Y463426D01*
X1544816Y463299D01*
X1544830Y463285D01*
X1544859Y463256D01*
X1544901Y463214D01*
X1544957Y463158D01*
X1545014Y463073D01*
X1545098Y462989D01*
X1545169Y462876D01*
X1545253Y462749D01*
X1545338Y462608D01*
X1545408Y462467D01*
X1545549Y462115D01*
X1545606Y461917D01*
X1545648Y461720D01*
X1545676Y461494D01*
X1545690Y461269D01*
Y461156D01*
X1545676Y461043D01*
X1545662Y460874D01*
X1545634Y460691D01*
X1545592Y460479D01*
X1545535Y460254D01*
X1545451Y460028D01*
Y460014D01*
X1545437Y460000D01*
X1545408Y459930D01*
X1545352Y459803D01*
X1545282Y459662D01*
X1545197Y459493D01*
X1545098Y459309D01*
X1544986Y459126D01*
X1544859Y458957D01*
X1543604D01*
Y461212D01*
X1541955D01*
Y456969D01*
X1537246D01*
X1547368D01*
X1545874D01*
X1545902Y456997D01*
X1545930Y457040D01*
X1545972Y457082D01*
X1546029Y457152D01*
X1546085Y457223D01*
X1546226Y457420D01*
X1546381Y457688D01*
X1546564Y457998D01*
X1546748Y458351D01*
X1546917Y458774D01*
Y458788D01*
X1546931Y458830D01*
X1546959Y458886D01*
X1546987Y458971D01*
X1547016Y459084D01*
X1547058Y459211D01*
X1547100Y459352D01*
X1547142Y459507D01*
X1547227Y459859D01*
X1547298Y460268D01*
X1547354Y460691D01*
X1547368Y461142D01*
Y461297D01*
X1547354Y461396D01*
Y461537D01*
X1547340Y461692D01*
X1547312Y461861D01*
X1547283Y462058D01*
X1547213Y462467D01*
X1547100Y462918D01*
X1546945Y463383D01*
X1546846Y463595D01*
X1546734Y463820D01*
X1546720Y463834D01*
X1546705Y463863D01*
X1546663Y463933D01*
X1546607Y464004D01*
X1546550Y464102D01*
X1546466Y464201D01*
X1546367Y464328D01*
X1546254Y464455D01*
X1546001Y464737D01*
X1545676Y465019D01*
X1545310Y465286D01*
X1544887Y465526D01*
X1544873D01*
X1544830Y465554D01*
X1544760Y465583D01*
X1544675Y465611D01*
X1544563Y465653D01*
X1544436Y465709D01*
X1544281Y465752D01*
X1544112Y465808D01*
X1543928Y465864D01*
X1543717Y465907D01*
X1543280Y466005D01*
X1542801Y466062D01*
X1542279Y466090D01*
X1547368D01*
D02*
G37*
G36*
X1547185Y455137D02*
X1537430D01*
Y447665D01*
D01*
Y451542D01*
X1537444Y451387D01*
Y451020D01*
X1537472Y450626D01*
X1537500Y450231D01*
X1537514Y450062D01*
X1537528Y449893D01*
X1537556Y449752D01*
X1537585Y449639D01*
Y449625D01*
X1537599Y449596D01*
X1537613Y449554D01*
X1537627Y449498D01*
X1537697Y449343D01*
X1537782Y449145D01*
X1537909Y448934D01*
X1538078Y448694D01*
X1538289Y448469D01*
X1538543Y448243D01*
X1538557D01*
X1538571Y448215D01*
X1538614Y448187D01*
X1538670Y448159D01*
X1538755Y448102D01*
X1538839Y448060D01*
X1538938Y448004D01*
X1539051Y447947D01*
X1539333Y447849D01*
X1539643Y447750D01*
X1540023Y447693D01*
X1540432Y447665D01*
X1547185D01*
X1540587D01*
X1540658Y447679D01*
X1540757D01*
X1540954Y447707D01*
X1541194Y447750D01*
X1541461Y447806D01*
X1541715Y447891D01*
X1541955Y448004D01*
X1541983Y448018D01*
X1542053Y448060D01*
X1542166Y448130D01*
X1542307Y448229D01*
X1542448Y448342D01*
X1542617Y448497D01*
X1542772Y448652D01*
X1542913Y448835D01*
X1542927Y448863D01*
X1542970Y448920D01*
X1543026Y449019D01*
X1543097Y449145D01*
X1543181Y449300D01*
X1543252Y449470D01*
X1543322Y449653D01*
X1543378Y449850D01*
Y449878D01*
X1543393Y449921D01*
Y449977D01*
X1543407Y450048D01*
X1543421Y450146D01*
X1543435Y450245D01*
Y450372D01*
X1543449Y450499D01*
X1543463Y450654D01*
X1543477Y450823D01*
X1543491Y451006D01*
Y451204D01*
X1543505Y451415D01*
Y453163D01*
X1547185D01*
Y455137D01*
D02*
G37*
G36*
Y446115D02*
X1537430D01*
Y444141D01*
X1547185D01*
Y446115D01*
D02*
G37*
G36*
X1542378Y442661D02*
X1537246D01*
X1542237D01*
X1542124Y442647D01*
X1541997D01*
X1541856Y442633D01*
X1541687Y442618D01*
X1541504Y442604D01*
X1541109Y442548D01*
X1540686Y442477D01*
X1540263Y442365D01*
X1539868Y442224D01*
X1539854D01*
X1539840Y442210D01*
X1539798Y442182D01*
X1539742Y442167D01*
X1539601Y442083D01*
X1539417Y441984D01*
X1539206Y441857D01*
X1538994Y441702D01*
X1538755Y441519D01*
X1538529Y441322D01*
X1538515Y441307D01*
X1538501Y441293D01*
X1538430Y441223D01*
X1538318Y441096D01*
X1538191Y440941D01*
X1538050Y440758D01*
X1537895Y440546D01*
X1537754Y440307D01*
X1537641Y440053D01*
Y440039D01*
X1537627Y440011D01*
X1537599Y439954D01*
X1537585Y439884D01*
X1537542Y439799D01*
X1537514Y439700D01*
X1537486Y439574D01*
X1537444Y439447D01*
X1537373Y439137D01*
X1537303Y438784D01*
X1537260Y438375D01*
X1537246Y437952D01*
Y437854D01*
X1537260Y437741D01*
Y437600D01*
X1537289Y437417D01*
X1537317Y437205D01*
X1537359Y436966D01*
X1537415Y436712D01*
X1537486Y436444D01*
X1537571Y436162D01*
X1537683Y435880D01*
X1537810Y435584D01*
X1537965Y435302D01*
X1538149Y435020D01*
X1538360Y434752D01*
X1538600Y434499D01*
X1538614Y434484D01*
X1538656Y434442D01*
X1538741Y434372D01*
X1538839Y434301D01*
X1538980Y434203D01*
X1539149Y434090D01*
X1539347Y433977D01*
X1539572Y433850D01*
X1539812Y433723D01*
X1540094Y433610D01*
X1540404Y433498D01*
X1540728Y433399D01*
X1541095Y433315D01*
X1541476Y433258D01*
X1541884Y433216D01*
X1542321Y433202D01*
X1537246D01*
X1547368D01*
Y438023D01*
X1547354Y438136D01*
X1547340Y438277D01*
X1547326Y438460D01*
X1547298Y438671D01*
X1547255Y438911D01*
X1547199Y439165D01*
X1547128Y439447D01*
X1547044Y439715D01*
X1546931Y440011D01*
X1546804Y440293D01*
X1546663Y440588D01*
X1546480Y440856D01*
X1546283Y441124D01*
X1546043Y441378D01*
X1546029Y441392D01*
X1545986Y441434D01*
X1545902Y441491D01*
X1545803Y441575D01*
X1545662Y441674D01*
X1545493Y441787D01*
X1545310Y441899D01*
X1545084Y442012D01*
X1544845Y442139D01*
X1544563Y442252D01*
X1544267Y442365D01*
X1543942Y442463D01*
X1543590Y442548D01*
X1543209Y442604D01*
X1542801Y442647D01*
X1542378Y442661D01*
D02*
G37*
G36*
X1544408Y428310D02*
X1544267D01*
X1544112Y428296D01*
X1543928Y428268D01*
X1543703Y428211D01*
X1543449Y428155D01*
X1543195Y428056D01*
X1542941Y427929D01*
X1542927D01*
X1542913Y427915D01*
X1542829Y427859D01*
X1542716Y427760D01*
X1542561Y427619D01*
X1542392Y427450D01*
X1542223Y427239D01*
X1542068Y426985D01*
X1541913Y426689D01*
Y426703D01*
X1541898Y426717D01*
X1541856Y426802D01*
X1541786Y426928D01*
X1541701Y427084D01*
X1541574Y427267D01*
X1541433Y427436D01*
X1541264Y427605D01*
X1541081Y427746D01*
X1541053Y427760D01*
X1540982Y427803D01*
X1540883Y427845D01*
X1540728Y427901D01*
X1540559Y427972D01*
X1540348Y428014D01*
X1540136Y428056D01*
X1539897Y428070D01*
X1539883D01*
X1539854D01*
X1539798D01*
X1539713Y428056D01*
X1539629Y428042D01*
X1539516Y428028D01*
X1539262Y427972D01*
X1538980Y427887D01*
X1538670Y427746D01*
X1538529Y427662D01*
X1538374Y427563D01*
X1538233Y427436D01*
X1538092Y427309D01*
X1538078Y427295D01*
X1538064Y427267D01*
X1538022Y427225D01*
X1537979Y427168D01*
X1537923Y427084D01*
X1537867Y426999D01*
X1537796Y426886D01*
X1537726Y426745D01*
X1537669Y426604D01*
X1537599Y426449D01*
X1537542Y426266D01*
X1537486Y426069D01*
X1537444Y425857D01*
X1537401Y425632D01*
X1537387Y425392D01*
X1537373Y425138D01*
Y425434D01*
Y425138D01*
D01*
Y424997D01*
X1537387Y424913D01*
X1537401Y424786D01*
X1537415Y424659D01*
X1537430Y424504D01*
X1537458Y424349D01*
X1537542Y423996D01*
X1537669Y423630D01*
X1537754Y423461D01*
X1537852Y423277D01*
X1537965Y423122D01*
X1538092Y422967D01*
X1538106Y422953D01*
X1538120Y422939D01*
X1538163Y422897D01*
X1538219Y422840D01*
X1538289Y422784D01*
X1538374Y422728D01*
X1538586Y422573D01*
X1538853Y422432D01*
X1539149Y422319D01*
X1539502Y422220D01*
X1539699Y422206D01*
X1539897Y422192D01*
X1539911D01*
X1539925D01*
X1540009D01*
X1540136Y422206D01*
X1540305Y422234D01*
X1540489Y422276D01*
X1540686Y422347D01*
X1540898Y422432D01*
X1541109Y422559D01*
X1541137Y422573D01*
X1541194Y422629D01*
X1541292Y422699D01*
X1541405Y422812D01*
X1541546Y422953D01*
X1541673Y423122D01*
X1541800Y423320D01*
X1541913Y423545D01*
Y423531D01*
X1541927Y423503D01*
X1541941Y423461D01*
X1541969Y423404D01*
X1542053Y423263D01*
X1542166Y423080D01*
X1542293Y422883D01*
X1542462Y422671D01*
X1542660Y422474D01*
X1542885Y422305D01*
X1542913Y422291D01*
X1542998Y422234D01*
X1543125Y422164D01*
X1543294Y422093D01*
X1543505Y422009D01*
X1543759Y421952D01*
X1544027Y421896D01*
X1544323Y421882D01*
X1537373D01*
X1544450D01*
X1544549Y421896D01*
X1544661Y421910D01*
X1544802Y421924D01*
X1544943Y421952D01*
X1545098Y421995D01*
X1545451Y422093D01*
X1545634Y422164D01*
X1545817Y422248D01*
X1546001Y422347D01*
X1546184Y422474D01*
X1546353Y422601D01*
X1546522Y422756D01*
X1546536Y422770D01*
X1546564Y422798D01*
X1546607Y422840D01*
X1546649Y422911D01*
X1546720Y422995D01*
X1546790Y423108D01*
X1546861Y423221D01*
X1546945Y423362D01*
X1547030Y423517D01*
X1547100Y423700D01*
X1547171Y423884D01*
X1547241Y424081D01*
X1547283Y424306D01*
X1547326Y424546D01*
X1547354Y424786D01*
X1547368Y425054D01*
Y425181D01*
X1547354Y425279D01*
X1547340Y425392D01*
X1547326Y425519D01*
X1547312Y425660D01*
X1547283Y425829D01*
X1547199Y426181D01*
X1547072Y426548D01*
X1547001Y426731D01*
X1546903Y426914D01*
X1546804Y427098D01*
X1546677Y427267D01*
X1546663Y427281D01*
X1546635Y427309D01*
X1546593Y427365D01*
X1546522Y427436D01*
X1546438Y427506D01*
X1546339Y427591D01*
X1546212Y427690D01*
X1546085Y427789D01*
X1545930Y427887D01*
X1545761Y427986D01*
X1545578Y428070D01*
X1545366Y428141D01*
X1545155Y428211D01*
X1544915Y428268D01*
X1544675Y428296D01*
X1544408Y428310D01*
D02*
G37*
G36*
X1544577Y420514D02*
X1542702D01*
Y416835D01*
X1544577D01*
Y420514D01*
D02*
G37*
G36*
X1547185Y415665D02*
X1537373D01*
X1539840D01*
Y415651D01*
X1539826Y415637D01*
X1539812Y415594D01*
X1539798Y415538D01*
X1539727Y415397D01*
X1539643Y415200D01*
X1539530Y414960D01*
X1539375Y414692D01*
X1539178Y414396D01*
X1538952Y414086D01*
X1538938Y414072D01*
X1538924Y414044D01*
X1538882Y414002D01*
X1538825Y413945D01*
X1538684Y413790D01*
X1538501Y413621D01*
X1538275Y413424D01*
X1537993Y413226D01*
X1537697Y413043D01*
X1537373Y412902D01*
Y411380D01*
X1547185D01*
Y413438D01*
Y413254D01*
X1540122D01*
X1540136Y413269D01*
X1540164Y413297D01*
X1540207Y413353D01*
X1540277Y413438D01*
X1540362Y413536D01*
X1540446Y413649D01*
X1540545Y413790D01*
X1540658Y413945D01*
X1540771Y414114D01*
X1540883Y414298D01*
X1541010Y414495D01*
X1541123Y414706D01*
X1541335Y415158D01*
X1541532Y415665D01*
X1547185D01*
D02*
G37*
G36*
X1544704Y408546D02*
D01*
X1544506Y406685D01*
X1544534D01*
X1544605Y406671D01*
X1544732Y406643D01*
X1544873Y406601D01*
X1545028Y406544D01*
X1545197Y406460D01*
X1545352Y406347D01*
X1545507Y406220D01*
X1545521Y406206D01*
X1545564Y406150D01*
X1545620Y406065D01*
X1545690Y405952D01*
X1545761Y405825D01*
X1545817Y405670D01*
X1545860Y405487D01*
X1545874Y405304D01*
Y405275D01*
X1545860Y405205D01*
X1545845Y405092D01*
X1545817Y404951D01*
X1545761Y404796D01*
X1545676Y404627D01*
X1545549Y404458D01*
X1545394Y404303D01*
X1545366Y404289D01*
X1545310Y404232D01*
X1545197Y404176D01*
X1545028Y404091D01*
X1544830Y404021D01*
X1544591Y403950D01*
X1544295Y403908D01*
X1543956Y403894D01*
X1543942D01*
X1543914D01*
X1543872D01*
X1543802D01*
X1543646Y403908D01*
X1543449Y403950D01*
X1543224Y403993D01*
X1542998Y404063D01*
X1542787Y404162D01*
X1542603Y404303D01*
X1542589Y404317D01*
X1542533Y404373D01*
X1542462Y404472D01*
X1542364Y404585D01*
X1542279Y404740D01*
X1542209Y404923D01*
X1542152Y405135D01*
X1542138Y405360D01*
Y405445D01*
X1542152Y405501D01*
X1542180Y405642D01*
X1542223Y405839D01*
X1542307Y406065D01*
X1542434Y406305D01*
X1542519Y406432D01*
X1542617Y406558D01*
X1542730Y406685D01*
X1542857Y406812D01*
X1542646Y408321D01*
X1537556Y407362D01*
Y401977D01*
Y402414D01*
X1539305D01*
Y405952D01*
X1540968Y406248D01*
Y406234D01*
X1540954Y406220D01*
X1540912Y406135D01*
X1540869Y406009D01*
X1540799Y405854D01*
X1540742Y405656D01*
X1540700Y405445D01*
X1540658Y405205D01*
X1540644Y404965D01*
Y404838D01*
X1540658Y404754D01*
X1540672Y404655D01*
X1540686Y404528D01*
X1540714Y404387D01*
X1540757Y404232D01*
X1540869Y403908D01*
X1540940Y403725D01*
X1541024Y403556D01*
X1541137Y403372D01*
X1541264Y403189D01*
X1541405Y403020D01*
X1541560Y402851D01*
X1541574Y402837D01*
X1541602Y402809D01*
X1541659Y402766D01*
X1541729Y402710D01*
X1541814Y402654D01*
X1541927Y402569D01*
X1542053Y402498D01*
X1542194Y402414D01*
X1542350Y402329D01*
X1542533Y402259D01*
X1542730Y402174D01*
X1542927Y402118D01*
X1543153Y402061D01*
X1543393Y402019D01*
X1543646Y401991D01*
X1543914Y401977D01*
X1547368D01*
X1544027D01*
X1544112Y401991D01*
X1544224D01*
X1544351Y402019D01*
X1544492Y402033D01*
X1544633Y402061D01*
X1544971Y402146D01*
X1545338Y402273D01*
X1545535Y402357D01*
X1545719Y402442D01*
X1545902Y402555D01*
X1546085Y402682D01*
X1546099Y402696D01*
X1546142Y402724D01*
X1546198Y402780D01*
X1546283Y402851D01*
X1546381Y402949D01*
X1546494Y403076D01*
X1546607Y403217D01*
X1546720Y403372D01*
X1546846Y403556D01*
X1546959Y403753D01*
X1547072Y403965D01*
X1547171Y404204D01*
X1547255Y404458D01*
X1547312Y404726D01*
X1547354Y405022D01*
X1547368Y405332D01*
Y405459D01*
X1547354Y405558D01*
X1547340Y405670D01*
X1547326Y405811D01*
X1547312Y405952D01*
X1547283Y406121D01*
X1547199Y406460D01*
X1547058Y406840D01*
X1546987Y407024D01*
X1546889Y407207D01*
X1546776Y407376D01*
X1546649Y407545D01*
X1546635Y407559D01*
X1546621Y407588D01*
X1546579Y407630D01*
X1546522Y407686D01*
X1546438Y407743D01*
X1546353Y407827D01*
X1546254Y407898D01*
X1546142Y407982D01*
X1546001Y408081D01*
X1545860Y408165D01*
X1545521Y408321D01*
X1545141Y408461D01*
X1544929Y408504D01*
X1544704Y408546D01*
D02*
G37*
%LPD*%
G36*
X1542025Y466076D02*
X1541884D01*
X1541729Y466062D01*
X1541560Y466034D01*
X1541363Y466005D01*
X1540954Y465935D01*
X1540489Y465822D01*
X1540023Y465667D01*
X1539798Y465568D01*
X1539572Y465456D01*
X1539558Y465442D01*
X1539516Y465427D01*
X1539460Y465385D01*
X1539375Y465343D01*
X1539276Y465272D01*
X1539164Y465188D01*
X1539037Y465089D01*
X1538896Y464990D01*
X1538755Y464864D01*
X1538600Y464723D01*
X1538445Y464567D01*
X1538289Y464398D01*
X1538149Y464215D01*
X1537993Y464032D01*
X1537740Y463595D01*
Y463581D01*
X1537712Y463553D01*
X1537697Y463496D01*
X1537655Y463426D01*
X1537627Y463327D01*
X1537585Y463228D01*
X1537542Y463087D01*
X1537486Y462946D01*
X1537444Y462791D01*
X1537401Y462608D01*
X1537359Y462411D01*
X1537317Y462213D01*
X1537260Y461762D01*
X1537246Y461255D01*
Y466090D01*
X1542124D01*
X1542025Y466076D01*
D02*
G37*
G36*
X1541856Y451810D02*
X1541842Y451711D01*
Y451457D01*
X1541828Y451204D01*
X1541800Y450950D01*
X1541757Y450724D01*
X1541743Y450626D01*
X1541715Y450541D01*
X1541701Y450527D01*
X1541687Y450471D01*
X1541645Y450400D01*
X1541602Y450316D01*
X1541532Y450217D01*
X1541447Y450118D01*
X1541349Y450005D01*
X1541236Y449921D01*
X1541222Y449907D01*
X1541179Y449878D01*
X1541109Y449850D01*
X1541010Y449808D01*
X1540898Y449766D01*
X1540771Y449723D01*
X1540630Y449709D01*
X1540475Y449695D01*
X1540446D01*
X1540390D01*
X1540291Y449709D01*
X1540164Y449738D01*
X1540023Y449780D01*
X1539868Y449836D01*
X1539727Y449907D01*
X1539586Y450019D01*
X1539572Y450033D01*
X1539530Y450076D01*
X1539474Y450146D01*
X1539403Y450231D01*
X1539319Y450344D01*
X1539248Y450485D01*
X1539192Y450640D01*
X1539149Y450809D01*
Y450823D01*
X1539135Y450879D01*
X1539121Y450978D01*
X1539107Y451119D01*
Y451302D01*
X1539093Y451429D01*
Y451556D01*
X1539079Y451697D01*
Y453163D01*
X1541856D01*
Y451810D01*
D02*
G37*
G36*
X1542575Y440617D02*
X1542716Y440603D01*
X1542885Y440588D01*
X1543054Y440560D01*
X1543252Y440532D01*
X1543660Y440448D01*
X1544069Y440307D01*
X1544281Y440222D01*
X1544478Y440123D01*
X1544661Y439996D01*
X1544830Y439870D01*
X1544845Y439855D01*
X1544873Y439827D01*
X1544915Y439785D01*
X1544957Y439729D01*
X1545028Y439658D01*
X1545098Y439559D01*
X1545183Y439461D01*
X1545253Y439334D01*
X1545423Y439066D01*
X1545549Y438728D01*
X1545606Y438545D01*
X1545648Y438347D01*
X1545676Y438136D01*
X1545690Y437924D01*
Y437811D01*
X1545676Y437727D01*
X1545662Y437628D01*
X1545648Y437515D01*
X1545578Y437248D01*
X1545479Y436937D01*
X1545408Y436782D01*
X1545338Y436613D01*
X1545239Y436458D01*
X1545127Y436289D01*
X1545000Y436134D01*
X1544845Y435993D01*
X1544830Y435979D01*
X1544802Y435965D01*
X1544760Y435922D01*
X1544690Y435880D01*
X1544591Y435810D01*
X1544478Y435753D01*
X1544351Y435683D01*
X1544196Y435612D01*
X1544027Y435542D01*
X1543844Y435471D01*
X1543632Y435401D01*
X1543393Y435344D01*
X1543153Y435302D01*
X1542885Y435260D01*
X1542589Y435246D01*
X1542279Y435232D01*
X1542265D01*
X1542209D01*
X1542124D01*
X1541997Y435246D01*
X1541856Y435260D01*
X1541701Y435274D01*
X1541518Y435288D01*
X1541335Y435330D01*
X1540926Y435415D01*
X1540503Y435542D01*
X1540291Y435626D01*
X1540108Y435725D01*
X1539925Y435852D01*
X1539756Y435979D01*
X1539742Y435993D01*
X1539713Y436007D01*
X1539685Y436049D01*
X1539629Y436106D01*
X1539558Y436190D01*
X1539488Y436275D01*
X1539417Y436373D01*
X1539333Y436500D01*
X1539262Y436627D01*
X1539192Y436782D01*
X1539051Y437107D01*
X1538994Y437290D01*
X1538966Y437487D01*
X1538938Y437699D01*
X1538924Y437924D01*
Y438037D01*
X1538938Y438122D01*
X1538952Y438234D01*
X1538966Y438347D01*
X1539023Y438629D01*
X1539135Y438939D01*
X1539192Y439108D01*
X1539276Y439277D01*
X1539375Y439433D01*
X1539488Y439602D01*
X1539615Y439757D01*
X1539770Y439898D01*
X1539784Y439912D01*
X1539812Y439926D01*
X1539854Y439968D01*
X1539925Y440011D01*
X1540023Y440067D01*
X1540122Y440123D01*
X1540249Y440194D01*
X1540404Y440264D01*
X1540573Y440335D01*
X1540757Y440405D01*
X1540968Y440462D01*
X1541194Y440518D01*
X1541447Y440560D01*
X1541715Y440603D01*
X1541997Y440617D01*
X1542307Y440631D01*
X1542321D01*
X1542378D01*
X1542462D01*
X1542575Y440617D01*
D02*
G37*
G36*
X1547368Y433202D02*
X1542420D01*
X1542547Y433216D01*
X1542716D01*
X1542913Y433244D01*
X1543139Y433272D01*
X1543407Y433315D01*
X1543675Y433357D01*
X1543971Y433427D01*
X1544281Y433512D01*
X1544591Y433625D01*
X1544901Y433751D01*
X1545197Y433893D01*
X1545493Y434076D01*
X1545775Y434273D01*
X1546043Y434499D01*
X1546057Y434513D01*
X1546099Y434555D01*
X1546170Y434626D01*
X1546254Y434738D01*
X1546353Y434865D01*
X1546466Y435020D01*
X1546579Y435204D01*
X1546705Y435401D01*
X1546832Y435640D01*
X1546945Y435894D01*
X1547058Y436176D01*
X1547157Y436486D01*
X1547241Y436810D01*
X1547312Y437163D01*
X1547354Y437529D01*
X1547368Y437924D01*
Y433202D01*
D02*
G37*
G36*
X1540235Y426280D02*
X1540362Y426252D01*
X1540503Y426224D01*
X1540644Y426167D01*
X1540785Y426083D01*
X1540912Y425984D01*
X1540926Y425970D01*
X1540954Y425928D01*
X1541010Y425857D01*
X1541067Y425759D01*
X1541123Y425632D01*
X1541179Y425491D01*
X1541208Y425322D01*
X1541222Y425138D01*
Y425054D01*
X1541208Y424955D01*
X1541179Y424828D01*
X1541151Y424687D01*
X1541095Y424546D01*
X1541010Y424405D01*
X1540912Y424278D01*
X1540898Y424264D01*
X1540855Y424222D01*
X1540785Y424180D01*
X1540672Y424109D01*
X1540545Y424053D01*
X1540404Y424011D01*
X1540221Y423968D01*
X1540023Y423954D01*
X1539995D01*
X1539939D01*
X1539840Y423968D01*
X1539727Y423996D01*
X1539586Y424039D01*
X1539445Y424095D01*
X1539305Y424165D01*
X1539178Y424278D01*
X1539164Y424292D01*
X1539121Y424335D01*
X1539079Y424405D01*
X1539008Y424504D01*
X1538952Y424631D01*
X1538910Y424772D01*
X1538867Y424941D01*
X1538853Y425124D01*
Y425209D01*
X1538867Y425307D01*
X1538896Y425434D01*
X1538938Y425575D01*
X1538994Y425716D01*
X1539065Y425857D01*
X1539178Y425984D01*
X1539192Y425998D01*
X1539234Y426026D01*
X1539305Y426083D01*
X1539403Y426139D01*
X1539530Y426195D01*
X1539671Y426252D01*
X1539840Y426280D01*
X1540038Y426294D01*
X1540066D01*
X1540136D01*
X1540235Y426280D01*
D02*
G37*
G36*
X1544478Y426435D02*
X1544661Y426407D01*
X1544859Y426365D01*
X1545056Y426294D01*
X1545253Y426195D01*
X1545437Y426069D01*
X1545451Y426054D01*
X1545507Y425998D01*
X1545564Y425914D01*
X1545648Y425801D01*
X1545719Y425660D01*
X1545789Y425491D01*
X1545845Y425293D01*
X1545860Y425082D01*
Y424983D01*
X1545831Y424884D01*
X1545803Y424743D01*
X1545761Y424588D01*
X1545690Y424433D01*
X1545592Y424278D01*
X1545451Y424123D01*
X1545437Y424109D01*
X1545366Y424067D01*
X1545282Y423996D01*
X1545141Y423926D01*
X1544971Y423855D01*
X1544760Y423785D01*
X1544520Y423743D01*
X1544238Y423728D01*
X1544224D01*
X1544210D01*
X1544126D01*
X1543999Y423743D01*
X1543844Y423771D01*
X1543660Y423827D01*
X1543477Y423898D01*
X1543294Y423996D01*
X1543125Y424123D01*
X1543111Y424137D01*
X1543054Y424194D01*
X1542984Y424278D01*
X1542913Y424391D01*
X1542829Y424532D01*
X1542772Y424701D01*
X1542716Y424899D01*
X1542702Y425110D01*
Y425223D01*
X1542730Y425350D01*
X1542758Y425491D01*
X1542815Y425660D01*
X1542899Y425829D01*
X1543026Y425998D01*
X1543181Y426139D01*
X1543209Y426153D01*
X1543266Y426195D01*
X1543365Y426238D01*
X1543491Y426294D01*
X1543646Y426365D01*
X1543816Y426407D01*
X1544013Y426449D01*
X1544210Y426463D01*
X1544224D01*
X1544238D01*
X1544281D01*
X1544337D01*
X1544478Y426435D01*
D02*
G37*
%LPC*%
G36*
X1326163Y-138271D02*
X1320778D01*
X1321215D01*
Y-140019D01*
X1324753D01*
X1325049Y-141682D01*
X1325035D01*
X1325021Y-141668D01*
X1324937Y-141626D01*
X1324810Y-141583D01*
X1324655Y-141513D01*
X1324457Y-141456D01*
X1324246Y-141414D01*
X1324006Y-141372D01*
X1323767Y-141358D01*
X1323640D01*
X1323555Y-141372D01*
X1323457Y-141386D01*
X1323330Y-141400D01*
X1323189Y-141428D01*
X1323033Y-141470D01*
X1322709Y-141583D01*
X1322526Y-141654D01*
X1322357Y-141738D01*
X1322174Y-141851D01*
X1321990Y-141978D01*
X1321821Y-142119D01*
X1321652Y-142274D01*
X1321638Y-142288D01*
X1321610Y-142316D01*
X1321568Y-142373D01*
X1321511Y-142443D01*
X1321455Y-142528D01*
X1321370Y-142641D01*
X1321300Y-142767D01*
X1321215Y-142908D01*
X1321131Y-143063D01*
X1321060Y-143247D01*
X1320975Y-143444D01*
X1320919Y-143641D01*
X1320863Y-143867D01*
X1320820Y-144107D01*
X1320792Y-144360D01*
X1320778Y-144628D01*
Y-144473D01*
Y-144628D01*
Y-148082D01*
Y-144741D01*
X1320792Y-144826D01*
Y-144938D01*
X1320820Y-145065D01*
X1320834Y-145206D01*
X1320863Y-145347D01*
X1320947Y-145686D01*
X1321074Y-146052D01*
X1321159Y-146249D01*
X1321243Y-146433D01*
X1321356Y-146616D01*
X1321483Y-146799D01*
X1321497Y-146813D01*
X1321525Y-146856D01*
X1321582Y-146912D01*
X1321652Y-146996D01*
X1321751Y-147095D01*
X1321878Y-147208D01*
X1322019Y-147321D01*
X1322174Y-147434D01*
X1322357Y-147560D01*
X1322554Y-147673D01*
X1322766Y-147786D01*
X1323005Y-147885D01*
X1323259Y-147969D01*
X1323527Y-148026D01*
X1323823Y-148068D01*
X1324133Y-148082D01*
X1324260D01*
X1324359Y-148068D01*
X1324471Y-148054D01*
X1324612Y-148040D01*
X1324753Y-148026D01*
X1324922Y-147997D01*
X1325261Y-147913D01*
X1325641Y-147772D01*
X1325825Y-147701D01*
X1326008Y-147603D01*
X1326177Y-147490D01*
X1326346Y-147363D01*
X1326360Y-147349D01*
X1326389Y-147335D01*
X1326431Y-147293D01*
X1326487Y-147236D01*
X1326544Y-147152D01*
X1326628Y-147067D01*
X1326699Y-146968D01*
X1326783Y-146856D01*
X1326882Y-146715D01*
X1326967Y-146574D01*
X1327122Y-146235D01*
X1327263Y-145855D01*
X1327305Y-145643D01*
X1327347Y-145418D01*
X1325486Y-145220D01*
Y-145248D01*
X1325472Y-145319D01*
X1325444Y-145446D01*
X1325402Y-145587D01*
X1325345Y-145742D01*
X1325261Y-145911D01*
X1325148Y-146066D01*
X1325021Y-146221D01*
X1325007Y-146235D01*
X1324951Y-146278D01*
X1324866Y-146334D01*
X1324753Y-146404D01*
X1324626Y-146475D01*
X1324471Y-146531D01*
X1324288Y-146574D01*
X1324105Y-146588D01*
X1324077D01*
X1324006Y-146574D01*
X1323893Y-146559D01*
X1323752Y-146531D01*
X1323597Y-146475D01*
X1323428Y-146390D01*
X1323259Y-146264D01*
X1323104Y-146108D01*
X1323090Y-146080D01*
X1323033Y-146024D01*
X1322977Y-145911D01*
X1322893Y-145742D01*
X1322822Y-145545D01*
X1322752Y-145305D01*
X1322709Y-145009D01*
X1322695Y-144670D01*
Y-144656D01*
Y-144628D01*
Y-144586D01*
Y-144515D01*
X1322709Y-144360D01*
X1322752Y-144163D01*
X1322794Y-143938D01*
X1322864Y-143712D01*
X1322963Y-143500D01*
X1323104Y-143317D01*
X1323118Y-143303D01*
X1323174Y-143247D01*
X1323273Y-143176D01*
X1323386Y-143078D01*
X1323541Y-142993D01*
X1323724Y-142922D01*
X1323936Y-142866D01*
X1324161Y-142852D01*
X1324246D01*
X1324302Y-142866D01*
X1324443Y-142894D01*
X1324641Y-142937D01*
X1324866Y-143021D01*
X1325106Y-143148D01*
X1325233Y-143233D01*
X1325360Y-143331D01*
X1325486Y-143444D01*
X1325613Y-143571D01*
X1327122Y-143359D01*
X1326163Y-138271D01*
D02*
G37*
G36*
X1360292Y-138144D02*
X1356394D01*
X1358318D01*
Y-141978D01*
X1354470D01*
Y-138144D01*
X1352496D01*
Y-147899D01*
X1356394D01*
X1354470D01*
Y-143627D01*
X1358318D01*
Y-147899D01*
X1360292D01*
Y-138144D01*
D02*
G37*
G36*
X1332345Y-138087D02*
X1330181D01*
Y-147899D01*
X1334466D01*
D01*
X1332056D01*
Y-140836D01*
X1332070Y-140850D01*
X1332098Y-140878D01*
X1332154Y-140921D01*
X1332239Y-140991D01*
X1332338Y-141076D01*
X1332450Y-141160D01*
X1332591Y-141259D01*
X1332746Y-141372D01*
X1332915Y-141485D01*
X1333099Y-141597D01*
X1333296Y-141724D01*
X1333508Y-141837D01*
X1333959Y-142049D01*
X1334466Y-142246D01*
Y-140554D01*
X1334452D01*
X1334438Y-140540D01*
X1334396Y-140526D01*
X1334339Y-140512D01*
X1334198Y-140441D01*
X1334001Y-140357D01*
X1333761Y-140244D01*
X1333493Y-140089D01*
X1333197Y-139892D01*
X1332887Y-139666D01*
X1332873Y-139652D01*
X1332845Y-139638D01*
X1332803Y-139596D01*
X1332746Y-139539D01*
X1332591Y-139398D01*
X1332422Y-139215D01*
X1332225Y-138989D01*
X1332027Y-138708D01*
X1331844Y-138412D01*
X1331703Y-138087D01*
X1332345D01*
D02*
G37*
G36*
X1339316Y-143416D02*
X1335636D01*
Y-145291D01*
X1339316D01*
Y-143416D01*
D02*
G37*
G36*
X1369314Y-138144D02*
X1361575D01*
Y-147899D01*
Y-139793D01*
X1364451D01*
Y-147899D01*
X1369314D01*
X1366424D01*
Y-139793D01*
X1369314D01*
Y-138144D01*
D02*
G37*
G36*
X1347111Y-138087D02*
X1340683D01*
Y-148082D01*
Y-145164D01*
X1340697Y-145263D01*
X1340711Y-145375D01*
X1340725Y-145516D01*
X1340753Y-145657D01*
X1340796Y-145812D01*
X1340894Y-146165D01*
X1340965Y-146348D01*
X1341049Y-146531D01*
X1341148Y-146715D01*
X1341275Y-146898D01*
X1341402Y-147067D01*
X1341557Y-147236D01*
X1341571Y-147250D01*
X1341599Y-147278D01*
X1341642Y-147321D01*
X1341712Y-147363D01*
X1341797Y-147434D01*
X1341909Y-147504D01*
X1342022Y-147575D01*
X1342163Y-147659D01*
X1342318Y-147744D01*
X1342502Y-147814D01*
X1342685Y-147885D01*
X1342882Y-147955D01*
X1343108Y-147997D01*
X1343347Y-148040D01*
X1343587Y-148068D01*
X1343855Y-148082D01*
X1343982D01*
X1344080Y-148068D01*
X1344193Y-148054D01*
X1344320Y-148040D01*
X1344461Y-148026D01*
X1344630Y-147997D01*
X1344983Y-147913D01*
X1345349Y-147786D01*
X1345532Y-147716D01*
X1345716Y-147617D01*
X1345899Y-147518D01*
X1346068Y-147391D01*
X1346082Y-147377D01*
X1346110Y-147349D01*
X1346167Y-147307D01*
X1346237Y-147236D01*
X1346308Y-147152D01*
X1346392Y-147053D01*
X1346491Y-146926D01*
X1346590Y-146799D01*
X1346688Y-146644D01*
X1346787Y-146475D01*
X1346872Y-146292D01*
X1346942Y-146080D01*
X1347012Y-145869D01*
X1347069Y-145629D01*
X1347097Y-145389D01*
X1347111Y-145122D01*
Y-144981D01*
X1347097Y-144826D01*
X1347069Y-144642D01*
X1347012Y-144417D01*
X1346956Y-144163D01*
X1346857Y-143909D01*
X1346731Y-143656D01*
Y-143641D01*
X1346716Y-143627D01*
X1346660Y-143543D01*
X1346561Y-143430D01*
X1346420Y-143275D01*
X1346251Y-143106D01*
X1346040Y-142937D01*
X1345786Y-142781D01*
X1345490Y-142626D01*
X1345504D01*
X1345518Y-142612D01*
X1345603Y-142570D01*
X1345730Y-142500D01*
X1345885Y-142415D01*
X1346068Y-142288D01*
X1346237Y-142147D01*
X1346406Y-141978D01*
X1346547Y-141795D01*
X1346561Y-141767D01*
X1346604Y-141696D01*
X1346646Y-141597D01*
X1346702Y-141442D01*
X1346773Y-141273D01*
X1346815Y-141062D01*
X1346857Y-140850D01*
X1346872Y-140611D01*
Y-140597D01*
Y-140568D01*
Y-140512D01*
X1346857Y-140427D01*
X1346843Y-140343D01*
X1346829Y-140230D01*
X1346773Y-139976D01*
X1346688Y-139694D01*
X1346547Y-139384D01*
X1346463Y-139243D01*
X1346364Y-139088D01*
X1346237Y-138947D01*
X1346110Y-138806D01*
X1346096Y-138792D01*
X1346068Y-138778D01*
X1346026Y-138736D01*
X1345969Y-138693D01*
X1345885Y-138637D01*
X1345800Y-138581D01*
X1345687Y-138510D01*
X1345547Y-138440D01*
X1345405Y-138383D01*
X1345250Y-138313D01*
X1345067Y-138256D01*
X1344870Y-138200D01*
X1344658Y-138158D01*
X1344433Y-138115D01*
X1344193Y-138101D01*
X1343939Y-138087D01*
X1347111D01*
D02*
G37*
G36*
X1343855Y-148082D02*
D01*
X1343143D01*
X1343855D01*
D02*
G37*
%LPD*%
G36*
X1344109Y-139581D02*
X1344235Y-139610D01*
X1344376Y-139652D01*
X1344517Y-139708D01*
X1344658Y-139779D01*
X1344785Y-139892D01*
X1344799Y-139906D01*
X1344828Y-139948D01*
X1344884Y-140019D01*
X1344940Y-140117D01*
X1344997Y-140244D01*
X1345053Y-140385D01*
X1345081Y-140554D01*
X1345095Y-140752D01*
Y-140780D01*
Y-140850D01*
X1345081Y-140949D01*
X1345053Y-141076D01*
X1345025Y-141217D01*
X1344969Y-141358D01*
X1344884Y-141499D01*
X1344785Y-141626D01*
X1344771Y-141640D01*
X1344729Y-141668D01*
X1344658Y-141724D01*
X1344560Y-141781D01*
X1344433Y-141837D01*
X1344292Y-141893D01*
X1344123Y-141922D01*
X1343939Y-141936D01*
X1343855D01*
X1343756Y-141922D01*
X1343629Y-141893D01*
X1343488Y-141865D01*
X1343347Y-141809D01*
X1343206Y-141724D01*
X1343080Y-141626D01*
X1343065Y-141611D01*
X1343023Y-141569D01*
X1342981Y-141499D01*
X1342910Y-141386D01*
X1342854Y-141259D01*
X1342812Y-141118D01*
X1342769Y-140935D01*
X1342755Y-140737D01*
Y-140709D01*
Y-140653D01*
X1342769Y-140554D01*
X1342798Y-140441D01*
X1342840Y-140301D01*
X1342896Y-140160D01*
X1342967Y-140019D01*
X1343080Y-139892D01*
X1343094Y-139878D01*
X1343136Y-139835D01*
X1343206Y-139793D01*
X1343305Y-139722D01*
X1343432Y-139666D01*
X1343573Y-139624D01*
X1343742Y-139581D01*
X1343925Y-139567D01*
X1344010D01*
X1344109Y-139581D01*
D02*
G37*
G36*
X1343714Y-138101D02*
X1343587Y-138115D01*
X1343460Y-138130D01*
X1343305Y-138144D01*
X1343150Y-138172D01*
X1342798Y-138256D01*
X1342431Y-138383D01*
X1342262Y-138468D01*
X1342079Y-138567D01*
X1341924Y-138679D01*
X1341768Y-138806D01*
X1341754Y-138820D01*
X1341740Y-138834D01*
X1341698Y-138877D01*
X1341642Y-138933D01*
X1341585Y-139003D01*
X1341529Y-139088D01*
X1341374Y-139300D01*
X1341233Y-139567D01*
X1341120Y-139863D01*
X1341021Y-140216D01*
X1341007Y-140413D01*
X1340993Y-140611D01*
Y-140625D01*
Y-140639D01*
Y-140723D01*
X1341007Y-140850D01*
X1341035Y-141019D01*
X1341078Y-141203D01*
X1341148Y-141400D01*
X1341233Y-141611D01*
X1341360Y-141823D01*
X1341374Y-141851D01*
X1341430Y-141908D01*
X1341501Y-142006D01*
X1341613Y-142119D01*
X1341754Y-142260D01*
X1341924Y-142387D01*
X1342121Y-142514D01*
X1342346Y-142626D01*
X1342332D01*
X1342304Y-142641D01*
X1342262Y-142655D01*
X1342206Y-142683D01*
X1342065Y-142767D01*
X1341881Y-142880D01*
X1341684Y-143007D01*
X1341472Y-143176D01*
X1341275Y-143374D01*
X1341106Y-143599D01*
X1341092Y-143627D01*
X1341035Y-143712D01*
X1340965Y-143839D01*
X1340894Y-144008D01*
X1340810Y-144219D01*
X1340753Y-144473D01*
X1340697Y-144741D01*
X1340683Y-145037D01*
Y-138087D01*
X1343798D01*
X1343714Y-138101D01*
D02*
G37*
G36*
X1344151Y-143444D02*
X1344292Y-143472D01*
X1344461Y-143529D01*
X1344630Y-143613D01*
X1344799Y-143740D01*
X1344940Y-143895D01*
X1344954Y-143923D01*
X1344997Y-143980D01*
X1345039Y-144079D01*
X1345095Y-144205D01*
X1345166Y-144360D01*
X1345208Y-144530D01*
X1345250Y-144727D01*
X1345264Y-144924D01*
Y-144938D01*
Y-144952D01*
Y-144995D01*
Y-145051D01*
X1345236Y-145192D01*
X1345208Y-145375D01*
X1345166Y-145573D01*
X1345095Y-145770D01*
X1344997Y-145967D01*
X1344870Y-146151D01*
X1344856Y-146165D01*
X1344799Y-146221D01*
X1344715Y-146278D01*
X1344602Y-146362D01*
X1344461Y-146433D01*
X1344292Y-146503D01*
X1344095Y-146559D01*
X1343883Y-146574D01*
X1343784D01*
X1343686Y-146545D01*
X1343545Y-146517D01*
X1343390Y-146475D01*
X1343235Y-146404D01*
X1343080Y-146306D01*
X1342924Y-146165D01*
X1342910Y-146151D01*
X1342868Y-146080D01*
X1342798Y-145996D01*
X1342727Y-145855D01*
X1342657Y-145686D01*
X1342586Y-145474D01*
X1342544Y-145234D01*
X1342530Y-144952D01*
Y-144938D01*
Y-144924D01*
Y-144840D01*
X1342544Y-144713D01*
X1342572Y-144558D01*
X1342628Y-144375D01*
X1342699Y-144191D01*
X1342798Y-144008D01*
X1342924Y-143839D01*
X1342939Y-143825D01*
X1342995Y-143768D01*
X1343080Y-143698D01*
X1343192Y-143627D01*
X1343333Y-143543D01*
X1343502Y-143486D01*
X1343700Y-143430D01*
X1343911Y-143416D01*
X1344024D01*
X1344151Y-143444D01*
D02*
G37*
%LPC*%
G36*
X1549908Y139192D02*
X1539786D01*
Y130071D01*
Y134188D01*
X1539801Y134061D01*
X1539814Y133906D01*
X1539829Y133722D01*
X1539843Y133525D01*
X1539885Y133314D01*
X1539970Y132862D01*
X1540111Y132397D01*
X1540195Y132158D01*
X1540294Y131932D01*
X1540407Y131721D01*
X1540548Y131523D01*
X1540562Y131509D01*
X1540576Y131481D01*
X1540632Y131425D01*
X1540689Y131354D01*
X1540759Y131270D01*
X1540858Y131185D01*
X1540970Y131086D01*
X1541097Y130973D01*
X1541238Y130861D01*
X1541393Y130748D01*
X1541563Y130635D01*
X1541760Y130536D01*
X1541957Y130424D01*
X1542169Y130339D01*
X1542408Y130254D01*
X1542648Y130198D01*
X1543015Y132158D01*
X1543000D01*
X1542986Y132172D01*
X1542902Y132200D01*
X1542775Y132256D01*
X1542606Y132341D01*
X1542422Y132439D01*
X1542239Y132580D01*
X1542056Y132750D01*
X1541887Y132947D01*
X1541873Y132975D01*
X1541816Y133046D01*
X1541746Y133173D01*
X1541675Y133328D01*
X1541591Y133539D01*
X1541534Y133779D01*
X1541478Y134047D01*
X1541464Y134357D01*
Y134484D01*
X1541478Y134568D01*
X1541492Y134681D01*
X1541506Y134808D01*
X1541534Y134949D01*
X1541563Y135104D01*
X1541661Y135428D01*
X1541732Y135597D01*
X1541816Y135766D01*
X1541915Y135936D01*
X1542014Y136105D01*
X1542155Y136260D01*
X1542296Y136415D01*
X1542310Y136429D01*
X1542338Y136443D01*
X1542380Y136485D01*
X1542451Y136528D01*
X1542535Y136584D01*
X1542634Y136655D01*
X1542761Y136725D01*
X1542902Y136781D01*
X1543071Y136852D01*
X1543254Y136922D01*
X1543452Y136993D01*
X1543663Y137049D01*
X1543903Y137092D01*
X1544171Y137134D01*
X1544438Y137148D01*
X1544734Y137162D01*
X1544749D01*
X1544805D01*
X1544904D01*
X1545016Y137148D01*
X1545171Y137134D01*
X1545327Y137120D01*
X1545524Y137092D01*
X1545721Y137063D01*
X1546144Y136979D01*
X1546581Y136838D01*
X1546793Y136753D01*
X1546990Y136655D01*
X1547187Y136528D01*
X1547356Y136401D01*
X1547370Y136387D01*
X1547399Y136358D01*
X1547441Y136316D01*
X1547497Y136260D01*
X1547554Y136175D01*
X1547638Y136091D01*
X1547709Y135978D01*
X1547793Y135851D01*
X1547878Y135710D01*
X1547948Y135569D01*
X1548089Y135217D01*
X1548146Y135019D01*
X1548188Y134822D01*
X1548216Y134596D01*
X1548230Y134371D01*
Y134258D01*
X1548216Y134145D01*
X1548202Y133976D01*
X1548174Y133793D01*
X1548132Y133581D01*
X1548075Y133356D01*
X1547991Y133130D01*
Y133116D01*
X1547977Y133102D01*
X1547948Y133032D01*
X1547892Y132905D01*
X1547822Y132764D01*
X1547737Y132595D01*
X1547638Y132411D01*
X1547526Y132228D01*
X1547399Y132059D01*
X1546144D01*
Y134314D01*
X1544495D01*
Y130071D01*
X1548414D01*
X1548442Y130099D01*
X1548470Y130142D01*
X1548512Y130184D01*
X1548569Y130254D01*
X1548625Y130325D01*
X1548766Y130522D01*
X1548921Y130790D01*
X1549104Y131100D01*
X1549288Y131453D01*
X1549457Y131876D01*
Y131890D01*
X1549471Y131932D01*
X1549499Y131988D01*
X1549527Y132073D01*
X1549556Y132186D01*
X1549598Y132313D01*
X1549640Y132454D01*
X1549682Y132609D01*
X1549767Y132961D01*
X1549837Y133370D01*
X1549894Y133793D01*
X1549908Y134244D01*
Y134399D01*
X1549894Y134498D01*
Y134639D01*
X1549880Y134794D01*
X1549852Y134963D01*
X1549823Y135160D01*
X1549753Y135569D01*
X1549640Y136020D01*
X1549485Y136485D01*
X1549386Y136697D01*
X1549274Y136922D01*
X1549259Y136937D01*
X1549245Y136965D01*
X1549203Y137035D01*
X1549147Y137106D01*
X1549090Y137204D01*
X1549006Y137303D01*
X1548907Y137430D01*
X1548794Y137557D01*
X1548541Y137839D01*
X1548216Y138121D01*
X1547850Y138389D01*
X1547427Y138628D01*
X1547413D01*
X1547370Y138656D01*
X1547300Y138685D01*
X1547216Y138713D01*
X1547103Y138755D01*
X1546976Y138811D01*
X1546821Y138854D01*
X1546652Y138910D01*
X1546468Y138966D01*
X1546257Y139009D01*
X1545820Y139107D01*
X1545341Y139164D01*
X1544819Y139192D01*
X1549908D01*
D01*
D02*
G37*
G36*
X1549725Y128239D02*
X1539970D01*
Y120767D01*
D01*
Y124644D01*
X1539984Y124489D01*
Y124122D01*
X1540012Y123728D01*
X1540040Y123333D01*
X1540054Y123164D01*
X1540068Y122994D01*
X1540096Y122854D01*
X1540125Y122741D01*
Y122727D01*
X1540139Y122698D01*
X1540153Y122656D01*
X1540167Y122600D01*
X1540237Y122445D01*
X1540322Y122247D01*
X1540449Y122036D01*
X1540618Y121796D01*
X1540829Y121571D01*
X1541083Y121345D01*
X1541097D01*
X1541111Y121317D01*
X1541154Y121289D01*
X1541210Y121261D01*
X1541295Y121204D01*
X1541379Y121162D01*
X1541478Y121105D01*
X1541591Y121049D01*
X1541873Y120950D01*
X1542183Y120852D01*
X1542563Y120795D01*
X1542972Y120767D01*
X1543127D01*
X1543198Y120781D01*
X1543297D01*
X1543494Y120809D01*
X1543734Y120852D01*
X1544001Y120908D01*
X1544255Y120993D01*
X1544495Y121105D01*
X1544523Y121120D01*
X1544593Y121162D01*
X1544706Y121232D01*
X1544847Y121331D01*
X1544988Y121444D01*
X1545157Y121599D01*
X1545312Y121754D01*
X1545453Y121937D01*
X1545467Y121966D01*
X1545510Y122022D01*
X1545566Y122121D01*
X1545637Y122247D01*
X1545721Y122402D01*
X1545792Y122572D01*
X1545862Y122755D01*
X1545918Y122952D01*
Y122980D01*
X1545933Y123023D01*
Y123079D01*
X1545947Y123150D01*
X1545961Y123248D01*
X1545975Y123347D01*
Y123474D01*
X1545989Y123601D01*
X1546003Y123756D01*
X1546017Y123925D01*
X1546031Y124108D01*
Y124306D01*
X1546045Y124517D01*
Y126265D01*
X1549725D01*
Y128239D01*
D02*
G37*
G36*
Y119217D02*
X1539970D01*
Y117243D01*
X1549725D01*
Y119217D01*
D02*
G37*
G36*
X1549908Y115763D02*
X1539786D01*
D01*
X1544777D01*
X1544664Y115749D01*
X1544537D01*
X1544396Y115735D01*
X1544227Y115721D01*
X1544044Y115706D01*
X1543649Y115650D01*
X1543226Y115580D01*
X1542803Y115467D01*
X1542408Y115326D01*
X1542394D01*
X1542380Y115312D01*
X1542338Y115283D01*
X1542281Y115269D01*
X1542141Y115185D01*
X1541957Y115086D01*
X1541746Y114959D01*
X1541534Y114804D01*
X1541295Y114621D01*
X1541069Y114424D01*
X1541055Y114410D01*
X1541041Y114395D01*
X1540970Y114325D01*
X1540858Y114198D01*
X1540731Y114043D01*
X1540590Y113860D01*
X1540435Y113648D01*
X1540294Y113409D01*
X1540181Y113155D01*
Y113141D01*
X1540167Y113112D01*
X1540139Y113056D01*
X1540125Y112986D01*
X1540082Y112901D01*
X1540054Y112802D01*
X1540026Y112676D01*
X1539984Y112549D01*
X1539913Y112239D01*
X1539843Y111886D01*
X1539801Y111477D01*
X1539786Y111054D01*
Y110956D01*
X1539801Y110843D01*
Y110702D01*
X1539829Y110519D01*
X1539857Y110307D01*
X1539899Y110068D01*
X1539955Y109814D01*
X1540026Y109546D01*
X1540111Y109264D01*
X1540223Y108982D01*
X1540350Y108686D01*
X1540505Y108404D01*
X1540689Y108122D01*
X1540900Y107854D01*
X1541140Y107601D01*
X1541154Y107586D01*
X1541196Y107544D01*
X1541281Y107474D01*
X1541379Y107403D01*
X1541520Y107305D01*
X1541689Y107192D01*
X1541887Y107079D01*
X1542112Y106952D01*
X1542352Y106825D01*
X1542634Y106713D01*
X1542944Y106600D01*
X1543268Y106501D01*
X1543635Y106417D01*
X1544016Y106360D01*
X1544424Y106318D01*
X1544861Y106304D01*
X1544960D01*
X1545087Y106318D01*
X1545256D01*
X1545453Y106346D01*
X1545679Y106374D01*
X1545947Y106417D01*
X1546215Y106459D01*
X1546511Y106529D01*
X1546821Y106614D01*
X1547131Y106727D01*
X1547441Y106854D01*
X1547737Y106994D01*
X1548033Y107178D01*
X1548315Y107375D01*
X1548583Y107601D01*
X1548597Y107615D01*
X1548639Y107657D01*
X1548710Y107727D01*
X1548794Y107840D01*
X1548893Y107967D01*
X1549006Y108122D01*
X1549119Y108306D01*
X1549245Y108503D01*
X1549372Y108743D01*
X1549485Y108996D01*
X1549598Y109278D01*
X1549697Y109588D01*
X1549781Y109913D01*
X1549852Y110265D01*
X1549894Y110632D01*
X1549908Y111026D01*
Y111336D01*
Y111125D01*
X1549894Y111238D01*
X1549880Y111379D01*
X1549866Y111562D01*
X1549837Y111773D01*
X1549795Y112013D01*
X1549739Y112267D01*
X1549668Y112549D01*
X1549584Y112816D01*
X1549471Y113112D01*
X1549344Y113394D01*
X1549203Y113691D01*
X1549020Y113958D01*
X1548822Y114226D01*
X1548583Y114480D01*
X1548569Y114494D01*
X1548526Y114536D01*
X1548442Y114593D01*
X1548343Y114677D01*
X1548202Y114776D01*
X1548033Y114889D01*
X1547850Y115001D01*
X1547624Y115114D01*
X1547385Y115241D01*
X1547103Y115354D01*
X1546807Y115467D01*
X1546482Y115565D01*
X1546130Y115650D01*
X1545749Y115706D01*
X1545341Y115749D01*
X1544918Y115763D01*
X1549908D01*
D01*
D02*
G37*
G36*
Y101384D02*
X1539913D01*
D01*
X1544636D01*
X1544453Y101370D01*
X1544227Y101356D01*
X1543959Y101327D01*
X1543677Y101299D01*
X1543367Y101271D01*
X1543043Y101215D01*
X1542719Y101158D01*
X1542380Y101074D01*
X1542056Y100989D01*
X1541746Y100876D01*
X1541450Y100750D01*
X1541168Y100609D01*
X1540928Y100439D01*
X1540914Y100425D01*
X1540886Y100397D01*
X1540829Y100355D01*
X1540773Y100284D01*
X1540689Y100214D01*
X1540604Y100115D01*
X1540519Y99988D01*
X1540421Y99861D01*
X1540322Y99706D01*
X1540237Y99551D01*
X1540153Y99368D01*
X1540068Y99171D01*
X1540012Y98959D01*
X1539955Y98720D01*
X1539927Y98480D01*
X1539913Y98226D01*
Y98522D01*
Y98226D01*
D01*
Y95054D01*
Y98085D01*
X1539927Y97986D01*
X1539941Y97874D01*
X1539970Y97733D01*
X1539998Y97592D01*
X1540040Y97423D01*
X1540096Y97239D01*
X1540167Y97070D01*
X1540237Y96887D01*
X1540336Y96704D01*
X1540463Y96520D01*
X1540590Y96337D01*
X1540745Y96168D01*
X1540928Y96013D01*
X1540942Y95999D01*
X1540985Y95971D01*
X1541055Y95928D01*
X1541154Y95858D01*
X1541295Y95787D01*
X1541464Y95703D01*
X1541647Y95618D01*
X1541887Y95534D01*
X1542141Y95449D01*
X1542437Y95350D01*
X1542761Y95280D01*
X1543127Y95209D01*
X1543522Y95139D01*
X1543945Y95097D01*
X1544410Y95068D01*
X1544918Y95054D01*
X1545186D01*
X1545369Y95068D01*
X1545594Y95083D01*
X1545862Y95111D01*
X1546144Y95139D01*
X1546454Y95167D01*
X1546779Y95224D01*
X1547117Y95294D01*
X1547441Y95364D01*
X1547765Y95463D01*
X1548089Y95562D01*
X1548385Y95703D01*
X1548667Y95844D01*
X1548907Y96013D01*
X1548921Y96027D01*
X1548949Y96055D01*
X1549006Y96097D01*
X1549062Y96154D01*
X1549133Y96238D01*
X1549217Y96337D01*
X1549316Y96464D01*
X1549400Y96591D01*
X1549499Y96746D01*
X1549598Y96901D01*
X1549682Y97084D01*
X1549753Y97282D01*
X1549809Y97493D01*
X1549866Y97733D01*
X1549894Y97972D01*
X1549908Y98226D01*
Y95294D01*
Y98282D01*
X1549894Y98367D01*
Y98466D01*
X1549880Y98579D01*
X1549852Y98720D01*
X1549823Y98875D01*
X1549767Y99044D01*
X1549711Y99227D01*
X1549640Y99410D01*
X1549556Y99608D01*
X1549443Y99791D01*
X1549330Y99988D01*
X1549175Y100171D01*
X1549020Y100355D01*
X1548822Y100524D01*
X1548808Y100538D01*
X1548766Y100566D01*
X1548696Y100609D01*
X1548611Y100651D01*
X1548484Y100721D01*
X1548329Y100792D01*
X1548132Y100876D01*
X1547920Y100947D01*
X1547667Y101031D01*
X1547385Y101116D01*
X1547060Y101187D01*
X1546708Y101243D01*
X1546313Y101299D01*
X1545876Y101342D01*
X1545411Y101370D01*
X1544904Y101384D01*
X1549908D01*
D01*
D02*
G37*
G36*
X1547117Y93616D02*
X1545242D01*
Y89937D01*
X1547117D01*
Y93616D01*
D02*
G37*
G36*
X1549725Y89260D02*
X1540096D01*
Y82860D01*
X1541450D01*
X1541464Y82874D01*
X1541492Y82903D01*
X1541534Y82945D01*
X1541591Y83001D01*
X1541675Y83072D01*
X1541774Y83156D01*
X1541887Y83255D01*
X1542028Y83368D01*
X1542183Y83481D01*
X1542352Y83608D01*
X1542535Y83749D01*
X1542733Y83890D01*
X1542958Y84030D01*
X1543184Y84171D01*
X1543438Y84326D01*
X1543705Y84481D01*
X1543719Y84496D01*
X1543776Y84524D01*
X1543846Y84566D01*
X1543959Y84622D01*
X1544086Y84679D01*
X1544255Y84763D01*
X1544438Y84848D01*
X1544636Y84947D01*
X1544861Y85045D01*
X1545101Y85144D01*
X1545355Y85257D01*
X1545623Y85356D01*
X1546201Y85553D01*
X1546807Y85736D01*
X1546821D01*
X1546877Y85750D01*
X1546962Y85779D01*
X1547089Y85807D01*
X1547230Y85835D01*
X1547385Y85863D01*
X1547582Y85905D01*
X1547779Y85948D01*
X1548005Y85990D01*
X1548230Y86018D01*
X1548724Y86089D01*
X1549231Y86131D01*
X1549725Y86145D01*
Y83072D01*
Y89260D01*
D02*
G37*
%LPD*%
G36*
X1544565Y139178D02*
X1544424D01*
X1544269Y139164D01*
X1544100Y139136D01*
X1543903Y139107D01*
X1543494Y139037D01*
X1543029Y138924D01*
X1542563Y138769D01*
X1542338Y138670D01*
X1542112Y138558D01*
X1542098Y138544D01*
X1542056Y138529D01*
X1542000Y138487D01*
X1541915Y138445D01*
X1541816Y138374D01*
X1541703Y138290D01*
X1541577Y138191D01*
X1541436Y138092D01*
X1541295Y137966D01*
X1541140Y137825D01*
X1540985Y137669D01*
X1540829Y137500D01*
X1540689Y137317D01*
X1540533Y137134D01*
X1540280Y136697D01*
Y136683D01*
X1540252Y136655D01*
X1540237Y136598D01*
X1540195Y136528D01*
X1540167Y136429D01*
X1540125Y136330D01*
X1540082Y136189D01*
X1540026Y136048D01*
X1539984Y135893D01*
X1539941Y135710D01*
X1539899Y135513D01*
X1539857Y135315D01*
X1539801Y134864D01*
X1539786Y134357D01*
Y139192D01*
X1544664D01*
X1544565Y139178D01*
D02*
G37*
G36*
X1544396Y124912D02*
X1544382Y124813D01*
Y124559D01*
X1544368Y124306D01*
X1544340Y124052D01*
X1544297Y123826D01*
X1544283Y123728D01*
X1544255Y123643D01*
X1544241Y123629D01*
X1544227Y123573D01*
X1544185Y123502D01*
X1544142Y123418D01*
X1544072Y123319D01*
X1543987Y123220D01*
X1543889Y123107D01*
X1543776Y123023D01*
X1543762Y123009D01*
X1543719Y122980D01*
X1543649Y122952D01*
X1543550Y122910D01*
X1543438Y122868D01*
X1543311Y122825D01*
X1543170Y122811D01*
X1543015Y122797D01*
X1542986D01*
X1542930D01*
X1542831Y122811D01*
X1542704Y122839D01*
X1542563Y122882D01*
X1542408Y122938D01*
X1542267Y123009D01*
X1542126Y123121D01*
X1542112Y123135D01*
X1542070Y123178D01*
X1542014Y123248D01*
X1541943Y123333D01*
X1541859Y123446D01*
X1541788Y123587D01*
X1541732Y123742D01*
X1541689Y123911D01*
Y123925D01*
X1541675Y123981D01*
X1541661Y124080D01*
X1541647Y124221D01*
Y124404D01*
X1541633Y124531D01*
Y124658D01*
X1541619Y124799D01*
Y126265D01*
X1544396D01*
Y124912D01*
D02*
G37*
G36*
X1545115Y113719D02*
X1545256Y113705D01*
X1545425Y113691D01*
X1545594Y113662D01*
X1545792Y113634D01*
X1546201Y113550D01*
X1546609Y113409D01*
X1546821Y113324D01*
X1547018Y113225D01*
X1547201Y113098D01*
X1547370Y112972D01*
X1547385Y112957D01*
X1547413Y112929D01*
X1547455Y112887D01*
X1547497Y112831D01*
X1547568Y112760D01*
X1547638Y112661D01*
X1547723Y112563D01*
X1547793Y112436D01*
X1547963Y112168D01*
X1548089Y111830D01*
X1548146Y111646D01*
X1548188Y111449D01*
X1548216Y111238D01*
X1548230Y111026D01*
Y110913D01*
X1548216Y110829D01*
X1548202Y110730D01*
X1548188Y110617D01*
X1548118Y110350D01*
X1548019Y110039D01*
X1547948Y109884D01*
X1547878Y109715D01*
X1547779Y109560D01*
X1547667Y109391D01*
X1547540Y109236D01*
X1547385Y109095D01*
X1547370Y109081D01*
X1547342Y109067D01*
X1547300Y109024D01*
X1547230Y108982D01*
X1547131Y108912D01*
X1547018Y108855D01*
X1546891Y108785D01*
X1546736Y108714D01*
X1546567Y108644D01*
X1546384Y108573D01*
X1546172Y108503D01*
X1545933Y108446D01*
X1545693Y108404D01*
X1545425Y108362D01*
X1545129Y108348D01*
X1544819Y108334D01*
X1544805D01*
X1544749D01*
X1544664D01*
X1544537Y108348D01*
X1544396Y108362D01*
X1544241Y108376D01*
X1544058Y108390D01*
X1543875Y108432D01*
X1543466Y108517D01*
X1543043Y108644D01*
X1542831Y108728D01*
X1542648Y108827D01*
X1542465Y108954D01*
X1542296Y109081D01*
X1542281Y109095D01*
X1542253Y109109D01*
X1542225Y109151D01*
X1542169Y109208D01*
X1542098Y109292D01*
X1542028Y109377D01*
X1541957Y109475D01*
X1541873Y109602D01*
X1541802Y109729D01*
X1541732Y109884D01*
X1541591Y110209D01*
X1541534Y110392D01*
X1541506Y110589D01*
X1541478Y110801D01*
X1541464Y111026D01*
Y111139D01*
X1541478Y111224D01*
X1541492Y111336D01*
X1541506Y111449D01*
X1541563Y111731D01*
X1541675Y112041D01*
X1541732Y112210D01*
X1541816Y112380D01*
X1541915Y112535D01*
X1542028Y112704D01*
X1542155Y112859D01*
X1542310Y113000D01*
X1542324Y113014D01*
X1542352Y113028D01*
X1542394Y113070D01*
X1542465Y113112D01*
X1542563Y113169D01*
X1542662Y113225D01*
X1542789Y113296D01*
X1542944Y113366D01*
X1543113Y113437D01*
X1543297Y113507D01*
X1543508Y113564D01*
X1543734Y113620D01*
X1543987Y113662D01*
X1544255Y113705D01*
X1544537Y113719D01*
X1544847Y113733D01*
X1544861D01*
X1544918D01*
X1545002D01*
X1545115Y113719D01*
D02*
G37*
G36*
X1545496Y99396D02*
X1545679D01*
X1545862Y99382D01*
X1546257Y99368D01*
X1546652Y99340D01*
X1546835Y99326D01*
X1547004Y99298D01*
X1547159Y99269D01*
X1547300Y99241D01*
X1547328Y99227D01*
X1547399Y99213D01*
X1547511Y99171D01*
X1547638Y99128D01*
X1547779Y99058D01*
X1547920Y98987D01*
X1548047Y98903D01*
X1548146Y98818D01*
X1548160Y98804D01*
X1548174Y98776D01*
X1548216Y98720D01*
X1548245Y98649D01*
X1548287Y98564D01*
X1548329Y98466D01*
X1548343Y98353D01*
X1548357Y98226D01*
Y98170D01*
X1548343Y98099D01*
X1548329Y98029D01*
X1548301Y97930D01*
X1548273Y97831D01*
X1548216Y97733D01*
X1548146Y97634D01*
X1548132Y97620D01*
X1548104Y97592D01*
X1548047Y97535D01*
X1547963Y97479D01*
X1547864Y97423D01*
X1547723Y97352D01*
X1547568Y97282D01*
X1547370Y97225D01*
X1547356D01*
X1547342Y97211D01*
X1547286D01*
X1547230Y97197D01*
X1547145Y97183D01*
X1547046Y97169D01*
X1546933Y97141D01*
X1546793Y97127D01*
X1546638Y97113D01*
X1546454Y97084D01*
X1546257Y97070D01*
X1546031Y97056D01*
X1545792Y97042D01*
X1545524D01*
X1545228Y97028D01*
X1544918D01*
X1544904D01*
X1544847D01*
X1544749D01*
X1544636D01*
X1544495D01*
X1544340Y97042D01*
X1544156D01*
X1543973Y97056D01*
X1543578Y97070D01*
X1543198Y97098D01*
X1543015Y97127D01*
X1542831Y97155D01*
X1542676Y97183D01*
X1542549Y97211D01*
X1542535D01*
X1542521Y97225D01*
X1542451Y97239D01*
X1542338Y97282D01*
X1542197Y97324D01*
X1542056Y97394D01*
X1541915Y97465D01*
X1541788Y97549D01*
X1541689Y97634D01*
X1541675Y97648D01*
X1541647Y97676D01*
X1541619Y97733D01*
X1541577Y97803D01*
X1541534Y97888D01*
X1541492Y97986D01*
X1541478Y98099D01*
X1541464Y98226D01*
Y98282D01*
X1541478Y98353D01*
X1541492Y98424D01*
X1541520Y98522D01*
X1541563Y98621D01*
X1541619Y98734D01*
X1541689Y98832D01*
X1541703Y98846D01*
X1541732Y98875D01*
X1541788Y98917D01*
X1541859Y98973D01*
X1541971Y99044D01*
X1542098Y99100D01*
X1542267Y99171D01*
X1542465Y99227D01*
X1542479D01*
X1542493Y99241D01*
X1542549D01*
X1542606Y99255D01*
X1542690Y99269D01*
X1542789Y99283D01*
X1542902Y99298D01*
X1543043Y99312D01*
X1543212Y99340D01*
X1543381Y99354D01*
X1543593Y99368D01*
X1543804Y99382D01*
X1544058Y99396D01*
X1544312D01*
X1544608Y99410D01*
X1544918D01*
X1544932D01*
X1544988D01*
X1545087D01*
X1545200D01*
X1545341D01*
X1545496Y99396D01*
D02*
G37*
G36*
X1549725Y87949D02*
X1549697D01*
X1549640D01*
X1549527Y87935D01*
X1549372D01*
X1549189Y87921D01*
X1548978Y87893D01*
X1548724Y87865D01*
X1548456Y87823D01*
X1548160Y87780D01*
X1547836Y87724D01*
X1547497Y87653D01*
X1547131Y87583D01*
X1546764Y87484D01*
X1546384Y87386D01*
X1546003Y87259D01*
X1545608Y87118D01*
X1545580Y87104D01*
X1545510Y87075D01*
X1545397Y87033D01*
X1545256Y86977D01*
X1545073Y86892D01*
X1544847Y86793D01*
X1544608Y86681D01*
X1544340Y86554D01*
X1544058Y86413D01*
X1543762Y86258D01*
X1543438Y86089D01*
X1543127Y85891D01*
X1542465Y85482D01*
X1541830Y85017D01*
Y89260D01*
X1549725D01*
Y87949D01*
D02*
G37*
%LPC*%
G36*
X1018662Y-142716D02*
X1014764D01*
X1016688D01*
Y-146550D01*
X1012840D01*
Y-142716D01*
X1010866D01*
Y-152471D01*
X1014764D01*
X1012840D01*
Y-148199D01*
X1016688D01*
Y-152471D01*
X1018662D01*
Y-142716D01*
D02*
G37*
G36*
X997686Y-147988D02*
X994006D01*
Y-149863D01*
X997686D01*
Y-147988D01*
D02*
G37*
G36*
X1027684Y-142716D02*
X1019945D01*
Y-152471D01*
Y-144365D01*
X1022821D01*
Y-152471D01*
X1027684D01*
X1024794D01*
Y-144365D01*
X1027684D01*
Y-142716D01*
D02*
G37*
G36*
X993330Y-142843D02*
X986930D01*
Y-144196D01*
X986944Y-144210D01*
X986972Y-144238D01*
X987014Y-144280D01*
X987070Y-144337D01*
X987141Y-144421D01*
X987226Y-144520D01*
X987324Y-144633D01*
X987437Y-144774D01*
X987550Y-144929D01*
X987677Y-145098D01*
X987818Y-145281D01*
X987959Y-145479D01*
X988100Y-145704D01*
X988241Y-145930D01*
X988396Y-146184D01*
X988551Y-146451D01*
X988565Y-146465D01*
X988593Y-146522D01*
X988635Y-146592D01*
X988692Y-146705D01*
X988748Y-146832D01*
X988833Y-147001D01*
X988917Y-147184D01*
X989016Y-147382D01*
X989115Y-147607D01*
X989213Y-147847D01*
X989326Y-148101D01*
X989425Y-148369D01*
X989622Y-148947D01*
X989805Y-149553D01*
Y-149567D01*
X989819Y-149623D01*
X989848Y-149708D01*
X989876Y-149835D01*
X989904Y-149976D01*
X989932Y-150131D01*
X989975Y-150328D01*
X990017Y-150525D01*
X990059Y-150751D01*
X990087Y-150976D01*
X990158Y-151470D01*
X990200Y-151977D01*
X990214Y-152471D01*
X993330D01*
Y-142843D01*
D02*
G37*
G36*
X1005453Y-142659D02*
X999124D01*
Y-152654D01*
Y-147931D01*
X999138Y-148115D01*
X999152Y-148340D01*
X999180Y-148608D01*
X999208Y-148890D01*
X999236Y-149200D01*
X999293Y-149524D01*
X999363Y-149863D01*
X999434Y-150187D01*
X999532Y-150511D01*
X999631Y-150836D01*
X999772Y-151131D01*
X999913Y-151413D01*
X1000082Y-151653D01*
X1000096Y-151667D01*
X1000124Y-151695D01*
X1000167Y-151752D01*
X1000223Y-151808D01*
X1000308Y-151879D01*
X1000406Y-151963D01*
X1000533Y-152062D01*
X1000660Y-152147D01*
X1000815Y-152245D01*
X1000970Y-152344D01*
X1001153Y-152428D01*
X1001351Y-152499D01*
X1001562Y-152555D01*
X1001802Y-152612D01*
X1002042Y-152640D01*
X1002295Y-152654D01*
X1002352D01*
X1002436Y-152640D01*
X1002535D01*
X1002648Y-152626D01*
X1002789Y-152598D01*
X1002944Y-152569D01*
X1003113Y-152513D01*
X1003296Y-152457D01*
X1003480Y-152386D01*
X1003677Y-152302D01*
X1003860Y-152189D01*
X1004057Y-152076D01*
X1004241Y-151921D01*
X1004424Y-151766D01*
X1004593Y-151568D01*
X1004607Y-151554D01*
X1004635Y-151512D01*
X1004678Y-151442D01*
X1004720Y-151357D01*
X1004790Y-151230D01*
X1004861Y-151075D01*
X1004946Y-150878D01*
X1005016Y-150666D01*
X1005101Y-150413D01*
X1005185Y-150131D01*
X1005256Y-149806D01*
X1005312Y-149454D01*
X1005368Y-149059D01*
X1005411Y-148622D01*
X1005439Y-148157D01*
X1005453Y-147650D01*
Y-147382D01*
X1005439Y-147198D01*
X1005425Y-146973D01*
X1005397Y-146705D01*
X1005368Y-146423D01*
X1005340Y-146113D01*
X1005284Y-145789D01*
X1005228Y-145464D01*
X1005143Y-145126D01*
X1005058Y-144802D01*
X1004946Y-144492D01*
X1004819Y-144196D01*
X1004678Y-143914D01*
X1004509Y-143674D01*
X1004494Y-143660D01*
X1004466Y-143632D01*
X1004424Y-143575D01*
X1004353Y-143519D01*
X1004283Y-143435D01*
X1004184Y-143350D01*
X1004057Y-143265D01*
X1003931Y-143167D01*
X1003775Y-143068D01*
X1003620Y-142984D01*
X1003437Y-142899D01*
X1003240Y-142814D01*
X1003028Y-142758D01*
X1002789Y-142702D01*
X1002549Y-142673D01*
X1002295Y-142659D01*
X1005453D01*
D02*
G37*
%LPD*%
G36*
X993330Y-152471D02*
X992019D01*
Y-152443D01*
Y-152386D01*
X992004Y-152273D01*
Y-152118D01*
X991990Y-151935D01*
X991962Y-151724D01*
X991934Y-151470D01*
X991892Y-151202D01*
X991849Y-150906D01*
X991793Y-150582D01*
X991723Y-150243D01*
X991652Y-149877D01*
X991553Y-149510D01*
X991455Y-149130D01*
X991328Y-148749D01*
X991187Y-148354D01*
X991173Y-148326D01*
X991145Y-148256D01*
X991102Y-148143D01*
X991046Y-148002D01*
X990961Y-147819D01*
X990863Y-147593D01*
X990750Y-147353D01*
X990623Y-147086D01*
X990482Y-146804D01*
X990327Y-146508D01*
X990158Y-146184D01*
X989960Y-145873D01*
X989552Y-145211D01*
X989086Y-144576D01*
X993330D01*
Y-152471D01*
D02*
G37*
G36*
X1002056Y-142673D02*
X1001943Y-142687D01*
X1001802Y-142716D01*
X1001661Y-142744D01*
X1001492Y-142786D01*
X1001309Y-142843D01*
X1001139Y-142913D01*
X1000956Y-142984D01*
X1000773Y-143082D01*
X1000590Y-143209D01*
X1000406Y-143336D01*
X1000237Y-143491D01*
X1000082Y-143674D01*
X1000068Y-143688D01*
X1000040Y-143731D01*
X999997Y-143801D01*
X999927Y-143900D01*
X999856Y-144041D01*
X999772Y-144210D01*
X999687Y-144393D01*
X999603Y-144633D01*
X999518Y-144887D01*
X999419Y-145183D01*
X999349Y-145507D01*
X999278Y-145873D01*
X999208Y-146268D01*
X999166Y-146691D01*
X999138Y-147156D01*
X999124Y-147664D01*
Y-142659D01*
X1002154D01*
X1002056Y-142673D01*
D02*
G37*
G36*
X1002422Y-144224D02*
X1002493Y-144238D01*
X1002591Y-144266D01*
X1002690Y-144309D01*
X1002803Y-144365D01*
X1002902Y-144435D01*
X1002916Y-144450D01*
X1002944Y-144478D01*
X1002986Y-144534D01*
X1003042Y-144605D01*
X1003113Y-144717D01*
X1003169Y-144844D01*
X1003240Y-145013D01*
X1003296Y-145211D01*
Y-145225D01*
X1003310Y-145239D01*
Y-145295D01*
X1003324Y-145352D01*
X1003338Y-145436D01*
X1003353Y-145535D01*
X1003367Y-145648D01*
X1003381Y-145789D01*
X1003409Y-145958D01*
X1003423Y-146127D01*
X1003437Y-146339D01*
X1003451Y-146550D01*
X1003465Y-146804D01*
Y-147058D01*
X1003480Y-147353D01*
Y-147664D01*
Y-147678D01*
Y-147734D01*
Y-147833D01*
Y-147946D01*
Y-148087D01*
X1003465Y-148242D01*
Y-148425D01*
X1003451Y-148608D01*
X1003437Y-149003D01*
X1003409Y-149398D01*
X1003395Y-149581D01*
X1003367Y-149750D01*
X1003338Y-149905D01*
X1003310Y-150046D01*
X1003296Y-150074D01*
X1003282Y-150145D01*
X1003240Y-150258D01*
X1003197Y-150384D01*
X1003127Y-150525D01*
X1003056Y-150666D01*
X1002972Y-150793D01*
X1002887Y-150892D01*
X1002873Y-150906D01*
X1002845Y-150920D01*
X1002789Y-150962D01*
X1002718Y-150991D01*
X1002634Y-151033D01*
X1002535Y-151075D01*
X1002422Y-151089D01*
X1002295Y-151103D01*
X1002239D01*
X1002168Y-151089D01*
X1002098Y-151075D01*
X1001999Y-151047D01*
X1001901Y-151019D01*
X1001802Y-150962D01*
X1001703Y-150892D01*
X1001689Y-150878D01*
X1001661Y-150850D01*
X1001605Y-150793D01*
X1001548Y-150709D01*
X1001492Y-150610D01*
X1001421Y-150469D01*
X1001351Y-150314D01*
X1001294Y-150117D01*
Y-150102D01*
X1001280Y-150088D01*
Y-150032D01*
X1001266Y-149976D01*
X1001252Y-149891D01*
X1001238Y-149792D01*
X1001210Y-149679D01*
X1001196Y-149539D01*
X1001182Y-149383D01*
X1001153Y-149200D01*
X1001139Y-149003D01*
X1001125Y-148777D01*
X1001111Y-148538D01*
Y-148270D01*
X1001097Y-147974D01*
Y-147664D01*
Y-147650D01*
Y-147593D01*
Y-147494D01*
Y-147382D01*
Y-147241D01*
X1001111Y-147086D01*
Y-146902D01*
X1001125Y-146719D01*
X1001139Y-146324D01*
X1001168Y-145944D01*
X1001196Y-145761D01*
X1001224Y-145577D01*
X1001252Y-145422D01*
X1001280Y-145295D01*
Y-145281D01*
X1001294Y-145267D01*
X1001309Y-145197D01*
X1001351Y-145084D01*
X1001393Y-144943D01*
X1001464Y-144802D01*
X1001534Y-144661D01*
X1001619Y-144534D01*
X1001703Y-144435D01*
X1001717Y-144421D01*
X1001746Y-144393D01*
X1001802Y-144365D01*
X1001872Y-144323D01*
X1001957Y-144280D01*
X1002056Y-144238D01*
X1002168Y-144224D01*
X1002295Y-144210D01*
X1002352D01*
X1002422Y-144224D01*
D02*
G37*
D77*
X467995Y339752D02*
Y365144D01*
X455299D01*
X451067Y360912D01*
Y352448D01*
X455299Y348216D01*
X467995D01*
X459531D02*
X451067Y339752D01*
X438371Y356680D02*
X429907D01*
X425675Y352448D01*
Y339752D01*
X438371D01*
X442603Y343984D01*
X438371Y348216D01*
X425675D01*
X417211Y339752D02*
X404515D01*
X400284Y343984D01*
X404515Y348216D01*
X412979D01*
X417211Y352448D01*
X412979Y356680D01*
X400284D01*
X391820Y331288D02*
Y356680D01*
X379124D01*
X374892Y352448D01*
Y343984D01*
X379124Y339752D01*
X391820D01*
X366428Y365144D02*
Y339752D01*
X353732D01*
X349500Y343984D01*
Y348216D01*
Y352448D01*
X353732Y356680D01*
X366428D01*
X328340Y339752D02*
X336804D01*
X341036Y343984D01*
Y352448D01*
X336804Y356680D01*
X328340D01*
X324108Y352448D01*
Y348216D01*
X341036D01*
X315644Y356680D02*
Y339752D01*
Y348216D01*
X311412Y352448D01*
X307180Y356680D01*
X302948D01*
X290252D02*
Y339752D01*
Y348216D01*
X286020Y352448D01*
X281788Y356680D01*
X277556D01*
X264861D02*
Y343984D01*
X260629Y339752D01*
X247933D01*
Y335520D01*
X252165Y331288D01*
X256397D01*
X247933Y339752D02*
Y356680D01*
X239469Y339752D02*
Y365144D01*
X226773D01*
X222541Y360912D01*
Y352448D01*
X226773Y348216D01*
X239469D01*
X214077Y339752D02*
X205613D01*
X209845D01*
Y356680D01*
X214077D01*
X499735Y314018D02*
X516662D01*
Y301322D01*
X508199D01*
X516662D01*
Y288626D01*
X491271Y305554D02*
Y288626D01*
Y297090D01*
X487039Y301322D01*
X482807Y305554D01*
X478575D01*
X465879Y288626D02*
X457415D01*
X461647D01*
Y305554D01*
X465879D01*
X436255Y280162D02*
X432023D01*
X427791Y284394D01*
Y305554D01*
X440487D01*
X444719Y301322D01*
Y292858D01*
X440487Y288626D01*
X427791D01*
X415095D02*
X406631D01*
X402399Y292858D01*
Y301322D01*
X406631Y305554D01*
X415095D01*
X419327Y301322D01*
Y292858D01*
X415095Y288626D01*
X393936Y305554D02*
Y288626D01*
Y297090D01*
X389704Y301322D01*
X385472Y305554D01*
X381240D01*
X368544D02*
Y292858D01*
X364312Y288626D01*
X351616D01*
Y305554D01*
X343152Y288626D02*
X330456D01*
X326224Y292858D01*
X330456Y297090D01*
X338920D01*
X343152Y301322D01*
X338920Y305554D01*
X326224D01*
X275441Y309786D02*
X279673Y314018D01*
X288136D01*
X292368Y309786D01*
Y305554D01*
X288136Y301322D01*
X279673D01*
X275441Y297090D01*
Y292858D01*
X279673Y288626D01*
X288136D01*
X292368Y292858D01*
X266977Y314018D02*
Y288626D01*
Y301322D01*
X262745Y305554D01*
X254281D01*
X250049Y301322D01*
Y288626D01*
X228889D02*
X237353D01*
X241585Y292858D01*
Y301322D01*
X237353Y305554D01*
X228889D01*
X224657Y301322D01*
Y297090D01*
X241585D01*
X216193Y288626D02*
X207729D01*
X211961D01*
Y305554D01*
X216193D01*
X195033Y288626D02*
X186569D01*
X190801D01*
Y314018D01*
X195033D01*
X156945D02*
Y288626D01*
X169641D01*
X173873Y292858D01*
Y301322D01*
X169641Y305554D01*
X156945D01*
D96*
X355951Y186859D02*
X362723D01*
X355951Y193630D01*
Y195323D01*
X357644Y197015D01*
X361030D01*
X362723Y195323D01*
X352566D02*
X350873Y197015D01*
X347488D01*
X345795Y195323D01*
Y193630D01*
X347488Y191937D01*
X349180D01*
X347488D01*
X345795Y190244D01*
Y188552D01*
X347488Y186859D01*
X350873D01*
X352566Y188552D01*
X342409Y191937D02*
X335638D01*
X332253Y195323D02*
X330560Y197015D01*
X327174D01*
X325481Y195323D01*
Y188552D01*
X327174Y186859D01*
X330560D01*
X332253Y188552D01*
Y195323D01*
X322096D02*
X320403Y197015D01*
X317017D01*
X315325Y195323D01*
Y193630D01*
X317017Y191937D01*
X318710D01*
X317017D01*
X315325Y190244D01*
Y188552D01*
X317017Y186859D01*
X320403D01*
X322096Y188552D01*
X311939Y191937D02*
X305168D01*
X295011Y186859D02*
X301782D01*
X295011Y193630D01*
Y195323D01*
X296704Y197015D01*
X300089D01*
X301782Y195323D01*
X291626D02*
X289933Y197015D01*
X286547D01*
X284854Y195323D01*
Y193630D01*
X286547Y191937D01*
X288240D01*
X286547D01*
X284854Y190244D01*
Y188552D01*
X286547Y186859D01*
X289933D01*
X291626Y188552D01*
X274698Y186859D02*
X281469D01*
X274698Y193630D01*
Y195323D01*
X276390Y197015D01*
X279776D01*
X281469Y195323D01*
X271312D02*
X269619Y197015D01*
X266234D01*
X264541Y195323D01*
Y193630D01*
X266234Y191937D01*
X267927D01*
X266234D01*
X264541Y190244D01*
Y188552D01*
X266234Y186859D01*
X269619D01*
X271312Y188552D01*
X404941Y129077D02*
X407988D01*
X406465D01*
Y121460D01*
X407988Y119936D01*
X409512D01*
X411035Y121460D01*
X401894Y126030D02*
Y121460D01*
X400371Y119936D01*
X395800D01*
Y126030D01*
X392753Y119936D02*
X389706D01*
X391230D01*
Y129077D01*
X392753D01*
X385136Y119936D02*
X382089D01*
X383612D01*
Y126030D01*
X385136D01*
X372948Y119936D02*
X375994D01*
X377518Y121460D01*
Y124507D01*
X375994Y126030D01*
X372948D01*
X371424Y124507D01*
Y122983D01*
X377518D01*
X368377Y119936D02*
Y126030D01*
X363806D01*
X362283Y124507D01*
Y119936D01*
X350095D02*
Y129077D01*
X345524D01*
X344001Y127554D01*
Y124507D01*
X345524Y122983D01*
X350095D01*
X347048D02*
X344001Y119936D01*
X339430D02*
X336383D01*
X334860Y121460D01*
Y124507D01*
X336383Y126030D01*
X339430D01*
X340954Y124507D01*
Y121460D01*
X339430Y119936D01*
X331813Y126030D02*
Y121460D01*
X330289Y119936D01*
X325719D01*
Y118413D01*
X327242Y116889D01*
X328766D01*
X325719Y119936D02*
Y126030D01*
X322672Y124507D02*
X316578D01*
X307437Y127554D02*
X308960Y129077D01*
X312007D01*
X313531Y127554D01*
Y126030D01*
X312007Y124507D01*
X308960D01*
X307437Y122983D01*
Y121460D01*
X308960Y119936D01*
X312007D01*
X313531Y121460D01*
X302866Y126030D02*
X299819D01*
X298296Y124507D01*
Y119936D01*
X302866D01*
X304390Y121460D01*
X302866Y122983D01*
X298296D01*
X295249Y129077D02*
Y119936D01*
X290678D01*
X289155Y121460D01*
Y122983D01*
Y124507D01*
X290678Y126030D01*
X295249D01*
X284584Y119936D02*
X281537D01*
X280014Y121460D01*
Y124507D01*
X281537Y126030D01*
X284584D01*
X286108Y124507D01*
Y121460D01*
X284584Y119936D01*
X276966Y126030D02*
Y121460D01*
X275443Y119936D01*
X270872D01*
Y126030D01*
X267825D02*
Y119936D01*
Y122983D01*
X266302Y124507D01*
X264778Y126030D01*
X263255D01*
X258684Y119936D02*
X255637D01*
X257161D01*
Y126030D01*
X258684D01*
X251067Y119936D02*
Y126030D01*
X246496D01*
X244973Y124507D01*
Y119936D01*
D97*
X375015Y153851D02*
Y144710D01*
X370444D01*
X368921Y146234D01*
Y152327D01*
X370444Y153851D01*
X375015D01*
X361303Y144710D02*
X364350D01*
X365874Y146234D01*
Y149281D01*
X364350Y150804D01*
X361303D01*
X359780Y149281D01*
Y147757D01*
X365874D01*
X356733Y144710D02*
X352162D01*
X350639Y146234D01*
X352162Y147757D01*
X355209D01*
X356733Y149281D01*
X355209Y150804D01*
X350639D01*
X347592Y144710D02*
X344545D01*
X346068D01*
Y150804D01*
X347592D01*
X336927Y141663D02*
X335404D01*
X333880Y143187D01*
Y150804D01*
X338451D01*
X339974Y149281D01*
Y146234D01*
X338451Y144710D01*
X333880D01*
X330833D02*
Y150804D01*
X326263D01*
X324739Y149281D01*
Y144710D01*
X317122D02*
X320168D01*
X321692Y146234D01*
Y149281D01*
X320168Y150804D01*
X317122D01*
X315598Y149281D01*
Y147757D01*
X321692D01*
X306457Y153851D02*
Y144710D01*
X311027D01*
X312551Y146234D01*
Y149281D01*
X311027Y150804D01*
X306457D01*
X294269Y153851D02*
Y144710D01*
X289698D01*
X288175Y146234D01*
Y147757D01*
Y149281D01*
X289698Y150804D01*
X294269D01*
X285128D02*
Y146234D01*
X283604Y144710D01*
X279034D01*
Y143187D01*
X280557Y141663D01*
X282081D01*
X279034Y144710D02*
Y150804D01*
X275987D02*
X274463D01*
Y149281D01*
X275987D01*
Y150804D01*
Y146234D02*
X274463D01*
Y144710D01*
X275987D01*
Y146234D01*
D98*
X264289Y209854D02*
X260904D01*
X262597D01*
Y220011D01*
X264289Y218318D01*
X255826Y209854D02*
Y211547D01*
X254133D01*
Y209854D01*
X255826D01*
X247362Y218318D02*
X245669Y220011D01*
X242283D01*
X240590Y218318D01*
Y211547D01*
X242283Y209854D01*
X245669D01*
X247362Y211547D01*
Y218318D01*
X378638Y209854D02*
Y220011D01*
X373560D01*
X371867Y218318D01*
Y214932D01*
X373560Y213240D01*
X378638D01*
X375252D02*
X371867Y209854D01*
X363403D02*
X366789D01*
X368481Y211547D01*
Y214932D01*
X366789Y216625D01*
X363403D01*
X361710Y214932D01*
Y213240D01*
X368481D01*
X358325Y216625D02*
X354939Y209854D01*
X351553Y216625D01*
X348168Y209854D02*
X344782D01*
X346475D01*
Y216625D01*
X348168D01*
X339704Y209854D02*
X334626D01*
X332933Y211547D01*
X334626Y213240D01*
X338011D01*
X339704Y214932D01*
X338011Y216625D01*
X332933D01*
X329547Y209854D02*
X326162D01*
X327854D01*
Y216625D01*
X329547D01*
X319391Y209854D02*
X316005D01*
X314312Y211547D01*
Y214932D01*
X316005Y216625D01*
X319391D01*
X321083Y214932D01*
Y211547D01*
X319391Y209854D01*
X310927D02*
Y216625D01*
X305848D01*
X304156Y214932D01*
Y209854D01*
M02*
