M48
;Layer_Color=9474304
;FILE_FORMAT=4:4
METRIC,LZ
;TYPE=PLATED
T1F00S00C0.5080
T2F00S00C1.0200
T3F00S00C1.1000
T4F00S00C1.2000
T5F00S00C1.3000
T6F00S00C3.2000
;TYPE=NON_PLATED
T7F00S00C2.7500
T8F00S00C3.0000
%
T01
X000508Y0
X00084074Y-00096266
X00133096Y-00108966
Y-00133604
X00271526Y-00007391
X00346456Y-00028194
X00457827Y-00100584
Y-00113284
X00627913Y-00125984
X00625168Y-0002794
X0066238Y000137
X00729996Y00028956
X00804164Y000508
X00844042Y-00076454
X010033Y00019558
X01031288Y00065786
X01113558
X01198114
X011684Y0
X01336802Y00017272
X0137363Y00074625
X01378712Y00107188
X01357376Y00105918
X0135477Y00136025
X01354262Y00166759
X01354516Y00197239
Y00227973
X01375914Y00211582
Y00181194
Y00149408
X0138176Y0033147
Y00362713
Y00392433
X01354516Y00378396
Y00347662
X01354456Y0031709
X014224Y003048
X0153035Y00263906
X01375914Y00430037
Y00457454
X01354008Y00470597
Y00439864
X01354262Y00409129
X0121475Y00449263
X00984922Y00455114
X01018822Y0038225
X01046226Y00372
X01046099Y00324993
X01025906Y00326009
X01008126Y00320548
X00995172Y00327914
X0091694Y00310642
X0090805Y00297688
X0094996Y00262128
X00952827Y00097028
X00870557
X00788287
X00706017
X00623747
X00541476
X00508Y001016
X0051815Y00214512
X00550448Y00242418
X00626814
X00703181
X00779547
X00858774Y00243586
X00846582Y00435102
X00790956Y00430022
X00818354Y00473614
X006604Y004064
X00619506Y00424688
X005588Y004064
X00512826Y00401828
X00498602Y00388112
X0052197Y00448564
X00719957Y0034671
X00459232Y00375666
X00394208
X00393446Y00346456
X00373126Y00351475
X00340614Y00325443
X00325628
X00314454Y00384142
X00328098Y00409866
X00314454Y00438996
X00258064Y00434086
X00254762Y00455422
X0023876Y0045339
X00254Y004064
X00268986Y00402336
X00219964Y00395732
X00210312Y0041021
X001524Y004064
X00159512Y00372364
X001016Y003048
X001524Y002032
X00254
X003048Y001016
X0037719Y00096774
X00459206Y00097028
X00409365Y00251259
X0042926Y00428498
X00400074Y00444601
X00373126Y00424688
X001016Y001016
X0
X000508Y002032
X0Y003048
X000508Y004064
X00058414Y00456313
X-00009247Y00553974
X00109213Y0055537
X00124898Y00521089
X00175099
X00217013Y00545958
X00222621Y00570005
X00284954Y00524445
X00350647Y00553974
X00458978Y00554736
X00482847Y00556474
X0048271Y00544706
X00816906Y00531704
X01016Y00508
X014224Y00542252
T02
X009006Y-00091694
Y-00061694
X009306
Y-00091694
X009606
Y-00061694
X009906
Y-00091694
X010206
X010506
Y-00061694
X010206
X010806
Y-00091694
X011106
Y-00061694
X0123207
Y-00091694
X0126207
Y-00061694
X0129207
Y-00091694
X0132207
X0135207
X0138207
Y-00061694
X0135207
X0132207
X0141207
Y-00091694
X0144207
Y-00061694
X01470632Y00000368
X01500632
Y00030368
Y00060368
X01470632
Y00030368
Y00090368
X01500632
Y00120368
Y00150368
X01470632
Y00120368
Y00180368
X01500632
Y00210368
X01470632
X01470633Y00323309
X01500633
Y00353309
Y00383309
X01470633
Y00353309
Y00413309
X01500633
Y00443309
Y00473309
X01470633
Y00443309
X00074098Y004773
Y005027
X00048699Y00502701
Y00477301
X00099498
Y00502701
X00124898Y005027
Y004773
X00150299Y00477301
Y00502701
X00175698Y005027
Y004773
X00201099Y00477301
X00226498Y004773
Y005027
X00251898Y00502701
Y00477301
X00277298Y004773
Y005027
X00302699Y00502701
Y00477301
X00328098Y004773
Y005027
X00353499Y00502701
X00378899
Y00477301
X00404298Y00477302
Y00502702
X00429699Y00502701
Y00477301
X004551Y00477302
Y00502702
X00353499Y00477301
X00201099Y00502701
X00480499
Y00477301
X005059Y00477302
Y00502702
X00531299Y00502701
Y00477301
X01211552Y00486636
X01241552
Y00516636
X01211552
X01470633Y00503309
X01500633
Y00533309
X01470633
T03
X00788287Y-00134366
Y-00108966
Y-00083566
T04
X00678942Y00503428
X00704342
X00729742
X00755142
X00780542
X00805942
X00831342
X00856742
X00882142
X00907542
X00932942
X00958342
T05
X0067477Y-00094996
X0072477
X01036212Y00536448
X01086212
T06
X00009144Y-00118364
X01525524
X01374648Y00546608
T07
X0Y-00000254
X0058
X0Y0049
X0058Y00489746
T08
X009221Y-00134894
X010891
X0125357
X0142057
X01543832Y00021868
Y00188868
X01543833Y00344809
X01226552Y00559836
X01543833Y00511809
M30
