G04*
G04 #@! TF.GenerationSoftware,Altium Limited,Altium Designer,22.11.1 (43)*
G04*
G04 Layer_Physical_Order=2*
G04 Layer_Color=16711680*
%FSLAX44Y44*%
%MOMM*%
G71*
G04*
G04 #@! TF.SameCoordinates,7B4F1FB2-3D38-43E9-9EC1-43097A92C870*
G04*
G04*
G04 #@! TF.FilePolarity,Positive*
G04*
G01*
G75*
%ADD12C,0.2540*%
%ADD75C,1.2700*%
%ADD78C,0.7620*%
%ADD79R,1.6500X1.6500*%
%ADD80C,1.6500*%
%ADD81C,3.0000*%
%ADD82R,1.5300X1.5300*%
%ADD83C,1.5300*%
%ADD84R,1.5200X1.5200*%
%ADD85C,1.5200*%
%ADD86R,1.5200X1.5200*%
%ADD87C,7.0000*%
%ADD88R,1.9500X1.9500*%
%ADD89C,1.9500*%
%ADD90C,6.0000*%
%ADD91C,1.8000*%
%ADD92R,1.8000X1.8000*%
%ADD93C,1.7780*%
%ADD94R,1.7780X1.7780*%
%ADD95C,0.8890*%
G36*
X1547367Y585200D02*
X1550510Y584358D01*
X1553516Y583113D01*
X1556334Y581486D01*
X1558915Y579505D01*
X1561216Y577205D01*
X1563196Y574623D01*
X1564823Y571805D01*
X1566068Y568800D01*
X1566911Y565657D01*
X1567335Y562431D01*
Y560804D01*
Y520816D01*
X1563525Y520058D01*
X1562753Y521922D01*
X1560417Y525419D01*
X1557443Y528392D01*
X1553946Y530729D01*
X1550061Y532338D01*
X1545936Y533159D01*
X1541730D01*
X1537606Y532338D01*
X1533720Y530729D01*
X1530223Y528392D01*
X1527250Y525419D01*
X1524913Y521922D01*
X1523304Y518036D01*
X1522483Y513912D01*
Y509706D01*
X1523304Y505581D01*
X1524913Y501696D01*
X1527250Y498199D01*
X1530223Y495225D01*
X1533720Y492889D01*
X1537606Y491279D01*
X1541730Y490459D01*
X1545936D01*
X1550061Y491279D01*
X1553946Y492889D01*
X1557443Y495225D01*
X1560417Y498199D01*
X1562753Y501696D01*
X1563525Y503559D01*
X1567335Y502801D01*
Y353816D01*
X1563525Y353058D01*
X1562753Y354922D01*
X1560417Y358419D01*
X1557443Y361393D01*
X1553946Y363729D01*
X1550061Y365338D01*
X1545936Y366159D01*
X1541730D01*
X1537606Y365338D01*
X1533720Y363729D01*
X1530223Y361393D01*
X1527250Y358419D01*
X1524913Y354922D01*
X1523304Y351036D01*
X1522483Y346912D01*
Y342706D01*
X1523304Y338581D01*
X1524913Y334696D01*
X1527250Y331199D01*
X1530223Y328225D01*
X1533720Y325889D01*
X1537606Y324279D01*
X1541730Y323459D01*
X1545936D01*
X1550061Y324279D01*
X1553946Y325889D01*
X1557443Y328225D01*
X1560417Y331199D01*
X1562753Y334696D01*
X1563525Y336559D01*
X1567335Y335801D01*
Y197873D01*
X1563525Y197115D01*
X1562752Y198981D01*
X1560416Y202478D01*
X1557442Y205452D01*
X1553945Y207788D01*
X1550060Y209398D01*
X1545935Y210218D01*
X1541729D01*
X1537604Y209398D01*
X1533719Y207788D01*
X1530222Y205452D01*
X1527248Y202478D01*
X1524912Y198981D01*
X1523302Y195096D01*
X1522482Y190971D01*
Y186765D01*
X1523302Y182640D01*
X1524912Y178755D01*
X1527248Y175258D01*
X1530222Y172284D01*
X1533719Y169948D01*
X1537604Y168339D01*
X1541729Y167518D01*
X1545935D01*
X1550060Y168339D01*
X1553945Y169948D01*
X1557442Y172284D01*
X1560416Y175258D01*
X1562752Y178755D01*
X1563525Y180621D01*
X1567335Y179863D01*
Y30872D01*
X1563525Y30115D01*
X1562752Y31981D01*
X1560416Y35478D01*
X1557442Y38452D01*
X1553945Y40788D01*
X1550060Y42397D01*
X1545935Y43218D01*
X1541729D01*
X1537604Y42397D01*
X1533719Y40788D01*
X1530222Y38452D01*
X1527248Y35478D01*
X1524912Y31981D01*
X1523302Y28096D01*
X1522482Y23971D01*
Y19765D01*
X1523302Y15640D01*
X1524912Y11755D01*
X1527248Y8258D01*
X1530222Y5284D01*
X1533719Y2948D01*
X1537604Y1338D01*
X1541729Y518D01*
X1545935D01*
X1550060Y1338D01*
X1553945Y2948D01*
X1557442Y5284D01*
X1560416Y8258D01*
X1562752Y11755D01*
X1563525Y13621D01*
X1567335Y12864D01*
Y-135100D01*
Y-136727D01*
X1566911Y-139953D01*
X1566068Y-143096D01*
X1564823Y-146101D01*
X1563197Y-148919D01*
X1561216Y-151501D01*
X1558915Y-153801D01*
X1556334Y-155782D01*
X1553516Y-157409D01*
X1550510Y-158654D01*
X1547367Y-159496D01*
X1544141Y-159921D01*
X1423719D01*
X1423343Y-156111D01*
X1426798Y-155423D01*
X1430683Y-153814D01*
X1434180Y-151478D01*
X1437154Y-148504D01*
X1439490Y-145007D01*
X1441100Y-141122D01*
X1441920Y-136997D01*
Y-132791D01*
X1441100Y-128666D01*
X1439490Y-124781D01*
X1437154Y-121284D01*
X1434180Y-118310D01*
X1430683Y-115974D01*
X1426798Y-114365D01*
X1422673Y-113544D01*
X1418467D01*
X1414342Y-114365D01*
X1410457Y-115974D01*
X1406960Y-118310D01*
X1403986Y-121284D01*
X1401650Y-124781D01*
X1400040Y-128666D01*
X1399220Y-132791D01*
Y-136997D01*
X1400040Y-141122D01*
X1401650Y-145007D01*
X1403986Y-148504D01*
X1406960Y-151478D01*
X1410457Y-153814D01*
X1414342Y-155423D01*
X1417797Y-156111D01*
X1417421Y-159921D01*
X1256719D01*
X1256343Y-156111D01*
X1259798Y-155423D01*
X1263683Y-153814D01*
X1267180Y-151478D01*
X1270154Y-148504D01*
X1272490Y-145007D01*
X1274100Y-141122D01*
X1274920Y-136997D01*
Y-132791D01*
X1274100Y-128666D01*
X1272490Y-124781D01*
X1270154Y-121284D01*
X1267180Y-118310D01*
X1263683Y-115974D01*
X1259798Y-114365D01*
X1255673Y-113544D01*
X1251467D01*
X1247342Y-114365D01*
X1243457Y-115974D01*
X1239960Y-118310D01*
X1236986Y-121284D01*
X1234650Y-124781D01*
X1233040Y-128666D01*
X1232220Y-132791D01*
Y-136997D01*
X1233040Y-141122D01*
X1234650Y-145007D01*
X1236986Y-148504D01*
X1239960Y-151478D01*
X1243457Y-153814D01*
X1247342Y-155423D01*
X1250797Y-156111D01*
X1250421Y-159921D01*
X1092249D01*
X1091873Y-156111D01*
X1095328Y-155423D01*
X1099213Y-153814D01*
X1102710Y-151478D01*
X1105684Y-148504D01*
X1108020Y-145007D01*
X1109630Y-141122D01*
X1110450Y-136997D01*
Y-132791D01*
X1109630Y-128666D01*
X1108020Y-124781D01*
X1105684Y-121284D01*
X1102710Y-118310D01*
X1099213Y-115974D01*
X1095328Y-114365D01*
X1091203Y-113544D01*
X1086997D01*
X1082872Y-114365D01*
X1078987Y-115974D01*
X1075490Y-118310D01*
X1072516Y-121284D01*
X1070180Y-124781D01*
X1068570Y-128666D01*
X1067750Y-132791D01*
Y-136997D01*
X1068570Y-141122D01*
X1070180Y-145007D01*
X1072516Y-148504D01*
X1075490Y-151478D01*
X1078987Y-153814D01*
X1082872Y-155423D01*
X1086327Y-156111D01*
X1085951Y-159921D01*
X925249D01*
X924873Y-156111D01*
X928328Y-155423D01*
X932213Y-153814D01*
X935710Y-151478D01*
X938684Y-148504D01*
X941020Y-145007D01*
X942629Y-141122D01*
X943450Y-136997D01*
Y-132791D01*
X942629Y-128666D01*
X941020Y-124781D01*
X938684Y-121284D01*
X935710Y-118310D01*
X932213Y-115974D01*
X928328Y-114365D01*
X924203Y-113544D01*
X919997D01*
X915872Y-114365D01*
X911987Y-115974D01*
X908490Y-118310D01*
X905516Y-121284D01*
X903180Y-124781D01*
X901571Y-128666D01*
X900750Y-132791D01*
Y-136997D01*
X901571Y-141122D01*
X903180Y-145007D01*
X905516Y-148504D01*
X908490Y-151478D01*
X911987Y-153814D01*
X915872Y-155423D01*
X919327Y-156111D01*
X918951Y-159921D01*
X852762D01*
X851184Y-156111D01*
X901650Y-105644D01*
X902437D01*
X905984Y-104693D01*
X909165Y-102857D01*
X909573Y-102450D01*
X921627D01*
X922035Y-102857D01*
X925216Y-104693D01*
X928763Y-105644D01*
X932437D01*
X935984Y-104693D01*
X939165Y-102857D01*
X939573Y-102450D01*
X951627D01*
X952035Y-102857D01*
X955216Y-104693D01*
X958763Y-105644D01*
X962437D01*
X965984Y-104693D01*
X969165Y-102857D01*
X969573Y-102450D01*
X981627D01*
X982035Y-102857D01*
X985216Y-104693D01*
X988764Y-105644D01*
X992437D01*
X995984Y-104693D01*
X999165Y-102857D01*
X999573Y-102450D01*
X1011627D01*
X1012035Y-102857D01*
X1015216Y-104693D01*
X1018763Y-105644D01*
X1022437D01*
X1025984Y-104693D01*
X1029165Y-102857D01*
X1029573Y-102450D01*
X1041627D01*
X1042035Y-102857D01*
X1045216Y-104693D01*
X1048763Y-105644D01*
X1052437D01*
X1055984Y-104693D01*
X1059165Y-102857D01*
X1059573Y-102450D01*
X1071627D01*
X1072035Y-102857D01*
X1075216Y-104693D01*
X1078764Y-105644D01*
X1082437D01*
X1085984Y-104693D01*
X1089165Y-102857D01*
X1089573Y-102450D01*
X1096650D01*
Y-105644D01*
X1124550D01*
Y-101942D01*
X1222589D01*
X1223504Y-102857D01*
X1226685Y-104693D01*
X1230233Y-105644D01*
X1233906D01*
X1237455Y-104693D01*
X1240636Y-102857D01*
X1241551Y-101942D01*
X1252589D01*
X1253504Y-102857D01*
X1256685Y-104693D01*
X1260233Y-105644D01*
X1263906D01*
X1267455Y-104693D01*
X1270636Y-102857D01*
X1271551Y-101942D01*
X1282589D01*
X1283504Y-102857D01*
X1286685Y-104693D01*
X1290233Y-105644D01*
X1293907D01*
X1297455Y-104693D01*
X1300636Y-102857D01*
X1301551Y-101942D01*
X1312589D01*
X1313504Y-102857D01*
X1316685Y-104693D01*
X1320233Y-105644D01*
X1323907D01*
X1327455Y-104693D01*
X1330636Y-102857D01*
X1331551Y-101942D01*
X1342589D01*
X1343504Y-102857D01*
X1346685Y-104693D01*
X1350233Y-105644D01*
X1353907D01*
X1357455Y-104693D01*
X1360636Y-102857D01*
X1361551Y-101942D01*
X1372589D01*
X1373504Y-102857D01*
X1376685Y-104693D01*
X1380233Y-105644D01*
X1383907D01*
X1387455Y-104693D01*
X1390636Y-102857D01*
X1391551Y-101942D01*
X1402589D01*
X1403504Y-102857D01*
X1406685Y-104693D01*
X1410233Y-105644D01*
X1413907D01*
X1417455Y-104693D01*
X1420636Y-102857D01*
X1421551Y-101942D01*
X1428120D01*
Y-105644D01*
X1456020D01*
Y-77744D01*
X1449790D01*
X1448770Y-73934D01*
X1450636Y-72857D01*
X1453233Y-70259D01*
X1455069Y-67078D01*
X1456020Y-63531D01*
Y-59858D01*
X1455069Y-56309D01*
X1453233Y-53128D01*
X1450636Y-50531D01*
X1449756Y-50023D01*
Y-15270D01*
X1449494Y-13281D01*
X1448726Y-11427D01*
X1447505Y-9835D01*
X1418741Y18928D01*
X1420319Y22738D01*
X1458929D01*
X1459469Y21802D01*
X1462066Y19205D01*
X1465247Y17369D01*
X1465354Y17340D01*
Y13396D01*
X1465247Y13367D01*
X1462066Y11531D01*
X1459469Y8934D01*
X1457633Y5753D01*
X1456682Y2204D01*
Y-1469D01*
X1457633Y-5016D01*
X1459469Y-8198D01*
X1462066Y-10795D01*
X1465247Y-12631D01*
X1468795Y-13582D01*
X1472469D01*
X1476017Y-12631D01*
X1479198Y-10795D01*
X1481795Y-8198D01*
X1483631Y-5016D01*
X1484582Y-1469D01*
Y2204D01*
X1483631Y5753D01*
X1481795Y8934D01*
X1479198Y11531D01*
X1476017Y13367D01*
X1475910Y13396D01*
Y17340D01*
X1476017Y17369D01*
X1479198Y19205D01*
X1481795Y21802D01*
X1483631Y24983D01*
X1484582Y28531D01*
Y32205D01*
X1483631Y35752D01*
X1481795Y38933D01*
X1479198Y41531D01*
X1476017Y43367D01*
X1475910Y43396D01*
Y47340D01*
X1476017Y47369D01*
X1479198Y49205D01*
X1481795Y51803D01*
X1483631Y54984D01*
X1484582Y58531D01*
Y62204D01*
X1483631Y65753D01*
X1481795Y68934D01*
X1479198Y71531D01*
X1476017Y73367D01*
X1475910Y73396D01*
Y77340D01*
X1476017Y77369D01*
X1479198Y79205D01*
X1481795Y81803D01*
X1483631Y84984D01*
X1484582Y88532D01*
Y92205D01*
X1483631Y95752D01*
X1481795Y98933D01*
X1479198Y101531D01*
X1476017Y103367D01*
X1475910Y103396D01*
Y107340D01*
X1476017Y107369D01*
X1479198Y109205D01*
X1481795Y111803D01*
X1483631Y114984D01*
X1484582Y118532D01*
Y122205D01*
X1483631Y125752D01*
X1481795Y128933D01*
X1479198Y131531D01*
X1476017Y133367D01*
X1475910Y133396D01*
Y137340D01*
X1476017Y137369D01*
X1479198Y139205D01*
X1481795Y141803D01*
X1483631Y144984D01*
X1484582Y148532D01*
Y152205D01*
X1483631Y155752D01*
X1481795Y158933D01*
X1479198Y161531D01*
X1476017Y163367D01*
X1475910Y163396D01*
Y167340D01*
X1476017Y167369D01*
X1479198Y169205D01*
X1481795Y171803D01*
X1483631Y174984D01*
X1484582Y178531D01*
Y182205D01*
X1483631Y185753D01*
X1481795Y188934D01*
X1479198Y191531D01*
X1476017Y193367D01*
X1475910Y193396D01*
Y197340D01*
X1476017Y197369D01*
X1479198Y199205D01*
X1481795Y201803D01*
X1483631Y204984D01*
X1484582Y208531D01*
Y212205D01*
X1483631Y215753D01*
X1481795Y218934D01*
X1479198Y221531D01*
X1476017Y223367D01*
X1472469Y224318D01*
X1468795D01*
X1465247Y223367D01*
X1462066Y221531D01*
X1459469Y218934D01*
X1457633Y215753D01*
X1456682Y212205D01*
Y211140D01*
X1452872Y209561D01*
X1428754Y233679D01*
X1427162Y234901D01*
X1425309Y235669D01*
X1423319Y235930D01*
X1361825D01*
X1361144Y236611D01*
X1358683Y238033D01*
X1355937Y238768D01*
X1353095D01*
X1350349Y238033D01*
X1347888Y236611D01*
X1345878Y234602D01*
X1344457Y232140D01*
X1343721Y229394D01*
Y226552D01*
X1344457Y223807D01*
X1345878Y221345D01*
X1347888Y219335D01*
X1350349Y217914D01*
X1353095Y217178D01*
X1355937D01*
X1358683Y217914D01*
X1361144Y219335D01*
X1362368Y220559D01*
X1420136D01*
X1456035Y184659D01*
X1455585Y182210D01*
X1451629Y180804D01*
X1429488Y202945D01*
X1427896Y204167D01*
X1426043Y204935D01*
X1424053Y205196D01*
X1361825D01*
X1361144Y205877D01*
X1358683Y207299D01*
X1355937Y208034D01*
X1353095D01*
X1350349Y207299D01*
X1347888Y205877D01*
X1345878Y203868D01*
X1344457Y201406D01*
X1343721Y198661D01*
Y195818D01*
X1344457Y193073D01*
X1345878Y190611D01*
X1347888Y188601D01*
X1350349Y187180D01*
X1353095Y186444D01*
X1355937D01*
X1358683Y187180D01*
X1361144Y188601D01*
X1362368Y189825D01*
X1420870D01*
X1456035Y154659D01*
X1455585Y152210D01*
X1451629Y150805D01*
X1429968Y172465D01*
X1428376Y173687D01*
X1426523Y174454D01*
X1424533Y174716D01*
X1361571D01*
X1360890Y175397D01*
X1358429Y176819D01*
X1355683Y177554D01*
X1352841D01*
X1350095Y176819D01*
X1347634Y175397D01*
X1345624Y173388D01*
X1344203Y170926D01*
X1343467Y168181D01*
Y165338D01*
X1344203Y162593D01*
X1345624Y160131D01*
X1347634Y158121D01*
X1350095Y156700D01*
X1352841Y155964D01*
X1355683D01*
X1358429Y156700D01*
X1360890Y158121D01*
X1362114Y159345D01*
X1421350D01*
X1456035Y124659D01*
X1455585Y122210D01*
X1451629Y120804D01*
X1430702Y141731D01*
X1429110Y142953D01*
X1427257Y143721D01*
X1425267Y143982D01*
X1362079D01*
X1361398Y144663D01*
X1358937Y146085D01*
X1356191Y146820D01*
X1353349D01*
X1350603Y146085D01*
X1348142Y144663D01*
X1346132Y142654D01*
X1344711Y140192D01*
X1343975Y137446D01*
Y134604D01*
X1344711Y131859D01*
X1346132Y129397D01*
X1348142Y127387D01*
X1350603Y125966D01*
X1353349Y125230D01*
X1356191D01*
X1358937Y125966D01*
X1361398Y127387D01*
X1362622Y128611D01*
X1422084D01*
X1457064Y93631D01*
X1456682Y92205D01*
Y88532D01*
X1457633Y84984D01*
X1459469Y81803D01*
X1462066Y79205D01*
X1465247Y77369D01*
X1465354Y77340D01*
Y73396D01*
X1465247Y73367D01*
X1462066Y71531D01*
X1459469Y68934D01*
X1458994Y68110D01*
X1406054D01*
X1368171Y105992D01*
Y107339D01*
X1367435Y110085D01*
X1366014Y112546D01*
X1364004Y114556D01*
X1361543Y115977D01*
X1358797Y116713D01*
X1355955D01*
X1353209Y115977D01*
X1350748Y114556D01*
X1348738Y112546D01*
X1347317Y110085D01*
X1346581Y107339D01*
Y104497D01*
X1347317Y101751D01*
X1348738Y99290D01*
X1350748Y97280D01*
X1353209Y95859D01*
X1355955Y95123D01*
X1357302D01*
X1367253Y85172D01*
X1367002Y83263D01*
X1364992Y81253D01*
X1363825Y79233D01*
X1362253Y78602D01*
X1359468Y78201D01*
X1189284Y248386D01*
X1187692Y249607D01*
X1185838Y250375D01*
X1183849Y250637D01*
X1011019D01*
X1009725Y254447D01*
X1010292Y254882D01*
X1053345Y297935D01*
X1054974Y300057D01*
X1055997Y302529D01*
X1056347Y305181D01*
X1056347Y305181D01*
Y317183D01*
X1057398Y317990D01*
X1212044Y472636D01*
X1213395D01*
X1216956Y473590D01*
X1220148Y475433D01*
X1221103Y476388D01*
X1232001D01*
X1232956Y475433D01*
X1236148Y473590D01*
X1239709Y472636D01*
X1243395D01*
X1246956Y473590D01*
X1250148Y475433D01*
X1252755Y478040D01*
X1254598Y481232D01*
X1255552Y484793D01*
Y488479D01*
X1254598Y492040D01*
X1252755Y495232D01*
X1250148Y497839D01*
X1246999Y499657D01*
X1246956Y499826D01*
Y503446D01*
X1246999Y503615D01*
X1250148Y505433D01*
X1252755Y508040D01*
X1254598Y511232D01*
X1255552Y514793D01*
Y518479D01*
X1254598Y522040D01*
X1252755Y525232D01*
X1250148Y527839D01*
X1246956Y529682D01*
X1243395Y530636D01*
X1239709D01*
X1236148Y529682D01*
X1232956Y527839D01*
X1230349Y525232D01*
X1229362Y523522D01*
X1225552Y524543D01*
Y530636D01*
X1197552D01*
Y502636D01*
X1203645D01*
X1204666Y498826D01*
X1202956Y497839D01*
X1200349Y495232D01*
X1198506Y492040D01*
X1197552Y488479D01*
Y487128D01*
X1048004Y337580D01*
X1017939Y367645D01*
X1019518Y371455D01*
X1020243D01*
X1022989Y372191D01*
X1025450Y373612D01*
X1027460Y375622D01*
X1028608Y375773D01*
X1036027Y368353D01*
X1036167Y367833D01*
X1037588Y365372D01*
X1039598Y363362D01*
X1042059Y361941D01*
X1044805Y361205D01*
X1047647D01*
X1050393Y361941D01*
X1052854Y363362D01*
X1054864Y365372D01*
X1056285Y367833D01*
X1057021Y370579D01*
Y373421D01*
X1056285Y376167D01*
X1054864Y378628D01*
X1052854Y380638D01*
X1050393Y382059D01*
X1047647Y382795D01*
X1044805D01*
X1043637Y382482D01*
X968565Y457555D01*
X966973Y458776D01*
X965119Y459544D01*
X963130Y459806D01*
X706764D01*
X682057Y484512D01*
X683311Y488646D01*
X683419Y488668D01*
X686213Y489825D01*
X688727Y491505D01*
X689050Y491828D01*
X691642Y493224D01*
X694234Y491828D01*
X694557Y491505D01*
X697071Y489825D01*
X699865Y488668D01*
X702830Y488078D01*
X705854D01*
X708819Y488668D01*
X711613Y489825D01*
X714127Y491505D01*
X714450Y491828D01*
X717042Y493224D01*
X719634Y491828D01*
X719957Y491505D01*
X722471Y489825D01*
X725265Y488668D01*
X728230Y488078D01*
X731254D01*
X734219Y488668D01*
X737013Y489825D01*
X739527Y491505D01*
X739850Y491828D01*
X742442Y493224D01*
X745034Y491828D01*
X745357Y491505D01*
X747871Y489825D01*
X750665Y488668D01*
X753630Y488078D01*
X756654D01*
X759619Y488668D01*
X762413Y489825D01*
X764927Y491505D01*
X767065Y493643D01*
X767817Y494768D01*
X768619Y495130D01*
X771626Y495404D01*
X772466Y495184D01*
X773456Y494194D01*
X776088Y492674D01*
X779023Y491888D01*
X779272D01*
Y503428D01*
Y514968D01*
X779023D01*
X776088Y514182D01*
X773456Y512662D01*
X772466Y511672D01*
X771626Y511452D01*
X768619Y511726D01*
X767817Y512088D01*
X767065Y513213D01*
X764927Y515351D01*
X762413Y517031D01*
X759619Y518188D01*
X756654Y518778D01*
X753630D01*
X750665Y518188D01*
X747871Y517031D01*
X745357Y515351D01*
X745034Y515028D01*
X742442Y513632D01*
X739850Y515028D01*
X739527Y515351D01*
X737013Y517031D01*
X734219Y518188D01*
X731254Y518778D01*
X728230D01*
X725265Y518188D01*
X722471Y517031D01*
X719957Y515351D01*
X719634Y515028D01*
X717042Y513632D01*
X714450Y515028D01*
X714127Y515351D01*
X711613Y517031D01*
X708819Y518188D01*
X705854Y518778D01*
X702830D01*
X699865Y518188D01*
X697071Y517031D01*
X694557Y515351D01*
X694234Y515028D01*
X691642Y513632D01*
X689050Y515028D01*
X688727Y515351D01*
X686213Y517031D01*
X683419Y518188D01*
X680454Y518778D01*
X677430D01*
X674465Y518188D01*
X671671Y517031D01*
X669157Y515351D01*
X667019Y513213D01*
X665339Y510699D01*
X664182Y507905D01*
X664160Y507797D01*
X660026Y506543D01*
X630529Y536041D01*
X628937Y537262D01*
X627083Y538030D01*
X625094Y538292D01*
X457604D01*
X455615Y538030D01*
X453761Y537262D01*
X452170Y536041D01*
X433594Y517465D01*
X431200Y517941D01*
X428198D01*
X425254Y517355D01*
X422480Y516206D01*
X419984Y514538D01*
X419574Y514129D01*
X416998Y512846D01*
X414424Y514129D01*
X414013Y514539D01*
X411517Y516207D01*
X408744Y517356D01*
X405799Y517942D01*
X402797D01*
X399853Y517356D01*
X397080Y516207D01*
X394583Y514539D01*
X394174Y514130D01*
X391599Y512846D01*
X389023Y514130D01*
X388614Y514538D01*
X386118Y516206D01*
X383344Y517355D01*
X380400Y517941D01*
X377398D01*
X374454Y517355D01*
X371680Y516206D01*
X369184Y514538D01*
X368774Y514129D01*
X366199Y512845D01*
X363624Y514129D01*
X363214Y514538D01*
X360718Y516206D01*
X357944Y517355D01*
X355000Y517941D01*
X351998D01*
X349054Y517355D01*
X346280Y516206D01*
X343784Y514538D01*
X343374Y514128D01*
X340799Y512845D01*
X338223Y514128D01*
X337813Y514538D01*
X335317Y516205D01*
X332544Y517354D01*
X329599Y517940D01*
X326597D01*
X322892Y517355D01*
X322124Y519209D01*
X320903Y520801D01*
X320903Y520801D01*
X290310Y551393D01*
X288719Y552614D01*
X286865Y553382D01*
X284876Y553644D01*
X224594D01*
X223641Y554596D01*
X221180Y556017D01*
X218434Y556753D01*
X215592D01*
X212846Y556017D01*
X210385Y554596D01*
X208375Y552586D01*
X206954Y550125D01*
X206218Y547379D01*
Y544537D01*
X206954Y541791D01*
X208375Y539330D01*
X210385Y537320D01*
X212846Y535899D01*
X215592Y535163D01*
X218434D01*
X221180Y535899D01*
X223641Y537320D01*
X224594Y538272D01*
X281692D01*
X302024Y517941D01*
X301560Y515808D01*
X300604Y513973D01*
X298287Y513352D01*
X295681Y511847D01*
X294584Y510750D01*
X293540Y510520D01*
X290975Y510752D01*
X289980Y511151D01*
X289136Y512415D01*
X287013Y514538D01*
X284517Y516205D01*
X281744Y517354D01*
X278799Y517940D01*
X275797D01*
X272853Y517354D01*
X270079Y516205D01*
X267583Y514538D01*
X267174Y514128D01*
X264597Y512845D01*
X262023Y514128D01*
X261612Y514538D01*
X259116Y516206D01*
X256343Y517355D01*
X253399Y517941D01*
X250397D01*
X247452Y517355D01*
X244679Y516206D01*
X242183Y514538D01*
X241773Y514129D01*
X239198Y512845D01*
X236622Y514129D01*
X236213Y514538D01*
X233717Y516205D01*
X230944Y517354D01*
X227999Y517940D01*
X224997D01*
X222053Y517354D01*
X219279Y516205D01*
X216783Y514538D01*
X216374Y514129D01*
X213798Y512845D01*
X211224Y514129D01*
X210814Y514538D01*
X208318Y516206D01*
X205544Y517355D01*
X202600Y517941D01*
X199598D01*
X196654Y517355D01*
X193880Y516206D01*
X191384Y514538D01*
X189261Y512416D01*
X188417Y511151D01*
X187423Y510753D01*
X184858Y510520D01*
X183813Y510749D01*
X182717Y511846D01*
X180110Y513351D01*
X177203Y514130D01*
X176969D01*
Y502700D01*
X174429D01*
Y514130D01*
X174194D01*
X171287Y513351D01*
X168680Y511846D01*
X167584Y510751D01*
X166541Y510521D01*
X163973Y510754D01*
X162981Y511153D01*
X162137Y512416D01*
X160014Y514538D01*
X157518Y516206D01*
X154745Y517355D01*
X151800Y517941D01*
X148798D01*
X145854Y517355D01*
X143080Y516206D01*
X140584Y514538D01*
X138462Y512416D01*
X137617Y511151D01*
X136623Y510753D01*
X134059Y510520D01*
X133013Y510749D01*
X131917Y511846D01*
X129310Y513351D01*
X126403Y514130D01*
X126168D01*
Y502700D01*
X123628D01*
Y514130D01*
X123394D01*
X120487Y513351D01*
X117880Y511846D01*
X116783Y510749D01*
X115738Y510520D01*
X113174Y510753D01*
X112180Y511151D01*
X111335Y512416D01*
X109213Y514538D01*
X106716Y516206D01*
X103943Y517355D01*
X100999Y517941D01*
X97997D01*
X95052Y517355D01*
X92279Y516206D01*
X89783Y514538D01*
X89373Y514129D01*
X86798Y512845D01*
X84222Y514129D01*
X83813Y514538D01*
X81317Y516205D01*
X78544Y517354D01*
X75599Y517940D01*
X72597D01*
X69653Y517354D01*
X66880Y516205D01*
X64383Y514538D01*
X63974Y514129D01*
X61398Y512845D01*
X58824Y514129D01*
X58414Y514538D01*
X55918Y516206D01*
X53144Y517355D01*
X50200Y517941D01*
X47198D01*
X44254Y517355D01*
X41480Y516206D01*
X38984Y514538D01*
X36862Y512416D01*
X35194Y509920D01*
X35072Y509627D01*
X32167Y509207D01*
X30848Y509384D01*
X27726Y513680D01*
X23680Y517726D01*
X19052Y521089D01*
X13953Y523687D01*
X8512Y525455D01*
X2861Y526350D01*
X-2861D01*
X-8512Y525455D01*
X-13953Y523687D01*
X-19052Y521089D01*
X-23680Y517726D01*
X-27726Y513680D01*
X-28631Y512436D01*
X-32441Y513674D01*
Y560804D01*
Y562431D01*
X-32016Y565657D01*
X-31174Y568800D01*
X-29929Y571805D01*
X-28302Y574623D01*
X-26321Y577205D01*
X-24021Y579505D01*
X-21439Y581486D01*
X-18621Y583113D01*
X-15616Y584358D01*
X-12473Y585200D01*
X-9247Y585625D01*
X474019D01*
X475477Y582105D01*
X458904Y565531D01*
X457557D01*
X454811Y564795D01*
X452350Y563374D01*
X450340Y561364D01*
X448919Y558903D01*
X448183Y556157D01*
Y553315D01*
X448919Y550569D01*
X450340Y548108D01*
X452350Y546098D01*
X454811Y544677D01*
X457557Y543941D01*
X460399D01*
X463145Y544677D01*
X465606Y546098D01*
X467616Y548108D01*
X469037Y550569D01*
X469773Y553315D01*
Y554662D01*
X489240Y574129D01*
X851372D01*
X903368Y522133D01*
X903226Y520284D01*
X902258Y517854D01*
X900271Y517031D01*
X897757Y515351D01*
X897434Y515028D01*
X894842Y513632D01*
X892250Y515028D01*
X891927Y515351D01*
X889413Y517031D01*
X886619Y518188D01*
X883654Y518778D01*
X880630D01*
X877665Y518188D01*
X874871Y517031D01*
X872357Y515351D01*
X870219Y513213D01*
X869467Y512088D01*
X868665Y511726D01*
X865658Y511452D01*
X864818Y511672D01*
X863828Y512662D01*
X861196Y514182D01*
X858261Y514968D01*
X858012D01*
Y503428D01*
Y491888D01*
X858261D01*
X861196Y492674D01*
X863828Y494194D01*
X864818Y495184D01*
X865658Y495404D01*
X868665Y495130D01*
X869467Y494768D01*
X870219Y493643D01*
X872357Y491505D01*
X874871Y489825D01*
X877665Y488668D01*
X880630Y488078D01*
X883654D01*
X886619Y488668D01*
X889413Y489825D01*
X891927Y491505D01*
X892250Y491828D01*
X894842Y493224D01*
X897434Y491828D01*
X897757Y491505D01*
X900271Y489825D01*
X903065Y488668D01*
X906030Y488078D01*
X909054D01*
X912019Y488668D01*
X914813Y489825D01*
X917327Y491505D01*
X917650Y491828D01*
X920242Y493224D01*
X922834Y491828D01*
X923157Y491505D01*
X925671Y489825D01*
X928465Y488668D01*
X931430Y488078D01*
X934454D01*
X937419Y488668D01*
X939182Y489398D01*
X942992Y488078D01*
Y488078D01*
X973692D01*
Y518778D01*
X942992D01*
X942992Y518778D01*
X939182Y517458D01*
X937419Y518188D01*
X934454Y518778D01*
X931430D01*
X928954Y518285D01*
X865135Y582105D01*
X866593Y585625D01*
X1351907D01*
X1352928Y581815D01*
X1351626Y581063D01*
X1347326Y577763D01*
X1343493Y573930D01*
X1340193Y569630D01*
X1337483Y564936D01*
X1335408Y559928D01*
X1334005Y554692D01*
X1333298Y549318D01*
Y543898D01*
X1334005Y538524D01*
X1335408Y533288D01*
X1337483Y528280D01*
X1340193Y523586D01*
X1343493Y519286D01*
X1347326Y515453D01*
X1351626Y512153D01*
X1356320Y509443D01*
X1361328Y507368D01*
X1366564Y505965D01*
X1371938Y505258D01*
X1377358D01*
X1382732Y505965D01*
X1387968Y507368D01*
X1392976Y509443D01*
X1397670Y512153D01*
X1401970Y515453D01*
X1405803Y519286D01*
X1409103Y523586D01*
X1411813Y528280D01*
X1413888Y533288D01*
X1415291Y538524D01*
X1415998Y543898D01*
Y549318D01*
X1415291Y554692D01*
X1413888Y559928D01*
X1411813Y564936D01*
X1409103Y569630D01*
X1405803Y573930D01*
X1401970Y577763D01*
X1397670Y581063D01*
X1396368Y581815D01*
X1397389Y585625D01*
X1544142D01*
X1547367Y585200D01*
D02*
G37*
G36*
X49969Y465871D02*
X50204D01*
X53111Y466650D01*
X55717Y468154D01*
X56813Y469250D01*
X57856Y469480D01*
X60425Y469247D01*
X61417Y468848D01*
X62261Y467585D01*
X64383Y465462D01*
X66880Y463795D01*
X69653Y462646D01*
X72597Y462060D01*
X75599D01*
X78544Y462646D01*
X81317Y463795D01*
X83813Y465462D01*
X84223Y465872D01*
X86798Y467156D01*
X89374Y465872D01*
X89783Y465463D01*
X92279Y463795D01*
X95052Y462646D01*
X97997Y462061D01*
X100999D01*
X103943Y462646D01*
X106716Y463795D01*
X109213Y465463D01*
X109622Y465873D01*
X112198Y467156D01*
X114773Y465873D01*
X115183Y465462D01*
X117680Y463795D01*
X120453Y462646D01*
X123397Y462060D01*
X126399D01*
X129344Y462646D01*
X132117Y463795D01*
X134613Y465462D01*
X135024Y465873D01*
X137598Y467156D01*
X140174Y465873D01*
X140584Y465463D01*
X143080Y463795D01*
X145854Y462646D01*
X148798Y462061D01*
X151800D01*
X154745Y462646D01*
X157518Y463795D01*
X160014Y465463D01*
X160423Y465872D01*
X162999Y467156D01*
X165574Y465872D01*
X165983Y465462D01*
X168479Y463795D01*
X171253Y462646D01*
X174197Y462060D01*
X177199D01*
X180144Y462646D01*
X182917Y463795D01*
X185413Y465462D01*
X185824Y465873D01*
X188398Y467156D01*
X190974Y465873D01*
X191384Y465463D01*
X193880Y463795D01*
X196654Y462646D01*
X199598Y462061D01*
X202600D01*
X205544Y462646D01*
X208318Y463795D01*
X210814Y465463D01*
X212937Y467586D01*
X213780Y468848D01*
X214773Y469247D01*
X217342Y469479D01*
X218384Y469250D01*
X219480Y468154D01*
X222087Y466649D01*
X224994Y465870D01*
X225228D01*
Y477300D01*
X227768D01*
Y465870D01*
X228003D01*
X231074Y462748D01*
Y460971D01*
X230122Y460018D01*
X228701Y457557D01*
X227965Y454811D01*
Y451969D01*
X228701Y449223D01*
X230122Y446762D01*
X232132Y444752D01*
X232259Y443788D01*
X209476Y421005D01*
X208891D01*
X206145Y420269D01*
X203684Y418848D01*
X201674Y416838D01*
X200253Y414377D01*
X199517Y411631D01*
Y408789D01*
X200253Y406043D01*
X201674Y403582D01*
X203684Y401572D01*
X206145Y400151D01*
X209169Y397153D01*
Y394311D01*
X209905Y391565D01*
X211326Y389104D01*
X213336Y387094D01*
X215797Y385673D01*
X218543Y384937D01*
X221385D01*
X224131Y385673D01*
X226592Y387094D01*
X228602Y389104D01*
X230023Y391565D01*
X230759Y394311D01*
Y395912D01*
X257490Y422643D01*
X261300Y421726D01*
Y409917D01*
X260348Y408964D01*
X258927Y406503D01*
X258191Y403757D01*
Y400915D01*
X258927Y398169D01*
X260348Y395708D01*
X262358Y393698D01*
X263015Y393318D01*
X263928Y388844D01*
X255134Y380050D01*
X167093D01*
X166140Y381002D01*
X163679Y382423D01*
X160933Y383159D01*
X158091D01*
X155345Y382423D01*
X152884Y381002D01*
X150874Y378992D01*
X149453Y376531D01*
X148717Y373785D01*
Y370943D01*
X149453Y368197D01*
X150874Y365736D01*
X152884Y363726D01*
X155345Y362305D01*
X158091Y361569D01*
X160933D01*
X163679Y362305D01*
X166140Y363726D01*
X167093Y364678D01*
X258318D01*
X260307Y364940D01*
X262161Y365708D01*
X263753Y366929D01*
X312197Y415374D01*
X315114Y415576D01*
X316847Y415098D01*
X317814Y413192D01*
X317303Y411287D01*
Y408445D01*
X317851Y406403D01*
Y375666D01*
Y332932D01*
X316990Y332071D01*
X315933Y330240D01*
X161756Y176064D01*
X125850Y140157D01*
X124221Y138035D01*
X123197Y135563D01*
X122848Y132911D01*
X122848Y132911D01*
Y-24804D01*
X110236D01*
X110236Y-24804D01*
X107584Y-25154D01*
X105112Y-26177D01*
X102990Y-27806D01*
X76828Y-53968D01*
X75199Y-56090D01*
X74176Y-58562D01*
X73826Y-61214D01*
X73826Y-61214D01*
Y-92802D01*
X73279Y-94845D01*
Y-97687D01*
X74015Y-100433D01*
X75436Y-102894D01*
X77446Y-104904D01*
X79907Y-106325D01*
X82653Y-107061D01*
X85495D01*
X88241Y-106325D01*
X90702Y-104904D01*
X92712Y-102894D01*
X94133Y-100433D01*
X94869Y-97687D01*
Y-94845D01*
X94322Y-92802D01*
Y-65459D01*
X114481Y-45300D01*
X122848D01*
Y-105502D01*
X122301Y-107545D01*
Y-110387D01*
X123037Y-113133D01*
X124458Y-115594D01*
X126468Y-117604D01*
X128929Y-119025D01*
X131675Y-119761D01*
X134517D01*
X137263Y-119025D01*
X139724Y-117604D01*
X141734Y-115594D01*
X143155Y-113133D01*
X143891Y-110387D01*
Y-107545D01*
X143344Y-105502D01*
Y-35052D01*
Y128666D01*
X169003Y154325D01*
X443615Y-120287D01*
X445737Y-121916D01*
X448209Y-122940D01*
X450861Y-123289D01*
X452996D01*
X485818Y-156111D01*
X484240Y-159921D01*
X26826D01*
X26068Y-156111D01*
X27472Y-155529D01*
X32166Y-152819D01*
X36466Y-149519D01*
X40299Y-145686D01*
X43599Y-141386D01*
X46309Y-136692D01*
X48384Y-131684D01*
X49787Y-126448D01*
X50494Y-121074D01*
Y-115654D01*
X49787Y-110280D01*
X48384Y-105044D01*
X46309Y-100036D01*
X43599Y-95342D01*
X40299Y-91042D01*
X36466Y-87209D01*
X32166Y-83909D01*
X27472Y-81199D01*
X22464Y-79124D01*
X17228Y-77722D01*
X11854Y-77014D01*
X6434D01*
X1060Y-77722D01*
X-4176Y-79124D01*
X-9184Y-81199D01*
X-13878Y-83909D01*
X-18178Y-87209D01*
X-22011Y-91042D01*
X-25311Y-95342D01*
X-28021Y-100036D01*
X-28631Y-101507D01*
X-32441Y-100749D01*
Y-23928D01*
X-28631Y-22690D01*
X-27726Y-23934D01*
X-23680Y-27980D01*
X-19052Y-31343D01*
X-13953Y-33941D01*
X-8512Y-35709D01*
X-2861Y-36604D01*
X2861D01*
X8512Y-35709D01*
X13953Y-33941D01*
X19052Y-31343D01*
X23680Y-27980D01*
X27726Y-23934D01*
X31089Y-19305D01*
X33687Y-14208D01*
X35455Y-8766D01*
X36350Y-3115D01*
Y2607D01*
X35455Y8258D01*
X33687Y13700D01*
X31089Y18798D01*
X27726Y23426D01*
X23680Y27472D01*
X19052Y30835D01*
X13953Y33433D01*
X8512Y35201D01*
X2861Y36096D01*
X-2861D01*
X-8512Y35201D01*
X-13953Y33433D01*
X-19052Y30835D01*
X-23680Y27472D01*
X-27726Y23426D01*
X-28631Y22182D01*
X-32441Y23420D01*
Y466326D01*
X-28631Y467564D01*
X-27726Y466320D01*
X-23680Y462274D01*
X-19052Y458911D01*
X-13953Y456313D01*
X-8512Y454545D01*
X-2861Y453650D01*
X2861D01*
X8512Y454545D01*
X13953Y456313D01*
X19052Y458911D01*
X23680Y462274D01*
X27726Y466320D01*
X31089Y470948D01*
X33504Y475688D01*
X33951Y475808D01*
X37758Y473970D01*
X38048Y472889D01*
X39553Y470283D01*
X41681Y468154D01*
X44287Y466650D01*
X47194Y465871D01*
X47429D01*
Y477301D01*
X49969D01*
Y465871D01*
D02*
G37*
G36*
X394174Y465873D02*
X394583Y465464D01*
X397080Y463796D01*
X399853Y462647D01*
X402797Y462062D01*
X405799D01*
X408193Y462538D01*
X427601Y443129D01*
X427601Y443129D01*
X427707Y443048D01*
X427757Y441634D01*
X427534Y440559D01*
X426730Y438996D01*
X425093Y438557D01*
X422632Y437136D01*
X420622Y435126D01*
X419201Y432665D01*
X418465Y429919D01*
Y427077D01*
X419012Y425034D01*
Y411897D01*
X417718Y411726D01*
X415246Y410703D01*
X413124Y409074D01*
X389963Y385914D01*
X338346D01*
Y406403D01*
X338893Y408445D01*
Y411287D01*
X338383Y413192D01*
X339643Y415676D01*
X340843Y417002D01*
X365545D01*
X366498Y416050D01*
X368959Y414629D01*
X371705Y413893D01*
X374547D01*
X377293Y414629D01*
X379754Y416050D01*
X381764Y418060D01*
X383185Y420521D01*
X383921Y423267D01*
Y426109D01*
X383185Y428855D01*
X381764Y431316D01*
X379754Y433326D01*
X377293Y434747D01*
X374547Y435483D01*
X371705D01*
X368959Y434747D01*
X366498Y433326D01*
X365545Y432374D01*
X310642D01*
X308653Y432112D01*
X306799Y431344D01*
X305207Y430123D01*
X282478Y407394D01*
X278004Y408307D01*
X277624Y408964D01*
X276672Y409917D01*
Y422266D01*
X302650Y448244D01*
X357528D01*
X359518Y448506D01*
X361371Y449274D01*
X362963Y450495D01*
X375005Y462537D01*
X377398Y462061D01*
X380400D01*
X383344Y462646D01*
X386118Y463795D01*
X388614Y465463D01*
X389024Y465873D01*
X391598Y467157D01*
X394174Y465873D01*
D02*
G37*
G36*
X693573Y439827D02*
X693573Y439827D01*
X695165Y438606D01*
X697019Y437838D01*
X699008Y437576D01*
X699008Y437576D01*
X952626D01*
X1004841Y385362D01*
X1002836Y382255D01*
X1000364Y383279D01*
X997712Y383628D01*
X997712Y383628D01*
X675059D01*
X629202Y429485D01*
X628144Y431316D01*
X626134Y433326D01*
X624303Y434384D01*
X616846Y441840D01*
X614724Y443469D01*
X612252Y444492D01*
X609600Y444842D01*
X609600Y444842D01*
X555840D01*
Y457659D01*
X559650Y459600D01*
X560948Y458657D01*
X566046Y456059D01*
X571488Y454291D01*
X577139Y453396D01*
X582861D01*
X588512Y454291D01*
X593954Y456059D01*
X599052Y458657D01*
X603680Y462020D01*
X607726Y466066D01*
X611089Y470695D01*
X613687Y475793D01*
X615455Y481234D01*
X616350Y486885D01*
Y492607D01*
X615455Y498258D01*
X613687Y503700D01*
X611089Y508798D01*
X608443Y512440D01*
X609855Y516250D01*
X617150D01*
X693573Y439827D01*
D02*
G37*
G36*
X609810Y419891D02*
X610868Y418060D01*
X612878Y416050D01*
X614709Y414992D01*
X663568Y366134D01*
X663568Y366134D01*
X665690Y364505D01*
X668162Y363481D01*
X670814Y363132D01*
X993467D01*
X1035851Y320748D01*
Y309426D01*
X998801Y272376D01*
X953424D01*
X951381Y272923D01*
X948539D01*
X945793Y272187D01*
X943332Y270766D01*
X941322Y268756D01*
X939901Y266295D01*
X939165Y263549D01*
Y260707D01*
X939901Y257961D01*
X941322Y255500D01*
X942375Y254447D01*
X941022Y250637D01*
X866990D01*
X865402Y252224D01*
X862941Y253645D01*
X860195Y254381D01*
X857353D01*
X854607Y253645D01*
X852146Y252224D01*
X850136Y250214D01*
X848715Y247753D01*
X847979Y245007D01*
Y242165D01*
X847944Y242120D01*
X790715D01*
X790342Y242493D01*
Y243840D01*
X789606Y246585D01*
X788185Y249047D01*
X786176Y251057D01*
X783714Y252478D01*
X780968Y253214D01*
X778126D01*
X775380Y252478D01*
X772919Y251057D01*
X770909Y249047D01*
X769488Y246585D01*
X768752Y243840D01*
Y240997D01*
X769488Y238252D01*
X770909Y235790D01*
X771962Y234737D01*
X770609Y230927D01*
X725541D01*
X713976Y242493D01*
Y243840D01*
X713240Y246585D01*
X711819Y249047D01*
X709809Y251057D01*
X707347Y252478D01*
X704602Y253214D01*
X701759D01*
X699014Y252478D01*
X696552Y251057D01*
X694542Y249047D01*
X693121Y246585D01*
X692386Y243840D01*
Y240997D01*
X693121Y238252D01*
X694542Y235790D01*
X696552Y233780D01*
X699014Y232359D01*
X701759Y231623D01*
X703106D01*
X710926Y223804D01*
X709468Y220284D01*
X659818D01*
X637609Y242493D01*
Y243840D01*
X636874Y246585D01*
X635452Y249047D01*
X633442Y251057D01*
X630981Y252478D01*
X628235Y253214D01*
X625393D01*
X622647Y252478D01*
X620186Y251057D01*
X618176Y249047D01*
X616755Y246585D01*
X616019Y243840D01*
Y240997D01*
X616755Y238252D01*
X618176Y235790D01*
X620186Y233780D01*
X622647Y232359D01*
X625393Y231623D01*
X626740D01*
X645735Y212628D01*
X644277Y209108D01*
X595258D01*
X561243Y243123D01*
Y243840D01*
X560507Y246585D01*
X559086Y249047D01*
X557076Y251057D01*
X554614Y252478D01*
X551869Y253214D01*
X549026D01*
X546281Y252478D01*
X543819Y251057D01*
X541810Y249047D01*
X540388Y246585D01*
X539653Y243840D01*
Y240997D01*
X540388Y238252D01*
X541810Y235790D01*
X543819Y233780D01*
X546281Y232359D01*
X549026Y231623D01*
X551003D01*
X586639Y195987D01*
X588231Y194766D01*
X590085Y193998D01*
X592074Y193736D01*
X592074Y193736D01*
X1166690D01*
X1314384Y46041D01*
Y-50023D01*
X1313504Y-50531D01*
X1310907Y-53128D01*
X1309071Y-56309D01*
X1309042Y-56416D01*
X1305098D01*
X1305069Y-56309D01*
X1303233Y-53128D01*
X1300636Y-50531D01*
X1299756Y-50023D01*
Y-28170D01*
X1299756Y-28170D01*
X1299494Y-26181D01*
X1298726Y-24327D01*
X1297505Y-22735D01*
X1297504Y-22735D01*
X1208909Y65860D01*
Y67207D01*
X1208173Y69953D01*
X1206752Y72414D01*
X1204742Y74424D01*
X1202281Y75845D01*
X1199535Y76581D01*
X1196693D01*
X1193947Y75845D01*
X1191486Y74424D01*
X1189476Y72414D01*
X1188055Y69953D01*
X1187319Y67207D01*
Y64365D01*
X1188055Y61619D01*
X1189476Y59158D01*
X1191486Y57148D01*
X1193947Y55727D01*
X1196693Y54991D01*
X1198040D01*
X1284384Y-31354D01*
Y-50023D01*
X1283504Y-50531D01*
X1280907Y-53128D01*
X1279071Y-56309D01*
X1279042Y-56416D01*
X1275098D01*
X1275069Y-56309D01*
X1273233Y-53128D01*
X1270636Y-50531D01*
X1267455Y-48695D01*
X1263906Y-47744D01*
X1260233D01*
X1259252Y-48007D01*
X1140025Y71221D01*
X1138433Y72442D01*
X1136579Y73210D01*
X1134590Y73472D01*
X1121138D01*
X1120186Y74424D01*
X1117725Y75845D01*
X1114979Y76581D01*
X1112137D01*
X1109391Y75845D01*
X1106929Y74424D01*
X1104920Y72414D01*
X1103498Y69953D01*
X1102763Y67207D01*
Y64365D01*
X1103498Y61619D01*
X1104920Y59158D01*
X1106929Y57148D01*
X1109391Y55727D01*
X1112137Y54991D01*
X1114979D01*
X1117725Y55727D01*
X1120186Y57148D01*
X1121138Y58100D01*
X1131406D01*
X1233441Y-43934D01*
X1231862Y-47744D01*
X1230233D01*
X1226685Y-48695D01*
X1223504Y-50531D01*
X1220907Y-53128D01*
X1220399Y-54008D01*
X1200257D01*
X1075029Y71221D01*
X1073437Y72442D01*
X1071583Y73210D01*
X1069594Y73472D01*
X1038868D01*
X1037916Y74424D01*
X1035454Y75845D01*
X1032709Y76581D01*
X1029866D01*
X1027121Y75845D01*
X1024659Y74424D01*
X1022649Y72414D01*
X1021228Y69953D01*
X1020492Y67207D01*
Y64365D01*
X1021228Y61619D01*
X1022649Y59158D01*
X1024659Y57148D01*
X1027121Y55727D01*
X1029866Y54991D01*
X1032709D01*
X1035454Y55727D01*
X1037916Y57148D01*
X1038868Y58100D01*
X1066410D01*
X1191639Y-67129D01*
X1191639Y-67129D01*
X1193231Y-68350D01*
X1195085Y-69118D01*
X1197074Y-69380D01*
X1197074Y-69380D01*
X1220399D01*
X1220907Y-70259D01*
X1223504Y-72857D01*
X1226685Y-74693D01*
X1226792Y-74722D01*
Y-78666D01*
X1226685Y-78695D01*
X1223504Y-80531D01*
X1222589Y-81446D01*
X1124550D01*
Y-77744D01*
X1118320D01*
X1117300Y-73934D01*
X1119165Y-72857D01*
X1121763Y-70259D01*
X1123599Y-67078D01*
X1124550Y-63531D01*
Y-59858D01*
X1123599Y-56309D01*
X1121763Y-53128D01*
X1119165Y-50531D01*
X1115984Y-48695D01*
X1112437Y-47744D01*
X1108763D01*
X1108531Y-47806D01*
X963622Y97102D01*
Y98449D01*
X962887Y101195D01*
X961466Y103656D01*
X959456Y105666D01*
X956994Y107087D01*
X954249Y107823D01*
X951406D01*
X948661Y107087D01*
X946199Y105666D01*
X944189Y103656D01*
X942768Y101195D01*
X942032Y98449D01*
Y95607D01*
X942768Y92861D01*
X944189Y90400D01*
X946199Y88390D01*
X948661Y86969D01*
X951406Y86233D01*
X952753D01*
X1083093Y-44107D01*
X1082966Y-44810D01*
X1081423Y-47598D01*
X1080080Y-47744D01*
X1078764D01*
X1077862Y-47986D01*
X1077771Y-47996D01*
X1020023Y9753D01*
X1018431Y10974D01*
X1016577Y11742D01*
X1014588Y12004D01*
X1003944D01*
X913485Y102463D01*
X911893Y103684D01*
X910039Y104452D01*
X908050Y104714D01*
X878138D01*
X877185Y105666D01*
X874724Y107087D01*
X871978Y107823D01*
X869136D01*
X866390Y107087D01*
X863929Y105666D01*
X861919Y103656D01*
X860498Y101195D01*
X859762Y98449D01*
Y95607D01*
X860498Y92861D01*
X861919Y90400D01*
X863929Y88390D01*
X866390Y86969D01*
X869136Y86233D01*
X871978D01*
X874724Y86969D01*
X877185Y88390D01*
X878138Y89342D01*
X904866D01*
X932203Y62006D01*
X930745Y58486D01*
X880246D01*
X836269Y102463D01*
X834677Y103684D01*
X832823Y104452D01*
X830834Y104714D01*
X795868D01*
X794915Y105666D01*
X792454Y107087D01*
X789708Y107823D01*
X786866D01*
X784120Y107087D01*
X781659Y105666D01*
X779649Y103656D01*
X778228Y101195D01*
X777492Y98449D01*
Y95607D01*
X778228Y92861D01*
X779649Y90400D01*
X781659Y88390D01*
X784120Y86969D01*
X786866Y86233D01*
X789708D01*
X792454Y86969D01*
X794915Y88390D01*
X795868Y89342D01*
X827650D01*
X871627Y45365D01*
X873219Y44144D01*
X875073Y43376D01*
X877062Y43114D01*
X877062Y43114D01*
X934922D01*
X1020822Y-42786D01*
X1019403Y-46680D01*
X1016872Y-47097D01*
X937925Y31851D01*
X936333Y33072D01*
X934479Y33840D01*
X932490Y34102D01*
X779812D01*
X716812Y97102D01*
Y98449D01*
X716076Y101195D01*
X714655Y103656D01*
X712645Y105666D01*
X710183Y107087D01*
X707438Y107823D01*
X704596D01*
X701850Y107087D01*
X699389Y105666D01*
X697379Y103656D01*
X695957Y101195D01*
X695222Y98449D01*
Y95607D01*
X695957Y92861D01*
X697379Y90400D01*
X699389Y88390D01*
X701850Y86969D01*
X704596Y86233D01*
X705943D01*
X771194Y20981D01*
X772786Y19760D01*
X774640Y18992D01*
X776629Y18730D01*
X776629Y18730D01*
X929306D01*
X990822Y-42786D01*
X989403Y-46680D01*
X986872Y-47097D01*
X938913Y863D01*
X937321Y2084D01*
X935467Y2852D01*
X933478Y3114D01*
X728530D01*
X634542Y97102D01*
Y98449D01*
X633806Y101195D01*
X632385Y103656D01*
X630375Y105666D01*
X627913Y107087D01*
X625168Y107823D01*
X622325D01*
X619580Y107087D01*
X617118Y105666D01*
X615108Y103656D01*
X613687Y101195D01*
X612952Y98449D01*
Y95607D01*
X613687Y92861D01*
X615108Y90400D01*
X617118Y88390D01*
X619580Y86969D01*
X622325Y86233D01*
X623672D01*
X719912Y-10007D01*
X721504Y-11228D01*
X723357Y-11996D01*
X725347Y-12258D01*
X930294D01*
X960822Y-42786D01*
X959403Y-46680D01*
X956872Y-47097D01*
X928217Y-18441D01*
X926625Y-17220D01*
X924771Y-16452D01*
X922782Y-16190D01*
X665564D01*
X552271Y97102D01*
Y98449D01*
X551536Y101195D01*
X550115Y103656D01*
X548105Y105666D01*
X545643Y107087D01*
X542898Y107823D01*
X540055D01*
X537310Y107087D01*
X534848Y105666D01*
X532838Y103656D01*
X531417Y101195D01*
X530681Y98449D01*
Y95607D01*
X531417Y92861D01*
X532838Y90400D01*
X534848Y88390D01*
X537310Y86969D01*
X540055Y86233D01*
X541402D01*
X588589Y39046D01*
X586770Y35477D01*
X582861Y36096D01*
X577139D01*
X571488Y35201D01*
X566046Y33433D01*
X560948Y30835D01*
X556320Y27472D01*
X552274Y23426D01*
X548911Y18798D01*
X546313Y13700D01*
X544545Y8258D01*
X543650Y2607D01*
Y-3115D01*
X544545Y-8766D01*
X546313Y-14208D01*
X547342Y-16226D01*
X544221Y-18494D01*
X466892Y58835D01*
Y89447D01*
X467844Y90400D01*
X469266Y92861D01*
X470001Y95607D01*
Y98449D01*
X469266Y101195D01*
X467844Y103656D01*
X465835Y105666D01*
X463373Y107087D01*
X460627Y107823D01*
X457785D01*
X455039Y107087D01*
X452578Y105666D01*
X450568Y103656D01*
X449147Y101195D01*
X448411Y98449D01*
Y95607D01*
X449147Y92861D01*
X450568Y90400D01*
X451520Y89447D01*
Y55652D01*
X451782Y53663D01*
X452550Y51809D01*
X453772Y50217D01*
X554187Y-50198D01*
X552913Y-53788D01*
X552726Y-54008D01*
X538842D01*
X387985Y96848D01*
Y98195D01*
X387249Y100941D01*
X385828Y103402D01*
X383818Y105412D01*
X381357Y106833D01*
X378611Y107569D01*
X375769D01*
X373023Y106833D01*
X370562Y105412D01*
X368552Y103402D01*
X367131Y100941D01*
X366395Y98195D01*
Y95353D01*
X367131Y92607D01*
X368552Y90146D01*
X370562Y88136D01*
X373023Y86715D01*
X375769Y85979D01*
X377116D01*
X530223Y-67129D01*
X531815Y-68350D01*
X533669Y-69118D01*
X535658Y-69380D01*
X773687D01*
Y-98166D01*
X772007Y-101280D01*
X743424D01*
X740693Y-97470D01*
X740870Y-96582D01*
Y-93410D01*
X740251Y-90300D01*
X739038Y-87370D01*
X737276Y-84733D01*
X735033Y-82490D01*
X732396Y-80728D01*
X729466Y-79515D01*
X726356Y-78896D01*
X723184D01*
X720074Y-79515D01*
X717144Y-80728D01*
X714507Y-82490D01*
X712264Y-84733D01*
X710502Y-87370D01*
X709289Y-90300D01*
X708670Y-93410D01*
Y-96582D01*
X708847Y-97470D01*
X706116Y-101280D01*
X691924D01*
X690870Y-100227D01*
Y-78896D01*
X658670D01*
Y-111096D01*
X680001D01*
X683305Y-114401D01*
X683305Y-114401D01*
X684897Y-115622D01*
X686751Y-116390D01*
X688740Y-116652D01*
X775866D01*
X776604Y-117931D01*
X777823Y-119149D01*
X778891Y-121666D01*
X777823Y-124183D01*
X776604Y-125401D01*
X774682Y-128731D01*
X773687Y-132444D01*
Y-136288D01*
X773836Y-136844D01*
X771516Y-139866D01*
X498559D01*
X467915Y-109223D01*
X467887Y-109117D01*
X466465Y-106656D01*
X464456Y-104646D01*
X461994Y-103225D01*
X459249Y-102489D01*
X456406D01*
X455270Y-102793D01*
X455106D01*
X183495Y168817D01*
X330425Y315747D01*
X332256Y316805D01*
X334266Y318815D01*
X335687Y321276D01*
X335762Y321555D01*
X336973Y323133D01*
X337997Y325605D01*
X338346Y328257D01*
X338346Y328257D01*
Y365418D01*
X368734D01*
X369235Y361608D01*
X368959Y361534D01*
X366498Y360113D01*
X364488Y358103D01*
X363067Y355642D01*
X362331Y352896D01*
Y350054D01*
X363067Y347308D01*
X364488Y344847D01*
X366498Y342837D01*
X368959Y341416D01*
X371705Y340680D01*
X373052D01*
X421478Y292253D01*
X423070Y291032D01*
X424924Y290264D01*
X425918Y290133D01*
X426913Y290002D01*
X426913Y290002D01*
X900469D01*
X901422Y289050D01*
X903883Y287629D01*
X906629Y286893D01*
X909471D01*
X912217Y287629D01*
X914678Y289050D01*
X916688Y291060D01*
X918109Y293521D01*
X918845Y296267D01*
Y299109D01*
X918628Y299918D01*
X921107Y300583D01*
X923568Y302004D01*
X925578Y304014D01*
X926999Y306475D01*
X927735Y309221D01*
Y311973D01*
X1001434D01*
X1001498Y311910D01*
X1003959Y310489D01*
X1006705Y309753D01*
X1009547D01*
X1012293Y310489D01*
X1014754Y311910D01*
X1016764Y313920D01*
X1018185Y316381D01*
X1018921Y319127D01*
Y321969D01*
X1018185Y324715D01*
X1016764Y327176D01*
X1014754Y329186D01*
X1012293Y330607D01*
X1009547Y331343D01*
X1006705D01*
X1005515Y331024D01*
X1005231Y332081D01*
X1003810Y334542D01*
X1001800Y336552D01*
X999339Y337973D01*
X996593Y338709D01*
X993751D01*
X991005Y337973D01*
X988544Y336552D01*
X987591Y335600D01*
X561984D01*
X510799Y386784D01*
X511803Y390552D01*
X512939Y391033D01*
X514247D01*
X516993Y391769D01*
X519454Y393190D01*
X521464Y395200D01*
X522522Y397031D01*
X549837Y424346D01*
X605355D01*
X609810Y419891D01*
D02*
G37*
G36*
X656946Y-29311D02*
X656946Y-29311D01*
X658538Y-30532D01*
X660391Y-31300D01*
X662380Y-31562D01*
X662381Y-31562D01*
X919598D01*
X930822Y-42786D01*
X929403Y-46680D01*
X926872Y-47097D01*
X920061Y-40285D01*
X918469Y-39064D01*
X916615Y-38296D01*
X914626Y-38034D01*
X593685D01*
X593081Y-34224D01*
X593954Y-33941D01*
X599052Y-31343D01*
X603680Y-27980D01*
X607726Y-23934D01*
X611089Y-19305D01*
X613687Y-14208D01*
X615455Y-8766D01*
X616350Y-3115D01*
Y2607D01*
X615731Y6516D01*
X619300Y8335D01*
X656946Y-29311D01*
D02*
G37*
G36*
X1344384Y30824D02*
Y-50023D01*
X1343504Y-50531D01*
X1340907Y-53128D01*
X1339071Y-56309D01*
X1339042Y-56416D01*
X1335098D01*
X1335069Y-56309D01*
X1333233Y-53128D01*
X1330636Y-50531D01*
X1329756Y-50023D01*
Y40475D01*
X1333276Y41933D01*
X1344384Y30824D01*
D02*
G37*
G36*
X889437Y-70259D02*
X892035Y-72857D01*
X895216Y-74693D01*
X895322Y-74722D01*
Y-78666D01*
X895216Y-78695D01*
X892035Y-80531D01*
X889437Y-83128D01*
X887601Y-86309D01*
X886650Y-89858D01*
Y-91660D01*
X838443Y-139866D01*
X805058D01*
X802738Y-136844D01*
X802887Y-136288D01*
Y-132444D01*
X801892Y-128731D01*
X799970Y-125401D01*
X798751Y-124183D01*
X797683Y-121666D01*
X798751Y-119149D01*
X799970Y-117931D01*
X801892Y-114601D01*
X802887Y-110888D01*
Y-107044D01*
X801892Y-103331D01*
X801110Y-101976D01*
X802887Y-98166D01*
X802887D01*
Y-69380D01*
X888929D01*
X889437Y-70259D01*
D02*
G37*
%LPC*%
G36*
X1228655Y581186D02*
X1224449D01*
X1220324Y580365D01*
X1216439Y578756D01*
X1212942Y576420D01*
X1209968Y573446D01*
X1207632Y569949D01*
X1206022Y566064D01*
X1205202Y561939D01*
Y557733D01*
X1206022Y553608D01*
X1207632Y549723D01*
X1209968Y546226D01*
X1212942Y543252D01*
X1216439Y540916D01*
X1220324Y539306D01*
X1224449Y538486D01*
X1228655D01*
X1232780Y539306D01*
X1236665Y540916D01*
X1240162Y543252D01*
X1243136Y546226D01*
X1245472Y549723D01*
X1247082Y553608D01*
X1247902Y557733D01*
Y561939D01*
X1247082Y566064D01*
X1245472Y569949D01*
X1243136Y573446D01*
X1240162Y576420D01*
X1236665Y578756D01*
X1232780Y580365D01*
X1228655Y581186D01*
D02*
G37*
G36*
X1037830Y548738D02*
X1037482D01*
Y537718D01*
X1048502D01*
Y538066D01*
X1047664Y541192D01*
X1046046Y543994D01*
X1043758Y546282D01*
X1040956Y547901D01*
X1037830Y548738D01*
D02*
G37*
G36*
X1034942D02*
X1034594D01*
X1031468Y547901D01*
X1028666Y546282D01*
X1026378Y543994D01*
X1024760Y541192D01*
X1023922Y538066D01*
Y537718D01*
X1034942D01*
Y548738D01*
D02*
G37*
G36*
X1510773Y543449D02*
X1501903D01*
Y534579D01*
X1510773D01*
Y543449D01*
D02*
G37*
G36*
X1499363D02*
X1490493D01*
Y534579D01*
X1499363D01*
Y543449D01*
D02*
G37*
G36*
X1048502Y535178D02*
X1037482D01*
Y524158D01*
X1037830D01*
X1040956Y524995D01*
X1043758Y526614D01*
X1046046Y528902D01*
X1047664Y531704D01*
X1048502Y534830D01*
Y535178D01*
D02*
G37*
G36*
X1034942D02*
X1023922D01*
Y534830D01*
X1024760Y531704D01*
X1026378Y528902D01*
X1028666Y526614D01*
X1031468Y524995D01*
X1034594Y524158D01*
X1034942D01*
Y535178D01*
D02*
G37*
G36*
X1510773Y532039D02*
X1501903D01*
Y523169D01*
X1510773D01*
Y532039D01*
D02*
G37*
G36*
X1499363D02*
X1490493D01*
Y523169D01*
X1499363D01*
Y532039D01*
D02*
G37*
G36*
X1102312Y552548D02*
X1070112D01*
Y520348D01*
X1102312D01*
Y552548D01*
D02*
G37*
G36*
X804672Y514968D02*
X804423D01*
X801488Y514182D01*
X798856Y512662D01*
X796708Y510514D01*
X795224Y507943D01*
X794978Y507882D01*
X791506D01*
X791260Y507943D01*
X789776Y510514D01*
X787628Y512662D01*
X784996Y514182D01*
X782061Y514968D01*
X781812D01*
Y503428D01*
Y491888D01*
X782061D01*
X784996Y492674D01*
X787628Y494194D01*
X789776Y496342D01*
X791260Y498913D01*
X791506Y498974D01*
X794978D01*
X795224Y498913D01*
X796708Y496342D01*
X798856Y494194D01*
X801488Y492674D01*
X804423Y491888D01*
X804672D01*
Y503428D01*
Y514968D01*
D02*
G37*
G36*
X855472D02*
X855223D01*
X852288Y514182D01*
X849656Y512662D01*
X847508Y510514D01*
X846024Y507943D01*
X845778Y507882D01*
X842306D01*
X842060Y507943D01*
X840576Y510514D01*
X838428Y512662D01*
X835796Y514182D01*
X832861Y514968D01*
X832612D01*
Y503428D01*
Y491888D01*
X832861D01*
X835796Y492674D01*
X838428Y494194D01*
X840576Y496342D01*
X842060Y498913D01*
X842306Y498974D01*
X845778D01*
X846024Y498913D01*
X847508Y496342D01*
X849656Y494194D01*
X852288Y492674D01*
X855223Y491888D01*
X855472D01*
Y503428D01*
Y514968D01*
D02*
G37*
G36*
X830072D02*
X829823D01*
X826888Y514182D01*
X824256Y512662D01*
X822108Y510514D01*
X820624Y507943D01*
X820378Y507882D01*
X816906D01*
X816660Y507943D01*
X815176Y510514D01*
X813028Y512662D01*
X810396Y514182D01*
X807461Y514968D01*
X807212D01*
Y503428D01*
Y491888D01*
X807461D01*
X810396Y492674D01*
X813028Y494194D01*
X815176Y496342D01*
X816660Y498913D01*
X816906Y498974D01*
X820378D01*
X820624Y498913D01*
X822108Y496342D01*
X824256Y494194D01*
X826888Y492674D01*
X829823Y491888D01*
X830072D01*
Y503428D01*
Y514968D01*
D02*
G37*
G36*
X1501968Y513449D02*
X1501903D01*
Y504579D01*
X1510773D01*
Y504644D01*
X1510082Y507223D01*
X1508747Y509535D01*
X1506859Y511423D01*
X1504547Y512758D01*
X1501968Y513449D01*
D02*
G37*
G36*
X1499363D02*
X1499298D01*
X1496719Y512758D01*
X1494407Y511423D01*
X1492519Y509535D01*
X1491184Y507223D01*
X1490493Y504644D01*
Y504579D01*
X1499363D01*
Y513449D01*
D02*
G37*
G36*
X1510773Y502039D02*
X1501903D01*
Y493169D01*
X1501968D01*
X1504547Y493860D01*
X1506859Y495195D01*
X1508747Y497083D01*
X1510082Y499395D01*
X1510773Y501974D01*
Y502039D01*
D02*
G37*
G36*
X1499363D02*
X1490493D01*
Y501974D01*
X1491184Y499395D01*
X1492519Y497083D01*
X1494407Y495195D01*
X1496719Y493860D01*
X1499298Y493169D01*
X1499363D01*
Y502039D01*
D02*
G37*
G36*
X1472470Y547259D02*
X1468797D01*
X1465249Y546308D01*
X1462068Y544472D01*
X1459471Y541874D01*
X1457634Y538693D01*
X1456683Y535145D01*
Y531472D01*
X1457634Y527924D01*
X1459471Y524743D01*
X1462068Y522146D01*
X1465249Y520309D01*
X1465355Y520281D01*
Y516337D01*
X1465249Y516308D01*
X1462068Y514472D01*
X1459471Y511874D01*
X1457634Y508693D01*
X1456683Y505145D01*
Y501472D01*
X1456946Y500491D01*
X1434738Y478283D01*
X1361589D01*
X1360636Y479236D01*
X1358175Y480657D01*
X1355429Y481393D01*
X1352587D01*
X1349841Y480657D01*
X1347380Y479236D01*
X1345370Y477226D01*
X1343949Y474764D01*
X1343213Y472019D01*
Y469176D01*
X1343949Y466431D01*
X1345370Y463969D01*
X1347380Y461959D01*
X1349841Y460538D01*
X1352587Y459803D01*
X1355429D01*
X1358175Y460538D01*
X1360636Y461959D01*
X1361589Y462912D01*
X1437922D01*
X1439911Y463174D01*
X1441765Y463941D01*
X1443356Y465163D01*
X1451725Y473531D01*
X1455620Y472112D01*
X1456037Y469581D01*
X1434004Y447549D01*
X1361589D01*
X1360636Y448502D01*
X1358175Y449923D01*
X1355429Y450658D01*
X1352587D01*
X1349841Y449923D01*
X1347380Y448502D01*
X1345370Y446492D01*
X1343949Y444030D01*
X1343213Y441285D01*
Y438442D01*
X1343949Y435697D01*
X1345370Y433235D01*
X1347380Y431225D01*
X1349841Y429804D01*
X1352587Y429068D01*
X1355429D01*
X1358175Y429804D01*
X1360636Y431225D01*
X1361589Y432178D01*
X1437188D01*
X1439177Y432440D01*
X1441031Y433207D01*
X1442623Y434429D01*
X1451725Y443531D01*
X1455620Y442111D01*
X1456036Y439581D01*
X1433270Y416815D01*
X1361843D01*
X1360890Y417768D01*
X1358429Y419189D01*
X1355683Y419925D01*
X1352841D01*
X1350095Y419189D01*
X1347634Y417768D01*
X1345624Y415758D01*
X1344203Y413296D01*
X1343467Y410551D01*
Y407708D01*
X1344203Y404963D01*
X1345624Y402501D01*
X1347634Y400491D01*
X1350095Y399070D01*
X1352841Y398335D01*
X1355683D01*
X1358429Y399070D01*
X1360890Y400491D01*
X1361843Y401444D01*
X1436454D01*
X1438443Y401706D01*
X1440297Y402473D01*
X1441889Y403695D01*
X1451725Y413531D01*
X1455620Y412111D01*
X1456036Y409581D01*
X1432536Y386081D01*
X1362097D01*
X1361144Y387034D01*
X1358683Y388455D01*
X1355937Y389190D01*
X1353095D01*
X1350349Y388455D01*
X1347888Y387034D01*
X1345878Y385024D01*
X1344457Y382562D01*
X1343721Y379817D01*
Y376974D01*
X1344457Y374229D01*
X1345878Y371767D01*
X1347888Y369757D01*
X1350349Y368336D01*
X1353095Y367601D01*
X1355937D01*
X1358683Y368336D01*
X1361144Y369757D01*
X1362097Y370710D01*
X1435720D01*
X1437709Y370972D01*
X1439563Y371739D01*
X1441154Y372961D01*
X1451725Y383531D01*
X1455620Y382112D01*
X1456037Y379581D01*
X1431802Y355347D01*
X1362097D01*
X1361144Y356300D01*
X1358683Y357721D01*
X1355937Y358456D01*
X1353095D01*
X1350349Y357721D01*
X1347888Y356300D01*
X1345878Y354290D01*
X1344457Y351828D01*
X1343721Y349083D01*
Y346240D01*
X1344457Y343495D01*
X1345878Y341033D01*
X1347888Y339023D01*
X1350349Y337602D01*
X1353095Y336866D01*
X1355937D01*
X1358683Y337602D01*
X1361144Y339023D01*
X1362097Y339976D01*
X1434986D01*
X1436975Y340238D01*
X1438829Y341005D01*
X1440421Y342227D01*
X1451725Y353531D01*
X1455620Y352111D01*
X1456036Y349581D01*
X1431231Y324776D01*
X1362036D01*
X1361084Y325729D01*
X1358623Y327150D01*
X1355877Y327886D01*
X1353035D01*
X1350289Y327150D01*
X1347828Y325729D01*
X1345818Y323719D01*
X1344397Y321257D01*
X1343661Y318512D01*
Y315669D01*
X1344397Y312924D01*
X1345818Y310462D01*
X1347828Y308452D01*
X1350289Y307031D01*
X1353035Y306296D01*
X1355877D01*
X1358623Y307031D01*
X1361084Y308452D01*
X1362036Y309405D01*
X1434415D01*
X1436404Y309667D01*
X1438258Y310434D01*
X1439850Y311656D01*
X1452873Y324679D01*
X1456683Y323101D01*
Y321472D01*
X1457634Y317924D01*
X1459471Y314743D01*
X1462068Y312146D01*
X1465249Y310310D01*
X1468797Y309359D01*
X1472470D01*
X1476018Y310310D01*
X1479199Y312146D01*
X1481796Y314743D01*
X1483633Y317924D01*
X1484583Y321472D01*
Y325145D01*
X1483633Y328693D01*
X1481796Y331874D01*
X1479199Y334472D01*
X1476018Y336308D01*
X1475911Y336337D01*
Y340281D01*
X1476018Y340309D01*
X1479199Y342146D01*
X1481796Y344743D01*
X1483633Y347924D01*
X1484583Y351472D01*
Y355145D01*
X1483633Y358693D01*
X1481796Y361874D01*
X1479199Y364472D01*
X1476018Y366308D01*
X1475911Y366337D01*
Y370281D01*
X1476018Y370309D01*
X1479199Y372146D01*
X1481796Y374743D01*
X1483633Y377924D01*
X1484583Y381472D01*
Y385145D01*
X1483633Y388693D01*
X1481796Y391874D01*
X1479199Y394472D01*
X1476018Y396308D01*
X1475911Y396337D01*
Y400281D01*
X1476018Y400309D01*
X1479199Y402146D01*
X1481796Y404743D01*
X1483633Y407924D01*
X1484583Y411472D01*
Y415145D01*
X1483633Y418693D01*
X1481796Y421874D01*
X1479199Y424472D01*
X1476018Y426308D01*
X1475911Y426337D01*
Y430281D01*
X1476018Y430309D01*
X1479199Y432146D01*
X1481796Y434743D01*
X1483633Y437924D01*
X1484583Y441472D01*
Y445145D01*
X1483633Y448693D01*
X1481796Y451874D01*
X1479199Y454472D01*
X1476018Y456308D01*
X1475911Y456337D01*
Y460281D01*
X1476018Y460309D01*
X1479199Y462146D01*
X1481796Y464743D01*
X1483633Y467924D01*
X1484583Y471472D01*
Y475145D01*
X1483633Y478693D01*
X1481796Y481874D01*
X1479199Y484472D01*
X1476018Y486308D01*
X1475911Y486337D01*
Y490281D01*
X1476018Y490309D01*
X1479199Y492146D01*
X1481796Y494743D01*
X1483633Y497924D01*
X1484583Y501472D01*
Y505145D01*
X1483633Y508693D01*
X1481796Y511874D01*
X1479199Y514472D01*
X1476018Y516308D01*
X1475911Y516337D01*
Y520281D01*
X1476018Y520309D01*
X1479199Y522146D01*
X1481796Y524743D01*
X1483633Y527924D01*
X1484583Y531472D01*
Y535145D01*
X1483633Y538693D01*
X1481796Y541874D01*
X1479199Y544472D01*
X1476018Y546308D01*
X1472470Y547259D01*
D02*
G37*
G36*
X1501968Y483449D02*
X1501903D01*
Y474579D01*
X1510773D01*
Y474644D01*
X1510082Y477223D01*
X1508747Y479535D01*
X1506859Y481423D01*
X1504547Y482758D01*
X1501968Y483449D01*
D02*
G37*
G36*
X1499363D02*
X1499298D01*
X1496719Y482758D01*
X1494407Y481423D01*
X1492519Y479535D01*
X1491184Y477223D01*
X1490493Y474644D01*
Y474579D01*
X1499363D01*
Y483449D01*
D02*
G37*
G36*
X1510773Y472039D02*
X1501903D01*
Y463169D01*
X1501968D01*
X1504547Y463860D01*
X1506859Y465195D01*
X1508747Y467083D01*
X1510082Y469395D01*
X1510773Y471974D01*
Y472039D01*
D02*
G37*
G36*
X1499363D02*
X1490493D01*
Y471974D01*
X1491184Y469395D01*
X1492519Y467083D01*
X1494407Y465195D01*
X1496719Y463860D01*
X1499298Y463169D01*
X1499363D01*
Y472039D01*
D02*
G37*
G36*
X1501968Y453449D02*
X1501903D01*
Y444579D01*
X1510773D01*
Y444644D01*
X1510082Y447223D01*
X1508747Y449535D01*
X1506859Y451423D01*
X1504547Y452758D01*
X1501968Y453449D01*
D02*
G37*
G36*
X1499363D02*
X1499298D01*
X1496719Y452758D01*
X1494407Y451423D01*
X1492519Y449535D01*
X1491184Y447223D01*
X1490493Y444644D01*
Y444579D01*
X1499363D01*
Y453449D01*
D02*
G37*
G36*
X1510773Y442039D02*
X1501903D01*
Y433169D01*
X1501968D01*
X1504547Y433860D01*
X1506859Y435195D01*
X1508747Y437083D01*
X1510082Y439395D01*
X1510773Y441974D01*
Y442039D01*
D02*
G37*
G36*
X1499363D02*
X1490493D01*
Y441974D01*
X1491184Y439395D01*
X1492519Y437083D01*
X1494407Y435195D01*
X1496719Y433860D01*
X1499298Y433169D01*
X1499363D01*
Y442039D01*
D02*
G37*
G36*
X1501968Y423449D02*
X1501903D01*
Y414579D01*
X1510773D01*
Y414644D01*
X1510082Y417223D01*
X1508747Y419535D01*
X1506859Y421423D01*
X1504547Y422758D01*
X1501968Y423449D01*
D02*
G37*
G36*
X1499363D02*
X1499298D01*
X1496719Y422758D01*
X1494407Y421423D01*
X1492519Y419535D01*
X1491184Y417223D01*
X1490493Y414644D01*
Y414579D01*
X1499363D01*
Y423449D01*
D02*
G37*
G36*
X1510773Y412039D02*
X1501903D01*
Y403169D01*
X1501968D01*
X1504547Y403860D01*
X1506859Y405195D01*
X1508747Y407083D01*
X1510082Y409395D01*
X1510773Y411974D01*
Y412039D01*
D02*
G37*
G36*
X1499363D02*
X1490493D01*
Y411974D01*
X1491184Y409395D01*
X1492519Y407083D01*
X1494407Y405195D01*
X1496719Y403860D01*
X1499298Y403169D01*
X1499363D01*
Y412039D01*
D02*
G37*
G36*
X1501968Y393449D02*
X1501903D01*
Y384579D01*
X1510773D01*
Y384644D01*
X1510082Y387223D01*
X1508747Y389535D01*
X1506859Y391423D01*
X1504547Y392758D01*
X1501968Y393449D01*
D02*
G37*
G36*
X1499363D02*
X1499298D01*
X1496719Y392758D01*
X1494407Y391423D01*
X1492519Y389535D01*
X1491184Y387223D01*
X1490493Y384644D01*
Y384579D01*
X1499363D01*
Y393449D01*
D02*
G37*
G36*
X1510773Y382039D02*
X1501903D01*
Y373169D01*
X1501968D01*
X1504547Y373860D01*
X1506859Y375195D01*
X1508747Y377083D01*
X1510082Y379395D01*
X1510773Y381974D01*
Y382039D01*
D02*
G37*
G36*
X1499363D02*
X1490493D01*
Y381974D01*
X1491184Y379395D01*
X1492519Y377083D01*
X1494407Y375195D01*
X1496719Y373860D01*
X1499298Y373169D01*
X1499363D01*
Y382039D01*
D02*
G37*
G36*
X1501968Y363449D02*
X1501903D01*
Y354579D01*
X1510773D01*
Y354644D01*
X1510082Y357223D01*
X1508747Y359535D01*
X1506859Y361423D01*
X1504547Y362758D01*
X1501968Y363449D01*
D02*
G37*
G36*
X1499363D02*
X1499298D01*
X1496719Y362758D01*
X1494407Y361423D01*
X1492519Y359535D01*
X1491184Y357223D01*
X1490493Y354644D01*
Y354579D01*
X1499363D01*
Y363449D01*
D02*
G37*
G36*
X1510773Y352039D02*
X1501903D01*
Y343169D01*
X1501968D01*
X1504547Y343860D01*
X1506859Y345195D01*
X1508747Y347083D01*
X1510082Y349395D01*
X1510773Y351974D01*
Y352039D01*
D02*
G37*
G36*
X1499363D02*
X1490493D01*
Y351974D01*
X1491184Y349395D01*
X1492519Y347083D01*
X1494407Y345195D01*
X1496719Y343860D01*
X1499298Y343169D01*
X1499363D01*
Y352039D01*
D02*
G37*
G36*
X1501968Y333449D02*
X1501903D01*
Y324579D01*
X1510773D01*
Y324644D01*
X1510082Y327223D01*
X1508747Y329535D01*
X1506859Y331423D01*
X1504547Y332758D01*
X1501968Y333449D01*
D02*
G37*
G36*
X1499363D02*
X1499298D01*
X1496719Y332758D01*
X1494407Y331423D01*
X1492519Y329535D01*
X1491184Y327223D01*
X1490493Y324644D01*
Y324579D01*
X1499363D01*
Y333449D01*
D02*
G37*
G36*
X1510773Y322039D02*
X1501903D01*
Y313169D01*
X1501968D01*
X1504547Y313860D01*
X1506859Y315195D01*
X1508747Y317083D01*
X1510082Y319395D01*
X1510773Y321974D01*
Y322039D01*
D02*
G37*
G36*
X1499363D02*
X1490493D01*
Y321974D01*
X1491184Y319395D01*
X1492519Y317083D01*
X1494407Y315195D01*
X1496719Y313860D01*
X1499298Y313169D01*
X1499363D01*
Y322039D01*
D02*
G37*
G36*
X1510772Y220508D02*
X1501902D01*
Y211638D01*
X1510772D01*
Y220508D01*
D02*
G37*
G36*
X1499362D02*
X1490492D01*
Y211638D01*
X1499362D01*
Y220508D01*
D02*
G37*
G36*
X1510772Y209098D02*
X1501902D01*
Y200228D01*
X1510772D01*
Y209098D01*
D02*
G37*
G36*
X1499362D02*
X1490492D01*
Y200228D01*
X1499362D01*
Y209098D01*
D02*
G37*
G36*
X1501967Y190508D02*
X1501902D01*
Y181638D01*
X1510772D01*
Y181703D01*
X1510081Y184282D01*
X1508746Y186594D01*
X1506858Y188482D01*
X1504546Y189817D01*
X1501967Y190508D01*
D02*
G37*
G36*
X1499362D02*
X1499297D01*
X1496718Y189817D01*
X1494406Y188482D01*
X1492518Y186594D01*
X1491183Y184282D01*
X1490492Y181703D01*
Y181638D01*
X1499362D01*
Y190508D01*
D02*
G37*
G36*
X1510772Y179098D02*
X1501902D01*
Y170228D01*
X1501967D01*
X1504546Y170919D01*
X1506858Y172254D01*
X1508746Y174142D01*
X1510081Y176454D01*
X1510772Y179033D01*
Y179098D01*
D02*
G37*
G36*
X1499362D02*
X1490492D01*
Y179033D01*
X1491183Y176454D01*
X1492518Y174142D01*
X1494406Y172254D01*
X1496718Y170919D01*
X1499297Y170228D01*
X1499362D01*
Y179098D01*
D02*
G37*
G36*
X1501967Y160508D02*
X1501902D01*
Y151638D01*
X1510772D01*
Y151703D01*
X1510081Y154282D01*
X1508746Y156594D01*
X1506858Y158482D01*
X1504546Y159817D01*
X1501967Y160508D01*
D02*
G37*
G36*
X1499362D02*
X1499297D01*
X1496718Y159817D01*
X1494406Y158482D01*
X1492518Y156594D01*
X1491183Y154282D01*
X1490492Y151703D01*
Y151638D01*
X1499362D01*
Y160508D01*
D02*
G37*
G36*
X1510772Y149098D02*
X1501902D01*
Y140228D01*
X1501967D01*
X1504546Y140919D01*
X1506858Y142254D01*
X1508746Y144142D01*
X1510081Y146454D01*
X1510772Y149033D01*
Y149098D01*
D02*
G37*
G36*
X1499362D02*
X1490492D01*
Y149033D01*
X1491183Y146454D01*
X1492518Y144142D01*
X1494406Y142254D01*
X1496718Y140919D01*
X1499297Y140228D01*
X1499362D01*
Y149098D01*
D02*
G37*
G36*
X1501967Y130508D02*
X1501902D01*
Y121638D01*
X1510772D01*
Y121703D01*
X1510081Y124282D01*
X1508746Y126594D01*
X1506858Y128482D01*
X1504546Y129817D01*
X1501967Y130508D01*
D02*
G37*
G36*
X1499362D02*
X1499297D01*
X1496718Y129817D01*
X1494406Y128482D01*
X1492518Y126594D01*
X1491183Y124282D01*
X1490492Y121703D01*
Y121638D01*
X1499362D01*
Y130508D01*
D02*
G37*
G36*
X1510772Y119098D02*
X1501902D01*
Y110228D01*
X1501967D01*
X1504546Y110919D01*
X1506858Y112254D01*
X1508746Y114142D01*
X1510081Y116454D01*
X1510772Y119033D01*
Y119098D01*
D02*
G37*
G36*
X1499362D02*
X1490492D01*
Y119033D01*
X1491183Y116454D01*
X1492518Y114142D01*
X1494406Y112254D01*
X1496718Y110919D01*
X1499297Y110228D01*
X1499362D01*
Y119098D01*
D02*
G37*
G36*
X1501967Y100508D02*
X1501902D01*
Y91638D01*
X1510772D01*
Y91703D01*
X1510081Y94282D01*
X1508746Y96594D01*
X1506858Y98482D01*
X1504546Y99817D01*
X1501967Y100508D01*
D02*
G37*
G36*
X1499362D02*
X1499297D01*
X1496718Y99817D01*
X1494406Y98482D01*
X1492518Y96594D01*
X1491183Y94282D01*
X1490492Y91703D01*
Y91638D01*
X1499362D01*
Y100508D01*
D02*
G37*
G36*
X1510772Y89098D02*
X1501902D01*
Y80228D01*
X1501967D01*
X1504546Y80919D01*
X1506858Y82254D01*
X1508746Y84142D01*
X1510081Y86454D01*
X1510772Y89033D01*
Y89098D01*
D02*
G37*
G36*
X1499362D02*
X1490492D01*
Y89033D01*
X1491183Y86454D01*
X1492518Y84142D01*
X1494406Y82254D01*
X1496718Y80919D01*
X1499297Y80228D01*
X1499362D01*
Y89098D01*
D02*
G37*
G36*
X1501967Y70508D02*
X1501902D01*
Y61638D01*
X1510772D01*
Y61703D01*
X1510081Y64282D01*
X1508746Y66594D01*
X1506858Y68482D01*
X1504546Y69817D01*
X1501967Y70508D01*
D02*
G37*
G36*
X1499362D02*
X1499297D01*
X1496718Y69817D01*
X1494406Y68482D01*
X1492518Y66594D01*
X1491183Y64282D01*
X1490492Y61703D01*
Y61638D01*
X1499362D01*
Y70508D01*
D02*
G37*
G36*
X1510772Y59098D02*
X1501902D01*
Y50228D01*
X1501967D01*
X1504546Y50919D01*
X1506858Y52254D01*
X1508746Y54142D01*
X1510081Y56454D01*
X1510772Y59033D01*
Y59098D01*
D02*
G37*
G36*
X1499362D02*
X1490492D01*
Y59033D01*
X1491183Y56454D01*
X1492518Y54142D01*
X1494406Y52254D01*
X1496718Y50919D01*
X1499297Y50228D01*
X1499362D01*
Y59098D01*
D02*
G37*
G36*
X1501967Y40508D02*
X1501902D01*
Y31638D01*
X1510772D01*
Y31703D01*
X1510081Y34282D01*
X1508746Y36594D01*
X1506858Y38482D01*
X1504546Y39817D01*
X1501967Y40508D01*
D02*
G37*
G36*
X1499362D02*
X1499297D01*
X1496718Y39817D01*
X1494406Y38482D01*
X1492518Y36594D01*
X1491183Y34282D01*
X1490492Y31703D01*
Y31638D01*
X1499362D01*
Y40508D01*
D02*
G37*
G36*
X1510772Y29098D02*
X1501902D01*
Y20228D01*
X1501967D01*
X1504546Y20919D01*
X1506858Y22254D01*
X1508746Y24142D01*
X1510081Y26454D01*
X1510772Y29033D01*
Y29098D01*
D02*
G37*
G36*
X1499362D02*
X1490492D01*
Y29033D01*
X1491183Y26454D01*
X1492518Y24142D01*
X1494406Y22254D01*
X1496718Y20919D01*
X1499297Y20228D01*
X1499362D01*
Y29098D01*
D02*
G37*
G36*
X1501967Y10508D02*
X1501902D01*
Y1638D01*
X1510772D01*
Y1703D01*
X1510081Y4282D01*
X1508746Y6594D01*
X1506858Y8482D01*
X1504546Y9817D01*
X1501967Y10508D01*
D02*
G37*
G36*
X1499362D02*
X1499297D01*
X1496718Y9817D01*
X1494406Y8482D01*
X1492518Y6594D01*
X1491183Y4282D01*
X1490492Y1703D01*
Y1638D01*
X1499362D01*
Y10508D01*
D02*
G37*
G36*
X1510772Y-902D02*
X1501902D01*
Y-9772D01*
X1501967D01*
X1504546Y-9081D01*
X1506858Y-7746D01*
X1508746Y-5858D01*
X1510081Y-3546D01*
X1510772Y-967D01*
Y-902D01*
D02*
G37*
G36*
X1499362D02*
X1490492D01*
Y-967D01*
X1491183Y-3546D01*
X1492518Y-5858D01*
X1494406Y-7746D01*
X1496718Y-9081D01*
X1499297Y-9772D01*
X1499362D01*
Y-902D01*
D02*
G37*
%LPD*%
D12*
X1045011Y373215D02*
X1046226Y372000D01*
X963130Y452120D02*
X1042035Y373215D01*
X703580Y452120D02*
X963130D01*
X1042035Y373215D02*
X1045011D01*
X699008Y445262D02*
X955810D01*
X1018822Y382250D01*
X293540Y515366D02*
X294611Y514296D01*
X854555Y581815D02*
X932942Y503428D01*
X486057Y581815D02*
X854555D01*
X458978Y554736D02*
X486057Y581815D01*
X429699Y502701D02*
X457604Y530606D01*
X625094D02*
X703580Y452120D01*
X457604Y530606D02*
X625094D01*
X620334Y523936D02*
X699008Y445262D01*
X476335Y523936D02*
X620334D01*
X455100Y502702D02*
X476335Y523936D01*
X688740Y-108966D02*
X788287D01*
X1354008Y470597D02*
X1437922D01*
X1471010Y443686D02*
X1471140D01*
X1435720Y378396D02*
X1471010Y413686D01*
X1354516Y347662D02*
X1434986D01*
X1434415Y317090D02*
X1471010Y353686D01*
X1437188Y439864D02*
X1471010Y473686D01*
X1354516Y197239D02*
X1354787Y197511D01*
X1354770Y136025D02*
X1355041Y136297D01*
X1354516Y227973D02*
X1354787Y228245D01*
X1354262Y166759D02*
X1354533Y167031D01*
X1354262Y409129D02*
X1436454D01*
X1471010Y473686D02*
X1471140D01*
X1354787Y197511D02*
X1424053D01*
X1354787Y228245D02*
X1423319D01*
X1355041Y136297D02*
X1425267D01*
X1471010Y353686D02*
X1471140D01*
X1471010Y383686D02*
X1471140D01*
X1434986Y347662D02*
X1471010Y383686D01*
X1354456Y317090D02*
X1434415D01*
X1436454Y409129D02*
X1471010Y443686D01*
X1354516Y378396D02*
X1435720D01*
X1437922Y470597D02*
X1471010Y503686D01*
X1354008Y439864D02*
X1437188D01*
X1354533Y167031D02*
X1424533D01*
X1471010Y503686D02*
X1471140D01*
X1471010Y413686D02*
X1471140D01*
X1424053Y197511D02*
X1471140Y150424D01*
X1425267Y136297D02*
X1471140Y90424D01*
X1423319Y228245D02*
X1471140Y180424D01*
X1424533Y167031D02*
X1471140Y120424D01*
X858774Y243586D02*
X859409Y242951D01*
X1183849D01*
X1442070Y-15270D01*
X779547Y242418D02*
X787532Y234434D01*
X1178822D01*
X1412070Y1186D01*
X722358Y223242D02*
X1176553D01*
X1382070Y17724D01*
X656635Y212598D02*
X1173480D01*
X626814Y242418D02*
X656635Y212598D01*
X550448Y242418D02*
X551078D01*
X592074Y201422D01*
X1169873D01*
X238760Y453390D02*
Y483616D01*
X245145Y490001D02*
X260385D01*
X238760Y483616D02*
X245145Y490001D01*
X217013Y545958D02*
X284876D01*
X315468Y515366D01*
X426913Y297688D02*
X908050D01*
X373126Y351475D02*
X426913Y297688D01*
X915222Y310642D02*
X916940D01*
X431546Y308356D02*
X912936D01*
X393446Y346456D02*
X431546Y308356D01*
X912936D02*
X915222Y310642D01*
X315468Y489930D02*
Y515366D01*
Y489930D02*
X328098Y477300D01*
X459232Y351790D02*
X491363Y319659D01*
X1007237D01*
X498602Y388112D02*
X558800Y327914D01*
X995172D01*
X459232Y351790D02*
Y375666D01*
X310642Y424688D02*
X373126D01*
X258318Y372364D02*
X310642Y424688D01*
X159512Y372364D02*
X258318D01*
X1352070Y-61694D02*
Y34008D01*
X1373630Y74625D02*
X1417831Y30424D01*
X1471140D01*
X1382070Y-61694D02*
Y17724D01*
X1412070Y-61694D02*
Y1186D01*
X1173480Y212598D02*
X1352070Y34008D01*
X1442070Y-61694D02*
Y-15270D01*
X1357376Y105918D02*
X1402870Y60424D01*
X1471140D01*
X1000760Y4318D02*
X1014588D01*
X908050Y97028D02*
X1000760Y4318D01*
X870557Y97028D02*
X908050D01*
X1014588Y4318D02*
X1080600Y-61694D01*
X952827Y97028D02*
X1110600Y-60745D01*
Y-61694D02*
Y-60745D01*
X1007237Y319659D02*
X1008126Y320548D01*
X377190Y96774D02*
X535658Y-61694D01*
X900600D01*
X914626Y-45720D02*
X930600Y-61694D01*
X560578Y-45720D02*
X914626D01*
X459206Y55652D02*
X560578Y-45720D01*
X662380Y-23876D02*
X922782D01*
X541476Y97028D02*
X662380Y-23876D01*
X459206Y55652D02*
Y97028D01*
X623747D02*
X725347Y-4572D01*
X933478D01*
X922782Y-23876D02*
X960600Y-61694D01*
X933478Y-4572D02*
X990600Y-61694D01*
X932490Y26416D02*
X1020600Y-61694D01*
X776629Y26416D02*
X932490D01*
X706017Y97028D02*
X776629Y26416D01*
X938106Y50800D02*
X1050600Y-61694D01*
X877062Y50800D02*
X938106D01*
X830834Y97028D02*
X877062Y50800D01*
X788287Y97028D02*
X830834D01*
X1197074Y-61694D02*
X1232070D01*
X1069594Y65786D02*
X1197074Y-61694D01*
X1031288Y65786D02*
X1069594D01*
X1113558D02*
X1134590D01*
X1262070Y-61694D01*
X1198114Y65786D02*
X1292070Y-28170D01*
Y-61694D02*
Y-28170D01*
X1169873Y201422D02*
X1322070Y49225D01*
Y-61694D02*
Y49225D01*
X703181Y242418D02*
X722358Y223242D01*
X404298Y477302D02*
X433036Y448564D01*
X521970D01*
X674770Y-94996D02*
X688740Y-108966D01*
X219964Y395986D02*
X258064Y434086D01*
X219964Y395732D02*
Y395986D01*
X260385Y490001D02*
X273084Y502700D01*
X277298D01*
X357528Y455930D02*
X378899Y477301D01*
X299466Y455930D02*
X357528D01*
X268986Y425450D02*
X299466Y455930D01*
X268986Y402336D02*
Y425450D01*
X210312Y410210D02*
Y410972D01*
X254762Y455422D01*
X255420D02*
X277298Y477300D01*
X254762Y455422D02*
X255420D01*
X301989Y477301D02*
X302699D01*
X258064Y434086D02*
X258774D01*
X301989Y477301D01*
D75*
X1019518Y536448D02*
X1036212D01*
X1054864D01*
X302699Y502701D02*
Y508348D01*
X295681Y515366D02*
X302699Y508348D01*
X124898Y524849D02*
X126399Y526350D01*
X124898Y502700D02*
Y524849D01*
X175698Y502700D02*
Y521089D01*
X226498Y465701D02*
Y477300D01*
X223641Y464748D02*
Y470283D01*
Y464748D02*
X224594Y463796D01*
X226498Y465701D01*
X47198Y460971D02*
X48699Y462472D01*
Y477301D01*
D78*
X842688Y-150114D02*
X900600Y-92202D01*
X494314Y-150114D02*
X842688D01*
X900600Y-92202D02*
X930600D01*
X990600D02*
X1020600D01*
X457827Y-113628D02*
X494314Y-150114D01*
X1050600Y-92202D02*
X1080600D01*
X1020600D02*
X1050600D01*
X960600D02*
X990600D01*
X1080600D02*
X1110092D01*
X930600D02*
X960600D01*
X1046342Y325236D02*
X1050152D01*
X1046099Y324993D02*
X1046342Y325236D01*
X997712Y373380D02*
X1046099Y324993D01*
X1050152Y325236D02*
X1211552Y486636D01*
X1241552D01*
X450861Y-113041D02*
X457584D01*
X169003Y168817D02*
X450861Y-113041D01*
X133096Y132911D02*
X169003Y168817D01*
X325628Y325443D01*
X457584Y-113041D02*
X457827Y-113284D01*
Y-113628D02*
Y-113284D01*
X429699Y401828D02*
X512826D01*
X420370D02*
X429699D01*
X429260Y402267D02*
X429699Y401828D01*
X429260Y402267D02*
Y428498D01*
X1046099Y305181D02*
Y324993D01*
X1003046Y262128D02*
X1046099Y305181D01*
X949960Y262128D02*
X1003046D01*
X670814Y373380D02*
X997712D01*
X619506Y424688D02*
X670814Y373380D01*
X394208Y375666D02*
X420370Y401828D01*
X609600Y434594D02*
X619506Y424688D01*
X545592Y434594D02*
X609600D01*
X512826Y401828D02*
X545592Y434594D01*
Y463008D01*
X531299Y477301D02*
X545592Y463008D01*
X1412070Y-91694D02*
X1442070D01*
X1382070D02*
X1412070D01*
X1352070D02*
X1382070D01*
X1322070D02*
X1352070D01*
X1292070D02*
X1322070D01*
X1262070D02*
X1292070D01*
X1232070D02*
X1262070D01*
X1110600D02*
X1232070D01*
X1110092Y-92202D02*
X1110600Y-91694D01*
X110236Y-35052D02*
X133096D01*
X84074Y-61214D02*
X110236Y-35052D01*
X133096Y-108966D02*
Y-35052D01*
Y132911D01*
X84074Y-96266D02*
Y-61214D01*
X325628Y325787D02*
X328098Y328257D01*
X325628Y325443D02*
Y325787D01*
X328098Y328257D02*
Y375666D01*
Y409866D01*
Y375666D02*
X394208D01*
D79*
X788287Y-83566D02*
D03*
D80*
Y-108966D02*
D03*
Y-134366D02*
D03*
D81*
X1226552Y559836D02*
D03*
X1543832Y188868D02*
D03*
Y21868D02*
D03*
X1543833Y511809D02*
D03*
Y344809D02*
D03*
X1420570Y-134894D02*
D03*
X1253570D02*
D03*
X1089100D02*
D03*
X922100D02*
D03*
D82*
X1211552Y516636D02*
D03*
D83*
X1241552D02*
D03*
X1211552Y486636D02*
D03*
X1241552D02*
D03*
D84*
X1500632Y210368D02*
D03*
X1500633Y533309D02*
D03*
D85*
X1500632Y180368D02*
D03*
Y150368D02*
D03*
Y120368D02*
D03*
Y90368D02*
D03*
Y60368D02*
D03*
Y30368D02*
D03*
Y368D02*
D03*
X1470632Y210368D02*
D03*
Y180368D02*
D03*
Y150368D02*
D03*
Y120368D02*
D03*
Y60368D02*
D03*
Y30368D02*
D03*
Y368D02*
D03*
Y90368D02*
D03*
X1500633Y503309D02*
D03*
Y473309D02*
D03*
Y443309D02*
D03*
Y413309D02*
D03*
Y383309D02*
D03*
Y353309D02*
D03*
Y323309D02*
D03*
X1470633Y533309D02*
D03*
Y503309D02*
D03*
Y473309D02*
D03*
Y443309D02*
D03*
Y383309D02*
D03*
Y353309D02*
D03*
Y323309D02*
D03*
Y413309D02*
D03*
X1412070Y-91694D02*
D03*
X1382070D02*
D03*
X1352070D02*
D03*
X1322070D02*
D03*
X1292070D02*
D03*
X1262070D02*
D03*
X1232070D02*
D03*
X1442070Y-61694D02*
D03*
X1412070D02*
D03*
X1382070D02*
D03*
X1352070D02*
D03*
X1292070D02*
D03*
X1262070D02*
D03*
X1232070D02*
D03*
X1322070D02*
D03*
X1080600Y-91694D02*
D03*
X1050600D02*
D03*
X1020600D02*
D03*
X990600D02*
D03*
X960600D02*
D03*
X930600D02*
D03*
X900600D02*
D03*
X1110600Y-61694D02*
D03*
X1080600D02*
D03*
X1050600D02*
D03*
X1020600D02*
D03*
X960600D02*
D03*
X930600D02*
D03*
X900600D02*
D03*
X990600D02*
D03*
D86*
X1442070Y-91694D02*
D03*
X1110600D02*
D03*
D87*
X1374648Y546608D02*
D03*
X1525524Y-118364D02*
D03*
X9144D02*
D03*
D88*
X1086212Y536448D02*
D03*
X674770Y-94996D02*
D03*
D89*
X1036212Y536448D02*
D03*
X724770Y-94996D02*
D03*
D90*
X0Y-254D02*
D03*
X580000Y489746D02*
D03*
Y-254D02*
D03*
X0Y490000D02*
D03*
D91*
X678942Y503428D02*
D03*
X704342D02*
D03*
X729742D02*
D03*
X755142D02*
D03*
X780542D02*
D03*
X805942D02*
D03*
X831342D02*
D03*
X856742D02*
D03*
X882142D02*
D03*
X907542D02*
D03*
X932942D02*
D03*
D92*
X958342D02*
D03*
D93*
X378899Y477301D02*
D03*
Y502701D02*
D03*
X404298Y477302D02*
D03*
Y502702D02*
D03*
X429699Y477301D02*
D03*
Y502701D02*
D03*
X455100Y502702D02*
D03*
Y477302D02*
D03*
X480499Y502701D02*
D03*
Y477301D02*
D03*
X505900Y502702D02*
D03*
Y477302D02*
D03*
X531299Y502701D02*
D03*
X226498Y477300D02*
D03*
Y502700D02*
D03*
X251898Y477301D02*
D03*
Y502701D02*
D03*
X277298Y477300D02*
D03*
Y502700D02*
D03*
X302699Y502701D02*
D03*
Y477301D02*
D03*
X328098Y502700D02*
D03*
Y477300D02*
D03*
X353499Y502701D02*
D03*
Y477301D02*
D03*
X74098Y477300D02*
D03*
Y502700D02*
D03*
X99498Y477301D02*
D03*
Y502701D02*
D03*
X124898Y477300D02*
D03*
Y502700D02*
D03*
X150299Y502701D02*
D03*
Y477301D02*
D03*
X175698Y502700D02*
D03*
Y477300D02*
D03*
X201099Y502701D02*
D03*
Y477301D02*
D03*
X48699Y502701D02*
D03*
Y477301D02*
D03*
D94*
X531299D02*
D03*
D95*
X1214750Y449263D02*
D03*
X1018822Y382250D02*
D03*
X1046226Y372000D02*
D03*
X984922Y455114D02*
D03*
X818354Y473614D02*
D03*
X816906Y531704D02*
D03*
X58414Y456313D02*
D03*
X124898Y521089D02*
D03*
X284954Y524445D02*
D03*
X175099Y521089D02*
D03*
X409365Y251259D02*
D03*
X222621Y570005D02*
D03*
X482710Y544706D02*
D03*
X482847Y556474D02*
D03*
X790956Y430022D02*
D03*
X846582Y435102D02*
D03*
X1354770Y136025D02*
D03*
X1354516Y197239D02*
D03*
Y227973D02*
D03*
X1354008Y470597D02*
D03*
X1354262Y166759D02*
D03*
X1354516Y378396D02*
D03*
Y347662D02*
D03*
X1354456Y317090D02*
D03*
X1354008Y439864D02*
D03*
X1354262Y409129D02*
D03*
X1375914Y149408D02*
D03*
Y457454D02*
D03*
Y430037D02*
D03*
X719957Y346710D02*
D03*
X1381760Y392433D02*
D03*
Y362713D02*
D03*
Y331470D02*
D03*
X1375914Y211582D02*
D03*
Y181194D02*
D03*
X844042Y-76454D02*
D03*
X804164Y50800D02*
D03*
X729996Y28956D02*
D03*
X625168Y-27940D02*
D03*
X662380Y13700D02*
D03*
X858774Y243586D02*
D03*
X346456Y-28194D02*
D03*
X271526Y-7391D02*
D03*
X457827Y-100584D02*
D03*
Y-113284D02*
D03*
X314454Y438996D02*
D03*
X400074Y444601D02*
D03*
X350647Y553974D02*
D03*
X109213Y555370D02*
D03*
X-9247Y553974D02*
D03*
X314454Y384142D02*
D03*
X1530350Y263906D02*
D03*
X1422400Y542252D02*
D03*
X518150Y214512D02*
D03*
X1422400Y304800D02*
D03*
X1168400Y0D02*
D03*
X1016000Y508000D02*
D03*
X660400Y406400D02*
D03*
X558800D02*
D03*
X508000Y101600D02*
D03*
X304800D02*
D03*
X254000Y406400D02*
D03*
Y203200D02*
D03*
X152400Y406400D02*
D03*
X101600Y304800D02*
D03*
X152400Y203200D02*
D03*
X101600Y101600D02*
D03*
X50800Y406400D02*
D03*
X0Y304800D02*
D03*
X50800Y203200D02*
D03*
X0Y101600D02*
D03*
X50800Y0D02*
D03*
X908050Y297688D02*
D03*
X393446Y346456D02*
D03*
X916940Y310642D02*
D03*
X373126Y351475D02*
D03*
X458978Y554736D02*
D03*
X217013Y545958D02*
D03*
X949960Y262128D02*
D03*
X498602Y388112D02*
D03*
X459232Y375666D02*
D03*
X328098Y409866D02*
D03*
X373126Y424688D02*
D03*
X1373630Y74625D02*
D03*
X619506Y424688D02*
D03*
X1003300Y19558D02*
D03*
X1378712Y107188D02*
D03*
X1357376Y105918D02*
D03*
X1336802Y17272D02*
D03*
X627913Y-125984D02*
D03*
X1046099Y324993D02*
D03*
X1025906Y326009D02*
D03*
X1008126Y320548D02*
D03*
X995172Y327914D02*
D03*
X788287Y97028D02*
D03*
X870557D02*
D03*
X952827D02*
D03*
X779547Y242418D02*
D03*
X703181D02*
D03*
X626814D02*
D03*
X550448D02*
D03*
X1198114Y65786D02*
D03*
X1113558D02*
D03*
X1031288D02*
D03*
X706017Y97028D02*
D03*
X623747D02*
D03*
X541476D02*
D03*
X459206D02*
D03*
X377190Y96774D02*
D03*
X521970Y448564D02*
D03*
X394208Y375666D02*
D03*
X159512Y372364D02*
D03*
X512826Y401828D02*
D03*
X429260Y428498D02*
D03*
X340614Y325443D02*
D03*
X325628D02*
D03*
X84074Y-96266D02*
D03*
X133096Y-108966D02*
D03*
Y-133604D02*
D03*
X238760Y453390D02*
D03*
X219964Y395732D02*
D03*
X268986Y402336D02*
D03*
X210312Y410210D02*
D03*
X254762Y455422D02*
D03*
X258064Y434086D02*
D03*
M02*
