G04*
G04 #@! TF.GenerationSoftware,Altium Limited,Altium Designer,22.11.1 (43)*
G04*
G04 Layer_Color=16711935*
%FSLAX44Y44*%
%MOMM*%
G71*
G04*
G04 #@! TF.SameCoordinates,7B4F1FB2-3D38-43E9-9EC1-43097A92C870*
G04*
G04*
G04 #@! TF.FilePolarity,Negative*
G04*
G01*
G75*
%ADD57R,1.7516X1.7516*%
%ADD58C,1.7516*%
%ADD59C,3.1016*%
%ADD60R,1.6316X1.6316*%
%ADD61C,1.6316*%
%ADD62R,1.6724X1.6724*%
%ADD63C,1.6724*%
%ADD64C,3.1524*%
%ADD65R,1.6724X1.6724*%
%ADD66C,7.1016*%
%ADD67R,2.0516X2.0516*%
%ADD68C,2.0516*%
%ADD69C,6.1016*%
%ADD70C,1.9016*%
%ADD71R,1.9016X1.9016*%
%ADD72C,1.8796*%
%ADD73R,1.8796X1.8796*%
%ADD74C,0.9906*%
D57*
X788287Y-83566D02*
D03*
D58*
Y-108966D02*
D03*
Y-134366D02*
D03*
D59*
X1226552Y559836D02*
D03*
D60*
X1211552Y516636D02*
D03*
D61*
X1241552D02*
D03*
X1211552Y486636D02*
D03*
X1241552D02*
D03*
D62*
X1500632Y210368D02*
D03*
X1500633Y533309D02*
D03*
D63*
X1500632Y180368D02*
D03*
Y150368D02*
D03*
Y120368D02*
D03*
Y90368D02*
D03*
Y60368D02*
D03*
Y30368D02*
D03*
Y368D02*
D03*
X1470632Y210368D02*
D03*
Y180368D02*
D03*
Y150368D02*
D03*
Y120368D02*
D03*
Y60368D02*
D03*
Y30368D02*
D03*
Y368D02*
D03*
Y90368D02*
D03*
X1500633Y503309D02*
D03*
Y473309D02*
D03*
Y443309D02*
D03*
Y413309D02*
D03*
Y383309D02*
D03*
Y353309D02*
D03*
Y323309D02*
D03*
X1470633Y533309D02*
D03*
Y503309D02*
D03*
Y473309D02*
D03*
Y443309D02*
D03*
Y383309D02*
D03*
Y353309D02*
D03*
Y323309D02*
D03*
Y413309D02*
D03*
X1412070Y-91694D02*
D03*
X1382070D02*
D03*
X1352070D02*
D03*
X1322070D02*
D03*
X1292070D02*
D03*
X1262070D02*
D03*
X1232070D02*
D03*
X1442070Y-61694D02*
D03*
X1412070D02*
D03*
X1382070D02*
D03*
X1352070D02*
D03*
X1292070D02*
D03*
X1262070D02*
D03*
X1232070D02*
D03*
X1322070D02*
D03*
X1080600Y-91694D02*
D03*
X1050600D02*
D03*
X1020600D02*
D03*
X990600D02*
D03*
X960600D02*
D03*
X930600D02*
D03*
X900600D02*
D03*
X1110600Y-61694D02*
D03*
X1080600D02*
D03*
X1050600D02*
D03*
X1020600D02*
D03*
X960600D02*
D03*
X930600D02*
D03*
X900600D02*
D03*
X990600D02*
D03*
D64*
X1543832Y188868D02*
D03*
Y21868D02*
D03*
X1543833Y511809D02*
D03*
Y344809D02*
D03*
X1420570Y-134894D02*
D03*
X1253570D02*
D03*
X1089100D02*
D03*
X922100D02*
D03*
D65*
X1442070Y-91694D02*
D03*
X1110600D02*
D03*
D66*
X1374648Y546608D02*
D03*
X1525524Y-118364D02*
D03*
X9144D02*
D03*
D67*
X1086212Y536448D02*
D03*
X674770Y-94996D02*
D03*
D68*
X1036212Y536448D02*
D03*
X724770Y-94996D02*
D03*
D69*
X0Y-254D02*
D03*
X580000Y489746D02*
D03*
Y-254D02*
D03*
X0Y490000D02*
D03*
D70*
X678942Y503428D02*
D03*
X704342D02*
D03*
X729742D02*
D03*
X755142D02*
D03*
X780542D02*
D03*
X805942D02*
D03*
X831342D02*
D03*
X856742D02*
D03*
X882142D02*
D03*
X907542D02*
D03*
X932942D02*
D03*
D71*
X958342D02*
D03*
D72*
X378899Y477301D02*
D03*
Y502701D02*
D03*
X404298Y477302D02*
D03*
Y502702D02*
D03*
X429699Y477301D02*
D03*
Y502701D02*
D03*
X455100Y502702D02*
D03*
Y477302D02*
D03*
X480499Y502701D02*
D03*
Y477301D02*
D03*
X505900Y502702D02*
D03*
Y477302D02*
D03*
X531299Y502701D02*
D03*
X226498Y477300D02*
D03*
Y502700D02*
D03*
X251898Y477301D02*
D03*
Y502701D02*
D03*
X277298Y477300D02*
D03*
Y502700D02*
D03*
X302699Y502701D02*
D03*
Y477301D02*
D03*
X328098Y502700D02*
D03*
Y477300D02*
D03*
X353499Y502701D02*
D03*
Y477301D02*
D03*
X74098Y477300D02*
D03*
Y502700D02*
D03*
X99498Y477301D02*
D03*
Y502701D02*
D03*
X124898Y477300D02*
D03*
Y502700D02*
D03*
X150299Y502701D02*
D03*
Y477301D02*
D03*
X175698Y502700D02*
D03*
Y477300D02*
D03*
X201099Y502701D02*
D03*
Y477301D02*
D03*
X48699Y502701D02*
D03*
Y477301D02*
D03*
D73*
X531299D02*
D03*
D74*
X1214750Y449263D02*
D03*
X1018822Y382250D02*
D03*
X1046226Y372000D02*
D03*
X984922Y455114D02*
D03*
X818354Y473614D02*
D03*
X816906Y531704D02*
D03*
X58414Y456313D02*
D03*
X124898Y521089D02*
D03*
X284954Y524445D02*
D03*
X175099Y521089D02*
D03*
X409365Y251259D02*
D03*
X222621Y570005D02*
D03*
X482710Y544706D02*
D03*
X482847Y556474D02*
D03*
X790956Y430022D02*
D03*
X846582Y435102D02*
D03*
X1354770Y136025D02*
D03*
X1354516Y197239D02*
D03*
Y227973D02*
D03*
X1354008Y470597D02*
D03*
X1354262Y166759D02*
D03*
X1354516Y378396D02*
D03*
Y347662D02*
D03*
X1354456Y317090D02*
D03*
X1354008Y439864D02*
D03*
X1354262Y409129D02*
D03*
X1375914Y149408D02*
D03*
Y457454D02*
D03*
Y430037D02*
D03*
X719957Y346710D02*
D03*
X1381760Y392433D02*
D03*
Y362713D02*
D03*
Y331470D02*
D03*
X1375914Y211582D02*
D03*
Y181194D02*
D03*
X844042Y-76454D02*
D03*
X804164Y50800D02*
D03*
X729996Y28956D02*
D03*
X625168Y-27940D02*
D03*
X662380Y13700D02*
D03*
X858774Y243586D02*
D03*
X346456Y-28194D02*
D03*
X271526Y-7391D02*
D03*
X457827Y-100584D02*
D03*
Y-113284D02*
D03*
X314454Y438996D02*
D03*
X400074Y444601D02*
D03*
X350647Y553974D02*
D03*
X109213Y555370D02*
D03*
X-9247Y553974D02*
D03*
X314454Y384142D02*
D03*
X1530350Y263906D02*
D03*
X1422400Y542252D02*
D03*
X518150Y214512D02*
D03*
X1422400Y304800D02*
D03*
X1168400Y0D02*
D03*
X1016000Y508000D02*
D03*
X660400Y406400D02*
D03*
X558800D02*
D03*
X508000Y101600D02*
D03*
X304800D02*
D03*
X254000Y406400D02*
D03*
Y203200D02*
D03*
X152400Y406400D02*
D03*
X101600Y304800D02*
D03*
X152400Y203200D02*
D03*
X101600Y101600D02*
D03*
X50800Y406400D02*
D03*
X0Y304800D02*
D03*
X50800Y203200D02*
D03*
X0Y101600D02*
D03*
X50800Y0D02*
D03*
X908050Y297688D02*
D03*
X393446Y346456D02*
D03*
X916940Y310642D02*
D03*
X373126Y351475D02*
D03*
X458978Y554736D02*
D03*
X217013Y545958D02*
D03*
X949960Y262128D02*
D03*
X498602Y388112D02*
D03*
X459232Y375666D02*
D03*
X328098Y409866D02*
D03*
X373126Y424688D02*
D03*
X1373630Y74625D02*
D03*
X619506Y424688D02*
D03*
X1003300Y19558D02*
D03*
X1378712Y107188D02*
D03*
X1357376Y105918D02*
D03*
X1336802Y17272D02*
D03*
X627913Y-125984D02*
D03*
X1046099Y324993D02*
D03*
X1025906Y326009D02*
D03*
X1008126Y320548D02*
D03*
X995172Y327914D02*
D03*
X788287Y97028D02*
D03*
X870557D02*
D03*
X952827D02*
D03*
X779547Y242418D02*
D03*
X703181D02*
D03*
X626814D02*
D03*
X550448D02*
D03*
X1198114Y65786D02*
D03*
X1113558D02*
D03*
X1031288D02*
D03*
X706017Y97028D02*
D03*
X623747D02*
D03*
X541476D02*
D03*
X459206D02*
D03*
X377190Y96774D02*
D03*
X521970Y448564D02*
D03*
X394208Y375666D02*
D03*
X159512Y372364D02*
D03*
X512826Y401828D02*
D03*
X429260Y428498D02*
D03*
X340614Y325443D02*
D03*
X325628D02*
D03*
X84074Y-96266D02*
D03*
X133096Y-108966D02*
D03*
Y-133604D02*
D03*
X238760Y453390D02*
D03*
X219964Y395732D02*
D03*
X268986Y402336D02*
D03*
X210312Y410210D02*
D03*
X254762Y455422D02*
D03*
X258064Y434086D02*
D03*
M02*
