G04*
G04 #@! TF.GenerationSoftware,Altium Limited,Altium Designer,22.11.1 (43)*
G04*
G04 Layer_Physical_Order=1*
G04 Layer_Color=255*
%FSLAX44Y44*%
%MOMM*%
G71*
G04*
G04 #@! TF.SameCoordinates,7B4F1FB2-3D38-43E9-9EC1-43097A92C870*
G04*
G04*
G04 #@! TF.FilePolarity,Positive*
G04*
G01*
G75*
%ADD12C,0.2540*%
%ADD17R,2.2900X3.1200*%
G04:AMPARAMS|DCode=18|XSize=0.889mm|YSize=0.7874mm|CornerRadius=0.1535mm|HoleSize=0mm|Usage=FLASHONLY|Rotation=0.000|XOffset=0mm|YOffset=0mm|HoleType=Round|Shape=RoundedRectangle|*
%AMROUNDEDRECTD18*
21,1,0.8890,0.4803,0,0,0.0*
21,1,0.5819,0.7874,0,0,0.0*
1,1,0.3071,0.2910,-0.2402*
1,1,0.3071,-0.2910,-0.2402*
1,1,0.3071,-0.2910,0.2402*
1,1,0.3071,0.2910,0.2402*
%
%ADD18ROUNDEDRECTD18*%
G04:AMPARAMS|DCode=19|XSize=0.889mm|YSize=0.7874mm|CornerRadius=0.1535mm|HoleSize=0mm|Usage=FLASHONLY|Rotation=270.000|XOffset=0mm|YOffset=0mm|HoleType=Round|Shape=RoundedRectangle|*
%AMROUNDEDRECTD19*
21,1,0.8890,0.4803,0,0,270.0*
21,1,0.5819,0.7874,0,0,270.0*
1,1,0.3071,-0.2402,-0.2910*
1,1,0.3071,-0.2402,0.2910*
1,1,0.3071,0.2402,0.2910*
1,1,0.3071,0.2402,-0.2910*
%
%ADD19ROUNDEDRECTD19*%
G04:AMPARAMS|DCode=20|XSize=0.9mm|YSize=0.8mm|CornerRadius=0.2mm|HoleSize=0mm|Usage=FLASHONLY|Rotation=270.000|XOffset=0mm|YOffset=0mm|HoleType=Round|Shape=RoundedRectangle|*
%AMROUNDEDRECTD20*
21,1,0.9000,0.4000,0,0,270.0*
21,1,0.5000,0.8000,0,0,270.0*
1,1,0.4000,-0.2000,-0.2500*
1,1,0.4000,-0.2000,0.2500*
1,1,0.4000,0.2000,0.2500*
1,1,0.4000,0.2000,-0.2500*
%
%ADD20ROUNDEDRECTD20*%
%ADD21R,0.6000X0.3000*%
G04:AMPARAMS|DCode=22|XSize=0.889mm|YSize=0.8636mm|CornerRadius=0.1511mm|HoleSize=0mm|Usage=FLASHONLY|Rotation=270.000|XOffset=0mm|YOffset=0mm|HoleType=Round|Shape=RoundedRectangle|*
%AMROUNDEDRECTD22*
21,1,0.8890,0.5613,0,0,270.0*
21,1,0.5867,0.8636,0,0,270.0*
1,1,0.3023,-0.2807,-0.2934*
1,1,0.3023,-0.2807,0.2934*
1,1,0.3023,0.2807,0.2934*
1,1,0.3023,0.2807,-0.2934*
%
%ADD22ROUNDEDRECTD22*%
%ADD23R,0.3000X0.6000*%
G04:AMPARAMS|DCode=24|XSize=1.23mm|YSize=0.59mm|CornerRadius=0.1475mm|HoleSize=0mm|Usage=FLASHONLY|Rotation=0.000|XOffset=0mm|YOffset=0mm|HoleType=Round|Shape=RoundedRectangle|*
%AMROUNDEDRECTD24*
21,1,1.2300,0.2950,0,0,0.0*
21,1,0.9350,0.5900,0,0,0.0*
1,1,0.2950,0.4675,-0.1475*
1,1,0.2950,-0.4675,-0.1475*
1,1,0.2950,-0.4675,0.1475*
1,1,0.2950,0.4675,0.1475*
%
%ADD24ROUNDEDRECTD24*%
%ADD25R,3.6000X2.6000*%
%ADD26R,2.1000X5.6000*%
G04:AMPARAMS|DCode=27|XSize=1.64mm|YSize=0.41mm|CornerRadius=0.0513mm|HoleSize=0mm|Usage=FLASHONLY|Rotation=90.000|XOffset=0mm|YOffset=0mm|HoleType=Round|Shape=RoundedRectangle|*
%AMROUNDEDRECTD27*
21,1,1.6400,0.3075,0,0,90.0*
21,1,1.5375,0.4100,0,0,90.0*
1,1,0.1025,0.1538,0.7688*
1,1,0.1025,0.1538,-0.7688*
1,1,0.1025,-0.1538,-0.7688*
1,1,0.1025,-0.1538,0.7688*
%
%ADD27ROUNDEDRECTD27*%
G04:AMPARAMS|DCode=28|XSize=0.889mm|YSize=0.8636mm|CornerRadius=0.1511mm|HoleSize=0mm|Usage=FLASHONLY|Rotation=0.000|XOffset=0mm|YOffset=0mm|HoleType=Round|Shape=RoundedRectangle|*
%AMROUNDEDRECTD28*
21,1,0.8890,0.5613,0,0,0.0*
21,1,0.5867,0.8636,0,0,0.0*
1,1,0.3023,0.2934,-0.2807*
1,1,0.3023,-0.2934,-0.2807*
1,1,0.3023,-0.2934,0.2807*
1,1,0.3023,0.2934,0.2807*
%
%ADD28ROUNDEDRECTD28*%
G04:AMPARAMS|DCode=29|XSize=1.91mm|YSize=0.6mm|CornerRadius=0.15mm|HoleSize=0mm|Usage=FLASHONLY|Rotation=270.000|XOffset=0mm|YOffset=0mm|HoleType=Round|Shape=RoundedRectangle|*
%AMROUNDEDRECTD29*
21,1,1.9100,0.3000,0,0,270.0*
21,1,1.6100,0.6000,0,0,270.0*
1,1,0.3000,-0.1500,-0.8050*
1,1,0.3000,-0.1500,0.8050*
1,1,0.3000,0.1500,0.8050*
1,1,0.3000,0.1500,-0.8050*
%
%ADD29ROUNDEDRECTD29*%
%ADD30R,1.4732X0.4572*%
%ADD31R,1.8000X1.0000*%
G04:AMPARAMS|DCode=32|XSize=1.97mm|YSize=0.6mm|CornerRadius=0.075mm|HoleSize=0mm|Usage=FLASHONLY|Rotation=0.000|XOffset=0mm|YOffset=0mm|HoleType=Round|Shape=RoundedRectangle|*
%AMROUNDEDRECTD32*
21,1,1.9700,0.4500,0,0,0.0*
21,1,1.8200,0.6000,0,0,0.0*
1,1,0.1500,0.9100,-0.2250*
1,1,0.1500,-0.9100,-0.2250*
1,1,0.1500,-0.9100,0.2250*
1,1,0.1500,0.9100,0.2250*
%
%ADD32ROUNDEDRECTD32*%
G04:AMPARAMS|DCode=33|XSize=2.5mm|YSize=1.5mm|CornerRadius=0.3mm|HoleSize=0mm|Usage=FLASHONLY|Rotation=90.000|XOffset=0mm|YOffset=0mm|HoleType=Round|Shape=RoundedRectangle|*
%AMROUNDEDRECTD33*
21,1,2.5000,0.9000,0,0,90.0*
21,1,1.9000,1.5000,0,0,90.0*
1,1,0.6000,0.4500,0.9500*
1,1,0.6000,0.4500,-0.9500*
1,1,0.6000,-0.4500,-0.9500*
1,1,0.6000,-0.4500,0.9500*
%
%ADD33ROUNDEDRECTD33*%
%ADD34R,2.1300X2.2500*%
G04:AMPARAMS|DCode=35|XSize=1.91mm|YSize=0.6mm|CornerRadius=0.075mm|HoleSize=0mm|Usage=FLASHONLY|Rotation=180.000|XOffset=0mm|YOffset=0mm|HoleType=Round|Shape=RoundedRectangle|*
%AMROUNDEDRECTD35*
21,1,1.9100,0.4500,0,0,180.0*
21,1,1.7600,0.6000,0,0,180.0*
1,1,0.1500,-0.8800,0.2250*
1,1,0.1500,0.8800,0.2250*
1,1,0.1500,0.8800,-0.2250*
1,1,0.1500,-0.8800,-0.2250*
%
%ADD35ROUNDEDRECTD35*%
G04:AMPARAMS|DCode=36|XSize=1.23mm|YSize=0.59mm|CornerRadius=0.1475mm|HoleSize=0mm|Usage=FLASHONLY|Rotation=270.000|XOffset=0mm|YOffset=0mm|HoleType=Round|Shape=RoundedRectangle|*
%AMROUNDEDRECTD36*
21,1,1.2300,0.2950,0,0,270.0*
21,1,0.9350,0.5900,0,0,270.0*
1,1,0.2950,-0.1475,-0.4675*
1,1,0.2950,-0.1475,0.4675*
1,1,0.2950,0.1475,0.4675*
1,1,0.2950,0.1475,-0.4675*
%
%ADD36ROUNDEDRECTD36*%
%ADD75C,1.2700*%
%ADD76C,1.7780*%
%ADD77C,0.5080*%
%ADD78C,0.7620*%
%ADD79R,1.6500X1.6500*%
%ADD80C,1.6500*%
%ADD81C,3.0000*%
%ADD82R,1.5300X1.5300*%
%ADD83C,1.5300*%
%ADD84R,1.5200X1.5200*%
%ADD85C,1.5200*%
%ADD86R,1.5200X1.5200*%
%ADD87C,7.0000*%
%ADD88R,1.9500X1.9500*%
%ADD89C,1.9500*%
%ADD90C,6.0000*%
%ADD91C,1.8000*%
%ADD92R,1.8000X1.8000*%
%ADD93C,1.7780*%
%ADD94R,1.7780X1.7780*%
%ADD95C,0.8890*%
G36*
X336105Y582105D02*
X319719Y565719D01*
X317324D01*
X315265Y565448D01*
X313347Y564654D01*
X311724Y563408D01*
X310102Y564654D01*
X308184Y565448D01*
X306125Y565719D01*
X301322D01*
X299263Y565448D01*
X297345Y564654D01*
X295698Y563390D01*
X295047Y562542D01*
X264654D01*
X263056Y563768D01*
X261025Y564609D01*
X258845Y564896D01*
X254845D01*
X252666Y564609D01*
X250634Y563768D01*
X248890Y562429D01*
X247736Y560926D01*
X246845Y561103D01*
X246115D01*
Y553974D01*
X244845D01*
Y552704D01*
X238216D01*
Y551474D01*
X238569Y549703D01*
X239572Y548201D01*
X240239Y547756D01*
X239379Y543946D01*
X228262D01*
X227808Y544537D01*
Y547379D01*
X227073Y550125D01*
X225651Y552586D01*
X223641Y554596D01*
X221180Y556017D01*
X218434Y556753D01*
X217087D01*
X213550Y560291D01*
X211958Y561512D01*
X210105Y562280D01*
X208491Y562492D01*
X207803Y563390D01*
X206155Y564654D01*
X204237Y565448D01*
X202179Y565719D01*
X197376D01*
X195317Y565448D01*
X193399Y564654D01*
X191776Y563408D01*
X190153Y564654D01*
X188235Y565448D01*
X186177Y565719D01*
X181374D01*
X179315Y565448D01*
X177397Y564654D01*
X175749Y563390D01*
X175099Y562542D01*
X144705D01*
X143108Y563768D01*
X141077Y564609D01*
X138897Y564896D01*
X134897D01*
X132717Y564609D01*
X130686Y563768D01*
X128942Y562429D01*
X127788Y560926D01*
X126897Y561103D01*
X126167D01*
Y553974D01*
X124897D01*
Y552704D01*
X118268D01*
Y551474D01*
X118620Y549703D01*
X119624Y548201D01*
X120290Y547756D01*
X119431Y543946D01*
X101608D01*
X90184Y555370D01*
Y557766D01*
X89913Y559824D01*
X89118Y561742D01*
X87854Y563390D01*
X86207Y564654D01*
X84289Y565448D01*
X82230Y565719D01*
X77427D01*
X75368Y565448D01*
X73450Y564654D01*
X71828Y563408D01*
X70205Y564654D01*
X68287Y565448D01*
X66228Y565719D01*
X61425D01*
X59366Y565448D01*
X57448Y564654D01*
X55801Y563390D01*
X55151Y562542D01*
X26159D01*
X24561Y563768D01*
X22530Y564609D01*
X20350Y564896D01*
X16350D01*
X14170Y564609D01*
X12139Y563768D01*
X10395Y562429D01*
X9241Y560926D01*
X8350Y561103D01*
X7620D01*
Y553974D01*
X6350D01*
D01*
X7620D01*
Y546845D01*
X8350D01*
X9241Y547022D01*
X10395Y545519D01*
X12139Y544180D01*
X14170Y543339D01*
X16350Y543052D01*
X20350D01*
X22530Y543339D01*
X24561Y544180D01*
X26305Y545519D01*
X27573Y547170D01*
X55151D01*
X55801Y546323D01*
X57448Y545059D01*
X59366Y544264D01*
X61425Y543993D01*
X66228D01*
X68287Y544264D01*
X70205Y545059D01*
X71828Y546304D01*
X73450Y545059D01*
X75368Y544264D01*
X77427Y543993D01*
X79822D01*
X92990Y530825D01*
X92990Y530825D01*
X94582Y529604D01*
X96436Y528836D01*
X98425Y528574D01*
X98425Y528574D01*
X291355D01*
X301988Y517941D01*
X301557Y515869D01*
X300576Y513965D01*
X298287Y513352D01*
X295681Y511847D01*
X294584Y510750D01*
X293540Y510520D01*
X290975Y510752D01*
X289980Y511151D01*
X289136Y512415D01*
X287013Y514538D01*
X284517Y516205D01*
X281744Y517354D01*
X278799Y517940D01*
X275797D01*
X272853Y517354D01*
X270079Y516205D01*
X267583Y514538D01*
X267174Y514128D01*
X264597Y512845D01*
X262023Y514128D01*
X261612Y514538D01*
X259116Y516206D01*
X256343Y517355D01*
X253399Y517941D01*
X250397D01*
X248003Y517465D01*
X243143Y522325D01*
X241551Y523546D01*
X239698Y524314D01*
X237708Y524576D01*
X220980D01*
X220980Y524576D01*
X219985Y524445D01*
X218991Y524314D01*
X217137Y523546D01*
X215545Y522325D01*
X208983Y515762D01*
X208318Y516206D01*
X205544Y517355D01*
X202600Y517941D01*
X199598D01*
X196654Y517355D01*
X193880Y516206D01*
X191384Y514538D01*
X189261Y512416D01*
X188417Y511151D01*
X187423Y510753D01*
X184858Y510520D01*
X183813Y510749D01*
X182717Y511846D01*
X180110Y513351D01*
X177203Y514130D01*
X176969D01*
Y502700D01*
X174429D01*
Y514130D01*
X174194D01*
X171287Y513351D01*
X168680Y511846D01*
X167584Y510751D01*
X166541Y510521D01*
X163973Y510754D01*
X162981Y511153D01*
X162137Y512416D01*
X160014Y514538D01*
X157518Y516206D01*
X154745Y517355D01*
X151800Y517941D01*
X148798D01*
X145854Y517355D01*
X143080Y516206D01*
X140584Y514538D01*
X138462Y512416D01*
X137617Y511151D01*
X136623Y510753D01*
X134059Y510520D01*
X133013Y510749D01*
X131917Y511846D01*
X129310Y513351D01*
X126403Y514130D01*
X126168D01*
Y502700D01*
X123628D01*
Y514130D01*
X123394D01*
X120487Y513351D01*
X117880Y511846D01*
X116783Y510749D01*
X115738Y510520D01*
X113174Y510753D01*
X112180Y511151D01*
X111335Y512416D01*
X109213Y514538D01*
X106716Y516206D01*
X103943Y517355D01*
X100999Y517941D01*
X97997D01*
X95052Y517355D01*
X92279Y516206D01*
X89783Y514538D01*
X89373Y514129D01*
X86798Y512845D01*
X84222Y514129D01*
X83813Y514538D01*
X81317Y516205D01*
X78544Y517354D01*
X75599Y517940D01*
X72597D01*
X69653Y517354D01*
X66880Y516205D01*
X64383Y514538D01*
X63974Y514129D01*
X61398Y512845D01*
X58824Y514129D01*
X58414Y514538D01*
X55918Y516206D01*
X53144Y517355D01*
X50200Y517941D01*
X47198D01*
X44254Y517355D01*
X41480Y516206D01*
X38984Y514538D01*
X36862Y512416D01*
X35194Y509920D01*
X35072Y509627D01*
X32167Y509207D01*
X30848Y509384D01*
X27726Y513680D01*
X23680Y517726D01*
X19052Y521089D01*
X13953Y523687D01*
X8512Y525455D01*
X2861Y526350D01*
X-2861D01*
X-8512Y525455D01*
X-13953Y523687D01*
X-19052Y521089D01*
X-23680Y517726D01*
X-27726Y513680D01*
X-28631Y512436D01*
X-32441Y513674D01*
Y560804D01*
Y562431D01*
X-32016Y565657D01*
X-31174Y568800D01*
X-29929Y571805D01*
X-28302Y574623D01*
X-26321Y577205D01*
X-24021Y579505D01*
X-21439Y581486D01*
X-18621Y583113D01*
X-15616Y584358D01*
X-12473Y585200D01*
X-9247Y585625D01*
X334647D01*
X336105Y582105D01*
D02*
G37*
G36*
X490402Y521208D02*
X490586Y520282D01*
Y514166D01*
X489245Y513153D01*
X486776Y512275D01*
X484911Y513352D01*
X482004Y514131D01*
X481769D01*
Y502701D01*
X479229D01*
Y514131D01*
X478994D01*
X476087Y513352D01*
X473481Y511847D01*
X472385Y510751D01*
X471342Y510522D01*
X468774Y510755D01*
X467782Y511153D01*
X466938Y512417D01*
X464815Y514539D01*
X462319Y516207D01*
X459545Y517356D01*
X456601Y517942D01*
X453599D01*
X450655Y517356D01*
X447881Y516207D01*
X445385Y514539D01*
X444975Y514129D01*
X442400Y512846D01*
X439824Y514129D01*
X439414Y514538D01*
X436918Y516206D01*
X434145Y517355D01*
X431200Y517941D01*
X428198D01*
X425254Y517355D01*
X422480Y516206D01*
X419984Y514538D01*
X419574Y514129D01*
X416998Y512846D01*
X414424Y514129D01*
X414013Y514539D01*
X411517Y516207D01*
X408744Y517356D01*
X405799Y517942D01*
X402797D01*
X399853Y517356D01*
X397080Y516207D01*
X394583Y514539D01*
X394174Y514130D01*
X391599Y512846D01*
X389023Y514130D01*
X388614Y514538D01*
X386118Y516206D01*
X383344Y517355D01*
X380400Y517941D01*
X377398D01*
X374454Y517355D01*
X371680Y516206D01*
X369184Y514538D01*
X368774Y514129D01*
X366199Y512845D01*
X363624Y514129D01*
X363214Y514538D01*
X360718Y516206D01*
X357944Y517355D01*
X355000Y517941D01*
X351998D01*
X349054Y517355D01*
X346280Y516206D01*
X343784Y514538D01*
X343374Y514128D01*
X340799Y512845D01*
X338223Y514128D01*
X337813Y514538D01*
X335317Y516205D01*
X332544Y517354D01*
X329599Y517940D01*
X326597D01*
X324204Y517464D01*
X301485Y540183D01*
X303063Y543993D01*
X306125D01*
X308184Y544264D01*
X310102Y545059D01*
X311724Y546304D01*
X313347Y545059D01*
X315265Y544264D01*
X317324Y543993D01*
X322127D01*
X324186Y544264D01*
X326104Y545059D01*
X327751Y546323D01*
X329015Y547970D01*
X329810Y549888D01*
X330081Y551946D01*
Y554342D01*
X350158Y574419D01*
X490402D01*
Y521208D01*
D02*
G37*
G36*
X1547367Y585200D02*
X1550510Y584358D01*
X1553516Y583113D01*
X1556334Y581486D01*
X1558915Y579505D01*
X1561216Y577205D01*
X1563196Y574623D01*
X1564823Y571805D01*
X1566068Y568800D01*
X1566911Y565657D01*
X1567335Y562431D01*
Y560804D01*
Y520816D01*
X1563525Y520058D01*
X1562753Y521922D01*
X1560417Y525419D01*
X1557443Y528392D01*
X1553946Y530729D01*
X1550061Y532338D01*
X1545936Y533159D01*
X1541730D01*
X1537606Y532338D01*
X1533720Y530729D01*
X1530223Y528392D01*
X1527250Y525419D01*
X1524913Y521922D01*
X1523304Y518036D01*
X1522483Y513912D01*
Y509706D01*
X1523304Y505581D01*
X1524913Y501696D01*
X1527250Y498199D01*
X1530223Y495225D01*
X1533720Y492889D01*
X1537606Y491279D01*
X1541730Y490459D01*
X1545936D01*
X1550061Y491279D01*
X1553946Y492889D01*
X1557443Y495225D01*
X1560417Y498199D01*
X1562753Y501696D01*
X1563525Y503559D01*
X1567335Y502801D01*
Y353816D01*
X1563525Y353058D01*
X1562753Y354922D01*
X1560417Y358419D01*
X1557443Y361393D01*
X1553946Y363729D01*
X1550061Y365338D01*
X1545936Y366159D01*
X1541730D01*
X1537606Y365338D01*
X1533720Y363729D01*
X1530223Y361393D01*
X1527250Y358419D01*
X1524913Y354922D01*
X1523304Y351036D01*
X1522483Y346912D01*
Y342706D01*
X1523304Y338581D01*
X1524913Y334696D01*
X1527250Y331199D01*
X1530223Y328225D01*
X1533720Y325889D01*
X1537606Y324279D01*
X1541730Y323459D01*
X1545936D01*
X1550061Y324279D01*
X1553946Y325889D01*
X1557443Y328225D01*
X1560417Y331199D01*
X1562753Y334696D01*
X1563525Y336559D01*
X1567335Y335801D01*
Y197873D01*
X1563525Y197115D01*
X1562752Y198981D01*
X1560416Y202478D01*
X1557442Y205452D01*
X1553945Y207788D01*
X1550060Y209398D01*
X1545935Y210218D01*
X1541729D01*
X1537604Y209398D01*
X1533719Y207788D01*
X1530222Y205452D01*
X1527248Y202478D01*
X1524912Y198981D01*
X1523302Y195096D01*
X1522482Y190971D01*
Y186765D01*
X1523302Y182640D01*
X1524912Y178755D01*
X1527248Y175258D01*
X1530222Y172284D01*
X1533719Y169948D01*
X1537604Y168339D01*
X1541729Y167518D01*
X1545935D01*
X1550060Y168339D01*
X1553945Y169948D01*
X1557442Y172284D01*
X1560416Y175258D01*
X1562752Y178755D01*
X1563525Y180621D01*
X1567335Y179863D01*
Y30872D01*
X1563525Y30115D01*
X1562752Y31981D01*
X1560416Y35478D01*
X1557442Y38452D01*
X1553945Y40788D01*
X1550060Y42397D01*
X1545935Y43218D01*
X1541729D01*
X1537604Y42397D01*
X1533719Y40788D01*
X1530222Y38452D01*
X1527248Y35478D01*
X1524912Y31981D01*
X1523302Y28096D01*
X1522482Y23971D01*
Y19765D01*
X1523302Y15640D01*
X1524912Y11755D01*
X1527248Y8258D01*
X1530222Y5284D01*
X1533719Y2948D01*
X1537604Y1338D01*
X1541729Y518D01*
X1545935D01*
X1550060Y1338D01*
X1553945Y2948D01*
X1557442Y5284D01*
X1560416Y8258D01*
X1562752Y11755D01*
X1563525Y13621D01*
X1567335Y12864D01*
Y-135100D01*
Y-136727D01*
X1566911Y-139953D01*
X1566068Y-143096D01*
X1564823Y-146101D01*
X1563197Y-148919D01*
X1561216Y-151501D01*
X1558915Y-153801D01*
X1556334Y-155782D01*
X1553516Y-157409D01*
X1550510Y-158654D01*
X1547367Y-159496D01*
X1544141Y-159921D01*
X1423719D01*
X1423343Y-156111D01*
X1426798Y-155423D01*
X1430683Y-153814D01*
X1434180Y-151478D01*
X1437154Y-148504D01*
X1439490Y-145007D01*
X1441100Y-141122D01*
X1441920Y-136997D01*
Y-132791D01*
X1441100Y-128666D01*
X1439490Y-124781D01*
X1437154Y-121284D01*
X1434180Y-118310D01*
X1430683Y-115974D01*
X1426798Y-114365D01*
X1422673Y-113544D01*
X1418467D01*
X1414342Y-114365D01*
X1410457Y-115974D01*
X1406960Y-118310D01*
X1403986Y-121284D01*
X1401650Y-124781D01*
X1400040Y-128666D01*
X1399220Y-132791D01*
Y-136997D01*
X1400040Y-141122D01*
X1401650Y-145007D01*
X1403986Y-148504D01*
X1406960Y-151478D01*
X1410457Y-153814D01*
X1414342Y-155423D01*
X1417797Y-156111D01*
X1417421Y-159921D01*
X1256719D01*
X1256343Y-156111D01*
X1259798Y-155423D01*
X1263683Y-153814D01*
X1267180Y-151478D01*
X1270154Y-148504D01*
X1272490Y-145007D01*
X1274100Y-141122D01*
X1274920Y-136997D01*
Y-132791D01*
X1274100Y-128666D01*
X1272490Y-124781D01*
X1270154Y-121284D01*
X1267180Y-118310D01*
X1263683Y-115974D01*
X1259798Y-114365D01*
X1255673Y-113544D01*
X1251467D01*
X1247342Y-114365D01*
X1243457Y-115974D01*
X1239960Y-118310D01*
X1236986Y-121284D01*
X1234650Y-124781D01*
X1233040Y-128666D01*
X1232220Y-132791D01*
Y-136997D01*
X1233040Y-141122D01*
X1234650Y-145007D01*
X1236986Y-148504D01*
X1239960Y-151478D01*
X1243457Y-153814D01*
X1247342Y-155423D01*
X1250797Y-156111D01*
X1250421Y-159921D01*
X1092249D01*
X1091873Y-156111D01*
X1095328Y-155423D01*
X1099213Y-153814D01*
X1102710Y-151478D01*
X1105684Y-148504D01*
X1108020Y-145007D01*
X1109630Y-141122D01*
X1110450Y-136997D01*
Y-132791D01*
X1109630Y-128666D01*
X1108020Y-124781D01*
X1105684Y-121284D01*
X1102710Y-118310D01*
X1099213Y-115974D01*
X1095328Y-114365D01*
X1091203Y-113544D01*
X1086997D01*
X1082872Y-114365D01*
X1078987Y-115974D01*
X1075490Y-118310D01*
X1072516Y-121284D01*
X1070180Y-124781D01*
X1068570Y-128666D01*
X1067750Y-132791D01*
Y-136997D01*
X1068570Y-141122D01*
X1070180Y-145007D01*
X1072516Y-148504D01*
X1075490Y-151478D01*
X1078987Y-153814D01*
X1082872Y-155423D01*
X1086327Y-156111D01*
X1085951Y-159921D01*
X925249D01*
X924873Y-156111D01*
X928328Y-155423D01*
X932213Y-153814D01*
X935710Y-151478D01*
X938684Y-148504D01*
X941020Y-145007D01*
X942629Y-141122D01*
X943450Y-136997D01*
Y-132791D01*
X942629Y-128666D01*
X941020Y-124781D01*
X938684Y-121284D01*
X935710Y-118310D01*
X932213Y-115974D01*
X928328Y-114365D01*
X924203Y-113544D01*
X919997D01*
X915872Y-114365D01*
X911987Y-115974D01*
X908490Y-118310D01*
X905516Y-121284D01*
X903180Y-124781D01*
X901571Y-128666D01*
X900750Y-132791D01*
Y-136997D01*
X901571Y-141122D01*
X903180Y-145007D01*
X905516Y-148504D01*
X908490Y-151478D01*
X911987Y-153814D01*
X915872Y-155423D01*
X919327Y-156111D01*
X918951Y-159921D01*
X675983D01*
X675815Y-159722D01*
X674525Y-156111D01*
X697337Y-133298D01*
X745797D01*
X745797Y-84839D01*
X749434Y-81202D01*
X750655Y-79610D01*
X751423Y-77756D01*
X751685Y-75767D01*
Y-63116D01*
X752011Y-62844D01*
X755495Y-61643D01*
X773687Y-79835D01*
Y-98166D01*
X773687D01*
X775464Y-101976D01*
X774682Y-103331D01*
X773687Y-107044D01*
Y-110888D01*
X774682Y-114601D01*
X776604Y-117931D01*
X777823Y-119149D01*
X778891Y-121666D01*
X777823Y-124183D01*
X776604Y-125401D01*
X774682Y-128731D01*
X773687Y-132444D01*
Y-136288D01*
X774682Y-140001D01*
X776604Y-143331D01*
X779322Y-146049D01*
X782652Y-147971D01*
X786365Y-148966D01*
X790209D01*
X793922Y-147971D01*
X797252Y-146049D01*
X799970Y-143331D01*
X801892Y-140001D01*
X802887Y-136288D01*
Y-132444D01*
X801892Y-128731D01*
X799970Y-125401D01*
X798751Y-124183D01*
X797683Y-121666D01*
X798751Y-119149D01*
X799970Y-117931D01*
X801892Y-114601D01*
X802887Y-110888D01*
Y-107044D01*
X801892Y-103331D01*
X801110Y-101976D01*
X802887Y-98166D01*
X802887D01*
Y-68966D01*
X784556D01*
X767687Y-52097D01*
Y-46544D01*
X768027Y-46283D01*
X769290Y-44636D01*
X770085Y-42718D01*
X770356Y-40660D01*
Y-34840D01*
X770085Y-32782D01*
X769290Y-30864D01*
X768027Y-29216D01*
X766379Y-27952D01*
X764461Y-27158D01*
X762403Y-26887D01*
X757599D01*
X755541Y-27158D01*
X753623Y-27952D01*
X752000Y-29198D01*
X750377Y-27952D01*
X748459Y-27158D01*
X746401Y-26887D01*
X741597D01*
X739539Y-27158D01*
X737621Y-27952D01*
X735974Y-29216D01*
X734709Y-30864D01*
X733915Y-32782D01*
X733644Y-34840D01*
Y-40660D01*
X733915Y-42718D01*
X734709Y-44636D01*
X735974Y-46283D01*
X736313Y-46544D01*
Y-59101D01*
X733614Y-61789D01*
X653288Y-61459D01*
Y-87310D01*
X601218D01*
X599229Y-87572D01*
X597375Y-88340D01*
X595783Y-89561D01*
X592446Y-92898D01*
X551748D01*
X548453Y-90134D01*
Y-85634D01*
X548209Y-83781D01*
X547494Y-82053D01*
X546356Y-80570D01*
X544873Y-79432D01*
X543145Y-78717D01*
X541292Y-78473D01*
X539878D01*
Y-69220D01*
X541073Y-68726D01*
X542720Y-67462D01*
X542828Y-67320D01*
X544343Y-65796D01*
X546705Y-65676D01*
X548295Y-65993D01*
X549426D01*
Y-58928D01*
Y-51863D01*
X548295D01*
X546705Y-52179D01*
X544343Y-52060D01*
X542828Y-50536D01*
X542720Y-50395D01*
X541073Y-49131D01*
X539154Y-48336D01*
X537096Y-48065D01*
X532293D01*
X530234Y-48336D01*
X528316Y-49131D01*
X526669Y-50395D01*
X525405Y-52042D01*
X524610Y-53960D01*
X524339Y-56018D01*
Y-61838D01*
X524506Y-63106D01*
Y-78473D01*
X523092D01*
X521239Y-78717D01*
X519511Y-79432D01*
X519437Y-79489D01*
X495370Y-79390D01*
X493745Y-78717D01*
X491892Y-78473D01*
X473692D01*
X471839Y-78717D01*
X470111Y-79432D01*
X469113Y-80198D01*
X415786D01*
X413797Y-80460D01*
X411943Y-81228D01*
X410351Y-82449D01*
X391520Y-101280D01*
X324444D01*
Y-63439D01*
X337387D01*
X338043Y-64293D01*
X339685Y-65553D01*
X341597Y-66346D01*
X343649Y-66616D01*
X349263D01*
X351315Y-66346D01*
X353227Y-65553D01*
X354869Y-64293D01*
X356129Y-62651D01*
X356922Y-60739D01*
X357192Y-58687D01*
Y-52819D01*
X356922Y-50767D01*
X356129Y-48855D01*
X354869Y-47213D01*
X353227Y-45953D01*
X353041Y-45338D01*
X353079Y-45281D01*
X353393Y-43701D01*
Y-42037D01*
X346456D01*
X339519D01*
Y-43701D01*
X339833Y-45281D01*
X338092Y-47175D01*
X338043Y-47213D01*
X337970Y-47307D01*
X337271Y-48067D01*
X324444D01*
Y-40328D01*
X317998D01*
X317998Y-14028D01*
X324444D01*
Y-7559D01*
X337271D01*
X337970Y-8319D01*
X338042Y-8413D01*
X338092Y-8451D01*
X339833Y-10345D01*
X339519Y-11925D01*
Y-13589D01*
X346456D01*
X353393D01*
Y-11925D01*
X353079Y-10345D01*
X353041Y-10288D01*
X353227Y-9674D01*
X354869Y-8413D01*
X356129Y-6771D01*
X356922Y-4859D01*
X357192Y-2807D01*
Y3061D01*
X356922Y5113D01*
X356129Y7025D01*
X354869Y8667D01*
X353227Y9927D01*
X351315Y10720D01*
X349263Y10990D01*
X343649D01*
X341597Y10720D01*
X339685Y9927D01*
X338042Y8667D01*
X337387Y7813D01*
X324444D01*
Y54672D01*
X290744D01*
Y-3229D01*
X281593Y-12380D01*
X266780D01*
X266682Y-12336D01*
X263741Y-9616D01*
Y-8636D01*
X251586D01*
Y-7366D01*
X250316D01*
Y-467D01*
D01*
Y-16D01*
X172786Y303D01*
X171767Y1086D01*
X170039Y1801D01*
X168186Y2045D01*
X150586D01*
X148733Y1801D01*
X147005Y1086D01*
X145522Y-52D01*
X144384Y-1535D01*
X143669Y-3263D01*
X143425Y-5116D01*
Y-9616D01*
X143669Y-11469D01*
X144384Y-13197D01*
X144783Y-13716D01*
X144384Y-14235D01*
X143669Y-15963D01*
X143425Y-17816D01*
Y-22316D01*
X140130Y-25080D01*
X133485D01*
X133416Y-25010D01*
Y8246D01*
X244449Y119279D01*
X244449Y119279D01*
X245670Y120871D01*
X246438Y122725D01*
X246700Y124714D01*
Y424841D01*
X250510Y426374D01*
X251436Y425448D01*
X253897Y424027D01*
X256643Y423291D01*
X257990D01*
X264915Y416366D01*
X264876Y414743D01*
X263981Y411911D01*
X262358Y410974D01*
X260348Y408964D01*
X258927Y406503D01*
X258191Y403757D01*
Y400915D01*
X258927Y398169D01*
X260348Y395708D01*
X261300Y394755D01*
Y317180D01*
X261562Y315191D01*
X262330Y313337D01*
X263551Y311745D01*
X284954Y290343D01*
Y235180D01*
X285038D01*
Y232281D01*
X285274Y230490D01*
X285811Y229192D01*
Y164234D01*
X286073Y162245D01*
X286841Y160391D01*
X288062Y158799D01*
X322898Y123963D01*
X314860Y115925D01*
X313638Y114333D01*
X312871Y112479D01*
X312609Y110490D01*
Y105348D01*
X311881Y104790D01*
X310621Y103148D01*
X309829Y101235D01*
X309559Y99183D01*
Y93316D01*
X309829Y91264D01*
X310621Y89351D01*
X311881Y87709D01*
X313523Y86449D01*
X313710Y85835D01*
X313671Y85778D01*
X313357Y84197D01*
Y82533D01*
X320294D01*
X327232D01*
Y84197D01*
X326917Y85778D01*
X326880Y85835D01*
X327066Y86449D01*
X328708Y87709D01*
X329968Y89351D01*
X330760Y91264D01*
X331030Y93316D01*
Y99183D01*
X330760Y101235D01*
X329968Y103148D01*
X328708Y104790D01*
X329310Y108636D01*
X333890Y113216D01*
X336285D01*
X338344Y113487D01*
X340262Y114282D01*
X341884Y115527D01*
X343507Y114282D01*
X345425Y113487D01*
X347484Y113216D01*
X349244D01*
X352995Y109465D01*
X352817Y105429D01*
X352659Y105308D01*
X351395Y103660D01*
X350600Y101742D01*
X350329Y99684D01*
Y94880D01*
X350600Y92822D01*
X351395Y90904D01*
X352659Y89256D01*
X352800Y89148D01*
X354324Y87634D01*
X354444Y85272D01*
X354127Y83682D01*
Y82550D01*
X368257D01*
Y83682D01*
X367941Y85272D01*
X367964Y85739D01*
X370935Y87920D01*
X373023Y86715D01*
X375769Y85979D01*
X378611D01*
X381357Y86715D01*
X383818Y88136D01*
X385828Y90146D01*
X387249Y92607D01*
X387985Y95353D01*
Y98195D01*
X387249Y100941D01*
X385828Y103402D01*
X383818Y105412D01*
X381357Y106833D01*
X378611Y107569D01*
X375769D01*
X373023Y106833D01*
X372688Y106640D01*
X368878Y108839D01*
Y112137D01*
X368616Y114127D01*
X367848Y115980D01*
X366627Y117572D01*
X366627Y117572D01*
X360241Y123958D01*
Y126989D01*
X360130Y127828D01*
X361238Y129370D01*
X362234Y130285D01*
X363332Y130885D01*
X364403Y130744D01*
X398251D01*
X404916Y124079D01*
X397130Y116293D01*
X395909Y114701D01*
X395141Y112847D01*
X394879Y110858D01*
Y105348D01*
X394151Y104790D01*
X392891Y103148D01*
X392099Y101235D01*
X391829Y99183D01*
Y93316D01*
X392099Y91264D01*
X392891Y89351D01*
X394151Y87709D01*
X395793Y86449D01*
X395980Y85835D01*
X395942Y85778D01*
X395627Y84197D01*
Y82533D01*
X402565D01*
X409502D01*
Y84197D01*
X409188Y85778D01*
X409150Y85835D01*
X409336Y86449D01*
X410978Y87709D01*
X412238Y89351D01*
X413030Y91264D01*
X413301Y93316D01*
Y99183D01*
X413030Y101235D01*
X412238Y103148D01*
X410978Y104790D01*
X411290Y108714D01*
X415792Y113216D01*
X418187D01*
X420246Y113487D01*
X422164Y114282D01*
X423787Y115527D01*
X425410Y114282D01*
X427328Y113487D01*
X429386Y113216D01*
X431782D01*
X435476Y109522D01*
X435313Y105603D01*
X434929Y105308D01*
X433665Y103660D01*
X432870Y101742D01*
X432599Y99684D01*
Y94880D01*
X432870Y92822D01*
X433665Y90904D01*
X434929Y89256D01*
X435070Y89148D01*
X436594Y87634D01*
X436714Y85272D01*
X436397Y83682D01*
Y82550D01*
X450527D01*
Y83682D01*
X450211Y85272D01*
X450231Y85667D01*
X453268Y87991D01*
X455039Y86969D01*
X457785Y86233D01*
X460627D01*
X463373Y86969D01*
X465835Y88390D01*
X467844Y90400D01*
X469266Y92861D01*
X470001Y95607D01*
Y98449D01*
X469266Y101195D01*
X467844Y103656D01*
X465835Y105666D01*
X463373Y107087D01*
X460627Y107823D01*
X457785D01*
X455039Y107087D01*
X454958Y107040D01*
X451148Y109240D01*
Y112404D01*
X450886Y114394D01*
X450118Y116247D01*
X448897Y117839D01*
X442143Y124593D01*
Y126989D01*
X441872Y129047D01*
X441077Y130965D01*
X439813Y132612D01*
X438938Y133284D01*
X439648Y136586D01*
X439926Y137094D01*
X473803D01*
X486819Y124079D01*
X479400Y116660D01*
X478179Y115069D01*
X477411Y113215D01*
X477149Y111226D01*
Y105348D01*
X476421Y104790D01*
X475161Y103148D01*
X474369Y101235D01*
X474099Y99183D01*
Y93316D01*
X474369Y91264D01*
X475161Y89351D01*
X476421Y87709D01*
X478064Y86449D01*
X478250Y85835D01*
X478212Y85778D01*
X477897Y84197D01*
Y82533D01*
X484835D01*
X491772D01*
Y84197D01*
X491458Y85778D01*
X491420Y85835D01*
X491606Y86449D01*
X493248Y87709D01*
X494508Y89351D01*
X495300Y91264D01*
X495571Y93316D01*
Y99183D01*
X495300Y101235D01*
X494508Y103148D01*
X493248Y104790D01*
X493270Y108792D01*
X497694Y113216D01*
X500090D01*
X502148Y113487D01*
X504066Y114282D01*
X505689Y115527D01*
X507312Y114282D01*
X509230Y113487D01*
X511288Y113216D01*
X513684D01*
X517456Y109444D01*
X517272Y105364D01*
X517199Y105308D01*
X515935Y103660D01*
X515140Y101742D01*
X514869Y99684D01*
Y94880D01*
X515140Y92822D01*
X515935Y90904D01*
X517199Y89256D01*
X517340Y89148D01*
X518864Y87634D01*
X518984Y85272D01*
X518668Y83682D01*
Y82550D01*
X532797D01*
Y83682D01*
X532481Y85272D01*
X532501Y85667D01*
X535538Y87991D01*
X537310Y86969D01*
X540055Y86233D01*
X542898D01*
X545643Y86969D01*
X548105Y88390D01*
X550115Y90400D01*
X551536Y92861D01*
X552271Y95607D01*
Y98449D01*
X551536Y101195D01*
X550115Y103656D01*
X548105Y105666D01*
X545643Y107087D01*
X542898Y107823D01*
X540055D01*
X537310Y107087D01*
X537228Y107040D01*
X533418Y109240D01*
Y112037D01*
X533156Y114026D01*
X532388Y115879D01*
X531167Y117471D01*
X531167Y117471D01*
X524045Y124593D01*
Y126989D01*
X523774Y129047D01*
X522980Y130965D01*
X521716Y132612D01*
X520068Y133876D01*
X518150Y134671D01*
X516092Y134942D01*
X511288D01*
X509230Y134671D01*
X507312Y133876D01*
X505689Y132631D01*
X504066Y133876D01*
X502148Y134671D01*
X500090Y134942D01*
X497694D01*
X492712Y139924D01*
X494170Y143444D01*
X549356D01*
X568721Y124079D01*
X561670Y117028D01*
X560449Y115437D01*
X559681Y113583D01*
X559419Y111594D01*
Y105348D01*
X558692Y104790D01*
X557431Y103148D01*
X556639Y101235D01*
X556369Y99183D01*
Y93316D01*
X556639Y91264D01*
X557431Y89351D01*
X558692Y87709D01*
X560334Y86449D01*
X560520Y85835D01*
X560482Y85778D01*
X560168Y84197D01*
Y82533D01*
X567105D01*
X574042D01*
Y84197D01*
X573728Y85778D01*
X573690Y85835D01*
X573876Y86449D01*
X575518Y87709D01*
X576779Y89351D01*
X577571Y91264D01*
X577841Y93316D01*
Y99183D01*
X577571Y101235D01*
X576779Y103148D01*
X575518Y104790D01*
X575424Y104862D01*
X575250Y108869D01*
X579597Y113216D01*
X581992D01*
X584050Y113487D01*
X585969Y114282D01*
X587591Y115527D01*
X589214Y114282D01*
X591132Y113487D01*
X593191Y113216D01*
X595586D01*
X599436Y109366D01*
X599469Y105308D01*
X598205Y103660D01*
X597411Y101742D01*
X597140Y99684D01*
Y94880D01*
X597411Y92822D01*
X598205Y90904D01*
X599469Y89256D01*
X599611Y89148D01*
X601134Y87634D01*
X601254Y85272D01*
X600938Y83682D01*
Y82550D01*
X615067D01*
Y83682D01*
X614751Y85272D01*
X614771Y85667D01*
X617809Y87991D01*
X619580Y86969D01*
X622325Y86233D01*
X625168D01*
X627913Y86969D01*
X630375Y88390D01*
X632385Y90400D01*
X633806Y92861D01*
X634542Y95607D01*
Y98449D01*
X633806Y101195D01*
X632385Y103656D01*
X630375Y105666D01*
X627913Y107087D01*
X625168Y107823D01*
X622325D01*
X619580Y107087D01*
X619498Y107040D01*
X615688Y109240D01*
Y111669D01*
X615426Y113658D01*
X614659Y115512D01*
X613437Y117103D01*
X605947Y124593D01*
Y126989D01*
X605676Y129047D01*
X604882Y130965D01*
X603618Y132612D01*
X601971Y133876D01*
X600052Y134671D01*
X597994Y134942D01*
X593191D01*
X591132Y134671D01*
X589214Y133876D01*
X587591Y132631D01*
X585969Y133876D01*
X584050Y134671D01*
X581992Y134942D01*
X579597D01*
X568264Y146274D01*
X569723Y149794D01*
X624908D01*
X650623Y124079D01*
X643941Y117396D01*
X642719Y115805D01*
X641951Y113951D01*
X641690Y111962D01*
Y105348D01*
X640962Y104790D01*
X639702Y103148D01*
X638910Y101235D01*
X638639Y99183D01*
Y93316D01*
X638910Y91264D01*
X639702Y89351D01*
X640962Y87709D01*
X642604Y86449D01*
X642790Y85835D01*
X642752Y85778D01*
X642438Y84197D01*
Y82533D01*
X649375D01*
X656313D01*
Y84197D01*
X655998Y85778D01*
X655960Y85835D01*
X656147Y86449D01*
X657789Y87709D01*
X659049Y89351D01*
X659841Y91264D01*
X660111Y93316D01*
Y99183D01*
X659841Y101235D01*
X659049Y103148D01*
X657789Y104790D01*
X657383Y105101D01*
X657230Y108947D01*
X661499Y113216D01*
X663894D01*
X665953Y113487D01*
X667871Y114282D01*
X669494Y115527D01*
X671116Y114282D01*
X673035Y113487D01*
X675093Y113216D01*
X677488D01*
X681416Y109288D01*
X681739Y105308D01*
X680475Y103660D01*
X679681Y101742D01*
X679410Y99684D01*
Y94880D01*
X679681Y92822D01*
X680475Y90904D01*
X681739Y89256D01*
X681881Y89148D01*
X683405Y87634D01*
X683524Y85272D01*
X683208Y83682D01*
Y82550D01*
X697338D01*
Y83682D01*
X697021Y85272D01*
X697041Y85667D01*
X700079Y87991D01*
X701850Y86969D01*
X704596Y86233D01*
X707438D01*
X710183Y86969D01*
X712645Y88390D01*
X714655Y90400D01*
X716076Y92861D01*
X716812Y95607D01*
Y98449D01*
X716076Y101195D01*
X714655Y103656D01*
X712645Y105666D01*
X710183Y107087D01*
X707438Y107823D01*
X704596D01*
X701850Y107087D01*
X701769Y107040D01*
X697959Y109240D01*
Y111301D01*
X697697Y113290D01*
X696929Y115144D01*
X695707Y116735D01*
X687850Y124593D01*
Y126989D01*
X687579Y129047D01*
X686784Y130965D01*
X685520Y132612D01*
X683873Y133876D01*
X681955Y134671D01*
X679896Y134942D01*
X675093D01*
X673035Y134671D01*
X671116Y133876D01*
X669494Y132631D01*
X667871Y133876D01*
X665953Y134671D01*
X663894Y134942D01*
X661499D01*
X643817Y152624D01*
X645275Y156144D01*
X700460D01*
X732526Y124079D01*
X726211Y117764D01*
X724989Y116172D01*
X724222Y114319D01*
X723960Y112330D01*
Y105348D01*
X723232Y104790D01*
X721972Y103148D01*
X721180Y101235D01*
X720910Y99183D01*
Y93316D01*
X721180Y91264D01*
X721972Y89351D01*
X723232Y87709D01*
X724874Y86449D01*
X725061Y85835D01*
X725023Y85778D01*
X724708Y84197D01*
Y82533D01*
X731645D01*
X738583D01*
Y84197D01*
X738268Y85778D01*
X738230Y85835D01*
X738417Y86449D01*
X740059Y87709D01*
X741319Y89351D01*
X742111Y91264D01*
X742381Y93316D01*
Y99183D01*
X742111Y101235D01*
X741319Y103148D01*
X740059Y104790D01*
X739331Y105348D01*
Y109146D01*
X743401Y113216D01*
X745797D01*
X747855Y113487D01*
X749773Y114282D01*
X751396Y115527D01*
X753019Y114282D01*
X754937Y113487D01*
X756995Y113216D01*
X759391D01*
X763396Y109211D01*
X764009Y105308D01*
X762746Y103660D01*
X761951Y101742D01*
X761680Y99684D01*
Y94880D01*
X761951Y92822D01*
X762746Y90904D01*
X764009Y89256D01*
X764151Y89148D01*
X765675Y87634D01*
X765795Y85272D01*
X765478Y83682D01*
Y82550D01*
X779608D01*
Y83682D01*
X779292Y85272D01*
X779312Y85667D01*
X782349Y87991D01*
X784120Y86969D01*
X786866Y86233D01*
X789708D01*
X792454Y86969D01*
X794915Y88390D01*
X796925Y90400D01*
X798346Y92861D01*
X799082Y95607D01*
Y98449D01*
X798346Y101195D01*
X796925Y103656D01*
X794915Y105666D01*
X792454Y107087D01*
X789708Y107823D01*
X786866D01*
X784120Y107087D01*
X784039Y107040D01*
X780229Y109240D01*
Y110933D01*
X780229Y110933D01*
X779967Y112922D01*
X779199Y114776D01*
X777978Y116368D01*
X769752Y124593D01*
Y126989D01*
X769481Y129047D01*
X768687Y130965D01*
X767422Y132612D01*
X765775Y133876D01*
X763857Y134671D01*
X761799Y134942D01*
X756995D01*
X754937Y134671D01*
X753019Y133876D01*
X751396Y132631D01*
X749773Y133876D01*
X747855Y134671D01*
X745797Y134942D01*
X743401D01*
X719369Y158974D01*
X720827Y162494D01*
X776013D01*
X814428Y124079D01*
X808481Y118132D01*
X807260Y116540D01*
X806492Y114687D01*
X806230Y112697D01*
Y105348D01*
X805502Y104790D01*
X804242Y103148D01*
X803450Y101235D01*
X803180Y99183D01*
Y93316D01*
X803450Y91264D01*
X804242Y89351D01*
X805502Y87709D01*
X807144Y86449D01*
X807331Y85835D01*
X807293Y85778D01*
X806978Y84197D01*
Y82533D01*
X813915D01*
Y81263D01*
D01*
Y82533D01*
X820853D01*
Y84197D01*
X820539Y85778D01*
X820501Y85835D01*
X820687Y86449D01*
X822329Y87709D01*
X823589Y89351D01*
X824381Y91264D01*
X824651Y93316D01*
Y99183D01*
X824381Y101235D01*
X823589Y103148D01*
X822329Y104790D01*
X821601Y105348D01*
Y109514D01*
X825303Y113216D01*
X827699D01*
X829757Y113487D01*
X831676Y114282D01*
X833298Y115527D01*
X834921Y114282D01*
X836839Y113487D01*
X838898Y113216D01*
X841293D01*
X845376Y109133D01*
X846280Y105308D01*
X845016Y103660D01*
X844221Y101742D01*
X843950Y99684D01*
Y94880D01*
X844221Y92822D01*
X845016Y90904D01*
X846280Y89256D01*
X846421Y89148D01*
X847945Y87634D01*
X848065Y85272D01*
X847748Y83682D01*
Y82550D01*
X861878D01*
Y83682D01*
X861562Y85272D01*
X861582Y85667D01*
X864619Y87991D01*
X866390Y86969D01*
X869136Y86233D01*
X871978D01*
X874724Y86969D01*
X877185Y88390D01*
X879195Y90400D01*
X880617Y92861D01*
X881352Y95607D01*
Y98449D01*
X880617Y101195D01*
X879195Y103656D01*
X877185Y105666D01*
X874724Y107087D01*
X871978Y107823D01*
X869136D01*
X866390Y107087D01*
X866309Y107040D01*
X862499Y109240D01*
Y110565D01*
X862237Y112554D01*
X861469Y114408D01*
X860248Y116000D01*
X851654Y124593D01*
Y126989D01*
X851383Y129047D01*
X850589Y130965D01*
X849325Y132612D01*
X847678Y133876D01*
X845759Y134671D01*
X843701Y134942D01*
X838898D01*
X836839Y134671D01*
X834921Y133876D01*
X833298Y132631D01*
X831676Y133876D01*
X829757Y134671D01*
X827699Y134942D01*
X825303D01*
X794921Y165324D01*
X796379Y168844D01*
X851565D01*
X896330Y124079D01*
X890751Y118500D01*
X889530Y116908D01*
X888762Y115055D01*
X888500Y113065D01*
Y105348D01*
X887772Y104790D01*
X886512Y103148D01*
X885720Y101235D01*
X885450Y99183D01*
Y93316D01*
X885720Y91264D01*
X886512Y89351D01*
X887772Y87709D01*
X889415Y86449D01*
X889601Y85835D01*
X889563Y85778D01*
X889249Y84197D01*
Y82533D01*
X896186D01*
X903123D01*
Y84197D01*
X902809Y85778D01*
X902771Y85835D01*
X902957Y86449D01*
X904599Y87709D01*
X905859Y89351D01*
X906652Y91264D01*
X906922Y93316D01*
Y99183D01*
X906652Y101235D01*
X905859Y103148D01*
X904599Y104790D01*
X903872Y105348D01*
Y109882D01*
X907206Y113216D01*
X909601D01*
X911660Y113487D01*
X913578Y114282D01*
X915201Y115527D01*
X916823Y114282D01*
X918742Y113487D01*
X920800Y113216D01*
X923195D01*
X927356Y109055D01*
X928550Y105308D01*
X927286Y103660D01*
X926491Y101742D01*
X926220Y99684D01*
Y94880D01*
X926491Y92822D01*
X927286Y90904D01*
X928550Y89256D01*
X928691Y89148D01*
X930215Y87634D01*
X930335Y85272D01*
X930019Y83682D01*
Y82550D01*
X944148D01*
Y83682D01*
X943832Y85272D01*
X943852Y85667D01*
X946889Y87991D01*
X948661Y86969D01*
X951406Y86233D01*
X954249D01*
X956994Y86969D01*
X959456Y88390D01*
X961466Y90400D01*
X962887Y92861D01*
X963622Y95607D01*
Y98158D01*
X964332Y98766D01*
X967145Y100023D01*
X974377Y92791D01*
X969211Y87626D01*
X967990Y86034D01*
X967222Y84180D01*
X966960Y82191D01*
Y74106D01*
X966233Y73548D01*
X964973Y71906D01*
X964180Y69993D01*
X963910Y67941D01*
Y62074D01*
X964180Y60022D01*
X964973Y58109D01*
X966233Y56467D01*
X967875Y55207D01*
X968061Y54593D01*
X968023Y54536D01*
X967709Y52955D01*
Y51291D01*
X974646D01*
X981583D01*
Y52955D01*
X981269Y54536D01*
X981231Y54593D01*
X981417Y55207D01*
X983059Y56467D01*
X984320Y58109D01*
X985112Y60022D01*
X985382Y62074D01*
Y67941D01*
X985112Y69993D01*
X984320Y71906D01*
X983059Y73548D01*
X982332Y74106D01*
Y79008D01*
X985298Y81974D01*
X987693D01*
X989752Y82245D01*
X991670Y83040D01*
X993293Y84285D01*
X994916Y83040D01*
X996834Y82245D01*
X998892Y81974D01*
X1001288D01*
X1005530Y77732D01*
X1007010Y74065D01*
X1005746Y72418D01*
X1004952Y70500D01*
X1004681Y68442D01*
Y63638D01*
X1004952Y61580D01*
X1005746Y59662D01*
X1007010Y58014D01*
X1007152Y57906D01*
X1008676Y56392D01*
X1008795Y54030D01*
X1008479Y52440D01*
Y51308D01*
X1022608D01*
Y52440D01*
X1022292Y54030D01*
X1022312Y54425D01*
X1025350Y56749D01*
X1027121Y55727D01*
X1029866Y54991D01*
X1032709D01*
X1035454Y55727D01*
X1037916Y57148D01*
X1039926Y59158D01*
X1041347Y61619D01*
X1042083Y64365D01*
Y67207D01*
X1041347Y69953D01*
X1039926Y72414D01*
X1037916Y74424D01*
X1035454Y75845D01*
X1032709Y76581D01*
X1029866D01*
X1027121Y75845D01*
X1027039Y75798D01*
X1023229Y77998D01*
Y78587D01*
X1022968Y80576D01*
X1022200Y82430D01*
X1020978Y84022D01*
X1011649Y93351D01*
Y95746D01*
X1013309Y97639D01*
X1050760D01*
X1056325Y92075D01*
X1051482Y87232D01*
X1050260Y85640D01*
X1049492Y83786D01*
X1049230Y81797D01*
Y74106D01*
X1048503Y73548D01*
X1047243Y71906D01*
X1046451Y69993D01*
X1046180Y67941D01*
Y62074D01*
X1046451Y60022D01*
X1047243Y58109D01*
X1048503Y56467D01*
X1050145Y55207D01*
X1050331Y54593D01*
X1050293Y54536D01*
X1049979Y52955D01*
Y51291D01*
X1056916D01*
Y50021D01*
D01*
Y51291D01*
X1063854D01*
Y52955D01*
X1063539Y54536D01*
X1063501Y54593D01*
X1063688Y55207D01*
X1065330Y56467D01*
X1066590Y58109D01*
X1067382Y60022D01*
X1067652Y62074D01*
Y67941D01*
X1067382Y69993D01*
X1066590Y71906D01*
X1065330Y73548D01*
X1064602Y74106D01*
Y78614D01*
X1067200Y81212D01*
X1069596D01*
X1071654Y81483D01*
X1073572Y82277D01*
X1075195Y83523D01*
X1076818Y82277D01*
X1078736Y81483D01*
X1080795Y81212D01*
X1083190D01*
X1089345Y75057D01*
X1089280Y74065D01*
X1088016Y72418D01*
X1087222Y70500D01*
X1086951Y68442D01*
Y63638D01*
X1087222Y61580D01*
X1088016Y59662D01*
X1089280Y58014D01*
X1089422Y57906D01*
X1090946Y56392D01*
X1091065Y54030D01*
X1090749Y52440D01*
Y51308D01*
X1104879D01*
Y52440D01*
X1104562Y54030D01*
X1104582Y54425D01*
X1107620Y56749D01*
X1109391Y55727D01*
X1112137Y54991D01*
X1114979D01*
X1117725Y55727D01*
X1120186Y57148D01*
X1122196Y59158D01*
X1123617Y61619D01*
X1124353Y64365D01*
Y67207D01*
X1123617Y69953D01*
X1122196Y72414D01*
X1120186Y74424D01*
X1117725Y75845D01*
X1114979Y76581D01*
X1112137D01*
X1109391Y75845D01*
X1109310Y75798D01*
X1106674Y76946D01*
X1105434Y77960D01*
X1105238Y79447D01*
X1104470Y81300D01*
X1103249Y82892D01*
X1103248Y82892D01*
X1093551Y92589D01*
Y94985D01*
X1093280Y97043D01*
X1092486Y98961D01*
X1091222Y100609D01*
X1090449Y101202D01*
X1091459Y105012D01*
X1125291D01*
X1138481Y91821D01*
X1133752Y87092D01*
X1132530Y85500D01*
X1131762Y83646D01*
X1131501Y81657D01*
Y74106D01*
X1130773Y73548D01*
X1129513Y71906D01*
X1128721Y69993D01*
X1128451Y67941D01*
Y62074D01*
X1128721Y60022D01*
X1129513Y58109D01*
X1130773Y56467D01*
X1132415Y55207D01*
X1132601Y54593D01*
X1132563Y54536D01*
X1132249Y52955D01*
Y51291D01*
X1139186D01*
X1146124D01*
Y52955D01*
X1145809Y54536D01*
X1145771Y54593D01*
X1145958Y55207D01*
X1147600Y56467D01*
X1148860Y58109D01*
X1149652Y60022D01*
X1149922Y62074D01*
Y67941D01*
X1149652Y69993D01*
X1148860Y71906D01*
X1147600Y73548D01*
X1146872Y74106D01*
Y78473D01*
X1149357Y80958D01*
X1151752D01*
X1153811Y81229D01*
X1155729Y82023D01*
X1157352Y83269D01*
X1158974Y82023D01*
X1160892Y81229D01*
X1162951Y80958D01*
X1165346D01*
X1171593Y74711D01*
X1171551Y74065D01*
X1170286Y72418D01*
X1169492Y70500D01*
X1169221Y68442D01*
Y63638D01*
X1169492Y61580D01*
X1170286Y59662D01*
X1171551Y58014D01*
X1171692Y57906D01*
X1173216Y56392D01*
X1173335Y54030D01*
X1173019Y52440D01*
Y51308D01*
X1187149D01*
Y52440D01*
X1186833Y54030D01*
X1186876Y54891D01*
X1190291Y57509D01*
X1191486Y57148D01*
X1193947Y55727D01*
X1196693Y54991D01*
X1199535D01*
X1202281Y55727D01*
X1204742Y57148D01*
X1206752Y59158D01*
X1208173Y61619D01*
X1208909Y64365D01*
Y67207D01*
X1208173Y69953D01*
X1206752Y72414D01*
X1204742Y74424D01*
X1202281Y75845D01*
X1199535Y76581D01*
X1196693D01*
X1193947Y75845D01*
X1191486Y74424D01*
X1191354Y74408D01*
X1187770Y75639D01*
Y77090D01*
X1187508Y79079D01*
X1186740Y80932D01*
X1185519Y82524D01*
X1175707Y92335D01*
Y94731D01*
X1175436Y96789D01*
X1174642Y98707D01*
X1173378Y100354D01*
X1171731Y101618D01*
X1169813Y102413D01*
X1167754Y102684D01*
X1162951D01*
X1160892Y102413D01*
X1158974Y101618D01*
X1157352Y100373D01*
X1155729Y101618D01*
X1153811Y102413D01*
X1151752Y102684D01*
X1149357D01*
X1140818Y111222D01*
X1142277Y114742D01*
X1199379D01*
X1275631Y38490D01*
X1277222Y37269D01*
X1279076Y36501D01*
X1281065Y36239D01*
X1314313D01*
X1314963Y35391D01*
X1316611Y34127D01*
X1318529Y33333D01*
X1320587Y33062D01*
X1325390D01*
X1327449Y33333D01*
X1329367Y34127D01*
X1330990Y35373D01*
X1332613Y34127D01*
X1334531Y33333D01*
X1336589Y33062D01*
X1341393D01*
X1343451Y33333D01*
X1345369Y34127D01*
X1347016Y35391D01*
X1347667Y36239D01*
X1414065D01*
X1416054Y36501D01*
X1417908Y37269D01*
X1419500Y38490D01*
X1420570Y39561D01*
X1456945Y3186D01*
X1456682Y2204D01*
Y-1469D01*
X1457633Y-5016D01*
X1459469Y-8198D01*
X1462066Y-10795D01*
X1465247Y-12631D01*
X1468795Y-13582D01*
X1472469D01*
X1476017Y-12631D01*
X1479198Y-10795D01*
X1479254Y-10739D01*
X1497226D01*
X1497226Y-10739D01*
X1501036Y-9772D01*
X1501967D01*
X1504546Y-9081D01*
X1506858Y-7746D01*
X1508746Y-5858D01*
X1510081Y-3546D01*
X1510772Y-967D01*
Y-902D01*
X1500632D01*
Y368D01*
X1499362D01*
Y10508D01*
X1499297D01*
X1497226Y12097D01*
Y17276D01*
X1501036Y20228D01*
X1501967D01*
X1504546Y20919D01*
X1506858Y22254D01*
X1508746Y24142D01*
X1510081Y26454D01*
X1510772Y29033D01*
Y29098D01*
X1500632D01*
Y30368D01*
X1499362D01*
Y40508D01*
X1499297D01*
X1497226Y42097D01*
X1497226Y47276D01*
X1501036Y50228D01*
X1501967D01*
X1504546Y50919D01*
X1506858Y52254D01*
X1508746Y54142D01*
X1510081Y56454D01*
X1510772Y59033D01*
Y59098D01*
X1500632D01*
Y60368D01*
X1499362D01*
Y70508D01*
X1499297D01*
X1497226Y72097D01*
Y77276D01*
X1501036Y80228D01*
X1501967D01*
X1504546Y80919D01*
X1506858Y82254D01*
X1508746Y84142D01*
X1510081Y86454D01*
X1510772Y89033D01*
Y89098D01*
X1500632D01*
Y90368D01*
X1499362D01*
Y100508D01*
X1499297D01*
X1497226Y102097D01*
Y107276D01*
X1501036Y110228D01*
X1501967D01*
X1504546Y110919D01*
X1506858Y112254D01*
X1508746Y114142D01*
X1510081Y116454D01*
X1510772Y119033D01*
Y119098D01*
X1500632D01*
Y120368D01*
X1499362D01*
Y130508D01*
X1499297D01*
X1497226Y132097D01*
Y137276D01*
X1501036Y140228D01*
X1501967D01*
X1504546Y140919D01*
X1506858Y142254D01*
X1508746Y144142D01*
X1510081Y146454D01*
X1510772Y149033D01*
Y149098D01*
X1500632D01*
Y150368D01*
X1499362D01*
Y160508D01*
X1499297D01*
X1497226Y162097D01*
X1497226Y167276D01*
X1501036Y170228D01*
X1501967D01*
X1504546Y170919D01*
X1506858Y172254D01*
X1508746Y174142D01*
X1510081Y176454D01*
X1510772Y179033D01*
Y179098D01*
X1500632D01*
Y180368D01*
X1499362D01*
Y190508D01*
X1499297D01*
X1497226Y192097D01*
Y200228D01*
X1499362D01*
Y210368D01*
X1500632D01*
D01*
X1499362D01*
Y220508D01*
X1497226D01*
Y220672D01*
X1479985Y220743D01*
X1479198Y221531D01*
X1476017Y223367D01*
X1472469Y224318D01*
X1468795D01*
X1468259Y224174D01*
X1428173Y264260D01*
X1426581Y265482D01*
X1424727Y266250D01*
X1422738Y266511D01*
X1347667D01*
X1347016Y267359D01*
X1345369Y268623D01*
X1343451Y269418D01*
X1341393Y269689D01*
X1336589D01*
X1334531Y269418D01*
X1332613Y268623D01*
X1330990Y267378D01*
X1329367Y268623D01*
X1327449Y269418D01*
X1325390Y269689D01*
X1320587D01*
X1318529Y269418D01*
X1316611Y268623D01*
X1314963Y267359D01*
X1314313Y266511D01*
X1222120D01*
X1220131Y266250D01*
X1218277Y265482D01*
X1216686Y264260D01*
X1162304Y209879D01*
X1158494Y210070D01*
Y286557D01*
X1162291Y286572D01*
X1312551D01*
X1312634Y286489D01*
Y284094D01*
X1312905Y282035D01*
X1313699Y280117D01*
X1314963Y278470D01*
X1316611Y277206D01*
X1318529Y276411D01*
X1320587Y276140D01*
X1325390D01*
X1327449Y276411D01*
X1329367Y277206D01*
X1330990Y278451D01*
X1332613Y277206D01*
X1334531Y276411D01*
X1336589Y276140D01*
X1341393D01*
X1343451Y276411D01*
X1345369Y277206D01*
X1347016Y278470D01*
X1347667Y279317D01*
X1434457D01*
X1436446Y279579D01*
X1438300Y280347D01*
X1439892Y281569D01*
X1467918Y309594D01*
X1468797Y309359D01*
X1472470D01*
X1476018Y310310D01*
X1479199Y312146D01*
X1479425Y312372D01*
X1497574D01*
X1497574Y312372D01*
X1501384Y313169D01*
X1501968D01*
X1504547Y313860D01*
X1506859Y315195D01*
X1508747Y317083D01*
X1510082Y319395D01*
X1510773Y321974D01*
Y322039D01*
X1500633D01*
Y323309D01*
X1499363D01*
Y333449D01*
X1499298D01*
X1497574Y334772D01*
Y340073D01*
X1501384Y343169D01*
X1501968D01*
X1504547Y343860D01*
X1506859Y345195D01*
X1508747Y347083D01*
X1510082Y349395D01*
X1510773Y351974D01*
Y352039D01*
X1500633D01*
Y353309D01*
X1499363D01*
Y363449D01*
X1499298D01*
X1497574Y364772D01*
Y370073D01*
X1501384Y373169D01*
X1501968D01*
X1504547Y373860D01*
X1506859Y375195D01*
X1508747Y377083D01*
X1510082Y379395D01*
X1510773Y381974D01*
Y382039D01*
X1500633D01*
Y383309D01*
X1499363D01*
Y393449D01*
X1499298D01*
X1497574Y394772D01*
Y400073D01*
X1501384Y403169D01*
X1501968D01*
X1504547Y403860D01*
X1506859Y405195D01*
X1508747Y407083D01*
X1510082Y409395D01*
X1510773Y411974D01*
Y412039D01*
X1500633D01*
Y413309D01*
X1499363D01*
Y423449D01*
X1499298D01*
X1497574Y424772D01*
Y430073D01*
X1501384Y433169D01*
X1501968D01*
X1504547Y433860D01*
X1506859Y435195D01*
X1508747Y437083D01*
X1510082Y439395D01*
X1510773Y441974D01*
Y442039D01*
X1500633D01*
Y443309D01*
X1499363D01*
Y453449D01*
X1499298D01*
X1497574Y454772D01*
Y460073D01*
X1501384Y463169D01*
X1501968D01*
X1504547Y463860D01*
X1506859Y465195D01*
X1508747Y467083D01*
X1510082Y469395D01*
X1510773Y471974D01*
Y472039D01*
X1500633D01*
Y473309D01*
X1499363D01*
Y483449D01*
X1499298D01*
X1497574Y484772D01*
X1497574Y490073D01*
X1501384Y493169D01*
X1501968D01*
X1504547Y493860D01*
X1506859Y495195D01*
X1508747Y497083D01*
X1510082Y499395D01*
X1510773Y501974D01*
Y502039D01*
X1500633D01*
Y503309D01*
X1499363D01*
Y513449D01*
X1499298D01*
X1497574Y514772D01*
Y523169D01*
X1499363D01*
Y533309D01*
X1500633D01*
D01*
X1499363D01*
Y543449D01*
X1497574D01*
Y543783D01*
X1479814Y543856D01*
X1479199Y544472D01*
X1476018Y546308D01*
X1472470Y547259D01*
X1468797D01*
X1465249Y546308D01*
X1462068Y544472D01*
X1459471Y541874D01*
X1457634Y538693D01*
X1456683Y535145D01*
Y531472D01*
X1456946Y530491D01*
X1428610Y502155D01*
X1423427Y507339D01*
X1421835Y508560D01*
X1419981Y509328D01*
X1417992Y509590D01*
X1400588D01*
X1399295Y513400D01*
X1401970Y515453D01*
X1405803Y519286D01*
X1409103Y523586D01*
X1411813Y528280D01*
X1413888Y533288D01*
X1415291Y538524D01*
X1415998Y543898D01*
Y549318D01*
X1415291Y554692D01*
X1413888Y559928D01*
X1411813Y564936D01*
X1409103Y569630D01*
X1405803Y573930D01*
X1401970Y577763D01*
X1397670Y581063D01*
X1396368Y581815D01*
X1397389Y585625D01*
X1544142D01*
X1547367Y585200D01*
D02*
G37*
G36*
X764134Y526948D02*
Y515960D01*
X760324Y513761D01*
X759596Y514182D01*
X756661Y514968D01*
X756412D01*
Y503428D01*
Y491888D01*
X756661D01*
X759596Y492674D01*
X760324Y493095D01*
X764134Y490896D01*
Y451293D01*
X762762Y450167D01*
X761099D01*
Y443230D01*
Y436293D01*
X762762D01*
X764134Y435167D01*
Y426655D01*
X762762Y425529D01*
X761099D01*
Y418592D01*
Y411655D01*
X762762D01*
X764134Y410529D01*
Y396748D01*
X706882D01*
X616350Y487280D01*
Y492607D01*
X615455Y498258D01*
X613687Y503700D01*
X611089Y508798D01*
X607726Y513426D01*
X603680Y517472D01*
X599052Y520835D01*
X593954Y523433D01*
X588512Y525201D01*
X582861Y526096D01*
X577139D01*
X571488Y525201D01*
X566046Y523433D01*
X561680Y521208D01*
X496876Y521208D01*
Y583719D01*
X707138Y583944D01*
X764134Y526948D01*
D02*
G37*
G36*
X973578Y518778D02*
X942992D01*
Y515086D01*
X941850Y514153D01*
X939182Y513150D01*
X937396Y514182D01*
X934461Y514968D01*
X934212D01*
Y503428D01*
Y491888D01*
X934461D01*
X937396Y492674D01*
X939182Y493705D01*
X941850Y492703D01*
X942992Y491770D01*
Y488078D01*
X973578D01*
Y447433D01*
X996296Y424715D01*
X1046857Y424715D01*
X1068962Y424624D01*
Y424715D01*
X1089007Y424715D01*
X1122260D01*
Y413744D01*
X1128560D01*
Y410292D01*
X1141750D01*
X1154940D01*
Y413744D01*
X1163213D01*
Y424715D01*
X1172871D01*
X1172871Y400677D01*
X1162130Y389936D01*
X1026403D01*
X1025450Y390888D01*
X1022989Y392309D01*
X1020243Y393045D01*
X1017401D01*
X1014655Y392309D01*
X1012194Y390888D01*
X1010184Y388878D01*
X1008763Y386417D01*
X1008445Y385229D01*
X874904D01*
Y392356D01*
X883265D01*
Y392356D01*
X887075Y394300D01*
X887220D01*
Y409448D01*
Y424596D01*
X883990D01*
X883265Y425192D01*
Y426454D01*
X874904Y426488D01*
Y435828D01*
X875779Y436547D01*
X877443D01*
Y443484D01*
Y450421D01*
X875779D01*
X874904Y451140D01*
Y489882D01*
X875947Y490928D01*
X878714Y492399D01*
X880623Y491888D01*
X880872D01*
Y503428D01*
Y514968D01*
X880623D01*
X878714Y514456D01*
X875947Y515928D01*
X874904Y516974D01*
Y582105D01*
X878269Y585470D01*
X973578D01*
Y518778D01*
D02*
G37*
G36*
X868429Y582105D02*
Y516974D01*
X868673Y515747D01*
X868744Y515388D01*
X867806Y513656D01*
X864351Y512793D01*
X863655Y512762D01*
X861196Y514182D01*
X858261Y514968D01*
X858012D01*
Y503428D01*
Y491888D01*
X858261D01*
X861196Y492674D01*
X863656Y494094D01*
X864351Y494063D01*
X867806Y493200D01*
X868744Y491468D01*
X868675Y491117D01*
X868429Y489882D01*
Y453954D01*
X866870Y450840D01*
X864997Y450479D01*
Y443484D01*
Y436489D01*
X866870Y436128D01*
X868429Y433014D01*
Y429215D01*
X865730Y426526D01*
X862457Y426539D01*
Y425801D01*
X860990Y424596D01*
X857760D01*
Y409448D01*
Y394300D01*
X860990D01*
X862457Y393096D01*
Y392356D01*
X868429D01*
Y385229D01*
X868922Y382752D01*
X870326Y380651D01*
X872426Y379248D01*
X874904Y378755D01*
X1008445D01*
X1008576Y378781D01*
X1008763Y378083D01*
X1010184Y375622D01*
X1012194Y373612D01*
X1014655Y372191D01*
X1017401Y371455D01*
X1020243D01*
X1022989Y372191D01*
X1025450Y373612D01*
X1026403Y374564D01*
X1034554D01*
X1035431Y373421D01*
Y370579D01*
X1036167Y367833D01*
X1037588Y365372D01*
X1039598Y363362D01*
X1042059Y361941D01*
X1044805Y361205D01*
X1047647D01*
X1050393Y361941D01*
X1052854Y363362D01*
X1053807Y364314D01*
X1063477D01*
X1064935Y360794D01*
X1054910Y350769D01*
X1052824Y350727D01*
X1050697Y351133D01*
X1050267Y351407D01*
X1049559Y352329D01*
X1047917Y353590D01*
X1046005Y354382D01*
X1043953Y354652D01*
X1038085D01*
X1036033Y354382D01*
X1034121Y353590D01*
X1032479Y352329D01*
X1031218Y350687D01*
X1030604Y350501D01*
X1030547Y350539D01*
X1028967Y350853D01*
X1027303D01*
Y343916D01*
Y336979D01*
X1028967D01*
X1030547Y337293D01*
X1030604Y337331D01*
X1031218Y337145D01*
X1032479Y335503D01*
X1034121Y334243D01*
X1034646Y334025D01*
X1034785Y333907D01*
X1036217Y330556D01*
X1036279Y329575D01*
X1036040Y329160D01*
X1035304Y326414D01*
Y323572D01*
X1036040Y320826D01*
X1037461Y318365D01*
X1038540Y317285D01*
Y309317D01*
X1038248Y308834D01*
X1035026Y306427D01*
X1035026Y306427D01*
X1034796D01*
Y294258D01*
X1032256D01*
Y306427D01*
X1032026D01*
X1030450Y306114D01*
X1030212Y305955D01*
X1029183Y306267D01*
X1027925Y307907D01*
X1026285Y309165D01*
X1024375Y309956D01*
X1022326Y310226D01*
X1019326D01*
X1018752Y310673D01*
X1016764Y313920D01*
X1018185Y316381D01*
X1018921Y319127D01*
Y321969D01*
X1018185Y324715D01*
X1016764Y327176D01*
X1014754Y329186D01*
X1012293Y330607D01*
X1009547Y331343D01*
X1006705D01*
X1005515Y331024D01*
X1005231Y332081D01*
X1003810Y334542D01*
X1001800Y336552D01*
X999339Y337973D01*
X996593Y338709D01*
X993751D01*
X991005Y337973D01*
X988544Y336552D01*
X986534Y334542D01*
X985113Y332081D01*
X984377Y329335D01*
Y326493D01*
X985113Y323747D01*
X986534Y321286D01*
X987613Y320206D01*
Y313248D01*
X984226Y310226D01*
X981226D01*
X979177Y309956D01*
X977267Y309165D01*
X975627Y307907D01*
X974369Y306267D01*
X973578Y304357D01*
X973308Y302308D01*
Y286208D01*
X973578Y284159D01*
X974369Y282249D01*
X975049Y281363D01*
Y204372D01*
X977107D01*
Y203328D01*
X982726D01*
Y200788D01*
X977107D01*
Y194008D01*
X977420Y192432D01*
X974313Y190224D01*
X957646Y206892D01*
Y254547D01*
X958598Y255500D01*
X960019Y257961D01*
X960755Y260707D01*
Y263549D01*
X960019Y266295D01*
X958598Y268756D01*
X956588Y270766D01*
X954127Y272187D01*
X951381Y272923D01*
X948539D01*
X945793Y272187D01*
X943332Y270766D01*
X941322Y268756D01*
X939901Y266295D01*
X939165Y263549D01*
Y260707D01*
X939901Y257961D01*
X941322Y255500D01*
X942274Y254547D01*
Y210985D01*
X938754Y209527D01*
X934024Y214258D01*
Y301244D01*
X933762Y303233D01*
X932994Y305087D01*
X931773Y306679D01*
X927735Y310716D01*
Y312063D01*
X926999Y314809D01*
X925578Y317270D01*
X923568Y319280D01*
X921107Y320701D01*
X918361Y321437D01*
X915519D01*
X912773Y320701D01*
X910312Y319280D01*
X908302Y317270D01*
X906881Y314809D01*
X906145Y312063D01*
Y309221D01*
X906362Y308412D01*
X903883Y307747D01*
X901422Y306326D01*
X899412Y304316D01*
X897991Y301855D01*
X897255Y299109D01*
Y296267D01*
X897991Y293521D01*
X899412Y291060D01*
X901422Y289050D01*
X903883Y287629D01*
X906629Y286893D01*
X907976D01*
X909254Y285614D01*
Y203708D01*
X908866Y203266D01*
X455587D01*
X454129Y206786D01*
X482346Y235003D01*
X487573D01*
X488272Y234243D01*
X488344Y234149D01*
X488394Y234111D01*
X490135Y232217D01*
X489821Y230637D01*
Y228973D01*
X496758D01*
X503695D01*
Y230637D01*
X503381Y232217D01*
X503343Y232274D01*
X503529Y232888D01*
X505171Y234149D01*
X506432Y235791D01*
X507224Y237703D01*
X507494Y239755D01*
Y245623D01*
X507224Y247675D01*
X506432Y249587D01*
X505171Y251229D01*
X504444Y251788D01*
Y256249D01*
X506293Y258098D01*
X508689D01*
X510747Y258369D01*
X512665Y259164D01*
X514288Y260409D01*
X515911Y259164D01*
X517829Y258369D01*
X519887Y258098D01*
X522283D01*
X525733Y254648D01*
X526170Y250698D01*
X524906Y249051D01*
X524112Y247133D01*
X523841Y245074D01*
Y240271D01*
X524112Y238212D01*
X524906Y236294D01*
X526170Y234647D01*
X526312Y234538D01*
X527836Y233024D01*
X527955Y230662D01*
X527639Y229072D01*
Y227941D01*
X541768D01*
Y229072D01*
X541452Y230662D01*
X541472Y231057D01*
X544510Y233382D01*
X546281Y232359D01*
X549026Y231623D01*
X551869D01*
X554614Y232359D01*
X557076Y233780D01*
X559086Y235790D01*
X559226Y236034D01*
X563451Y235791D01*
X564711Y234149D01*
X566353Y232888D01*
X566539Y232274D01*
X566502Y232217D01*
X566187Y230637D01*
Y228973D01*
X573125D01*
X580062D01*
Y230637D01*
X579747Y232217D01*
X579709Y232274D01*
X579896Y232888D01*
X581538Y234149D01*
X582798Y235791D01*
X583590Y237703D01*
X583860Y239755D01*
Y245623D01*
X583590Y247675D01*
X582798Y249587D01*
X581538Y251229D01*
X580810Y251788D01*
Y255653D01*
X583255Y258098D01*
X585651D01*
X587709Y258369D01*
X589627Y259164D01*
X591250Y260409D01*
X592873Y259164D01*
X594791Y258369D01*
X596849Y258098D01*
X599245D01*
X602569Y254774D01*
X602537Y250698D01*
X601273Y249051D01*
X600478Y247133D01*
X600207Y245074D01*
Y240271D01*
X600478Y238212D01*
X601273Y236294D01*
X602537Y234647D01*
X602678Y234538D01*
X604202Y233024D01*
X604322Y230662D01*
X604005Y229072D01*
Y227941D01*
X618135D01*
Y229072D01*
X617819Y230662D01*
X617839Y231057D01*
X620876Y233382D01*
X622647Y232359D01*
X625393Y231623D01*
X628235D01*
X630981Y232359D01*
X633442Y233780D01*
X635452Y235790D01*
X635593Y236034D01*
X639817Y235791D01*
X641077Y234149D01*
X642720Y232888D01*
X642906Y232274D01*
X642868Y232217D01*
X642554Y230637D01*
Y228973D01*
X649491D01*
X656428D01*
Y230637D01*
X656114Y232217D01*
X656076Y232274D01*
X656262Y232888D01*
X657904Y234149D01*
X659165Y235791D01*
X659957Y237703D01*
X660227Y239755D01*
Y245623D01*
X659957Y247675D01*
X659165Y249587D01*
X657904Y251229D01*
X657177Y251788D01*
Y256836D01*
X658693Y258352D01*
X661089D01*
X663147Y258623D01*
X665065Y259418D01*
X666688Y260663D01*
X668311Y259418D01*
X670229Y258623D01*
X672287Y258352D01*
X674683D01*
X678403Y254632D01*
X678903Y250698D01*
X677639Y249051D01*
X676845Y247133D01*
X676574Y245074D01*
Y240271D01*
X676845Y238212D01*
X677639Y236294D01*
X678903Y234647D01*
X679045Y234538D01*
X680569Y233024D01*
X680688Y230662D01*
X680372Y229072D01*
Y227941D01*
X694502D01*
Y229072D01*
X694185Y230662D01*
X694205Y231057D01*
X697243Y233382D01*
X699014Y232359D01*
X701759Y231623D01*
X704602D01*
X707347Y232359D01*
X709809Y233780D01*
X711819Y235790D01*
X711959Y236034D01*
X716184Y235791D01*
X717444Y234149D01*
X719086Y232888D01*
X719273Y232274D01*
X719235Y232217D01*
X718920Y230637D01*
Y228973D01*
X725858D01*
X732795D01*
Y230637D01*
X732480Y232217D01*
X732442Y232274D01*
X732629Y232888D01*
X734271Y234149D01*
X735531Y235791D01*
X736323Y237703D01*
X736593Y239755D01*
Y245623D01*
X736323Y247675D01*
X735531Y249587D01*
X734271Y251229D01*
X734115Y255093D01*
X736800Y257844D01*
X739067D01*
X741125Y258115D01*
X743043Y258910D01*
X744666Y260155D01*
X746289Y258910D01*
X748207Y258115D01*
X750265Y257844D01*
X752661D01*
X755640Y254865D01*
X755465Y250848D01*
X755270Y250698D01*
X754006Y249051D01*
X753211Y247133D01*
X752940Y245074D01*
Y240271D01*
X753211Y238212D01*
X754006Y236294D01*
X755270Y234647D01*
X755411Y234538D01*
X756935Y233024D01*
X757055Y230662D01*
X756738Y229072D01*
Y227941D01*
X770868D01*
Y229072D01*
X770552Y230662D01*
X770572Y231057D01*
X773609Y233382D01*
X775380Y232359D01*
X778126Y231623D01*
X780968D01*
X783714Y232359D01*
X786176Y233780D01*
X788185Y235790D01*
X788326Y236034D01*
X792551Y235791D01*
X793811Y234149D01*
X795453Y232888D01*
X795639Y232274D01*
X795601Y232217D01*
X795287Y230637D01*
Y228973D01*
X802224D01*
X809161D01*
Y230637D01*
X808847Y232217D01*
X808809Y232274D01*
X808995Y232888D01*
X810638Y234149D01*
X811898Y235791D01*
X812690Y237703D01*
X812960Y239755D01*
Y245623D01*
X812690Y247675D01*
X811898Y249587D01*
X810638Y251229D01*
X809910Y251788D01*
Y256026D01*
X811982Y258098D01*
X814378D01*
X816436Y258369D01*
X818354Y259164D01*
X819977Y260409D01*
X821600Y259164D01*
X823518Y258369D01*
X825576Y258098D01*
X827972D01*
X831375Y254695D01*
X831636Y250698D01*
X830372Y249051D01*
X829578Y247133D01*
X829307Y245074D01*
Y240271D01*
X829578Y238212D01*
X830372Y236294D01*
X831636Y234647D01*
X831778Y234538D01*
X833302Y233024D01*
X833421Y230662D01*
X833105Y229072D01*
Y227941D01*
X847235D01*
Y229072D01*
X846918Y230662D01*
X847038Y233024D01*
X848562Y234538D01*
X848703Y234647D01*
X852146Y234948D01*
X854607Y233527D01*
X857353Y232791D01*
X860195D01*
X862941Y233527D01*
X865402Y234948D01*
X867412Y236958D01*
X868833Y239419D01*
X869569Y242165D01*
Y245007D01*
X868833Y247753D01*
X867412Y250214D01*
X865402Y252224D01*
X862941Y253645D01*
X860195Y254381D01*
X857353D01*
X854607Y253645D01*
X852146Y252224D01*
X851665Y251744D01*
X847856Y253058D01*
Y256770D01*
X847594Y258759D01*
X846826Y260613D01*
X845604Y262204D01*
X838333Y269476D01*
Y271871D01*
X838062Y273930D01*
X837268Y275848D01*
X836003Y277495D01*
X834356Y278759D01*
X832438Y279554D01*
X830379Y279825D01*
X825576D01*
X823518Y279554D01*
X821600Y278759D01*
X819977Y277514D01*
X818354Y278759D01*
X816436Y279554D01*
X814378Y279825D01*
X811982D01*
X761506Y330301D01*
X759914Y331522D01*
X758061Y332290D01*
X756071Y332552D01*
X397984D01*
X397482Y336362D01*
X397613Y336397D01*
X400074Y337818D01*
X402084Y339828D01*
X403505Y342289D01*
X404241Y345035D01*
Y345507D01*
X406111Y347146D01*
X415461D01*
X417504Y347415D01*
X419407Y348204D01*
X421042Y349458D01*
X422296Y351093D01*
X422454Y351475D01*
X431986D01*
Y356646D01*
X436661D01*
X438704Y356915D01*
X440607Y357704D01*
X441421Y358328D01*
X477592D01*
X478610Y357539D01*
X480481Y355336D01*
X480297Y354409D01*
Y352745D01*
X487234D01*
Y351475D01*
D01*
Y352745D01*
X494171D01*
Y354409D01*
X493987Y355336D01*
X495858Y357539D01*
X496876Y358328D01*
X507300D01*
Y357378D01*
X534732D01*
Y358554D01*
X548956D01*
Y357378D01*
X576388D01*
Y358328D01*
X586630D01*
Y347204D01*
X617330D01*
Y367204D01*
Y389904D01*
X601296D01*
X599717Y393714D01*
X602937Y396934D01*
X605333D01*
X607391Y397205D01*
X609309Y397999D01*
X610932Y399245D01*
X612555Y397999D01*
X614473Y397205D01*
X616531Y396934D01*
X621335D01*
X623393Y397205D01*
X625311Y397999D01*
X626959Y399263D01*
X628223Y400911D01*
X629017Y402829D01*
X629288Y404887D01*
Y410707D01*
X629017Y412765D01*
X628223Y414683D01*
X626959Y416330D01*
X626925Y416841D01*
X628144Y418060D01*
X629565Y420521D01*
X630301Y423267D01*
Y426109D01*
X629565Y428855D01*
X628144Y431316D01*
X626134Y433326D01*
X623673Y434747D01*
X620927Y435483D01*
X618085D01*
X615339Y434747D01*
X612878Y433326D01*
X610868Y431316D01*
X609447Y428855D01*
X608711Y426109D01*
Y423267D01*
X609103Y421804D01*
X608526Y420652D01*
X607125Y419116D01*
X606187Y418548D01*
X605333Y418660D01*
X600529D01*
X598471Y418389D01*
X596553Y417594D01*
X594906Y416330D01*
X593642Y414683D01*
X592847Y412765D01*
X592630Y411117D01*
X591579Y410415D01*
X588766Y409593D01*
X544361Y453999D01*
X542769Y455220D01*
X540915Y455988D01*
X538926Y456250D01*
X529725D01*
X527480Y458251D01*
X528279Y462061D01*
X546539D01*
Y467477D01*
X550349Y468715D01*
X552274Y466066D01*
X556320Y462020D01*
X560948Y458657D01*
X566046Y456059D01*
X571488Y454291D01*
X577139Y453396D01*
X582861D01*
X588512Y454291D01*
X593954Y456059D01*
X599052Y458657D01*
X603680Y462020D01*
X607726Y466066D01*
X611089Y470695D01*
X613554Y475532D01*
X614060Y476065D01*
X617827Y476647D01*
X702304Y392170D01*
X704404Y390766D01*
X706882Y390274D01*
X764134D01*
X766612Y390766D01*
X768712Y392170D01*
X770116Y394270D01*
X770608Y396748D01*
Y408023D01*
X771593Y410834D01*
X773545Y411440D01*
Y418592D01*
Y425744D01*
X771593Y426350D01*
X770608Y429161D01*
Y432661D01*
X771593Y435472D01*
X773545Y436078D01*
Y443230D01*
Y450382D01*
X771593Y450988D01*
X770608Y453799D01*
Y490896D01*
X770443Y491727D01*
X770437Y491825D01*
X772489Y493435D01*
X773440Y493826D01*
X773886Y493945D01*
X776088Y492674D01*
X779023Y491888D01*
X779272D01*
Y503428D01*
Y514968D01*
X779023D01*
X776088Y514182D01*
X773886Y512911D01*
X773441Y513030D01*
X772489Y513421D01*
X770437Y515031D01*
X770443Y515129D01*
X770608Y515960D01*
Y526948D01*
X770116Y529426D01*
X768712Y531526D01*
X718133Y582105D01*
X719592Y585625D01*
X865385D01*
X868429Y582105D01*
D02*
G37*
G36*
X1352928Y581815D02*
X1351626Y581063D01*
X1347326Y577763D01*
X1343493Y573930D01*
X1340193Y569630D01*
X1337483Y564936D01*
X1335408Y559928D01*
X1334005Y554692D01*
X1333298Y549318D01*
Y543898D01*
X1334005Y538524D01*
X1335408Y533288D01*
X1337483Y528280D01*
X1340193Y523586D01*
X1343493Y519286D01*
X1346841Y515937D01*
X1346700Y513906D01*
X1345843Y511788D01*
X1345394Y511682D01*
X1345369Y511702D01*
X1343451Y512496D01*
X1341393Y512767D01*
X1336589D01*
X1334531Y512496D01*
X1332613Y511702D01*
X1330990Y510456D01*
X1329367Y511702D01*
X1327449Y512496D01*
X1325390Y512767D01*
X1320587D01*
X1318529Y512496D01*
X1316611Y511702D01*
X1314963Y510438D01*
X1313699Y508790D01*
X1312905Y506872D01*
X1312634Y504814D01*
Y498994D01*
X1312905Y496936D01*
X1313699Y495018D01*
X1314963Y493371D01*
X1314746Y489615D01*
X1272860Y447729D01*
X1269050Y449307D01*
Y496824D01*
X1269050Y496824D01*
X1268788Y498813D01*
X1268020Y500667D01*
X1266799Y502259D01*
X1266799Y502259D01*
X1255280Y513777D01*
X1255552Y514793D01*
Y518479D01*
X1254598Y522040D01*
X1252755Y525232D01*
X1250148Y527839D01*
X1246956Y529682D01*
X1243395Y530636D01*
X1239709D01*
X1236148Y529682D01*
X1232956Y527839D01*
X1230349Y525232D01*
X1229362Y523522D01*
X1225552Y524543D01*
Y530636D01*
X1197552D01*
Y513505D01*
X1178815Y494769D01*
X1177594Y493177D01*
X1176826Y491323D01*
X1176564Y489334D01*
Y434118D01*
X1172871Y431189D01*
X1163213D01*
X1163213Y431189D01*
Y447799D01*
X1158750Y447817D01*
Y470121D01*
X1157064D01*
Y481500D01*
X1156769Y484488D01*
X1155898Y487360D01*
X1154483Y490008D01*
X1152578Y492328D01*
X1150395Y494120D01*
X1151547Y495623D01*
X1152342Y497541D01*
X1152613Y499599D01*
Y503032D01*
X1152645Y503138D01*
X1152939Y506125D01*
X1152645Y509113D01*
X1151774Y511986D01*
X1150358Y514633D01*
X1148454Y516954D01*
X1118415Y546993D01*
X1116094Y548898D01*
X1113446Y550313D01*
X1110574Y551184D01*
X1107586Y551479D01*
X1102312D01*
Y552548D01*
X1070112D01*
Y520348D01*
X1101746D01*
X1126797Y495297D01*
X1127772Y494497D01*
X1129017Y490008D01*
X1127602Y487360D01*
X1126730Y484488D01*
X1126436Y481500D01*
Y470121D01*
X1124750D01*
Y468314D01*
X1099100D01*
Y474950D01*
X1068962D01*
Y481500D01*
X1024750D01*
Y471140D01*
X1013970D01*
Y453000D01*
X1012700D01*
Y451730D01*
X998710D01*
Y436845D01*
X994900Y435267D01*
X980052Y450115D01*
Y488078D01*
X979560Y490556D01*
X978156Y492656D01*
X976056Y494060D01*
X973692Y494530D01*
Y512326D01*
X976056Y512796D01*
X978156Y514200D01*
X979560Y516300D01*
X980052Y518778D01*
Y585470D01*
X980179Y585625D01*
X1351907D01*
X1352928Y581815D01*
D02*
G37*
G36*
X1417741Y491286D02*
X1381153Y454697D01*
X1379931Y453106D01*
X1379163Y451252D01*
X1378902Y449263D01*
Y439525D01*
X1379163Y437536D01*
X1379931Y435682D01*
X1381153Y434090D01*
X1382641Y432602D01*
X1383017Y432313D01*
X1383309Y431444D01*
Y428629D01*
X1383017Y427760D01*
X1382641Y427472D01*
X1381153Y425984D01*
X1379931Y424392D01*
X1379163Y422538D01*
X1378902Y420549D01*
Y407355D01*
X1379163Y405366D01*
X1379931Y403512D01*
X1381153Y401920D01*
X1456946Y326127D01*
X1456683Y325145D01*
Y321472D01*
X1456974Y320389D01*
X1431274Y294689D01*
X1347667D01*
X1347016Y295537D01*
X1345369Y296801D01*
X1343451Y297595D01*
X1341393Y297866D01*
X1336589D01*
X1334531Y297595D01*
X1332613Y296801D01*
X1330990Y295555D01*
X1329367Y296801D01*
X1327449Y297595D01*
X1325390Y297866D01*
X1322995D01*
X1321169Y299693D01*
X1319577Y300914D01*
X1317723Y301682D01*
X1315734Y301944D01*
X1157244D01*
Y302308D01*
X1156974Y304357D01*
X1156183Y306267D01*
X1158107Y310018D01*
X1314313D01*
X1314963Y309170D01*
X1316611Y307906D01*
X1318529Y307111D01*
X1320587Y306840D01*
X1325390D01*
X1327449Y307111D01*
X1329367Y307906D01*
X1330990Y309151D01*
X1332613Y307906D01*
X1334531Y307111D01*
X1336589Y306840D01*
X1341393D01*
X1343451Y307111D01*
X1345369Y307906D01*
X1347016Y309170D01*
X1347104Y309175D01*
X1347828Y308452D01*
X1350289Y307031D01*
X1353035Y306296D01*
X1355877D01*
X1358623Y307031D01*
X1361084Y308452D01*
X1363094Y310462D01*
X1364515Y312924D01*
X1365251Y315669D01*
Y318512D01*
X1364515Y321257D01*
X1363094Y323719D01*
X1361084Y325729D01*
X1358623Y327150D01*
X1355877Y327886D01*
X1353035D01*
X1350289Y327150D01*
X1347828Y325729D01*
X1347384Y325758D01*
X1347016Y326237D01*
X1345369Y327501D01*
X1343451Y328295D01*
X1341393Y328566D01*
X1336589D01*
X1334531Y328295D01*
X1332613Y327501D01*
X1330990Y326256D01*
X1329367Y327501D01*
X1327449Y328295D01*
X1325390Y328566D01*
X1320587D01*
X1319231Y328388D01*
X1317899Y330056D01*
X1317270Y331815D01*
X1322995Y337540D01*
X1325390D01*
X1327449Y337811D01*
X1329367Y338606D01*
X1330990Y339851D01*
X1332613Y338606D01*
X1334531Y337811D01*
X1336589Y337540D01*
X1341393D01*
X1343451Y337811D01*
X1345369Y338606D01*
X1347016Y339870D01*
X1347040Y339871D01*
X1347888Y339023D01*
X1350349Y337602D01*
X1353095Y336866D01*
X1355937D01*
X1358683Y337602D01*
X1361144Y339023D01*
X1363154Y341033D01*
X1364575Y343495D01*
X1365311Y346240D01*
Y349083D01*
X1364575Y351828D01*
X1363154Y354290D01*
X1361144Y356300D01*
X1358683Y357721D01*
X1355937Y358456D01*
X1353095D01*
X1350349Y357721D01*
X1347888Y356300D01*
X1347016Y356937D01*
X1345369Y358201D01*
X1343451Y358995D01*
X1341393Y359267D01*
X1336589D01*
X1334531Y358995D01*
X1332613Y358201D01*
X1330990Y356956D01*
X1329367Y358201D01*
X1327449Y358995D01*
X1325390Y359267D01*
X1320587D01*
X1319231Y359088D01*
X1317899Y360756D01*
X1317270Y362515D01*
X1322995Y368241D01*
X1325390D01*
X1327449Y368512D01*
X1329367Y369306D01*
X1330990Y370551D01*
X1332613Y369306D01*
X1334531Y368512D01*
X1336589Y368241D01*
X1341393D01*
X1343451Y368512D01*
X1345369Y369306D01*
X1347016Y370570D01*
X1347072Y370574D01*
X1347888Y369757D01*
X1350349Y368336D01*
X1353095Y367601D01*
X1355937D01*
X1358683Y368336D01*
X1361144Y369757D01*
X1363154Y371767D01*
X1364575Y374229D01*
X1365311Y376974D01*
Y379817D01*
X1364575Y382562D01*
X1363154Y385024D01*
X1361144Y387034D01*
X1358683Y388455D01*
X1355937Y389190D01*
X1353095D01*
X1350349Y388455D01*
X1347888Y387034D01*
X1347458Y387062D01*
X1347016Y387637D01*
X1345369Y388901D01*
X1343451Y389696D01*
X1341393Y389967D01*
X1336589D01*
X1334531Y389696D01*
X1332613Y388901D01*
X1330990Y387656D01*
X1329367Y388901D01*
X1327449Y389696D01*
X1325390Y389967D01*
X1320587D01*
X1319231Y389788D01*
X1317899Y391456D01*
X1317270Y393216D01*
X1322995Y398941D01*
X1325390D01*
X1327449Y399212D01*
X1329367Y400006D01*
X1330990Y401251D01*
X1332613Y400006D01*
X1334531Y399212D01*
X1336589Y398941D01*
X1341393D01*
X1343451Y399212D01*
X1345369Y400006D01*
X1346925Y401200D01*
X1347634Y400491D01*
X1350095Y399070D01*
X1352841Y398335D01*
X1355683D01*
X1358429Y399070D01*
X1360890Y400491D01*
X1362900Y402501D01*
X1364321Y404963D01*
X1365057Y407708D01*
Y410551D01*
X1364321Y413296D01*
X1362900Y415758D01*
X1360890Y417768D01*
X1358429Y419189D01*
X1355683Y419925D01*
X1352841D01*
X1350095Y419189D01*
X1347634Y417768D01*
X1347444Y417780D01*
X1347016Y418337D01*
X1345369Y419601D01*
X1343451Y420396D01*
X1341393Y420667D01*
X1336589D01*
X1334531Y420396D01*
X1332613Y419601D01*
X1330990Y418356D01*
X1329367Y419601D01*
X1327449Y420396D01*
X1325390Y420667D01*
X1320587D01*
X1319231Y420488D01*
X1317899Y422156D01*
X1317270Y423916D01*
X1322995Y429641D01*
X1325390D01*
X1327449Y429912D01*
X1329367Y430706D01*
X1330990Y431951D01*
X1332613Y430706D01*
X1334531Y429912D01*
X1336589Y429641D01*
X1341393D01*
X1343451Y429912D01*
X1345369Y430706D01*
X1346801Y431805D01*
X1347380Y431225D01*
X1349841Y429804D01*
X1352587Y429068D01*
X1355429D01*
X1358175Y429804D01*
X1360636Y431225D01*
X1362646Y433235D01*
X1364067Y435697D01*
X1364803Y438442D01*
Y441285D01*
X1364067Y444030D01*
X1362646Y446492D01*
X1360636Y448502D01*
X1358175Y449923D01*
X1355429Y450658D01*
X1352587D01*
X1349841Y449923D01*
X1347413Y448521D01*
X1347016Y449037D01*
X1345369Y450301D01*
X1343451Y451096D01*
X1341393Y451367D01*
X1336589D01*
X1334531Y451096D01*
X1332613Y450301D01*
X1330990Y449056D01*
X1329367Y450301D01*
X1327449Y451096D01*
X1325390Y451367D01*
X1320587D01*
X1319231Y451188D01*
X1317899Y452856D01*
X1317270Y454616D01*
X1322995Y460341D01*
X1325390D01*
X1327449Y460612D01*
X1329367Y461406D01*
X1330990Y462651D01*
X1332613Y461406D01*
X1334531Y460612D01*
X1336589Y460341D01*
X1341393D01*
X1343451Y460612D01*
X1345369Y461406D01*
X1346820Y462519D01*
X1347380Y461959D01*
X1349841Y460538D01*
X1352587Y459803D01*
X1355429D01*
X1358175Y460538D01*
X1360636Y461959D01*
X1362646Y463969D01*
X1364067Y466431D01*
X1364803Y469176D01*
Y472019D01*
X1364067Y474764D01*
X1362646Y477226D01*
X1360636Y479236D01*
X1358175Y480657D01*
X1355429Y481393D01*
X1352587D01*
X1349841Y480657D01*
X1347395Y479244D01*
X1347016Y479737D01*
X1345369Y481001D01*
X1343451Y481796D01*
X1341393Y482067D01*
X1336589D01*
X1334531Y481796D01*
X1332727Y481049D01*
X1332280Y481241D01*
X1330863Y482266D01*
X1330000Y483524D01*
X1330304Y484737D01*
X1330413Y485000D01*
X1330675Y486989D01*
X1330675Y486989D01*
Y488982D01*
X1330758Y489116D01*
X1334485Y491331D01*
X1334531Y491312D01*
X1336589Y491041D01*
X1341393D01*
X1343451Y491312D01*
X1345369Y492107D01*
X1347016Y493371D01*
X1347667Y494218D01*
X1414809D01*
X1417741Y491286D01*
D02*
G37*
G36*
X430969Y465871D02*
X431204D01*
X434111Y466650D01*
X436717Y468154D01*
X437815Y469252D01*
X438858Y469481D01*
X441423Y469249D01*
X442418Y468850D01*
X443262Y467587D01*
X445385Y465464D01*
X447881Y463796D01*
X450655Y462647D01*
X453599Y462062D01*
X456601D01*
X459545Y462647D01*
X462319Y463796D01*
X464815Y465464D01*
X465224Y465873D01*
X467800Y467157D01*
X470375Y465873D01*
X470784Y465463D01*
X472813Y464107D01*
Y452949D01*
X459226Y439361D01*
X456830D01*
X454772Y439090D01*
X452854Y438296D01*
X451231Y437050D01*
X449608Y438296D01*
X447690Y439090D01*
X445632Y439361D01*
X440828D01*
X438770Y439090D01*
X436852Y438296D01*
X435576Y437317D01*
X433427Y438557D01*
X430681Y439293D01*
X427839D01*
X425093Y438557D01*
X422632Y437136D01*
X420622Y435126D01*
X419201Y432665D01*
X418465Y429919D01*
Y427077D01*
X419201Y424331D01*
X420622Y421870D01*
X422632Y419860D01*
X425093Y418439D01*
X427839Y417703D01*
X430681D01*
X433427Y418439D01*
X435576Y419679D01*
X436852Y418700D01*
X438770Y417906D01*
X440828Y417635D01*
X445632D01*
X447690Y417906D01*
X447736Y417925D01*
X451463Y415710D01*
X451546Y415576D01*
Y411503D01*
X450565Y410749D01*
X449305Y409107D01*
X448690Y408921D01*
X448633Y408959D01*
X447053Y409273D01*
X445389D01*
Y402336D01*
Y395399D01*
X447053D01*
X448633Y395713D01*
X448690Y395751D01*
X449305Y395565D01*
X450565Y393923D01*
X451483Y393218D01*
Y383183D01*
X450594Y382294D01*
X449173Y379833D01*
X448437Y377087D01*
Y374245D01*
X448019Y373700D01*
X441421D01*
X440607Y374324D01*
X438704Y375113D01*
X436661Y375382D01*
X431986D01*
Y380895D01*
X422296Y380935D01*
X421042Y382570D01*
X419407Y383824D01*
X417504Y384613D01*
X415461Y384882D01*
X406111D01*
X404068Y384613D01*
X402165Y383824D01*
X401685Y383456D01*
X400836Y384304D01*
X398375Y385725D01*
X395629Y386461D01*
X392787D01*
X390041Y385725D01*
X387580Y384304D01*
X385706Y382431D01*
X380812Y387326D01*
Y417107D01*
X381764Y418060D01*
X383185Y420521D01*
X383921Y423267D01*
Y426109D01*
X383185Y428855D01*
X381764Y431316D01*
X379754Y433326D01*
X377293Y434747D01*
X374547Y435483D01*
X371705D01*
X368959Y434747D01*
X366498Y433326D01*
X364995Y431823D01*
X362930Y432212D01*
X361185Y433215D01*
Y464107D01*
X363214Y465463D01*
X363624Y465873D01*
X366199Y467156D01*
X368774Y465873D01*
X369184Y465463D01*
X371680Y463795D01*
X374454Y462646D01*
X377398Y462061D01*
X380400D01*
X383344Y462646D01*
X386118Y463795D01*
X388614Y465463D01*
X389024Y465873D01*
X391598Y467157D01*
X394174Y465873D01*
X394583Y465464D01*
X397080Y463796D01*
X399853Y462647D01*
X402797Y462062D01*
X405799D01*
X408744Y462647D01*
X411517Y463796D01*
X414013Y465464D01*
X416136Y467587D01*
X416980Y468850D01*
X417975Y469249D01*
X420540Y469481D01*
X421584Y469252D01*
X422681Y468154D01*
X425287Y466650D01*
X428194Y465871D01*
X428429D01*
Y477301D01*
X430969D01*
Y465871D01*
D02*
G37*
G36*
X49969D02*
X50204D01*
X53111Y466650D01*
X55717Y468154D01*
X56813Y469250D01*
X57856Y469480D01*
X60425Y469247D01*
X61417Y468848D01*
X62261Y467585D01*
X64383Y465462D01*
X66880Y463795D01*
X69653Y462646D01*
X72597Y462060D01*
X75599D01*
X78544Y462646D01*
X81317Y463795D01*
X83813Y465462D01*
X84223Y465872D01*
X86798Y467156D01*
X89374Y465872D01*
X89783Y465463D01*
X92279Y463795D01*
X95052Y462646D01*
X97997Y462061D01*
X100999D01*
X103943Y462646D01*
X106716Y463795D01*
X109213Y465463D01*
X109622Y465873D01*
X112198Y467156D01*
X114773Y465873D01*
X115183Y465462D01*
X117680Y463795D01*
X120453Y462646D01*
X123397Y462060D01*
X126399D01*
X129344Y462646D01*
X132117Y463795D01*
X134613Y465462D01*
X135024Y465873D01*
X137598Y467156D01*
X140174Y465873D01*
X140584Y465463D01*
X143080Y463795D01*
X145854Y462646D01*
X148798Y462061D01*
X151800D01*
X154745Y462646D01*
X157518Y463795D01*
X160014Y465463D01*
X160423Y465872D01*
X162999Y467156D01*
X165574Y465872D01*
X165983Y465462D01*
X168479Y463795D01*
X171253Y462646D01*
X174197Y462060D01*
X177199D01*
X180144Y462646D01*
X182917Y463795D01*
X185413Y465462D01*
X185824Y465873D01*
X188398Y467156D01*
X190974Y465873D01*
X191384Y465463D01*
X193880Y463795D01*
X196654Y462646D01*
X199598Y462061D01*
X202600D01*
X203340Y461406D01*
X203499Y456176D01*
X191923Y444601D01*
X190702Y443009D01*
X189934Y441155D01*
X189672Y439166D01*
Y128913D01*
X127220Y66461D01*
X123410Y68039D01*
Y79306D01*
X104140D01*
Y65036D01*
X120407D01*
X121985Y61226D01*
X80417Y19659D01*
X79196Y18067D01*
X78428Y16213D01*
X78166Y14224D01*
Y-49530D01*
X78428Y-51519D01*
X79196Y-53373D01*
X80417Y-54965D01*
X106271Y-80818D01*
X106428Y-81443D01*
X105452Y-85270D01*
X103695Y-85904D01*
X103139Y-85674D01*
X101081Y-85403D01*
X96277D01*
X94219Y-85674D01*
X92301Y-86468D01*
X90740Y-87666D01*
X90702Y-87628D01*
X88241Y-86207D01*
X85495Y-85471D01*
X82653D01*
X79907Y-86207D01*
X77446Y-87628D01*
X75436Y-89638D01*
X74015Y-92099D01*
X73279Y-94845D01*
Y-97687D01*
X74015Y-100433D01*
X75436Y-102894D01*
X77446Y-104904D01*
X79907Y-106325D01*
X82653Y-107061D01*
X85495D01*
X88241Y-106325D01*
X90702Y-104904D01*
X90740Y-104866D01*
X92301Y-106063D01*
X94219Y-106858D01*
X96277Y-107129D01*
X101081D01*
X103139Y-106858D01*
X104711Y-106207D01*
X105999Y-106571D01*
X107349Y-107299D01*
X108175Y-111526D01*
X107928Y-111847D01*
X107136Y-113759D01*
X106866Y-115811D01*
Y-121679D01*
X107136Y-123731D01*
X107928Y-125643D01*
X109189Y-127285D01*
X110831Y-128546D01*
X111017Y-129160D01*
X110979Y-129217D01*
X110665Y-130797D01*
Y-132461D01*
X117602D01*
X124539D01*
Y-130797D01*
X124225Y-129217D01*
X124187Y-129160D01*
X124373Y-128546D01*
X126015Y-127285D01*
X127275Y-125643D01*
X128068Y-123731D01*
X128194Y-122773D01*
X130942Y-120182D01*
X131675Y-119761D01*
X134517D01*
X137263Y-119025D01*
X139724Y-117604D01*
X140677Y-116652D01*
X146007D01*
X147005Y-117418D01*
X148733Y-118133D01*
X150586Y-118377D01*
X168186D01*
X170039Y-118133D01*
X170096Y-118110D01*
X222362D01*
X227796Y-123545D01*
X227796Y-123545D01*
X229388Y-124766D01*
X231242Y-125534D01*
X233231Y-125796D01*
X233231Y-125796D01*
X390770D01*
X396393Y-131419D01*
X397985Y-132640D01*
X399839Y-133408D01*
X401828Y-133670D01*
X469113D01*
X470111Y-134436D01*
X471839Y-135151D01*
X473692Y-135395D01*
X491892D01*
X493745Y-135151D01*
X495473Y-134436D01*
X496956Y-133298D01*
X498094Y-131815D01*
X516890D01*
X518028Y-133298D01*
X519511Y-134436D01*
X521239Y-135151D01*
X523092Y-135395D01*
X541292D01*
X543145Y-135151D01*
X544873Y-134436D01*
X546356Y-133298D01*
X547494Y-131815D01*
X548209Y-130087D01*
X548453Y-128234D01*
Y-127117D01*
X552263Y-124690D01*
X552892Y-124983D01*
Y-132080D01*
X553154Y-134069D01*
X553922Y-135923D01*
X555143Y-137515D01*
X573739Y-156111D01*
X572450Y-159722D01*
X572281Y-159921D01*
X26826D01*
X26068Y-156111D01*
X27472Y-155529D01*
X32166Y-152819D01*
X36466Y-149519D01*
X40299Y-145686D01*
X43599Y-141386D01*
X46309Y-136692D01*
X48384Y-131684D01*
X49787Y-126448D01*
X50494Y-121074D01*
Y-115654D01*
X49787Y-110280D01*
X48384Y-105044D01*
X46309Y-100036D01*
X43599Y-95342D01*
X40299Y-91042D01*
X36466Y-87209D01*
X32166Y-83909D01*
X27472Y-81199D01*
X22464Y-79124D01*
X17228Y-77722D01*
X11854Y-77014D01*
X6434D01*
X1060Y-77722D01*
X-4176Y-79124D01*
X-9184Y-81199D01*
X-13878Y-83909D01*
X-18178Y-87209D01*
X-22011Y-91042D01*
X-25311Y-95342D01*
X-28021Y-100036D01*
X-28631Y-101507D01*
X-32441Y-100749D01*
Y-23928D01*
X-28631Y-22690D01*
X-27726Y-23934D01*
X-23680Y-27980D01*
X-19052Y-31343D01*
X-13953Y-33941D01*
X-8512Y-35709D01*
X-2861Y-36604D01*
X2861D01*
X8512Y-35709D01*
X13953Y-33941D01*
X19052Y-31343D01*
X23680Y-27980D01*
X27726Y-23934D01*
X31089Y-19305D01*
X33687Y-14208D01*
X35455Y-8766D01*
X36350Y-3115D01*
Y2607D01*
X35455Y8258D01*
X33687Y13700D01*
X31089Y18798D01*
X27726Y23426D01*
X23680Y27472D01*
X19052Y30835D01*
X13953Y33433D01*
X8512Y35201D01*
X2861Y36096D01*
X-2861D01*
X-8512Y35201D01*
X-13953Y33433D01*
X-19052Y30835D01*
X-23680Y27472D01*
X-27726Y23426D01*
X-28631Y22182D01*
X-32441Y23420D01*
Y466326D01*
X-28631Y467564D01*
X-27726Y466320D01*
X-23680Y462274D01*
X-19052Y458911D01*
X-13953Y456313D01*
X-8512Y454545D01*
X-2861Y453650D01*
X2861D01*
X8512Y454545D01*
X13953Y456313D01*
X19052Y458911D01*
X23680Y462274D01*
X27726Y466320D01*
X31089Y470948D01*
X33504Y475688D01*
X33951Y475808D01*
X37758Y473970D01*
X38048Y472889D01*
X39553Y470283D01*
X41681Y468154D01*
X44287Y466650D01*
X47194Y465871D01*
X47429D01*
Y477301D01*
X49969D01*
Y465871D01*
D02*
G37*
G36*
X1196382Y485215D02*
X1197649Y484432D01*
X1198506Y481232D01*
X1200349Y478040D01*
X1202956Y475433D01*
X1206148Y473590D01*
X1209709Y472636D01*
X1213395D01*
X1216956Y473590D01*
X1220148Y475433D01*
X1222755Y478040D01*
X1224573Y481189D01*
X1224742Y481232D01*
X1228362D01*
X1228531Y481189D01*
X1230349Y478040D01*
X1232956Y475433D01*
X1236148Y473590D01*
X1239709Y472636D01*
X1243395D01*
X1246956Y473590D01*
X1249868Y475272D01*
X1251063Y474952D01*
X1253678Y473575D01*
Y447884D01*
X1236790Y430996D01*
X1236514Y430908D01*
X1232400Y431230D01*
X1231052Y432131D01*
X1229462Y432447D01*
X1227822D01*
Y425891D01*
X1226552D01*
Y424621D01*
X1219487D01*
Y423489D01*
X1219803Y421899D01*
X1219684Y419537D01*
X1218160Y418023D01*
X1218018Y417914D01*
X1216755Y416267D01*
X1215960Y414349D01*
X1215689Y412290D01*
Y410093D01*
X1212780Y407720D01*
X1209489Y409083D01*
Y412290D01*
X1209218Y414349D01*
X1208423Y416267D01*
X1207160Y417914D01*
X1207018Y418023D01*
X1205494Y419537D01*
X1205375Y421899D01*
X1205691Y423489D01*
Y424621D01*
X1198626D01*
Y425891D01*
X1197356D01*
Y432447D01*
X1195716D01*
X1192386Y434609D01*
X1191936Y435250D01*
Y484785D01*
X1193742Y486168D01*
X1196382Y485215D01*
D02*
G37*
G36*
X580443Y396178D02*
X573872Y389608D01*
X572578Y390144D01*
Y390144D01*
X552766D01*
X551166Y391132D01*
Y391132D01*
X551166Y391132D01*
X534732Y391199D01*
Y393954D01*
X525144D01*
X522885Y397661D01*
X523621Y400407D01*
Y403249D01*
X522885Y405995D01*
X522642Y406416D01*
X523418Y408290D01*
X523689Y410348D01*
Y415151D01*
X526072Y417497D01*
X526138Y417458D01*
X528495Y414595D01*
Y414401D01*
X535432D01*
X542369D01*
Y416065D01*
X542055Y417645D01*
X542017Y417702D01*
X542203Y418316D01*
X543845Y419577D01*
X545106Y421219D01*
X545898Y423131D01*
X546154Y425079D01*
X547287Y425938D01*
X549688Y426933D01*
X580443Y396178D01*
D02*
G37*
G36*
X317851Y464600D02*
Y413330D01*
X317303Y411287D01*
Y408445D01*
X318039Y405700D01*
X319460Y403238D01*
X321470Y401228D01*
X323932Y399807D01*
X326677Y399071D01*
X329520D01*
X332928Y396040D01*
Y383987D01*
X333190Y381998D01*
X333958Y380144D01*
X335179Y378552D01*
X339130Y374601D01*
X338240Y372452D01*
X337294Y371050D01*
X335628Y370831D01*
X333716Y370038D01*
X332074Y368778D01*
X330813Y367136D01*
X330199Y366950D01*
X330142Y366988D01*
X328562Y367302D01*
X326898D01*
Y360365D01*
Y353428D01*
X328562D01*
X330142Y353742D01*
X330199Y353780D01*
X330813Y353594D01*
X332074Y351951D01*
X333716Y350691D01*
X335628Y349899D01*
X337680Y349629D01*
X339018D01*
X340358Y347871D01*
X338471Y344061D01*
X337680D01*
X336100Y343747D01*
X336043Y343709D01*
X335429Y343895D01*
X334168Y345537D01*
X332526Y346797D01*
X330614Y347590D01*
X328562Y347860D01*
X322694D01*
X320642Y347590D01*
X318730Y346797D01*
X317088Y345537D01*
X315828Y343895D01*
X315035Y341983D01*
X314765Y339931D01*
Y334317D01*
X314953Y332892D01*
X313553Y331584D01*
X311081Y331061D01*
X310385Y331595D01*
Y442029D01*
X310123Y444018D01*
X309355Y445872D01*
X308134Y447463D01*
X299729Y455868D01*
X299841Y460830D01*
X301198Y462061D01*
X304200D01*
X307145Y462646D01*
X309918Y463795D01*
X312414Y465463D01*
X312823Y465872D01*
X314454Y466685D01*
X317851Y464600D01*
D02*
G37*
G36*
X572380Y268962D02*
X567690Y264272D01*
X566468Y262680D01*
X565701Y260826D01*
X565439Y258837D01*
Y251788D01*
X564711Y251229D01*
X563451Y249587D01*
X563335Y249307D01*
X559139Y248955D01*
X559086Y249047D01*
X557076Y251057D01*
X554614Y252478D01*
X551869Y253214D01*
X549026D01*
X546281Y252478D01*
X546199Y252431D01*
X542389Y254631D01*
Y256547D01*
X542128Y258536D01*
X541360Y260390D01*
X540138Y261981D01*
X532644Y269476D01*
Y271871D01*
X532373Y273930D01*
X531578Y275848D01*
X530314Y277495D01*
X528667Y278759D01*
X526749Y279554D01*
X524691Y279825D01*
X519887D01*
X517829Y279554D01*
X515911Y278759D01*
X514288Y277514D01*
X512665Y278759D01*
X510747Y279554D01*
X508689Y279825D01*
X503885D01*
X501827Y279554D01*
X499909Y278759D01*
X498261Y277495D01*
X496997Y275848D01*
X496203Y273930D01*
X495932Y271871D01*
Y269476D01*
X491323Y264867D01*
X490102Y263275D01*
X489334Y261422D01*
X489072Y259432D01*
Y251788D01*
X488344Y251229D01*
X487689Y250375D01*
X479163D01*
X477174Y250113D01*
X475320Y249345D01*
X473728Y248124D01*
X473728Y248123D01*
X435220Y209616D01*
X375929D01*
X371033Y214512D01*
Y229192D01*
X371570Y230490D01*
X371806Y232281D01*
Y247656D01*
X371680Y248612D01*
Y284025D01*
X371806Y284981D01*
Y300357D01*
X373195Y301940D01*
X539401D01*
X572380Y268962D01*
D02*
G37*
G36*
X1457064Y213631D02*
X1456682Y212205D01*
Y208531D01*
X1456945Y207550D01*
X1382131Y132737D01*
X1380910Y131145D01*
X1380142Y129291D01*
X1379880Y127302D01*
Y116358D01*
X1380142Y114369D01*
X1380910Y112515D01*
X1382131Y110923D01*
X1383619Y109435D01*
X1383996Y109146D01*
X1384287Y108278D01*
Y105462D01*
X1383996Y104593D01*
X1383619Y104305D01*
X1382131Y102817D01*
X1380910Y101225D01*
X1380142Y99371D01*
X1379880Y97382D01*
Y87523D01*
X1376070Y85147D01*
X1375051Y85420D01*
X1372209D01*
X1369463Y84684D01*
X1367002Y83263D01*
X1366049Y82311D01*
X1347667D01*
X1347016Y83159D01*
X1345369Y84423D01*
X1343451Y85217D01*
X1341393Y85488D01*
X1336589D01*
X1334531Y85217D01*
X1332613Y84423D01*
X1330990Y83177D01*
X1329367Y84423D01*
X1327449Y85217D01*
X1325390Y85488D01*
X1320587D01*
X1318529Y85217D01*
X1316611Y84423D01*
X1314963Y83159D01*
X1314313Y82311D01*
X1276536D01*
X1264466Y94381D01*
X1264888Y95661D01*
X1266442Y97794D01*
X1267615Y97639D01*
X1314313D01*
X1314963Y96792D01*
X1316611Y95528D01*
X1318529Y94733D01*
X1320587Y94462D01*
X1325390D01*
X1327449Y94733D01*
X1329367Y95528D01*
X1330990Y96773D01*
X1332613Y95528D01*
X1334531Y94733D01*
X1336589Y94462D01*
X1341393D01*
X1343451Y94733D01*
X1345369Y95528D01*
X1347016Y96792D01*
X1350748Y97280D01*
X1353209Y95859D01*
X1355955Y95123D01*
X1358797D01*
X1361543Y95859D01*
X1364004Y97280D01*
X1366014Y99290D01*
X1367435Y101751D01*
X1368171Y104497D01*
Y107339D01*
X1367435Y110085D01*
X1366014Y112546D01*
X1364004Y114556D01*
X1361543Y115977D01*
X1358797Y116713D01*
X1355955D01*
X1353209Y115977D01*
X1350748Y114556D01*
X1347016Y113859D01*
X1345369Y115123D01*
X1343451Y115917D01*
X1341393Y116188D01*
X1336589D01*
X1334531Y115917D01*
X1332613Y115123D01*
X1330990Y113877D01*
X1329367Y115123D01*
X1327449Y115917D01*
X1325390Y116188D01*
X1320587D01*
X1318529Y115917D01*
X1316611Y115123D01*
X1314963Y113859D01*
X1314313Y113011D01*
X1270798D01*
X1243123Y140686D01*
X1244581Y144206D01*
X1303939D01*
X1312634Y135511D01*
Y133116D01*
X1312905Y131057D01*
X1313699Y129139D01*
X1314963Y127492D01*
X1316611Y126228D01*
X1318529Y125433D01*
X1320587Y125162D01*
X1325390D01*
X1327449Y125433D01*
X1329367Y126228D01*
X1330990Y127473D01*
X1332613Y126228D01*
X1334531Y125433D01*
X1336589Y125162D01*
X1341393D01*
X1343451Y125433D01*
X1345369Y126228D01*
X1347016Y127492D01*
X1347974Y127555D01*
X1348142Y127387D01*
X1350603Y125966D01*
X1353349Y125230D01*
X1356191D01*
X1358937Y125966D01*
X1361398Y127387D01*
X1363408Y129397D01*
X1364829Y131859D01*
X1365565Y134604D01*
Y137446D01*
X1364829Y140192D01*
X1363408Y142654D01*
X1361398Y144663D01*
X1358937Y146085D01*
X1356191Y146820D01*
X1353349D01*
X1350603Y146085D01*
X1348142Y144663D01*
X1347974Y144496D01*
X1347016Y144559D01*
X1345369Y145823D01*
X1343451Y146617D01*
X1341393Y146888D01*
X1336589D01*
X1334531Y146617D01*
X1332613Y145823D01*
X1330990Y144578D01*
X1329367Y145823D01*
X1327449Y146617D01*
X1325390Y146888D01*
X1322995D01*
X1317270Y152613D01*
X1317899Y154373D01*
X1319231Y156041D01*
X1320587Y155862D01*
X1325390D01*
X1327449Y156133D01*
X1329367Y156928D01*
X1330990Y158173D01*
X1332613Y156928D01*
X1334531Y156133D01*
X1336589Y155862D01*
X1341393D01*
X1343451Y156133D01*
X1345369Y156928D01*
X1347016Y158192D01*
X1347529Y158225D01*
X1347634Y158121D01*
X1350095Y156700D01*
X1352841Y155964D01*
X1355683D01*
X1358429Y156700D01*
X1360890Y158121D01*
X1362900Y160131D01*
X1364321Y162593D01*
X1365057Y165338D01*
Y168181D01*
X1364321Y170926D01*
X1362900Y173388D01*
X1360890Y175397D01*
X1358429Y176819D01*
X1355683Y177554D01*
X1352841D01*
X1350095Y176819D01*
X1347634Y175397D01*
X1347466Y175229D01*
X1347016Y175259D01*
X1345369Y176523D01*
X1343451Y177317D01*
X1341393Y177588D01*
X1336589D01*
X1334531Y177317D01*
X1332613Y176523D01*
X1330990Y175278D01*
X1329367Y176523D01*
X1327449Y177317D01*
X1325390Y177588D01*
X1320587D01*
X1318529Y177317D01*
X1316611Y176523D01*
X1314963Y175259D01*
X1314313Y174411D01*
X1240891D01*
X1238902Y174149D01*
X1237048Y173382D01*
X1235457Y172160D01*
X1232780Y169484D01*
X1229017D01*
X1227559Y173004D01*
X1244295Y189740D01*
X1314313D01*
X1314963Y188892D01*
X1316611Y187628D01*
X1318529Y186833D01*
X1320587Y186562D01*
X1325390D01*
X1327449Y186833D01*
X1329367Y187628D01*
X1330990Y188873D01*
X1332613Y187628D01*
X1334531Y186833D01*
X1336589Y186562D01*
X1341393D01*
X1343451Y186833D01*
X1345369Y187628D01*
X1347016Y188892D01*
X1347561Y188928D01*
X1347888Y188601D01*
X1350349Y187180D01*
X1353095Y186444D01*
X1355937D01*
X1358683Y187180D01*
X1361144Y188601D01*
X1363154Y190611D01*
X1364575Y193073D01*
X1365311Y195818D01*
Y198661D01*
X1364575Y201406D01*
X1363154Y203868D01*
X1361144Y205877D01*
X1358683Y207299D01*
X1355937Y208034D01*
X1353095D01*
X1350349Y207299D01*
X1347888Y205877D01*
X1347036Y205933D01*
X1347016Y205959D01*
X1345369Y207223D01*
X1343451Y208018D01*
X1341393Y208289D01*
X1336589D01*
X1334531Y208018D01*
X1332613Y207223D01*
X1330990Y205978D01*
X1329367Y207223D01*
X1327449Y208018D01*
X1325390Y208289D01*
X1320587D01*
X1318529Y208018D01*
X1316611Y207223D01*
X1314963Y205959D01*
X1314313Y205111D01*
X1241112D01*
X1239122Y204849D01*
X1237269Y204082D01*
X1235677Y202860D01*
X1211190Y178374D01*
X1191679D01*
X1190221Y181894D01*
X1228767Y220440D01*
X1314313D01*
X1314963Y219592D01*
X1316611Y218328D01*
X1318529Y217534D01*
X1320587Y217263D01*
X1325390D01*
X1327449Y217534D01*
X1329367Y218328D01*
X1330990Y219573D01*
X1332613Y218328D01*
X1334531Y217534D01*
X1336589Y217263D01*
X1341393D01*
X1343451Y217534D01*
X1345369Y218328D01*
X1347016Y219592D01*
X1347593Y219630D01*
X1347888Y219335D01*
X1350349Y217914D01*
X1353095Y217178D01*
X1355937D01*
X1358683Y217914D01*
X1361144Y219335D01*
X1363154Y221345D01*
X1364575Y223807D01*
X1365311Y226552D01*
Y229394D01*
X1364575Y232140D01*
X1363154Y234602D01*
X1361144Y236611D01*
X1358683Y238033D01*
X1355937Y238768D01*
X1353095D01*
X1350349Y238033D01*
X1347888Y236611D01*
X1347879Y236603D01*
X1347016Y236659D01*
X1345369Y237923D01*
X1343451Y238718D01*
X1341393Y238989D01*
X1336589D01*
X1334531Y238718D01*
X1332613Y237923D01*
X1330990Y236678D01*
X1329367Y237923D01*
X1327449Y238718D01*
X1325390Y238989D01*
X1320587D01*
X1318529Y238718D01*
X1316611Y237923D01*
X1314963Y236659D01*
X1314313Y235811D01*
X1225584D01*
X1225584Y235811D01*
X1223594Y235550D01*
X1221741Y234782D01*
X1220149Y233560D01*
X1220149Y233560D01*
X1175122Y188534D01*
X1161012D01*
X1158624Y191921D01*
X1159463Y193951D01*
X1159902Y194372D01*
X1165352D01*
X1167342Y194634D01*
X1169195Y195402D01*
X1170787Y196623D01*
X1225304Y251140D01*
X1314313D01*
X1314963Y250292D01*
X1316611Y249028D01*
X1318529Y248234D01*
X1320587Y247963D01*
X1325390D01*
X1327449Y248234D01*
X1329367Y249028D01*
X1330990Y250273D01*
X1332613Y249028D01*
X1334531Y248234D01*
X1336589Y247963D01*
X1341393D01*
X1343451Y248234D01*
X1345369Y249028D01*
X1347016Y250292D01*
X1347667Y251140D01*
X1419555D01*
X1457064Y213631D01*
D02*
G37*
G36*
X467396Y-95614D02*
X470337Y-98334D01*
Y-99314D01*
X482792D01*
Y-101854D01*
X470337D01*
Y-102834D01*
X467396Y-105554D01*
X467298Y-105598D01*
X465408D01*
X464456Y-104646D01*
X461994Y-103225D01*
X459249Y-102489D01*
X456406D01*
X453661Y-103225D01*
X451199Y-104646D01*
X449641Y-106204D01*
X441536D01*
X440680Y-105606D01*
X438586Y-103142D01*
X438725Y-102443D01*
Y-100779D01*
X431788D01*
X424850D01*
Y-102443D01*
X425165Y-104023D01*
X425203Y-104080D01*
X425017Y-104694D01*
X423374Y-105955D01*
X422114Y-107597D01*
X421322Y-109509D01*
X421052Y-111561D01*
Y-117429D01*
X420289Y-118298D01*
X405012D01*
X400626Y-113913D01*
X418969Y-95570D01*
X424025D01*
X424850Y-96575D01*
Y-98239D01*
X431788D01*
X438725D01*
Y-96575D01*
X439550Y-95570D01*
X467298D01*
X467396Y-95614D01*
D02*
G37*
G36*
X653288Y-133298D02*
X670621D01*
X672079Y-136818D01*
X664944Y-143952D01*
X598648D01*
X597897Y-143037D01*
Y-139632D01*
X592328D01*
Y-137092D01*
X597897D01*
Y-135100D01*
X607249D01*
Y-128672D01*
X608884Y-127418D01*
X610138Y-125783D01*
X610927Y-123880D01*
X611195Y-121837D01*
Y-112487D01*
X610927Y-110444D01*
X610138Y-108541D01*
X609514Y-107727D01*
Y-106782D01*
X609514Y-106782D01*
X609476Y-106492D01*
X611613Y-103259D01*
X612501Y-102682D01*
X653288D01*
Y-133298D01*
D02*
G37*
%LPC*%
G36*
X243575Y561103D02*
X242845D01*
X241074Y560751D01*
X239572Y559747D01*
X238569Y558245D01*
X238216Y556474D01*
Y555244D01*
X243575D01*
Y561103D01*
D02*
G37*
G36*
X123627D02*
X122897D01*
X121125Y560751D01*
X119624Y559747D01*
X118620Y558245D01*
X118268Y556474D01*
Y555244D01*
X123627D01*
Y561103D01*
D02*
G37*
G36*
X5080D02*
X4350D01*
X2579Y560751D01*
X1077Y559747D01*
X73Y558245D01*
X-279Y556474D01*
Y555244D01*
X5080D01*
Y561103D01*
D02*
G37*
G36*
Y552704D02*
X-279D01*
Y551474D01*
X73Y549703D01*
X1077Y548201D01*
X2579Y547197D01*
X4350Y546845D01*
X5080D01*
Y552704D01*
D02*
G37*
G36*
X442076Y565719D02*
X437272D01*
X435214Y565448D01*
X433296Y564654D01*
X431673Y563408D01*
X430050Y564654D01*
X428132Y565448D01*
X426073Y565719D01*
X421270D01*
X419212Y565448D01*
X417294Y564654D01*
X415646Y563390D01*
X414996Y562542D01*
X384602D01*
X383005Y563768D01*
X380974Y564609D01*
X378794Y564896D01*
X374794D01*
X372614Y564609D01*
X370583Y563768D01*
X368839Y562429D01*
X367685Y560926D01*
X366794Y561103D01*
X366064D01*
Y553974D01*
Y546845D01*
X366794D01*
X367685Y547022D01*
X368839Y545519D01*
X370583Y544180D01*
X372614Y543339D01*
X374794Y543052D01*
X378794D01*
X380974Y543339D01*
X383005Y544180D01*
X384749Y545519D01*
X386016Y547170D01*
X414996D01*
X415646Y546323D01*
X417294Y545059D01*
X419212Y544264D01*
X421270Y543993D01*
X426073D01*
X428132Y544264D01*
X430050Y545059D01*
X431673Y546304D01*
X433296Y545059D01*
X435214Y544264D01*
X437272Y543993D01*
X442076D01*
X444134Y544264D01*
X446052Y545059D01*
X447700Y546323D01*
X447777Y546423D01*
X451843Y546605D01*
X452350Y546098D01*
X454811Y544677D01*
X457557Y543941D01*
X460399D01*
X463145Y544677D01*
X465606Y546098D01*
X467616Y548108D01*
X469037Y550569D01*
X469773Y553315D01*
Y556157D01*
X469037Y558903D01*
X467616Y561364D01*
X465606Y563374D01*
X463145Y564795D01*
X460399Y565531D01*
X457557D01*
X454811Y564795D01*
X452350Y563374D01*
X451893Y562918D01*
X447933Y563086D01*
X447700Y563390D01*
X446052Y564654D01*
X444134Y565448D01*
X442076Y565719D01*
D02*
G37*
G36*
X363524Y561103D02*
X362794D01*
X361022Y560751D01*
X359521Y559747D01*
X358517Y558245D01*
X358165Y556474D01*
Y555244D01*
X363524D01*
Y561103D01*
D02*
G37*
G36*
Y552704D02*
X358165D01*
Y551474D01*
X358517Y549703D01*
X359521Y548201D01*
X361022Y547197D01*
X362794Y546845D01*
X363524D01*
Y552704D01*
D02*
G37*
G36*
X1510773Y543449D02*
X1501903D01*
Y534579D01*
X1510773D01*
Y543449D01*
D02*
G37*
G36*
Y532039D02*
X1501903D01*
Y523169D01*
X1510773D01*
Y532039D01*
D02*
G37*
G36*
X1501968Y513449D02*
X1501903D01*
Y504579D01*
X1510773D01*
Y504644D01*
X1510082Y507223D01*
X1508747Y509535D01*
X1506859Y511423D01*
X1504547Y512758D01*
X1501968Y513449D01*
D02*
G37*
G36*
Y483449D02*
X1501903D01*
Y474579D01*
X1510773D01*
Y474644D01*
X1510082Y477223D01*
X1508747Y479535D01*
X1506859Y481423D01*
X1504547Y482758D01*
X1501968Y483449D01*
D02*
G37*
G36*
Y453449D02*
X1501903D01*
Y444579D01*
X1510773D01*
Y444644D01*
X1510082Y447223D01*
X1508747Y449535D01*
X1506859Y451423D01*
X1504547Y452758D01*
X1501968Y453449D01*
D02*
G37*
G36*
Y423449D02*
X1501903D01*
Y414579D01*
X1510773D01*
Y414644D01*
X1510082Y417223D01*
X1508747Y419535D01*
X1506859Y421423D01*
X1504547Y422758D01*
X1501968Y423449D01*
D02*
G37*
G36*
Y393449D02*
X1501903D01*
Y384579D01*
X1510773D01*
Y384644D01*
X1510082Y387223D01*
X1508747Y389535D01*
X1506859Y391423D01*
X1504547Y392758D01*
X1501968Y393449D01*
D02*
G37*
G36*
Y363449D02*
X1501903D01*
Y354579D01*
X1510773D01*
Y354644D01*
X1510082Y357223D01*
X1508747Y359535D01*
X1506859Y361423D01*
X1504547Y362758D01*
X1501968Y363449D01*
D02*
G37*
G36*
Y333449D02*
X1501903D01*
Y324579D01*
X1510773D01*
Y324644D01*
X1510082Y327223D01*
X1508747Y329535D01*
X1506859Y331423D01*
X1504547Y332758D01*
X1501968Y333449D01*
D02*
G37*
G36*
X1510772Y220508D02*
X1501902D01*
Y211638D01*
X1510772D01*
Y220508D01*
D02*
G37*
G36*
Y209098D02*
X1501902D01*
Y200228D01*
X1510772D01*
Y209098D01*
D02*
G37*
G36*
X1501967Y190508D02*
X1501902D01*
Y181638D01*
X1510772D01*
Y181703D01*
X1510081Y184282D01*
X1508746Y186594D01*
X1506858Y188482D01*
X1504546Y189817D01*
X1501967Y190508D01*
D02*
G37*
G36*
Y160508D02*
X1501902D01*
Y151638D01*
X1510772D01*
Y151703D01*
X1510081Y154282D01*
X1508746Y156594D01*
X1506858Y158482D01*
X1504546Y159817D01*
X1501967Y160508D01*
D02*
G37*
G36*
Y130508D02*
X1501902D01*
Y121638D01*
X1510772D01*
Y121703D01*
X1510081Y124282D01*
X1508746Y126594D01*
X1506858Y128482D01*
X1504546Y129817D01*
X1501967Y130508D01*
D02*
G37*
G36*
Y100508D02*
X1501902D01*
Y91638D01*
X1510772D01*
Y91703D01*
X1510081Y94282D01*
X1508746Y96594D01*
X1506858Y98482D01*
X1504546Y99817D01*
X1501967Y100508D01*
D02*
G37*
G36*
X944148Y80010D02*
X938353D01*
Y74723D01*
X939993D01*
X941583Y75040D01*
X942931Y75940D01*
X943832Y77288D01*
X944148Y78878D01*
Y80010D01*
D02*
G37*
G36*
X935813D02*
X930019D01*
Y78878D01*
X930335Y77288D01*
X931236Y75940D01*
X932584Y75040D01*
X934174Y74723D01*
X935813D01*
Y80010D01*
D02*
G37*
G36*
X861878D02*
X856083D01*
Y74723D01*
X857723D01*
X859313Y75040D01*
X860661Y75940D01*
X861562Y77288D01*
X861878Y78878D01*
Y80010D01*
D02*
G37*
G36*
X853543D02*
X847748D01*
Y78878D01*
X848065Y77288D01*
X848965Y75940D01*
X850313Y75040D01*
X851904Y74723D01*
X853543D01*
Y80010D01*
D02*
G37*
G36*
X779608D02*
X773813D01*
Y74723D01*
X775453D01*
X777043Y75040D01*
X778391Y75940D01*
X779292Y77288D01*
X779608Y78878D01*
Y80010D01*
D02*
G37*
G36*
X771273D02*
X765478D01*
Y78878D01*
X765795Y77288D01*
X766695Y75940D01*
X768043Y75040D01*
X769633Y74723D01*
X771273D01*
Y80010D01*
D02*
G37*
G36*
X697338D02*
X691543D01*
Y74723D01*
X693182D01*
X694772Y75040D01*
X696121Y75940D01*
X697021Y77288D01*
X697338Y78878D01*
Y80010D01*
D02*
G37*
G36*
X689003D02*
X683208D01*
Y78878D01*
X683524Y77288D01*
X684425Y75940D01*
X685773Y75040D01*
X687363Y74723D01*
X689003D01*
Y80010D01*
D02*
G37*
G36*
X615067D02*
X609273D01*
Y74723D01*
X610912D01*
X612502Y75040D01*
X613850Y75940D01*
X614751Y77288D01*
X615067Y78878D01*
Y80010D01*
D02*
G37*
G36*
X606733D02*
X600938D01*
Y78878D01*
X601254Y77288D01*
X602155Y75940D01*
X603503Y75040D01*
X605093Y74723D01*
X606733D01*
Y80010D01*
D02*
G37*
G36*
X532797D02*
X527002D01*
Y74723D01*
X528642D01*
X530232Y75040D01*
X531580Y75940D01*
X532481Y77288D01*
X532797Y78878D01*
Y80010D01*
D02*
G37*
G36*
X524463D02*
X518668D01*
Y78878D01*
X518984Y77288D01*
X519885Y75940D01*
X521233Y75040D01*
X522823Y74723D01*
X524463D01*
Y80010D01*
D02*
G37*
G36*
X450527D02*
X444732D01*
Y74723D01*
X446372D01*
X447962Y75040D01*
X449310Y75940D01*
X450211Y77288D01*
X450527Y78878D01*
Y80010D01*
D02*
G37*
G36*
X442192D02*
X436397D01*
Y78878D01*
X436714Y77288D01*
X437615Y75940D01*
X438963Y75040D01*
X440553Y74723D01*
X442192D01*
Y80010D01*
D02*
G37*
G36*
X368257D02*
X362462D01*
Y74723D01*
X364102D01*
X365692Y75040D01*
X367040Y75940D01*
X367941Y77288D01*
X368257Y78878D01*
Y80010D01*
D02*
G37*
G36*
X359922D02*
X354127D01*
Y78878D01*
X354444Y77288D01*
X355344Y75940D01*
X356692Y75040D01*
X358283Y74723D01*
X359922D01*
Y80010D01*
D02*
G37*
G36*
X903123Y79993D02*
X897456D01*
Y74199D01*
X898992D01*
X900573Y74514D01*
X901913Y75409D01*
X902809Y76749D01*
X903123Y78330D01*
Y79993D01*
D02*
G37*
G36*
X894916D02*
X889249D01*
Y78330D01*
X889563Y76749D01*
X890458Y75409D01*
X891798Y74514D01*
X893379Y74199D01*
X894916D01*
Y79993D01*
D02*
G37*
G36*
X820853Y79993D02*
X815185D01*
Y74199D01*
X816722D01*
X818303Y74514D01*
X819643Y75409D01*
X820539Y76749D01*
X820853Y78330D01*
Y79993D01*
D02*
G37*
G36*
X812645D02*
X806978D01*
Y78330D01*
X807293Y76749D01*
X808188Y75409D01*
X809528Y74514D01*
X811109Y74199D01*
X812645D01*
Y79993D01*
D02*
G37*
G36*
X738583Y79993D02*
X732915D01*
Y74199D01*
X734452D01*
X736033Y74514D01*
X737373Y75409D01*
X738268Y76749D01*
X738583Y78330D01*
Y79993D01*
D02*
G37*
G36*
X730375D02*
X724708D01*
Y78330D01*
X725023Y76749D01*
X725918Y75409D01*
X727258Y74514D01*
X728839Y74199D01*
X730375D01*
Y79993D01*
D02*
G37*
G36*
X656313Y79993D02*
X650645D01*
Y74199D01*
X652182D01*
X653763Y74514D01*
X655103Y75409D01*
X655998Y76749D01*
X656313Y78330D01*
Y79993D01*
D02*
G37*
G36*
X648105D02*
X642438D01*
Y78330D01*
X642752Y76749D01*
X643648Y75409D01*
X644988Y74514D01*
X646569Y74199D01*
X648105D01*
Y79993D01*
D02*
G37*
G36*
X574042Y79993D02*
X568375D01*
Y74199D01*
X569912D01*
X571493Y74514D01*
X572833Y75409D01*
X573728Y76749D01*
X574042Y78330D01*
Y79993D01*
D02*
G37*
G36*
X565835D02*
X560168D01*
Y78330D01*
X560482Y76749D01*
X561377Y75409D01*
X562718Y74514D01*
X564298Y74199D01*
X565835D01*
Y79993D01*
D02*
G37*
G36*
X491772Y79993D02*
X486105D01*
Y74199D01*
X487642D01*
X489222Y74514D01*
X490562Y75409D01*
X491458Y76749D01*
X491772Y78330D01*
Y79993D01*
D02*
G37*
G36*
X483565D02*
X477897D01*
Y78330D01*
X478212Y76749D01*
X479107Y75409D01*
X480447Y74514D01*
X482028Y74199D01*
X483565D01*
Y79993D01*
D02*
G37*
G36*
X409502Y79993D02*
X403835D01*
Y74199D01*
X405371D01*
X406952Y74514D01*
X408292Y75409D01*
X409188Y76749D01*
X409502Y78330D01*
Y79993D01*
D02*
G37*
G36*
X401295D02*
X395627D01*
Y78330D01*
X395942Y76749D01*
X396837Y75409D01*
X398177Y74514D01*
X399758Y74199D01*
X401295D01*
Y79993D01*
D02*
G37*
G36*
X327232Y79993D02*
X321564D01*
Y74199D01*
X323101D01*
X324682Y74514D01*
X326022Y75409D01*
X326917Y76749D01*
X327232Y78330D01*
Y79993D01*
D02*
G37*
G36*
X319024D02*
X313357D01*
Y78330D01*
X313671Y76749D01*
X314567Y75409D01*
X315907Y74514D01*
X317488Y74199D01*
X319024D01*
Y79993D01*
D02*
G37*
G36*
X1501967Y70508D02*
X1501902D01*
Y61638D01*
X1510772D01*
Y61703D01*
X1510081Y64282D01*
X1508746Y66594D01*
X1506858Y68482D01*
X1504546Y69817D01*
X1501967Y70508D01*
D02*
G37*
G36*
X1187149Y48768D02*
X1181354D01*
Y43481D01*
X1182994D01*
X1184584Y43797D01*
X1185932Y44698D01*
X1186833Y46046D01*
X1187149Y47636D01*
Y48768D01*
D02*
G37*
G36*
X1178814D02*
X1173019D01*
Y47636D01*
X1173335Y46046D01*
X1174236Y44698D01*
X1175584Y43797D01*
X1177174Y43481D01*
X1178814D01*
Y48768D01*
D02*
G37*
G36*
X1104879D02*
X1099084D01*
Y43481D01*
X1100723D01*
X1102314Y43797D01*
X1103662Y44698D01*
X1104562Y46046D01*
X1104879Y47636D01*
Y48768D01*
D02*
G37*
G36*
X1096544D02*
X1090749D01*
Y47636D01*
X1091065Y46046D01*
X1091966Y44698D01*
X1093314Y43797D01*
X1094904Y43481D01*
X1096544D01*
Y48768D01*
D02*
G37*
G36*
X1022608D02*
X1016814D01*
Y43481D01*
X1018453D01*
X1020043Y43797D01*
X1021391Y44698D01*
X1022292Y46046D01*
X1022608Y47636D01*
Y48768D01*
D02*
G37*
G36*
X1014274D02*
X1008479D01*
Y47636D01*
X1008795Y46046D01*
X1009696Y44698D01*
X1011044Y43797D01*
X1012634Y43481D01*
X1014274D01*
Y48768D01*
D02*
G37*
G36*
X1146124Y48751D02*
X1140456D01*
Y42957D01*
X1141993D01*
X1143574Y43271D01*
X1144914Y44167D01*
X1145809Y45507D01*
X1146124Y47088D01*
Y48751D01*
D02*
G37*
G36*
X1137916D02*
X1132249D01*
Y47088D01*
X1132563Y45507D01*
X1133459Y44167D01*
X1134799Y43271D01*
X1136380Y42957D01*
X1137916D01*
Y48751D01*
D02*
G37*
G36*
X1063854Y48751D02*
X1058186D01*
Y42957D01*
X1059723D01*
X1061304Y43271D01*
X1062644Y44167D01*
X1063539Y45507D01*
X1063854Y47088D01*
Y48751D01*
D02*
G37*
G36*
X1055646D02*
X1049979D01*
Y47088D01*
X1050293Y45507D01*
X1051189Y44167D01*
X1052529Y43271D01*
X1054109Y42957D01*
X1055646D01*
Y48751D01*
D02*
G37*
G36*
X981583Y48751D02*
X975916D01*
Y42957D01*
X977453D01*
X979034Y43271D01*
X980374Y44167D01*
X981269Y45507D01*
X981583Y47088D01*
Y48751D01*
D02*
G37*
G36*
X973376D02*
X967709D01*
Y47088D01*
X968023Y45507D01*
X968919Y44167D01*
X970259Y43271D01*
X971839Y42957D01*
X973376D01*
Y48751D01*
D02*
G37*
G36*
X1501967Y40508D02*
X1501902D01*
Y31638D01*
X1510772D01*
Y31703D01*
X1510081Y34282D01*
X1508746Y36594D01*
X1506858Y38482D01*
X1504546Y39817D01*
X1501967Y40508D01*
D02*
G37*
G36*
X1373630Y14432D02*
X1346798D01*
X1344809Y14170D01*
X1342955Y13402D01*
X1341363Y12181D01*
X1339875Y10693D01*
X1339587Y10316D01*
X1338718Y10025D01*
X1335902D01*
X1335033Y10316D01*
X1334745Y10693D01*
X1333257Y12181D01*
X1331665Y13402D01*
X1329811Y14170D01*
X1327822Y14432D01*
X1300510D01*
X1298521Y14170D01*
X1296667Y13402D01*
X1295075Y12181D01*
X1295075Y12181D01*
X1234888Y-48007D01*
X1233906Y-47744D01*
X1230233D01*
X1226685Y-48695D01*
X1223504Y-50531D01*
X1220907Y-53128D01*
X1219071Y-56309D01*
X1218120Y-59858D01*
Y-63531D01*
X1219071Y-67078D01*
X1220907Y-70259D01*
X1223504Y-72857D01*
X1226685Y-74693D01*
X1226792Y-74722D01*
Y-78666D01*
X1226685Y-78695D01*
X1223504Y-80531D01*
X1220907Y-83128D01*
X1219071Y-86309D01*
X1218120Y-89858D01*
Y-93531D01*
X1219071Y-97079D01*
X1220907Y-100260D01*
X1223504Y-102857D01*
X1226685Y-104693D01*
X1230233Y-105644D01*
X1233906D01*
X1237455Y-104693D01*
X1240636Y-102857D01*
X1243233Y-100260D01*
X1245069Y-97079D01*
X1245098Y-96972D01*
X1249042D01*
X1249071Y-97079D01*
X1250907Y-100260D01*
X1253504Y-102857D01*
X1256685Y-104693D01*
X1260233Y-105644D01*
X1263906D01*
X1267455Y-104693D01*
X1270636Y-102857D01*
X1273233Y-100260D01*
X1275069Y-97079D01*
X1275098Y-96972D01*
X1279042D01*
X1279071Y-97079D01*
X1280907Y-100260D01*
X1283504Y-102857D01*
X1286685Y-104693D01*
X1290233Y-105644D01*
X1293907D01*
X1297455Y-104693D01*
X1300636Y-102857D01*
X1303233Y-100260D01*
X1305069Y-97079D01*
X1305098Y-96972D01*
X1309042D01*
X1309071Y-97079D01*
X1310907Y-100260D01*
X1313504Y-102857D01*
X1316685Y-104693D01*
X1320233Y-105644D01*
X1323907D01*
X1327455Y-104693D01*
X1330636Y-102857D01*
X1333233Y-100260D01*
X1335069Y-97079D01*
X1335098Y-96972D01*
X1339042D01*
X1339071Y-97079D01*
X1340907Y-100260D01*
X1343504Y-102857D01*
X1346685Y-104693D01*
X1350233Y-105644D01*
X1353907D01*
X1357455Y-104693D01*
X1360636Y-102857D01*
X1363233Y-100260D01*
X1365069Y-97079D01*
X1365098Y-96972D01*
X1369042D01*
X1369071Y-97079D01*
X1370907Y-100260D01*
X1373504Y-102857D01*
X1376685Y-104693D01*
X1380233Y-105644D01*
X1383907D01*
X1387455Y-104693D01*
X1390636Y-102857D01*
X1393233Y-100260D01*
X1395069Y-97079D01*
X1395098Y-96972D01*
X1399042D01*
X1399071Y-97079D01*
X1400907Y-100260D01*
X1403504Y-102857D01*
X1406685Y-104693D01*
X1410233Y-105644D01*
X1413907D01*
X1417455Y-104693D01*
X1420636Y-102857D01*
X1423233Y-100260D01*
X1424310Y-98394D01*
X1428120Y-99415D01*
Y-105644D01*
X1456020D01*
Y-77744D01*
X1449790D01*
X1448770Y-73934D01*
X1450636Y-72857D01*
X1453233Y-70259D01*
X1455069Y-67078D01*
X1456020Y-63531D01*
Y-59858D01*
X1455069Y-56309D01*
X1453233Y-53128D01*
X1450636Y-50531D01*
X1447455Y-48695D01*
X1443907Y-47744D01*
X1440233D01*
X1439252Y-48007D01*
X1379065Y12181D01*
X1377473Y13402D01*
X1375619Y14170D01*
X1373630Y14432D01*
D02*
G37*
G36*
X1501967Y10508D02*
X1501902D01*
Y1638D01*
X1510772D01*
Y1703D01*
X1510081Y4282D01*
X1508746Y6594D01*
X1506858Y8482D01*
X1504546Y9817D01*
X1501967Y10508D01*
D02*
G37*
G36*
X260386Y-1761D02*
X252856D01*
Y-6096D01*
X263741D01*
Y-5116D01*
X263485Y-3832D01*
X262758Y-2744D01*
X261670Y-2017D01*
X260386Y-1761D01*
D02*
G37*
G36*
X353393Y-16129D02*
X347726D01*
Y-21923D01*
X349263D01*
X350843Y-21609D01*
X352183Y-20714D01*
X353079Y-19373D01*
X353393Y-17793D01*
Y-16129D01*
D02*
G37*
G36*
X345186D02*
X339519D01*
Y-17793D01*
X339833Y-19373D01*
X340728Y-20714D01*
X342068Y-21609D01*
X343649Y-21923D01*
X345186D01*
Y-16129D01*
D02*
G37*
G36*
X582861Y36096D02*
X577139D01*
X571488Y35201D01*
X566046Y33433D01*
X560948Y30835D01*
X556320Y27472D01*
X552274Y23426D01*
X548911Y18798D01*
X546313Y13700D01*
X544545Y8258D01*
X543650Y2607D01*
Y-3115D01*
X544545Y-8766D01*
X546313Y-14208D01*
X548911Y-19305D01*
X552274Y-23934D01*
X556320Y-27980D01*
X560948Y-31343D01*
X566046Y-33941D01*
X571488Y-35709D01*
X577139Y-36604D01*
X582861D01*
X588512Y-35709D01*
X593954Y-33941D01*
X599052Y-31343D01*
X603680Y-27980D01*
X607726Y-23934D01*
X611089Y-19305D01*
X613687Y-14208D01*
X615455Y-8766D01*
X616350Y-3115D01*
Y2607D01*
X615455Y8258D01*
X613687Y13700D01*
X611089Y18798D01*
X607726Y23426D01*
X603680Y27472D01*
X599052Y30835D01*
X593954Y33433D01*
X588512Y35201D01*
X582861Y36096D01*
D02*
G37*
G36*
X349263Y-33703D02*
X347726D01*
Y-39497D01*
X353393D01*
Y-37833D01*
X353079Y-36253D01*
X352183Y-34913D01*
X350843Y-34017D01*
X349263Y-33703D01*
D02*
G37*
G36*
X345186D02*
X343649D01*
X342069Y-34017D01*
X340728Y-34913D01*
X339833Y-36253D01*
X339519Y-37833D01*
Y-39497D01*
X345186D01*
Y-33703D01*
D02*
G37*
G36*
X969914Y15306D02*
X967925Y15044D01*
X966071Y14276D01*
X964479Y13055D01*
X964479Y13055D01*
X903418Y-48007D01*
X902437Y-47744D01*
X898763D01*
X895216Y-48695D01*
X892035Y-50531D01*
X889437Y-53128D01*
X887601Y-56309D01*
X886650Y-59858D01*
Y-63531D01*
X887601Y-67078D01*
X889437Y-70259D01*
X892035Y-72857D01*
X895216Y-74693D01*
X895322Y-74722D01*
Y-78666D01*
X895216Y-78695D01*
X892035Y-80531D01*
X889437Y-83128D01*
X887601Y-86309D01*
X886650Y-89858D01*
Y-93531D01*
X887601Y-97079D01*
X889437Y-100260D01*
X892035Y-102857D01*
X895216Y-104693D01*
X898763Y-105644D01*
X902437D01*
X905984Y-104693D01*
X909165Y-102857D01*
X911763Y-100260D01*
X913599Y-97079D01*
X913628Y-96972D01*
X917572D01*
X917601Y-97079D01*
X919437Y-100260D01*
X922035Y-102857D01*
X925216Y-104693D01*
X928763Y-105644D01*
X932437D01*
X935984Y-104693D01*
X939165Y-102857D01*
X941763Y-100260D01*
X943599Y-97079D01*
X943628Y-96972D01*
X947572D01*
X947601Y-97079D01*
X949437Y-100260D01*
X952035Y-102857D01*
X955216Y-104693D01*
X958763Y-105644D01*
X962437D01*
X965984Y-104693D01*
X969165Y-102857D01*
X971763Y-100260D01*
X973599Y-97079D01*
X973628Y-96972D01*
X977572D01*
X977601Y-97079D01*
X979437Y-100260D01*
X982035Y-102857D01*
X985216Y-104693D01*
X988764Y-105644D01*
X992437D01*
X995984Y-104693D01*
X999165Y-102857D01*
X1001763Y-100260D01*
X1003599Y-97079D01*
X1003628Y-96972D01*
X1007572D01*
X1007601Y-97079D01*
X1009437Y-100260D01*
X1012035Y-102857D01*
X1015216Y-104693D01*
X1018763Y-105644D01*
X1022437D01*
X1025984Y-104693D01*
X1029165Y-102857D01*
X1031763Y-100260D01*
X1033599Y-97079D01*
X1033628Y-96972D01*
X1037572D01*
X1037601Y-97079D01*
X1039437Y-100260D01*
X1042035Y-102857D01*
X1045216Y-104693D01*
X1048763Y-105644D01*
X1052437D01*
X1055984Y-104693D01*
X1059165Y-102857D01*
X1061763Y-100260D01*
X1063599Y-97079D01*
X1063628Y-96972D01*
X1067572D01*
X1067601Y-97079D01*
X1069437Y-100260D01*
X1072035Y-102857D01*
X1075216Y-104693D01*
X1078764Y-105644D01*
X1082437D01*
X1085984Y-104693D01*
X1089165Y-102857D01*
X1091763Y-100260D01*
X1092840Y-98394D01*
X1096650Y-99415D01*
Y-105644D01*
X1124550D01*
Y-77744D01*
X1118320D01*
X1117300Y-73934D01*
X1119165Y-72857D01*
X1121763Y-70259D01*
X1123599Y-67078D01*
X1124550Y-63531D01*
Y-59858D01*
X1123599Y-56309D01*
X1121763Y-53128D01*
X1119165Y-50531D01*
X1115984Y-48695D01*
X1112437Y-47744D01*
X1108763D01*
X1107782Y-48007D01*
X1046721Y13055D01*
X1045129Y14276D01*
X1043275Y15044D01*
X1041286Y15306D01*
X1013296D01*
X1011307Y15044D01*
X1009453Y14276D01*
X1007861Y13055D01*
X1006373Y11567D01*
X1006085Y11190D01*
X1005216Y10899D01*
X1002400D01*
X1001531Y11190D01*
X1001243Y11567D01*
X999755Y13055D01*
X998163Y14276D01*
X996309Y15044D01*
X994320Y15306D01*
X969914D01*
X969914Y15306D01*
D02*
G37*
G36*
X553098Y-51863D02*
X551966D01*
Y-57658D01*
X557253D01*
Y-56018D01*
X556937Y-54428D01*
X556036Y-53080D01*
X554688Y-52179D01*
X553098Y-51863D01*
D02*
G37*
G36*
X557253Y-60198D02*
X551966D01*
Y-65993D01*
X553098D01*
X554688Y-65676D01*
X556036Y-64776D01*
X556937Y-63428D01*
X557253Y-61838D01*
Y-60198D01*
D02*
G37*
G36*
X753872Y514968D02*
X753623D01*
X750688Y514182D01*
X748056Y512662D01*
X745908Y510514D01*
X744424Y507943D01*
X744178Y507882D01*
X740706D01*
X740460Y507943D01*
X738976Y510514D01*
X736828Y512662D01*
X734196Y514182D01*
X731261Y514968D01*
X731012D01*
Y503428D01*
Y491888D01*
X731261D01*
X734196Y492674D01*
X736828Y494194D01*
X738976Y496342D01*
X740460Y498913D01*
X740706Y498974D01*
X744178D01*
X744424Y498913D01*
X745908Y496342D01*
X748056Y494194D01*
X750688Y492674D01*
X753623Y491888D01*
X753872D01*
Y503428D01*
Y514968D01*
D02*
G37*
G36*
X728472D02*
X728223D01*
X725288Y514182D01*
X722656Y512662D01*
X720508Y510514D01*
X719024Y507943D01*
X718778Y507882D01*
X715306D01*
X715060Y507943D01*
X713576Y510514D01*
X711428Y512662D01*
X708796Y514182D01*
X705861Y514968D01*
X705612D01*
Y503428D01*
Y491888D01*
X705861D01*
X708796Y492674D01*
X711428Y494194D01*
X713576Y496342D01*
X715060Y498913D01*
X715306Y498974D01*
X718778D01*
X719024Y498913D01*
X720508Y496342D01*
X722656Y494194D01*
X725288Y492674D01*
X728223Y491888D01*
X728472D01*
Y503428D01*
Y514968D01*
D02*
G37*
G36*
X680454Y518778D02*
X677430D01*
X674465Y518188D01*
X671671Y517031D01*
X669157Y515351D01*
X667019Y513213D01*
X665339Y510699D01*
X664182Y507905D01*
X663592Y504940D01*
Y501916D01*
X664182Y498951D01*
X665339Y496157D01*
X667019Y493643D01*
X669157Y491505D01*
X671671Y489825D01*
X674465Y488668D01*
X677430Y488078D01*
X680454D01*
X683419Y488668D01*
X686213Y489825D01*
X688727Y491505D01*
X690865Y493643D01*
X691617Y494768D01*
X692419Y495130D01*
X695426Y495404D01*
X696266Y495184D01*
X697256Y494194D01*
X699888Y492674D01*
X702823Y491888D01*
X703072D01*
Y503428D01*
Y514968D01*
X702823D01*
X699888Y514182D01*
X697256Y512662D01*
X696266Y511672D01*
X695426Y511452D01*
X692419Y511726D01*
X691617Y512088D01*
X690865Y513213D01*
X688727Y515351D01*
X686213Y517031D01*
X683419Y518188D01*
X680454Y518778D01*
D02*
G37*
G36*
X758559Y450167D02*
X756895D01*
X755314Y449853D01*
X753974Y448957D01*
X753079Y447617D01*
X752764Y446037D01*
Y444500D01*
X758559D01*
Y450167D01*
D02*
G37*
G36*
Y441960D02*
X752764D01*
Y440423D01*
X753079Y438843D01*
X753974Y437503D01*
X755314Y436607D01*
X756895Y436293D01*
X758559D01*
Y441960D01*
D02*
G37*
G36*
Y425529D02*
X756895D01*
X755314Y425215D01*
X753974Y424319D01*
X753079Y422979D01*
X752764Y421399D01*
Y419862D01*
X758559D01*
Y425529D01*
D02*
G37*
G36*
Y417322D02*
X752764D01*
Y415785D01*
X753079Y414205D01*
X753974Y412864D01*
X755314Y411969D01*
X756895Y411655D01*
X758559D01*
Y417322D01*
D02*
G37*
G36*
X906272Y514968D02*
X906023D01*
X903088Y514182D01*
X900456Y512662D01*
X898308Y510514D01*
X896824Y507943D01*
X896578Y507882D01*
X893106D01*
X892860Y507943D01*
X891376Y510514D01*
X889228Y512662D01*
X886596Y514182D01*
X883661Y514968D01*
X883412D01*
Y503428D01*
Y491888D01*
X883661D01*
X886596Y492674D01*
X889228Y494194D01*
X891376Y496342D01*
X892860Y498913D01*
X893106Y498974D01*
X896578D01*
X896824Y498913D01*
X898308Y496342D01*
X900456Y494194D01*
X903088Y492674D01*
X906023Y491888D01*
X906272D01*
Y503428D01*
Y514968D01*
D02*
G37*
G36*
X931672D02*
X931423D01*
X928488Y514182D01*
X925856Y512662D01*
X923708Y510514D01*
X922224Y507943D01*
X921978Y507882D01*
X918506D01*
X918260Y507943D01*
X916776Y510514D01*
X914628Y512662D01*
X911996Y514182D01*
X909061Y514968D01*
X908812D01*
Y503428D01*
Y491888D01*
X909061D01*
X911996Y492674D01*
X914628Y494194D01*
X916776Y496342D01*
X918260Y498913D01*
X918506Y498974D01*
X921978D01*
X922224Y498913D01*
X923708Y496342D01*
X925856Y494194D01*
X928488Y492674D01*
X931423Y491888D01*
X931672D01*
Y503428D01*
Y514968D01*
D02*
G37*
G36*
X881647Y450421D02*
X879983D01*
Y444754D01*
X885777D01*
Y446291D01*
X885463Y447871D01*
X884567Y449212D01*
X883227Y450107D01*
X881647Y450421D01*
D02*
G37*
G36*
X885777Y442214D02*
X879983D01*
Y436547D01*
X881647D01*
X883227Y436861D01*
X884567Y437757D01*
X885463Y439096D01*
X885777Y440677D01*
Y442214D01*
D02*
G37*
G36*
X892990Y424596D02*
X889760D01*
Y410718D01*
X898639D01*
Y418948D01*
X898208Y421110D01*
X896984Y422942D01*
X895152Y424167D01*
X892990Y424596D01*
D02*
G37*
G36*
X1154940Y407752D02*
X1143020D01*
Y395232D01*
X1154940D01*
Y407752D01*
D02*
G37*
G36*
X1140480D02*
X1128560D01*
Y395232D01*
X1140480D01*
Y407752D01*
D02*
G37*
G36*
X898639Y408178D02*
X889760D01*
Y394300D01*
X892990D01*
X895152Y394729D01*
X896984Y395954D01*
X898208Y397786D01*
X898639Y399948D01*
Y408178D01*
D02*
G37*
G36*
X804672Y514968D02*
X804423D01*
X801488Y514182D01*
X798856Y512662D01*
X796708Y510514D01*
X795224Y507943D01*
X794978Y507882D01*
X791506D01*
X791260Y507943D01*
X789776Y510514D01*
X787628Y512662D01*
X784996Y514182D01*
X782061Y514968D01*
X781812D01*
Y503428D01*
Y491888D01*
X782061D01*
X784996Y492674D01*
X787628Y494194D01*
X789776Y496342D01*
X791260Y498913D01*
X791506Y498974D01*
X794978D01*
X795224Y498913D01*
X796708Y496342D01*
X798856Y494194D01*
X801488Y492674D01*
X804423Y491888D01*
X804672D01*
Y503428D01*
Y514968D01*
D02*
G37*
G36*
X855472D02*
X855223D01*
X852288Y514182D01*
X849656Y512662D01*
X847508Y510514D01*
X846024Y507943D01*
X845778Y507882D01*
X842306D01*
X842060Y507943D01*
X840576Y510514D01*
X838428Y512662D01*
X835796Y514182D01*
X832861Y514968D01*
X832612D01*
Y503428D01*
Y491888D01*
X832861D01*
X835796Y492674D01*
X838428Y494194D01*
X840576Y496342D01*
X842060Y498913D01*
X842306Y498974D01*
X845778D01*
X846024Y498913D01*
X847508Y496342D01*
X849656Y494194D01*
X852288Y492674D01*
X855223Y491888D01*
X855472D01*
Y503428D01*
Y514968D01*
D02*
G37*
G36*
X830072D02*
X829823D01*
X826888Y514182D01*
X824256Y512662D01*
X822108Y510514D01*
X820624Y507943D01*
X820378Y507882D01*
X816906D01*
X816660Y507943D01*
X815176Y510514D01*
X813028Y512662D01*
X810396Y514182D01*
X807461Y514968D01*
X807212D01*
Y503428D01*
Y491888D01*
X807461D01*
X810396Y492674D01*
X813028Y494194D01*
X815176Y496342D01*
X816660Y498913D01*
X816906Y498974D01*
X820378D01*
X820624Y498913D01*
X822108Y496342D01*
X824256Y494194D01*
X826888Y492674D01*
X829823Y491888D01*
X830072D01*
Y503428D01*
Y514968D01*
D02*
G37*
G36*
X862457Y450421D02*
X860793D01*
X859213Y450107D01*
X857872Y449212D01*
X856977Y447871D01*
X856663Y446291D01*
Y444754D01*
X862457D01*
Y450421D01*
D02*
G37*
G36*
X777748Y450167D02*
X776085D01*
Y444500D01*
X781879D01*
Y446037D01*
X781564Y447617D01*
X780669Y448957D01*
X779329Y449853D01*
X777748Y450167D01*
D02*
G37*
G36*
X862457Y442214D02*
X856663D01*
Y440677D01*
X856977Y439096D01*
X857872Y437757D01*
X859213Y436861D01*
X860793Y436547D01*
X862457D01*
Y442214D01*
D02*
G37*
G36*
X781879Y441960D02*
X776085D01*
Y436293D01*
X777748D01*
X779329Y436607D01*
X780669Y437503D01*
X781564Y438843D01*
X781879Y440423D01*
Y441960D01*
D02*
G37*
G36*
X777748Y425529D02*
X776085D01*
Y419862D01*
X781879D01*
Y421399D01*
X781564Y422979D01*
X780669Y424319D01*
X779329Y425215D01*
X777748Y425529D01*
D02*
G37*
G36*
X781879Y417322D02*
X776085D01*
Y411655D01*
X777748D01*
X779329Y411969D01*
X780669Y412864D01*
X781564Y414205D01*
X781879Y415785D01*
Y417322D01*
D02*
G37*
G36*
X855220Y424596D02*
X851990D01*
X849828Y424167D01*
X847996Y422942D01*
X846771Y421110D01*
X846341Y418948D01*
Y410718D01*
X855220D01*
Y424596D01*
D02*
G37*
G36*
Y408178D02*
X846341D01*
Y399948D01*
X846771Y397786D01*
X847996Y395954D01*
X849828Y394729D01*
X851990Y394300D01*
X855220D01*
Y408178D01*
D02*
G37*
G36*
X1024763Y350853D02*
X1023099D01*
X1021519Y350539D01*
X1020179Y349644D01*
X1019283Y348303D01*
X1018969Y346723D01*
Y345186D01*
X1024763D01*
Y350853D01*
D02*
G37*
G36*
X494171Y350205D02*
X488504D01*
Y344411D01*
X490041D01*
X491621Y344725D01*
X492962Y345620D01*
X493857Y346960D01*
X494171Y348541D01*
Y350205D01*
D02*
G37*
G36*
X485964D02*
X480297D01*
Y348541D01*
X480611Y346960D01*
X481507Y345620D01*
X482847Y344725D01*
X484427Y344411D01*
X485964D01*
Y350205D01*
D02*
G37*
G36*
X1024763Y342646D02*
X1018969D01*
Y341109D01*
X1019283Y339529D01*
X1020179Y338189D01*
X1021519Y337293D01*
X1023099Y336979D01*
X1024763D01*
Y342646D01*
D02*
G37*
G36*
X809161Y226433D02*
X803494D01*
Y220639D01*
X805031D01*
X806611Y220953D01*
X807952Y221848D01*
X808847Y223188D01*
X809161Y224769D01*
Y226433D01*
D02*
G37*
G36*
X800954D02*
X795287D01*
Y224769D01*
X795601Y223188D01*
X796497Y221848D01*
X797837Y220953D01*
X799417Y220639D01*
X800954D01*
Y226433D01*
D02*
G37*
G36*
X732795Y226433D02*
X727128D01*
Y220639D01*
X728664D01*
X730245Y220953D01*
X731585Y221848D01*
X732480Y223188D01*
X732795Y224769D01*
Y226433D01*
D02*
G37*
G36*
X724588D02*
X718920D01*
Y224769D01*
X719235Y223188D01*
X720130Y221848D01*
X721470Y220953D01*
X723051Y220639D01*
X724588D01*
Y226433D01*
D02*
G37*
G36*
X656428Y226433D02*
X650761D01*
Y220639D01*
X652298D01*
X653878Y220953D01*
X655219Y221848D01*
X656114Y223188D01*
X656428Y224769D01*
Y226433D01*
D02*
G37*
G36*
X648221D02*
X642554D01*
Y224769D01*
X642868Y223188D01*
X643764Y221848D01*
X645104Y220953D01*
X646684Y220639D01*
X648221D01*
Y226433D01*
D02*
G37*
G36*
X580062Y226433D02*
X574394D01*
Y220639D01*
X575931D01*
X577512Y220953D01*
X578852Y221848D01*
X579747Y223188D01*
X580062Y224769D01*
Y226433D01*
D02*
G37*
G36*
X571855D02*
X566187D01*
Y224769D01*
X566502Y223188D01*
X567397Y221848D01*
X568737Y220953D01*
X570318Y220639D01*
X571855D01*
Y226433D01*
D02*
G37*
G36*
X503695Y226433D02*
X498028D01*
Y220639D01*
X499565D01*
X501145Y220953D01*
X502486Y221848D01*
X503381Y223188D01*
X503695Y224769D01*
Y226433D01*
D02*
G37*
G36*
X495488D02*
X489821D01*
Y224769D01*
X490135Y223188D01*
X491030Y221848D01*
X492370Y220953D01*
X493951Y220639D01*
X495488D01*
Y226433D01*
D02*
G37*
G36*
X847235Y225401D02*
X841440D01*
Y220114D01*
X843079D01*
X844669Y220430D01*
X846018Y221331D01*
X846918Y222679D01*
X847235Y224269D01*
Y225401D01*
D02*
G37*
G36*
X838900D02*
X833105D01*
Y224269D01*
X833421Y222679D01*
X834322Y221331D01*
X835670Y220430D01*
X837260Y220114D01*
X838900D01*
Y225401D01*
D02*
G37*
G36*
X770868D02*
X765073D01*
Y220114D01*
X766713D01*
X768303Y220430D01*
X769651Y221331D01*
X770552Y222679D01*
X770868Y224269D01*
Y225401D01*
D02*
G37*
G36*
X762533D02*
X756738D01*
Y224269D01*
X757055Y222679D01*
X757955Y221331D01*
X759304Y220430D01*
X760894Y220114D01*
X762533D01*
Y225401D01*
D02*
G37*
G36*
X694502D02*
X688707D01*
Y220114D01*
X690346D01*
X691936Y220430D01*
X693285Y221331D01*
X694185Y222679D01*
X694502Y224269D01*
Y225401D01*
D02*
G37*
G36*
X686167D02*
X680372D01*
Y224269D01*
X680688Y222679D01*
X681589Y221331D01*
X682937Y220430D01*
X684527Y220114D01*
X686167D01*
Y225401D01*
D02*
G37*
G36*
X618135D02*
X612340D01*
Y220114D01*
X613980D01*
X615570Y220430D01*
X616918Y221331D01*
X617819Y222679D01*
X618135Y224269D01*
Y225401D01*
D02*
G37*
G36*
X609800D02*
X604005D01*
Y224269D01*
X604322Y222679D01*
X605222Y221331D01*
X606571Y220430D01*
X608161Y220114D01*
X609800D01*
Y225401D01*
D02*
G37*
G36*
X541768D02*
X535974D01*
Y220114D01*
X537613D01*
X539203Y220430D01*
X540551Y221331D01*
X541452Y222679D01*
X541768Y224269D01*
Y225401D01*
D02*
G37*
G36*
X533434D02*
X527639D01*
Y224269D01*
X527955Y222679D01*
X528856Y221331D01*
X530204Y220430D01*
X531794Y220114D01*
X533434D01*
Y225401D01*
D02*
G37*
G36*
X1228655Y581186D02*
X1224449D01*
X1220324Y580365D01*
X1216439Y578756D01*
X1212942Y576420D01*
X1209968Y573446D01*
X1207632Y569949D01*
X1206022Y566064D01*
X1205202Y561939D01*
Y557733D01*
X1206022Y553608D01*
X1207632Y549723D01*
X1209968Y546226D01*
X1212942Y543252D01*
X1216439Y540916D01*
X1220324Y539306D01*
X1224449Y538486D01*
X1228655D01*
X1232780Y539306D01*
X1236665Y540916D01*
X1240162Y543252D01*
X1243136Y546226D01*
X1245472Y549723D01*
X1247082Y553608D01*
X1247902Y557733D01*
Y561939D01*
X1247082Y566064D01*
X1245472Y569949D01*
X1243136Y573446D01*
X1240162Y576420D01*
X1236665Y578756D01*
X1232780Y580365D01*
X1228655Y581186D01*
D02*
G37*
G36*
X1037830Y548738D02*
X1037482D01*
Y537718D01*
X1048502D01*
Y538066D01*
X1047664Y541192D01*
X1046046Y543994D01*
X1043758Y546282D01*
X1040956Y547901D01*
X1037830Y548738D01*
D02*
G37*
G36*
X1034942D02*
X1034594D01*
X1031468Y547901D01*
X1028666Y546282D01*
X1026378Y543994D01*
X1024760Y541192D01*
X1023922Y538066D01*
Y537718D01*
X1034942D01*
Y548738D01*
D02*
G37*
G36*
X1048502Y535178D02*
X1037482D01*
Y524158D01*
X1037830D01*
X1040956Y524995D01*
X1043758Y526614D01*
X1046046Y528902D01*
X1047664Y531704D01*
X1048502Y534830D01*
Y535178D01*
D02*
G37*
G36*
X1034942D02*
X1023922D01*
Y534830D01*
X1024760Y531704D01*
X1026378Y528902D01*
X1028666Y526614D01*
X1031468Y524995D01*
X1034594Y524158D01*
X1034942D01*
Y535178D01*
D02*
G37*
G36*
X1011430Y471140D02*
X998710D01*
Y454270D01*
X1011430D01*
Y471140D01*
D02*
G37*
G36*
X442849Y409273D02*
X441185D01*
X439605Y408959D01*
X438265Y408064D01*
X437369Y406723D01*
X437055Y405143D01*
Y403606D01*
X442849D01*
Y409273D01*
D02*
G37*
G36*
Y401066D02*
X437055D01*
Y399529D01*
X437369Y397949D01*
X438265Y396609D01*
X439605Y395713D01*
X441185Y395399D01*
X442849D01*
Y401066D01*
D02*
G37*
G36*
X127220Y392926D02*
X78520D01*
Y354226D01*
X127220D01*
Y365890D01*
X150785D01*
X150874Y365736D01*
X152884Y363726D01*
X155345Y362305D01*
X158091Y361569D01*
X160933D01*
X163679Y362305D01*
X166140Y363726D01*
X168150Y365736D01*
X169571Y368197D01*
X170307Y370943D01*
Y373785D01*
X169571Y376531D01*
X168150Y378992D01*
X166140Y381002D01*
X163679Y382423D01*
X160933Y383159D01*
X158091D01*
X155345Y382423D01*
X153333Y381262D01*
X127220D01*
Y392926D01*
D02*
G37*
G36*
X123410Y96116D02*
X104140D01*
Y81846D01*
X123410D01*
Y96116D01*
D02*
G37*
G36*
X101600D02*
X82330D01*
Y81846D01*
X101600D01*
Y96116D01*
D02*
G37*
G36*
Y79306D02*
X82330D01*
Y65036D01*
X101600D01*
Y79306D01*
D02*
G37*
G36*
X124539Y-135001D02*
X118872D01*
Y-140795D01*
X120409D01*
X121989Y-140481D01*
X123329Y-139586D01*
X124225Y-138245D01*
X124539Y-136665D01*
Y-135001D01*
D02*
G37*
G36*
X116332D02*
X110665D01*
Y-136665D01*
X110979Y-138245D01*
X111875Y-139586D01*
X113215Y-140481D01*
X114795Y-140795D01*
X116332D01*
Y-135001D01*
D02*
G37*
G36*
X1225282Y432447D02*
X1223642D01*
X1222052Y432131D01*
X1220704Y431230D01*
X1219803Y429882D01*
X1219487Y428292D01*
Y427160D01*
X1225282D01*
Y432447D01*
D02*
G37*
G36*
X1201536D02*
X1199896D01*
Y427160D01*
X1205691D01*
Y428292D01*
X1205375Y429882D01*
X1204474Y431230D01*
X1203126Y432131D01*
X1201536Y432447D01*
D02*
G37*
G36*
X542369Y411861D02*
X536702D01*
Y406067D01*
X538239D01*
X539819Y406381D01*
X541160Y407276D01*
X542055Y408617D01*
X542369Y410197D01*
Y411861D01*
D02*
G37*
G36*
X534162D02*
X528495D01*
Y410197D01*
X528809Y408617D01*
X529705Y407276D01*
X531045Y406381D01*
X532625Y406067D01*
X534162D01*
Y411861D01*
D02*
G37*
G36*
X324358Y367302D02*
X322694D01*
X321114Y366988D01*
X319774Y366092D01*
X318878Y364752D01*
X318564Y363172D01*
Y361635D01*
X324358D01*
Y367302D01*
D02*
G37*
G36*
Y359095D02*
X318564D01*
Y357558D01*
X318878Y355978D01*
X319774Y354637D01*
X321114Y353742D01*
X322694Y353428D01*
X324358D01*
Y359095D01*
D02*
G37*
%LPD*%
D12*
X760001Y-55280D02*
Y-37750D01*
Y-55280D02*
X788287Y-83566D01*
X743999Y-75767D02*
Y-37750D01*
X724770Y-94996D02*
X743999Y-75767D01*
X1226552Y409888D02*
X1261364Y444701D01*
X1184250Y424264D02*
Y489334D01*
Y424264D02*
X1198626Y409888D01*
X1188663Y372000D02*
X1226552Y409888D01*
X1170987Y382250D02*
X1198626Y409888D01*
X1018822Y382250D02*
X1170987D01*
X1079500Y364490D02*
X1200490D01*
X1322989Y486989D02*
Y501904D01*
X1200490Y364490D02*
X1322989Y486989D01*
X1046226Y372000D02*
X1188663D01*
X346974Y582105D02*
X504412D01*
X505900Y576834D02*
Y580617D01*
X319725Y554856D02*
X346974Y582105D01*
X504412D02*
X505900Y580617D01*
X79829Y554856D02*
X98425Y536260D01*
X294539D02*
X328098Y502700D01*
X98425Y536260D02*
X294539D01*
X1207893Y356108D02*
X1322989Y471204D01*
X1184250Y489334D02*
X1211552Y516636D01*
X1261364Y444701D02*
Y496824D01*
X1241552Y516636D02*
X1261364Y496824D01*
X1091184Y356108D02*
X1207893D01*
X1322989Y440139D02*
Y440504D01*
X1230889Y348403D02*
X1319978Y437493D01*
X1320342D02*
X1322989Y440139D01*
X1101259Y348403D02*
X1230889D01*
X1319978Y437493D02*
X1320342D01*
X1322989Y409439D02*
Y409804D01*
X1319978Y406792D02*
X1320342D01*
X1322989Y409439D01*
X1111504Y341376D02*
X1254561D01*
X1319978Y406792D01*
X1322989Y378739D02*
Y379104D01*
X1319978Y376092D02*
X1320342D01*
X1277133Y333248D02*
X1319978Y376092D01*
X1117092Y333248D02*
X1277133D01*
X1320342Y376092D02*
X1322989Y378739D01*
X1127760Y325882D02*
X1300468D01*
X1142949Y317703D02*
X1322989D01*
X1147826Y294258D02*
X1315734D01*
X1222120Y258826D02*
X1322989D01*
X1225584Y228126D02*
X1322989D01*
X1241112Y197425D02*
X1322989D01*
X1240891Y166725D02*
X1322989D01*
X1125474Y151892D02*
X1307122D01*
X1267615Y105325D02*
X1322989D01*
X1273353Y74625D02*
X1322989D01*
X1281065Y43925D02*
X1322989D01*
X1338991D02*
X1414065D01*
X1338991Y74625D02*
X1373630D01*
X1356783Y105325D02*
X1357376Y105918D01*
X1338991Y105325D02*
X1356783D01*
X1338991Y136025D02*
X1354770D01*
X1354228Y166725D02*
X1354262Y166759D01*
X1338991Y166725D02*
X1354228D01*
X1354330Y197425D02*
X1354516Y197239D01*
X1338991Y197425D02*
X1354330D01*
X1354364Y228126D02*
X1354516Y227973D01*
X1338991Y228126D02*
X1354364D01*
X1422738Y258826D02*
X1471140Y210424D01*
X1338991Y258826D02*
X1422738D01*
X1434457Y287003D02*
X1471140Y323686D01*
X1338991Y287003D02*
X1434457D01*
X1353843Y317703D02*
X1354456Y317090D01*
X1338991Y317703D02*
X1353843D01*
X1353774Y348403D02*
X1354516Y347662D01*
X1338991Y348403D02*
X1353774D01*
X1353808Y379104D02*
X1354516Y378396D01*
X1338991Y379104D02*
X1353808D01*
X1353588Y409804D02*
X1354262Y409129D01*
X1338991Y409804D02*
X1353588D01*
X1353368Y440504D02*
X1354008Y439864D01*
X1338991Y440504D02*
X1353368D01*
X1353402Y471204D02*
X1354008Y470597D01*
X1338991Y471204D02*
X1353402D01*
X1338991Y501904D02*
X1417992D01*
X1338991Y440470D02*
X1339277Y440184D01*
X1339439Y317697D02*
X1339739Y317397D01*
X1339245Y409736D02*
X1339514Y409467D01*
X1338991Y471204D02*
X1339294Y470901D01*
X1339499Y197138D02*
X1339693Y197332D01*
X1339499Y348268D02*
X1339734Y348032D01*
X1339499Y227872D02*
X1339677Y228050D01*
X1339499Y379002D02*
X1339751Y378750D01*
X1375914Y430037D02*
X1398423D01*
X840627Y243129D02*
X858317D01*
X840170Y242673D02*
X840627Y243129D01*
X858317D02*
X858774Y243586D01*
X367593Y309626D02*
X542584D01*
X583249Y268962D01*
X364400Y314706D02*
X613196D01*
X658687Y269216D01*
X685586Y319786D02*
X736665Y268708D01*
X361493Y319786D02*
X685586D01*
X359389Y324866D02*
X756071D01*
X811976Y268962D01*
X372745Y201930D02*
X438404D01*
X479163Y242689D02*
X496758D01*
X438404Y201930D02*
X479163Y242689D01*
X432863Y-100584D02*
X482792D01*
X457827Y-113284D02*
X482792D01*
X431788Y-114495D02*
X432393Y-113890D01*
X457222D01*
X457827Y-113284D01*
X995426Y189596D02*
Y202058D01*
Y189596D02*
X998082Y186940D01*
X1005993D01*
X1008126Y189074D01*
Y202058D01*
X995426Y189074D02*
Y202058D01*
X993293Y186940D02*
X995426Y189074D01*
X985382Y186940D02*
X993293D01*
X982726Y189596D02*
X985382Y186940D01*
X982726Y189596D02*
Y202058D01*
X916940Y203708D02*
Y288798D01*
X908050Y297688D02*
X916940Y288798D01*
Y203708D02*
X960882Y159766D01*
X353499Y386403D02*
Y477301D01*
Y386403D02*
X393446Y346456D01*
X431986Y366014D02*
X486787D01*
X916940Y310642D02*
X926338Y301244D01*
Y211074D02*
Y301244D01*
Y211074D02*
X966724Y170688D01*
X1028446D01*
X1033526Y175768D01*
Y202058D01*
X973836Y179832D02*
X1018822D01*
X1020826Y181836D01*
Y202058D01*
X960882Y159766D02*
X1039254D01*
X1046226Y166738D02*
Y202058D01*
X1039254Y159766D02*
X1046226Y166738D01*
X340614Y383987D02*
X373126Y351475D01*
X340799Y490001D02*
X353499Y502701D01*
X340614Y490001D02*
X340799D01*
X340614Y383987D02*
Y490001D01*
X400754Y356514D02*
X410786D01*
X373126Y384142D02*
X400754Y356514D01*
X373126Y384142D02*
Y424688D01*
X1064547Y95086D02*
X1067194Y92439D01*
X1053944Y105325D02*
X1064183Y95086D01*
X986113Y105325D02*
X1053944D01*
X1067194Y92075D02*
Y92439D01*
X1064183Y95086D02*
X1064547D01*
X902208Y189230D02*
X986113Y105325D01*
X1128474Y112697D02*
X1149351Y91821D01*
X994489Y112697D02*
X1128474D01*
X911606Y195580D02*
X994489Y112697D01*
X371911Y195580D02*
X911606D01*
X371077Y189230D02*
X902208D01*
X458858Y554856D02*
X458978Y554736D01*
X439674Y554856D02*
X458858D01*
X376794Y553974D02*
X377676Y554856D01*
X423672D01*
X256845Y553974D02*
X257727Y554856D01*
X303724D01*
X136897Y553974D02*
X137779Y554856D01*
X183775D01*
X199777D02*
X208115D01*
X217013Y545958D01*
X18350Y553974D02*
X19232Y554856D01*
X63827D01*
X1046226Y294258D02*
Y338709D01*
X949960Y203708D02*
Y262128D01*
Y203708D02*
X973836Y179832D01*
X503114Y385318D02*
X521016D01*
X498602Y428380D02*
X505900Y435678D01*
X498602Y388112D02*
X500320D01*
X498602D02*
Y428380D01*
X500320Y388112D02*
X503114Y385318D01*
X459169Y375729D02*
Y402146D01*
X459232Y402209D01*
X459169Y375729D02*
X459232Y375666D01*
X325247Y337124D02*
X325628Y336743D01*
X618933Y424115D02*
X619506Y424688D01*
X618933Y407797D02*
Y424115D01*
X562672Y385318D02*
Y393954D01*
X1003300Y19558D02*
X1003808Y19050D01*
Y-4394D02*
Y19050D01*
X1378712Y107188D02*
X1379030Y106870D01*
X1398422D01*
X1339753Y105444D02*
X1339931Y105622D01*
X1336802Y17272D02*
X1337310Y16764D01*
Y-4394D02*
Y16764D01*
X1026033Y314881D02*
Y343916D01*
Y314881D02*
X1033526Y307388D01*
Y294258D02*
Y307388D01*
X1041019Y343916D02*
X1046226Y338709D01*
X1008126Y294258D02*
Y320548D01*
X995299Y294385D02*
X995426Y294258D01*
X995172Y327914D02*
X995299Y327787D01*
Y294385D02*
Y327787D01*
X854813Y97282D02*
X870303D01*
X772543D02*
X788033D01*
X937083D02*
X952573D01*
X763803Y242673D02*
X779293D01*
X687437D02*
X702927D01*
X611070D02*
X626560D01*
X534704D02*
X550194D01*
X1182370Y66040D02*
X1197860D01*
X1097814D02*
X1113304D01*
X1015544D02*
X1031033D01*
X690273Y97282D02*
X705763D01*
X608003D02*
X623493D01*
X525732D02*
X541222D01*
X443462D02*
X458952D01*
X361192D02*
X361446Y97028D01*
X376936D02*
X377190Y96774D01*
X361446Y97028D02*
X376936D01*
X1058926Y343916D02*
X1079500Y364490D01*
X1071626Y336550D02*
X1091184Y356108D01*
X1084326Y331470D02*
X1101259Y348403D01*
X1097026Y326898D02*
X1111504Y341376D01*
X1058926Y294258D02*
Y343916D01*
X1071626Y294258D02*
Y336550D01*
X1084326Y294258D02*
Y331470D01*
X1122426Y320548D02*
X1127760Y325882D01*
X1122426Y294258D02*
Y320548D01*
X1109726Y294258D02*
Y325882D01*
X1117092Y333248D01*
X1097026Y294258D02*
Y326898D01*
X1300468Y325882D02*
X1322989Y348403D01*
X1135126Y309880D02*
X1142949Y317703D01*
X1135126Y294258D02*
Y309880D01*
X1058926Y172974D02*
X1109472Y122428D01*
X1202562D01*
X1058926Y172974D02*
Y202058D01*
X1202562Y122428D02*
X1281065Y43925D01*
X1214628Y133350D02*
X1273353Y74625D01*
X1115822Y133350D02*
X1214628D01*
X1071626Y177546D02*
X1115822Y133350D01*
X1071626Y177546D02*
Y202058D01*
X1135126Y186940D02*
X1141218Y180848D01*
X1178306D01*
X1225584Y228126D01*
X1129538Y161798D02*
X1235964D01*
X1240891Y166725D01*
X1109726Y181610D02*
X1129538Y161798D01*
X1121279Y141986D02*
X1230954D01*
X1084326Y178939D02*
X1121279Y141986D01*
X1230954D02*
X1267615Y105325D01*
X1307122Y151892D02*
X1322989Y136025D01*
X1097026Y180340D02*
X1125474Y151892D01*
X1084326Y178939D02*
Y202058D01*
X1097026Y180340D02*
Y202058D01*
X1109726Y181610D02*
Y202058D01*
X1214374Y170688D02*
X1241112Y197425D01*
X1135888Y170688D02*
X1214374D01*
X1122426Y184150D02*
X1135888Y170688D01*
X1122426Y184150D02*
Y202058D01*
X1165352D02*
X1222120Y258826D01*
X1135126Y186940D02*
Y202058D01*
X1147826D02*
X1165352D01*
X1315734Y294258D02*
X1322989Y287003D01*
X1420570Y50430D02*
X1470632Y368D01*
X1387566Y83434D02*
X1420570Y50430D01*
X1414065Y43925D02*
X1420570Y50430D01*
X1417992Y501904D02*
X1428610Y491286D01*
X1470633Y533309D01*
X1386587Y449263D02*
X1428610Y491286D01*
X1461491Y434037D02*
X1471140Y443686D01*
X1407923Y434037D02*
X1461491D01*
X1458789Y426037D02*
X1471140Y413686D01*
X1407923Y426037D02*
X1458789D01*
X1470256Y383686D02*
X1471140D01*
X1436905Y417037D02*
X1470256Y383686D01*
X1440491Y443037D02*
X1471140Y473686D01*
X1407923Y443037D02*
X1440491D01*
X591312Y396178D02*
X602931Y407797D01*
X574102Y378968D02*
X591312Y396178D01*
X521970Y448564D02*
X538926D01*
X591312Y396178D01*
X562672Y378968D02*
X574102D01*
X394208Y375666D02*
X394360Y375514D01*
X410786D01*
X158300Y373576D02*
X159512Y372364D01*
X102870Y373576D02*
X158300D01*
X512826Y401828D02*
Y412750D01*
X429260Y428498D02*
X443230D01*
X469900Y402336D02*
X493268Y378968D01*
X459105Y402336D02*
X469900D01*
X493268Y378968D02*
X521016D01*
X597502Y378554D02*
X601980D01*
X591312Y372364D02*
X597502Y378554D01*
X562672Y372364D02*
X591312D01*
X598010Y358554D02*
X601980D01*
X590550Y366014D02*
X598010Y358554D01*
X562672Y366014D02*
X590550D01*
X459105Y402336D02*
X459232Y402463D01*
Y428498D01*
X534797Y428752D02*
X535432Y428117D01*
X512826Y428752D02*
X534797D01*
X505900Y435678D02*
X512826Y428752D01*
X505900Y435678D02*
Y477302D01*
X459232Y428498D02*
X480499Y449765D01*
Y477301D01*
X486787Y366014D02*
X487234Y366461D01*
X985246Y92791D02*
X985292Y92837D01*
X974646Y82191D02*
X985246Y92791D01*
X895157Y182880D02*
X985246Y92791D01*
X370242Y182880D02*
X895157D01*
X1398422Y123870D02*
X1454920Y180368D01*
X1457924Y30368D02*
X1470632D01*
X1407922Y110870D02*
X1461134D01*
X1398422Y89870D02*
X1457924Y30368D01*
X1440134Y119870D02*
X1470632Y150368D01*
X1461134Y110870D02*
X1470632Y120368D01*
X1407922Y119870D02*
X1440134D01*
X1407922Y93870D02*
X1437130D01*
X1389054Y98870D02*
X1398422D01*
X1454920Y180368D02*
X1470632D01*
X1387566Y127302D02*
X1470632Y210368D01*
X1389054Y114870D02*
X1398422D01*
X1458130Y102870D02*
X1470632Y90368D01*
X1407922Y102870D02*
X1458130D01*
X1387566Y116358D02*
Y127302D01*
Y83434D02*
Y97382D01*
Y116358D02*
X1389054Y114870D01*
X1437130Y93870D02*
X1470632Y60368D01*
X1387566Y97382D02*
X1389054Y98870D01*
X1398423Y413037D02*
X1458151Y353309D01*
X1398423Y447037D02*
X1454695Y503309D01*
X1407923Y417037D02*
X1436905D01*
X1388075Y422037D02*
X1398423D01*
X1388075Y438037D02*
X1398423D01*
X1386587Y420549D02*
X1388075Y422037D01*
X1386587Y439525D02*
X1388075Y438037D01*
X1386587Y407355D02*
Y420549D01*
Y439525D02*
Y449263D01*
X1354310Y-4394D02*
X1354770D01*
X1458151Y353309D02*
X1470633D01*
X1454695Y503309D02*
X1470633D01*
X1386587Y407355D02*
X1470633Y323309D01*
X1011808Y-4394D02*
Y6132D01*
X1013296Y7620D02*
X1041286D01*
X1011808Y6132D02*
X1013296Y7620D01*
X994320D02*
X995808Y6132D01*
Y-4394D02*
Y6132D01*
X969914Y7620D02*
X994320D01*
X1345310Y5258D02*
X1346798Y6746D01*
X1345310Y-4394D02*
Y5258D01*
X1346798Y6746D02*
X1373630D01*
X1300510D02*
X1327822D01*
X1329310Y-4394D02*
Y5258D01*
X1327822Y6746D02*
X1329310Y5258D01*
X1232070Y-61694D02*
X1300510Y6746D01*
X1373630D02*
X1442070Y-61694D01*
X1354770Y-4394D02*
X1412070Y-61694D01*
X1319370Y-4394D02*
X1320310D01*
X1262070Y-61694D02*
X1319370Y-4394D01*
X1292070Y-61694D02*
X1324310Y-29454D01*
Y-13894D01*
X1350310Y-29934D02*
X1382070Y-61694D01*
X1350310Y-29934D02*
Y-13894D01*
X1341310Y-50934D02*
X1352070Y-61694D01*
X1341310Y-50934D02*
Y-13894D01*
X1322070Y-61694D02*
X1333310Y-50454D01*
Y-13894D01*
X1041286Y7620D02*
X1110600Y-61694D01*
X1020808Y-4394D02*
X1023300D01*
X1080600Y-61694D01*
X900600D02*
X969914Y7620D01*
X930600Y-60602D02*
X986808Y-4394D01*
X930600Y-61694D02*
Y-60602D01*
X960600Y-61694D02*
X990808Y-31486D01*
Y-13894D01*
X1016808Y-27902D02*
X1050600Y-61694D01*
X1016808Y-27902D02*
Y-13894D01*
X1007808Y-48902D02*
X1020600Y-61694D01*
X1007808Y-48902D02*
Y-13894D01*
X990600Y-61694D02*
X999808Y-52486D01*
Y-13894D01*
X363347Y305380D02*
X367593Y309626D01*
X356997Y307303D02*
X364400Y314706D01*
X350647Y308940D02*
X361493Y319786D01*
X344297Y309774D02*
X359389Y324866D01*
X344297Y292669D02*
Y309774D01*
X350647Y292669D02*
Y308940D01*
X356997Y292669D02*
Y307303D01*
X363347Y292669D02*
Y305380D01*
X356997Y329880D02*
Y343982D01*
X337947Y310830D02*
X356997Y329880D01*
X337947Y292669D02*
Y310830D01*
X340614Y325443D02*
Y337124D01*
X331597Y292669D02*
Y316426D01*
X340614Y325443D01*
X325438Y292859D02*
Y325252D01*
X325628Y325443D01*
Y336743D01*
X369408Y176530D02*
X854749D01*
X907200Y124079D01*
X368574Y170180D02*
X779196D01*
X825297Y124079D01*
X367740Y163830D02*
X703644D01*
X743395Y124079D01*
X366906Y157480D02*
X628092D01*
X661493Y124079D01*
X366072Y151130D02*
X552539D01*
X579590Y124079D01*
X365237Y144780D02*
X476987D01*
X497688Y124079D01*
X364403Y138430D02*
X401435D01*
X415786Y124079D01*
X337947Y207991D02*
X369408Y176530D01*
X337947Y207991D02*
Y239969D01*
X325247Y206323D02*
Y239969D01*
Y206323D02*
X367740Y163830D01*
X312547Y204655D02*
Y239969D01*
Y204655D02*
X366072Y151130D01*
X299847Y202986D02*
X364403Y138430D01*
X299847Y202986D02*
Y239969D01*
X306197Y203820D02*
X365237Y144780D01*
X306197Y203820D02*
Y239969D01*
X496758Y259432D02*
X506287Y268962D01*
X496758Y242689D02*
Y259432D01*
X363347Y211328D02*
Y239969D01*
X1139186Y81657D02*
X1149351Y91821D01*
X1139186Y65008D02*
Y81657D01*
X356997Y210494D02*
Y239969D01*
X1056916Y81797D02*
X1067194Y92075D01*
X1056916Y65008D02*
Y81797D01*
X350647Y209660D02*
Y239969D01*
X974646Y65008D02*
Y82191D01*
X344297Y208825D02*
Y239969D01*
X896186Y113065D02*
X907200Y124079D01*
X896186Y96250D02*
Y113065D01*
X402565Y110858D02*
X415786Y124079D01*
X402565Y96250D02*
Y110858D01*
X484835Y111226D02*
X497688Y124079D01*
X484835Y96250D02*
Y111226D01*
X567105Y111594D02*
X579590Y124079D01*
X567105Y96250D02*
Y111594D01*
X649375Y111962D02*
X661493Y124079D01*
X649375Y96250D02*
Y111962D01*
X318897Y205489D02*
Y239969D01*
X731646Y112330D02*
X743395Y124079D01*
X731646Y96250D02*
Y112330D01*
X813916Y112697D02*
X825297Y124079D01*
X813916Y96250D02*
Y112697D01*
X331597Y207157D02*
Y239969D01*
X318897Y205489D02*
X366906Y157480D01*
X331597Y207157D02*
X368574Y170180D01*
X344297Y208825D02*
X370242Y182880D01*
X350647Y209660D02*
X371077Y189230D01*
X356997Y210494D02*
X371911Y195580D01*
X363347Y211328D02*
X372745Y201930D01*
X333652Y124079D02*
X333884D01*
X293497Y164234D02*
X333652Y124079D01*
X293497Y164234D02*
Y239969D01*
X349885Y123444D02*
X361192Y112137D01*
X320294Y110490D02*
X333884Y124079D01*
X320294Y97757D02*
Y110490D01*
X361192Y97282D02*
Y112137D01*
X840170Y242673D02*
Y256770D01*
X827978Y268962D02*
X840170Y256770D01*
X802224Y259209D02*
X811976Y268962D01*
X802224Y242689D02*
Y259209D01*
X763803Y242673D02*
Y257571D01*
X752667Y268708D02*
X763803Y257571D01*
X725857Y257900D02*
X736665Y268708D01*
X725857Y242689D02*
Y257900D01*
X687437Y242673D02*
Y256468D01*
X674689Y269216D02*
X687437Y256468D01*
X649491Y260019D02*
X658687Y269216D01*
X649491Y242689D02*
Y260019D01*
X611070Y242673D02*
Y257142D01*
X599251Y268962D02*
X611070Y257142D01*
X573125Y258837D02*
X583249Y268962D01*
X573125Y242689D02*
Y258837D01*
X534704Y242673D02*
Y256547D01*
X522289Y268962D02*
X534704Y256547D01*
X1180084Y66040D02*
Y77090D01*
X1165352Y91821D02*
X1180084Y77090D01*
X1097814Y66040D02*
Y77457D01*
X1083196Y92075D02*
X1097814Y77457D01*
X1015544Y66040D02*
Y78587D01*
X1001294Y92837D02*
X1015544Y78587D01*
X937083Y97282D02*
Y110197D01*
X923202Y124079D02*
X937083Y110197D01*
X854813Y97282D02*
Y110565D01*
X841299Y124079D02*
X854813Y110565D01*
X772543Y97282D02*
Y110933D01*
X759397Y124079D02*
X772543Y110933D01*
X690273Y97282D02*
Y111301D01*
X677495Y124079D02*
X690273Y111301D01*
X608003Y97282D02*
Y111669D01*
X595592Y124079D02*
X608003Y111669D01*
X525732Y97282D02*
Y112037D01*
X513690Y124079D02*
X525732Y112037D01*
X443462Y97282D02*
Y112404D01*
X431788Y124079D02*
X443462Y112404D01*
X560578Y-113284D02*
X578950D01*
X532192D02*
X560578D01*
X668128Y-151638D02*
X724770Y-94996D01*
X580136Y-151638D02*
X668128D01*
X560578Y-132080D02*
X580136Y-151638D01*
X560578Y-132080D02*
Y-113284D01*
X601218Y-94996D02*
X674770D01*
X595630Y-100584D02*
X601218Y-94996D01*
X578950Y-113284D02*
X582828Y-117162D01*
X601828D02*
Y-106782D01*
X532192Y-100584D02*
X595630D01*
X601828Y-106782D01*
X532192Y-61430D02*
X534694Y-58928D01*
X532192Y-87884D02*
Y-61430D01*
X431788Y-99509D02*
X432863Y-100584D01*
X226822Y-111701D02*
Y-103378D01*
X233934Y-96266D02*
X251586D01*
X226822Y-103378D02*
X233934Y-96266D01*
X233231Y-118110D02*
X393954D01*
X226822Y-111701D02*
X233231Y-118110D01*
X401828Y-125984D02*
X482792D01*
X393954Y-118110D02*
X401828Y-125984D01*
X415786Y-87884D02*
X482792D01*
X394704Y-108966D02*
X415786Y-87884D01*
X251586Y-108966D02*
X394704D01*
X307594Y-63500D02*
X315341Y-55753D01*
X346456D01*
X304970Y127D02*
X346456D01*
X284777Y-20066D02*
X304970Y127D01*
X307594Y-74678D02*
Y-63500D01*
Y-56896D01*
X283464Y-32766D02*
X307594Y-56896D01*
X251586Y-32766D02*
X283464D01*
X251586Y-20066D02*
X284777D01*
X84074Y-96266D02*
X98679D01*
X133096Y-108966D02*
X159386D01*
X127381D02*
X133096D01*
X132969Y-133731D02*
X133096Y-133604D01*
X117602Y-133731D02*
X132969D01*
X117602Y-118745D02*
X127381Y-108966D01*
X114681Y-96266D02*
X159386D01*
X248447Y477301D02*
X251898D01*
X229616Y458470D02*
X248447Y477301D01*
X229616Y124714D02*
Y458470D01*
X219964Y124714D02*
Y395732D01*
X116332Y11430D02*
X229616Y124714D01*
X210312Y125222D02*
Y410210D01*
X239014Y124714D02*
Y453136D01*
X238760Y453390D02*
X239014Y453136D01*
X96520Y11430D02*
X210312Y125222D01*
X213868Y455676D02*
Y509778D01*
X220980Y516890D02*
X237708D01*
X213868Y509778D02*
X220980Y516890D01*
X237708D02*
X251898Y502701D01*
X197358Y439166D02*
X213868Y455676D01*
X197358Y125730D02*
Y439166D01*
X85852Y14224D02*
X197358Y125730D01*
X85852Y-49530D02*
Y14224D01*
Y-49530D02*
X119888Y-83566D01*
X159386D01*
X268986Y317180D02*
Y402336D01*
Y317180D02*
X293497Y292669D01*
X302699Y325443D02*
X318897Y309245D01*
X302699Y325443D02*
Y442029D01*
X289998Y454730D02*
X302699Y442029D01*
X340614Y360365D02*
X356997Y343982D01*
X325247Y292669D02*
X325438Y292859D01*
X318897Y292669D02*
Y309245D01*
X312547Y292669D02*
Y306180D01*
X295112Y323615D02*
Y434086D01*
Y323615D02*
X312547Y306180D01*
X288163Y321945D02*
Y422021D01*
Y321945D02*
X306197Y303911D01*
Y292669D02*
Y303911D01*
X299704Y292812D02*
Y302784D01*
X281940Y320548D02*
Y410210D01*
X299704Y292812D02*
X299847Y292669D01*
X281940Y320548D02*
X299704Y302784D01*
X272038Y490000D02*
X284954D01*
X289998Y454730D02*
Y484956D01*
X284954Y490000D02*
X289998Y484956D01*
X226498Y502700D02*
X239198Y490001D01*
X272037D01*
X272038Y490000D01*
X251898Y477301D02*
X295112Y434086D01*
X254762Y455422D02*
X288163Y422021D01*
X258064Y434086D02*
X281940Y410210D01*
X124714Y-70866D02*
X159386D01*
X96520Y-42672D02*
X124714Y-70866D01*
X128270Y-58166D02*
X159386D01*
X106680Y-36576D02*
X128270Y-58166D01*
X116332Y-31877D02*
X129921Y-45466D01*
X159386D01*
X130302Y-32766D02*
X159386D01*
X125730Y-28194D02*
X130302Y-32766D01*
X106680Y11430D02*
X219964Y124714D01*
X125730Y11430D02*
X239014Y124714D01*
X125730Y-28194D02*
Y11430D01*
X116332Y-31877D02*
Y11430D01*
X96520Y-42672D02*
Y11430D01*
X106680Y-36576D02*
Y11430D01*
X487234Y366461D02*
X487681Y366014D01*
X521016D01*
X349885Y123444D02*
Y124587D01*
D17*
X1081300Y453000D02*
D03*
X1012700D02*
D03*
D18*
X1198626Y425891D02*
D03*
Y409888D02*
D03*
X1226552Y425891D02*
D03*
Y409888D02*
D03*
X611070Y242673D02*
D03*
Y226670D02*
D03*
X687437Y242673D02*
D03*
Y226670D02*
D03*
X763803Y242673D02*
D03*
Y226670D02*
D03*
X840170Y242673D02*
D03*
Y226670D02*
D03*
X1180084Y66040D02*
D03*
Y50038D02*
D03*
X1097814Y66040D02*
D03*
Y50038D02*
D03*
X361192Y97282D02*
D03*
Y81280D02*
D03*
X534704Y242673D02*
D03*
Y226670D02*
D03*
X1015544Y66040D02*
D03*
Y50038D02*
D03*
X937083Y97282D02*
D03*
Y81280D02*
D03*
X854813Y97282D02*
D03*
Y81280D02*
D03*
X772543Y97282D02*
D03*
Y81280D02*
D03*
X690273Y97282D02*
D03*
Y81280D02*
D03*
X608003Y97282D02*
D03*
Y81280D02*
D03*
X525732Y97282D02*
D03*
Y81280D02*
D03*
X443462Y97282D02*
D03*
Y81280D02*
D03*
X512826Y412750D02*
D03*
Y428752D02*
D03*
X1141750Y502001D02*
D03*
Y485999D02*
D03*
D19*
X439674Y554856D02*
D03*
X423672D02*
D03*
X319725D02*
D03*
X303724D02*
D03*
X199777D02*
D03*
X183775D02*
D03*
X79829D02*
D03*
X63827D02*
D03*
X431788Y124079D02*
D03*
X415786D02*
D03*
X513690D02*
D03*
X497688D02*
D03*
X595592D02*
D03*
X579590D02*
D03*
X677495D02*
D03*
X661493D02*
D03*
X759397D02*
D03*
X743395D02*
D03*
X841299D02*
D03*
X825297D02*
D03*
X923202D02*
D03*
X907200D02*
D03*
X1001294Y92837D02*
D03*
X985292D02*
D03*
X1083196Y92075D02*
D03*
X1067194D02*
D03*
X1165352Y91821D02*
D03*
X1149351D02*
D03*
X349885Y124079D02*
D03*
X333884D02*
D03*
X522289Y268962D02*
D03*
X506287D02*
D03*
X1322989Y43925D02*
D03*
X1338991D02*
D03*
X1322989Y228126D02*
D03*
X1338991D02*
D03*
X1322989Y258826D02*
D03*
X1338991D02*
D03*
X1322989Y105325D02*
D03*
X1338991D02*
D03*
X1322989Y197425D02*
D03*
X1338991D02*
D03*
X1322989Y166725D02*
D03*
X1338991D02*
D03*
X1322989Y136025D02*
D03*
X1338991D02*
D03*
X1322989Y74625D02*
D03*
X1338991D02*
D03*
X1322989Y501904D02*
D03*
X1338991D02*
D03*
X1322989Y471204D02*
D03*
X1338991D02*
D03*
X1322989Y440504D02*
D03*
X1338991D02*
D03*
X1322989Y409804D02*
D03*
X1338991D02*
D03*
X1322989Y379104D02*
D03*
X1338991D02*
D03*
X1322989Y348403D02*
D03*
X1338991D02*
D03*
X1322989Y317703D02*
D03*
X1338991D02*
D03*
X1322989Y287003D02*
D03*
X1338991D02*
D03*
X443230Y428498D02*
D03*
X459232D02*
D03*
X618933Y407797D02*
D03*
X602931D02*
D03*
X760001Y-37750D02*
D03*
X743999D02*
D03*
X98679Y-96266D02*
D03*
X114681D02*
D03*
X534694Y-58928D02*
D03*
X550696D02*
D03*
X599251Y268962D02*
D03*
X583249D02*
D03*
X674689Y269216D02*
D03*
X658687D02*
D03*
X752667Y268708D02*
D03*
X736665D02*
D03*
X827978Y268962D02*
D03*
X811976D02*
D03*
D20*
X364794Y553974D02*
D03*
X376794D02*
D03*
X244845D02*
D03*
X256845D02*
D03*
X124897D02*
D03*
X136897D02*
D03*
X6350D02*
D03*
X18350D02*
D03*
D21*
X1407923Y417037D02*
D03*
Y426037D02*
D03*
Y434037D02*
D03*
Y443037D02*
D03*
X1398423Y413037D02*
D03*
Y422037D02*
D03*
Y438037D02*
D03*
Y430037D02*
D03*
Y447037D02*
D03*
X1407922Y93870D02*
D03*
Y102870D02*
D03*
Y110870D02*
D03*
Y119870D02*
D03*
X1398422Y89870D02*
D03*
Y98870D02*
D03*
Y114870D02*
D03*
Y106870D02*
D03*
Y123870D02*
D03*
D22*
X346456Y-14859D02*
D03*
Y127D02*
D03*
X573125Y227703D02*
D03*
Y242689D02*
D03*
X649491Y227703D02*
D03*
Y242689D02*
D03*
X725857Y227703D02*
D03*
Y242689D02*
D03*
X802224Y227703D02*
D03*
Y242689D02*
D03*
X896186Y81264D02*
D03*
Y96250D02*
D03*
X484835Y81264D02*
D03*
Y96250D02*
D03*
X974646Y50022D02*
D03*
Y65008D02*
D03*
X320294Y81264D02*
D03*
Y96250D02*
D03*
X813916Y81264D02*
D03*
Y96250D02*
D03*
X402565Y81264D02*
D03*
Y96250D02*
D03*
X649375Y81264D02*
D03*
Y96250D02*
D03*
X731646Y81264D02*
D03*
Y96250D02*
D03*
X567105Y81264D02*
D03*
Y96250D02*
D03*
X1056916Y50022D02*
D03*
Y65008D02*
D03*
X1139186Y50022D02*
D03*
Y65008D02*
D03*
X496758Y227703D02*
D03*
Y242689D02*
D03*
X535432Y413131D02*
D03*
Y428117D02*
D03*
X487234Y351475D02*
D03*
Y366461D02*
D03*
X117602Y-133731D02*
D03*
Y-118745D02*
D03*
X431788Y-99509D02*
D03*
Y-114495D02*
D03*
X346456Y-55753D02*
D03*
Y-40767D02*
D03*
D23*
X990808Y-13894D02*
D03*
X999808D02*
D03*
X1007808D02*
D03*
X1016808D02*
D03*
X986808Y-4394D02*
D03*
X995808D02*
D03*
X1011808D02*
D03*
X1003808D02*
D03*
X1020808D02*
D03*
X1324310Y-13894D02*
D03*
X1333310D02*
D03*
X1341310D02*
D03*
X1350310D02*
D03*
X1320310Y-4394D02*
D03*
X1329310D02*
D03*
X1345310D02*
D03*
X1337310D02*
D03*
X1354310D02*
D03*
D24*
X431986Y366014D02*
D03*
X410786Y356514D02*
D03*
Y375514D02*
D03*
D25*
X102870Y373576D02*
D03*
Y80576D02*
D03*
D26*
X307594Y-74678D02*
D03*
Y20322D02*
D03*
D27*
X293497Y239969D02*
D03*
X299847D02*
D03*
X306197D02*
D03*
X312547D02*
D03*
X318897D02*
D03*
X325247D02*
D03*
X331597D02*
D03*
X337947D02*
D03*
X344297D02*
D03*
X350647D02*
D03*
X356997D02*
D03*
X363347D02*
D03*
Y292669D02*
D03*
X356997D02*
D03*
X350647D02*
D03*
X344297D02*
D03*
X337947D02*
D03*
X331597D02*
D03*
X325247D02*
D03*
X318897D02*
D03*
X312547D02*
D03*
X306197D02*
D03*
X299847D02*
D03*
X293497D02*
D03*
D28*
X325628Y360365D02*
D03*
X340614D02*
D03*
X340614Y337124D02*
D03*
X325628D02*
D03*
X1026033Y343916D02*
D03*
X1041019D02*
D03*
X444119Y402336D02*
D03*
X459105D02*
D03*
X774815Y418592D02*
D03*
X759828D02*
D03*
X774815Y443230D02*
D03*
X759828D02*
D03*
X863727Y443484D02*
D03*
X878713D02*
D03*
D29*
X1147826Y202058D02*
D03*
X1135126D02*
D03*
X1122426D02*
D03*
X1109726D02*
D03*
X1097026D02*
D03*
X1084326D02*
D03*
X1071626D02*
D03*
X1058926D02*
D03*
X1046226D02*
D03*
X1033526D02*
D03*
X1020826D02*
D03*
X1008126D02*
D03*
X995426D02*
D03*
X982726D02*
D03*
Y294258D02*
D03*
X995426D02*
D03*
X1008126D02*
D03*
X1020826D02*
D03*
X1033526D02*
D03*
X1046226D02*
D03*
X1058926D02*
D03*
X1071626D02*
D03*
X1084326D02*
D03*
X1097026D02*
D03*
X1109726D02*
D03*
X1122426D02*
D03*
X1135126D02*
D03*
X1147826D02*
D03*
D30*
X562672Y366014D02*
D03*
Y372364D02*
D03*
Y378968D02*
D03*
Y385318D02*
D03*
X521016D02*
D03*
Y378968D02*
D03*
Y372364D02*
D03*
Y366014D02*
D03*
D31*
X601980Y358554D02*
D03*
Y378554D02*
D03*
D32*
X532192Y-87884D02*
D03*
Y-100584D02*
D03*
Y-113284D02*
D03*
Y-125984D02*
D03*
X482792D02*
D03*
Y-113284D02*
D03*
Y-100584D02*
D03*
Y-87884D02*
D03*
D33*
X856490Y409448D02*
D03*
X888490D02*
D03*
D34*
X1141750Y452522D02*
D03*
Y409021D02*
D03*
D35*
X159386Y-108966D02*
D03*
Y-96266D02*
D03*
Y-83566D02*
D03*
Y-70866D02*
D03*
Y-58166D02*
D03*
Y-45466D02*
D03*
Y-32766D02*
D03*
Y-20066D02*
D03*
Y-7366D02*
D03*
X251586D02*
D03*
Y-20066D02*
D03*
Y-32766D02*
D03*
Y-45466D02*
D03*
Y-58166D02*
D03*
Y-70866D02*
D03*
Y-83566D02*
D03*
Y-96266D02*
D03*
Y-108966D02*
D03*
D36*
X601828Y-117162D02*
D03*
X582828D02*
D03*
X592328Y-138362D02*
D03*
D75*
X1116094Y407720D02*
X1117395Y409021D01*
X1141750D01*
X1036212Y516703D02*
X1036279Y516636D01*
X1036212Y516703D02*
Y536448D01*
X1034785Y553608D02*
X1036212Y552181D01*
Y536448D02*
Y552181D01*
X993685Y452993D02*
X993692Y453000D01*
X1012700D01*
X294539Y516207D02*
X302699Y508047D01*
Y502701D02*
Y508047D01*
X480297Y520835D02*
X480499Y520633D01*
Y502701D02*
Y520633D01*
X429386Y460830D02*
X429699Y461143D01*
Y477301D01*
X47429Y458470D02*
X48699Y459740D01*
Y477301D01*
X175099Y521089D02*
X175698Y520490D01*
Y502700D02*
Y520490D01*
X124898Y502700D02*
Y521089D01*
X834502Y409448D02*
X856490D01*
X888490D02*
X918217D01*
D76*
X1086495Y536165D02*
X1107586D01*
X1086212Y536448D02*
X1086495Y536165D01*
X1107586D02*
X1137626Y506125D01*
X1141750Y452522D02*
Y481500D01*
X1141272Y453000D02*
X1141750Y452522D01*
X1081300Y453000D02*
X1141272D01*
X505900Y502702D02*
Y528574D01*
X531299Y502701D02*
Y532453D01*
D77*
X856977Y485616D02*
Y524158D01*
X780669Y487280D02*
Y520835D01*
X780542Y503428D02*
Y520708D01*
X780669Y520835D01*
X805942Y487280D02*
Y503428D01*
Y519565D01*
X807212Y520835D01*
X831342Y486205D02*
Y503428D01*
Y519869D01*
X830072Y521139D02*
X831342Y519869D01*
X856742Y503428D02*
Y523923D01*
X856977Y524158D01*
X729742Y486886D02*
Y503428D01*
Y520033D01*
X728472Y521303D02*
X729742Y520033D01*
Y486886D02*
X731012Y485616D01*
X704342D02*
Y503428D01*
Y525139D01*
X704404Y525201D01*
X755142Y488668D02*
Y503428D01*
Y521131D01*
X755314Y521303D01*
X932994Y483654D02*
Y521191D01*
X882254Y486205D02*
Y521303D01*
X908050Y489247D02*
Y519956D01*
X882142Y503428D02*
Y521191D01*
X882254Y521303D01*
X907542Y503428D02*
Y519448D01*
X908050Y519956D01*
X906881Y488078D02*
X908050Y489247D01*
X882254Y486205D02*
X882843Y485616D01*
X932942Y521139D02*
X932994Y521191D01*
X932942Y503428D02*
Y521139D01*
D78*
X328098Y409866D02*
Y477300D01*
D79*
X788287Y-83566D02*
D03*
D80*
Y-108966D02*
D03*
Y-134366D02*
D03*
D81*
X1226552Y559836D02*
D03*
X1543832Y188868D02*
D03*
Y21868D02*
D03*
X1543833Y511809D02*
D03*
Y344809D02*
D03*
X1420570Y-134894D02*
D03*
X1253570D02*
D03*
X1089100D02*
D03*
X922100D02*
D03*
D82*
X1211552Y516636D02*
D03*
D83*
X1241552D02*
D03*
X1211552Y486636D02*
D03*
X1241552D02*
D03*
D84*
X1500632Y210368D02*
D03*
X1500633Y533309D02*
D03*
D85*
X1500632Y180368D02*
D03*
Y150368D02*
D03*
Y120368D02*
D03*
Y90368D02*
D03*
Y60368D02*
D03*
Y30368D02*
D03*
Y368D02*
D03*
X1470632Y210368D02*
D03*
Y180368D02*
D03*
Y150368D02*
D03*
Y120368D02*
D03*
Y60368D02*
D03*
Y30368D02*
D03*
Y368D02*
D03*
Y90368D02*
D03*
X1500633Y503309D02*
D03*
Y473309D02*
D03*
Y443309D02*
D03*
Y413309D02*
D03*
Y383309D02*
D03*
Y353309D02*
D03*
Y323309D02*
D03*
X1470633Y533309D02*
D03*
Y503309D02*
D03*
Y473309D02*
D03*
Y443309D02*
D03*
Y383309D02*
D03*
Y353309D02*
D03*
Y323309D02*
D03*
Y413309D02*
D03*
X1412070Y-91694D02*
D03*
X1382070D02*
D03*
X1352070D02*
D03*
X1322070D02*
D03*
X1292070D02*
D03*
X1262070D02*
D03*
X1232070D02*
D03*
X1442070Y-61694D02*
D03*
X1412070D02*
D03*
X1382070D02*
D03*
X1352070D02*
D03*
X1292070D02*
D03*
X1262070D02*
D03*
X1232070D02*
D03*
X1322070D02*
D03*
X1080600Y-91694D02*
D03*
X1050600D02*
D03*
X1020600D02*
D03*
X990600D02*
D03*
X960600D02*
D03*
X930600D02*
D03*
X900600D02*
D03*
X1110600Y-61694D02*
D03*
X1080600D02*
D03*
X1050600D02*
D03*
X1020600D02*
D03*
X960600D02*
D03*
X930600D02*
D03*
X900600D02*
D03*
X990600D02*
D03*
D86*
X1442070Y-91694D02*
D03*
X1110600D02*
D03*
D87*
X1374648Y546608D02*
D03*
X1525524Y-118364D02*
D03*
X9144D02*
D03*
D88*
X1086212Y536448D02*
D03*
X674770Y-94996D02*
D03*
D89*
X1036212Y536448D02*
D03*
X724770Y-94996D02*
D03*
D90*
X0Y-254D02*
D03*
X580000Y489746D02*
D03*
Y-254D02*
D03*
X0Y490000D02*
D03*
D91*
X678942Y503428D02*
D03*
X704342D02*
D03*
X729742D02*
D03*
X755142D02*
D03*
X780542D02*
D03*
X805942D02*
D03*
X831342D02*
D03*
X856742D02*
D03*
X882142D02*
D03*
X907542D02*
D03*
X932942D02*
D03*
D92*
X958342D02*
D03*
D93*
X378899Y477301D02*
D03*
Y502701D02*
D03*
X404298Y477302D02*
D03*
Y502702D02*
D03*
X429699Y477301D02*
D03*
Y502701D02*
D03*
X455100Y502702D02*
D03*
Y477302D02*
D03*
X480499Y502701D02*
D03*
Y477301D02*
D03*
X505900Y502702D02*
D03*
Y477302D02*
D03*
X531299Y502701D02*
D03*
X226498Y477300D02*
D03*
Y502700D02*
D03*
X251898Y477301D02*
D03*
Y502701D02*
D03*
X277298Y477300D02*
D03*
Y502700D02*
D03*
X302699Y502701D02*
D03*
Y477301D02*
D03*
X328098Y502700D02*
D03*
Y477300D02*
D03*
X353499Y502701D02*
D03*
Y477301D02*
D03*
X74098Y477300D02*
D03*
Y502700D02*
D03*
X99498Y477301D02*
D03*
Y502701D02*
D03*
X124898Y477300D02*
D03*
Y502700D02*
D03*
X150299Y502701D02*
D03*
Y477301D02*
D03*
X175698Y502700D02*
D03*
Y477300D02*
D03*
X201099Y502701D02*
D03*
Y477301D02*
D03*
X48699Y502701D02*
D03*
Y477301D02*
D03*
D94*
X531299D02*
D03*
D95*
X1214750Y449263D02*
D03*
X1018822Y382250D02*
D03*
X1046226Y372000D02*
D03*
X984922Y455114D02*
D03*
X818354Y473614D02*
D03*
X816906Y531704D02*
D03*
X58414Y456313D02*
D03*
X124898Y521089D02*
D03*
X284954Y524445D02*
D03*
X175099Y521089D02*
D03*
X409365Y251259D02*
D03*
X222621Y570005D02*
D03*
X482710Y544706D02*
D03*
X482847Y556474D02*
D03*
X790956Y430022D02*
D03*
X846582Y435102D02*
D03*
X1354770Y136025D02*
D03*
X1354516Y197239D02*
D03*
Y227973D02*
D03*
X1354008Y470597D02*
D03*
X1354262Y166759D02*
D03*
X1354516Y378396D02*
D03*
Y347662D02*
D03*
X1354456Y317090D02*
D03*
X1354008Y439864D02*
D03*
X1354262Y409129D02*
D03*
X1375914Y149408D02*
D03*
Y457454D02*
D03*
Y430037D02*
D03*
X719957Y346710D02*
D03*
X1381760Y392433D02*
D03*
Y362713D02*
D03*
Y331470D02*
D03*
X1375914Y211582D02*
D03*
Y181194D02*
D03*
X844042Y-76454D02*
D03*
X804164Y50800D02*
D03*
X729996Y28956D02*
D03*
X625168Y-27940D02*
D03*
X662380Y13700D02*
D03*
X858774Y243586D02*
D03*
X346456Y-28194D02*
D03*
X271526Y-7391D02*
D03*
X457827Y-100584D02*
D03*
Y-113284D02*
D03*
X314454Y438996D02*
D03*
X400074Y444601D02*
D03*
X350647Y553974D02*
D03*
X109213Y555370D02*
D03*
X-9247Y553974D02*
D03*
X314454Y384142D02*
D03*
X1530350Y263906D02*
D03*
X1422400Y542252D02*
D03*
X518150Y214512D02*
D03*
X1422400Y304800D02*
D03*
X1168400Y0D02*
D03*
X1016000Y508000D02*
D03*
X660400Y406400D02*
D03*
X558800D02*
D03*
X508000Y101600D02*
D03*
X304800D02*
D03*
X254000Y406400D02*
D03*
Y203200D02*
D03*
X152400Y406400D02*
D03*
X101600Y304800D02*
D03*
X152400Y203200D02*
D03*
X101600Y101600D02*
D03*
X50800Y406400D02*
D03*
X0Y304800D02*
D03*
X50800Y203200D02*
D03*
X0Y101600D02*
D03*
X50800Y0D02*
D03*
X908050Y297688D02*
D03*
X393446Y346456D02*
D03*
X916940Y310642D02*
D03*
X373126Y351475D02*
D03*
X458978Y554736D02*
D03*
X217013Y545958D02*
D03*
X949960Y262128D02*
D03*
X498602Y388112D02*
D03*
X459232Y375666D02*
D03*
X328098Y409866D02*
D03*
X373126Y424688D02*
D03*
X1373630Y74625D02*
D03*
X619506Y424688D02*
D03*
X1003300Y19558D02*
D03*
X1378712Y107188D02*
D03*
X1357376Y105918D02*
D03*
X1336802Y17272D02*
D03*
X627913Y-125984D02*
D03*
X1046099Y324993D02*
D03*
X1025906Y326009D02*
D03*
X1008126Y320548D02*
D03*
X995172Y327914D02*
D03*
X788287Y97028D02*
D03*
X870557D02*
D03*
X952827D02*
D03*
X779547Y242418D02*
D03*
X703181D02*
D03*
X626814D02*
D03*
X550448D02*
D03*
X1198114Y65786D02*
D03*
X1113558D02*
D03*
X1031288D02*
D03*
X706017Y97028D02*
D03*
X623747D02*
D03*
X541476D02*
D03*
X459206D02*
D03*
X377190Y96774D02*
D03*
X521970Y448564D02*
D03*
X394208Y375666D02*
D03*
X159512Y372364D02*
D03*
X512826Y401828D02*
D03*
X429260Y428498D02*
D03*
X340614Y325443D02*
D03*
X325628D02*
D03*
X84074Y-96266D02*
D03*
X133096Y-108966D02*
D03*
Y-133604D02*
D03*
X238760Y453390D02*
D03*
X219964Y395732D02*
D03*
X268986Y402336D02*
D03*
X210312Y410210D02*
D03*
X254762Y455422D02*
D03*
X258064Y434086D02*
D03*
M02*
